<?xml version="1.0" encoding="UTF-8"?>
<svg width="40px" height="40px" viewBox="0 0 40 40" version="1.1" xmlns="http://www.w3.org/2000/svg" xmlns:xlink="http://www.w3.org/1999/xlink">
    <!-- Generator: sketchtool 47.1 (45422) - http://www.bohemiancoding.com/sketch -->
    <title>6AC701AA-187D-4E9C-AE4D-FDC81941BCF5</title>
    <desc>Created with sketchtool.</desc>
    <defs></defs>
    <g id="Symbols" stroke="none" stroke-width="1" fill="none" fill-rule="evenodd">
        <g id="Original-Icons/weather-heavy-rain">
            <g id="Group">
                <rect id="Rectangle" x="0" y="0" width="40" height="40"></rect>
                <path d="M22.8857,28.8462 C23.3227,29.1152 23.4397,29.6582 23.1477,30.0602 L20.0537,34.3102 C19.8697,34.5622 19.5687,34.6992 19.2607,34.6992 C19.0787,34.6992 18.8947,34.6512 18.7317,34.5512 C18.2947,34.2832 18.1777,33.7402 18.4687,33.3372 L21.5637,29.0872 C21.8557,28.6852 22.4487,28.5782 22.8857,28.8462 Z M31.8857,28.8462 C32.3227,29.1152 32.4397,29.6582 32.1477,30.0602 L29.0537,34.3102 C28.8707,34.5622 28.5687,34.6992 28.2607,34.6992 C28.0787,34.6992 27.8947,34.6512 27.7317,34.5512 C27.2947,34.2832 27.1777,33.7402 27.4687,33.3372 L30.5637,29.0872 C30.8567,28.6852 31.4487,28.5782 31.8857,28.8462 Z M14.8852,28.8462 C15.3222,29.1152 15.4402,29.6582 15.1482,30.0602 L12.0532,34.3102 C11.8702,34.5622 11.5682,34.6992 11.2602,34.6992 C11.0782,34.6992 10.8942,34.6512 10.7312,34.5512 C10.2942,34.2832 10.1772,33.7402 10.4692,33.3372 L13.5632,29.0872 C13.8562,28.6852 14.4482,28.5782 14.8852,28.8462 Z M35.3081,19.9194 C35.3081,22.2974 33.4121,24.2244 31.0211,24.3824 L33.5781,20.0004 L30.7831,20.0004 L31.7831,15.9994 L25.0361,15.9994 L23.1231,24.4124 L14.6281,24.4124 L14.6281,24.3984 C14.5321,24.4024 14.4381,24.4124 14.3411,24.4124 C11.0091,24.4124 8.3081,21.7724 8.3081,18.5154 C8.3081,18.2954 8.3231,18.0804 8.3471,17.8674 L14.8341,17.8674 C16.4411,17.8674 17.7481,16.5524 17.7481,14.9354 C17.7481,13.6424 16.9121,12.5414 15.7561,12.1514 C15.6471,11.5624 15.4181,11.0174 15.1081,10.5284 C16.6701,8.3974 19.2091,7.0004 22.0961,7.0004 C26.8551,7.0004 30.7131,10.7724 30.7131,15.4254 C33.2511,15.4254 35.3081,17.4384 35.3081,19.9194 Z M14.834,13.0014 C15.891,13.0014 16.749,13.8664 16.749,14.9354 C16.749,16.0024 15.891,16.8674 14.834,16.8674 L8.013,16.8674 C6.625,16.8674 5.5,15.7314 5.5,14.3304 C5.5,12.9804 6.543,11.8814 7.86,11.8004 C8.351,10.3894 9.679,9.3764 11.244,9.3764 C13.227,9.3764 14.834,10.9994 14.834,13.0014 Z M25.834,16.9995 L30.502,16.9995 L29.502,21.0005 L31.836,21.0005 L26.001,31.0055 L26.501,24.3355 L24.167,24.3355 L25.834,16.9995 Z" id="Combined-Shape" fill="#FFFFFF"></path>
            </g>
        </g>
    </g>
</svg>