<?xml version="1.0" encoding="UTF-8"?>
<svg width="40px" height="40px" viewBox="0 0 40 40" version="1.1" xmlns="http://www.w3.org/2000/svg" xmlns:xlink="http://www.w3.org/1999/xlink">
    <!-- Generator: sketchtool 47.1 (45422) - http://www.bohemiancoding.com/sketch -->
    <title>08097DCD-A54F-4508-9228-B6B5533F0D41</title>
    <desc>Created with sketchtool.</desc>
    <defs></defs>
    <g id="Symbols" stroke="none" stroke-width="1" fill="none" fill-rule="evenodd">
        <g id="Original-Icons/weather-sun-rain">
            <g id="Group">
                <rect id="Rectangle" x="0" y="0" width="40" height="40"></rect>
                <path d="M23.7653,7.8591 C23.4873,7.8721 23.2313,7.7691 23.0403,7.5931 C22.8503,7.4181 22.7273,7.1701 22.7143,6.8891 L22.5893,4.0601 C22.5643,3.5001 22.9943,3.0251 23.5503,3.0011 C24.1053,2.9761 24.5753,3.4111 24.6003,3.9711 L24.7253,6.7991 C24.7503,7.3611 24.3203,7.8361 23.7653,7.8591 Z M17.4128,10.2468 L15.3438,8.3338 C14.9338,7.9548 14.9048,7.3118 15.2808,6.8978 C15.4678,6.6908 15.7208,6.5808 15.9778,6.5688 C16.2358,6.5588 16.4968,6.6448 16.7018,6.8348 L18.7708,8.7478 C19.1818,9.1268 19.2098,9.7688 18.8348,10.1838 C18.4598,10.5978 17.8228,10.6258 17.4128,10.2468 Z M30.3034,9.6755 C29.9284,10.0895 29.2914,10.1175 28.8824,9.7375 C28.6764,9.5485 28.5664,9.2925 28.5554,9.0335 C28.5434,8.7735 28.6304,8.5095 28.8184,8.3025 L30.7104,6.2145 C31.0854,5.8005 31.7214,5.7725 32.1324,6.1525 C32.5424,6.5305 32.5704,7.1735 32.1964,7.5875 L30.3034,9.6755 Z M34.9489,13.5349 C35.5049,13.5109 35.9739,13.9449 35.9989,14.5059 C36.0239,15.0659 35.5949,15.5409 35.0389,15.5649 L32.2379,15.6889 C31.6819,15.7139 31.2119,15.2789 31.1869,14.7189 C31.1749,14.4379 31.2759,14.1799 31.4499,13.9869 C31.6239,13.7959 31.8699,13.6709 32.1479,13.6589 L34.9489,13.5349 Z M30.7526,19.8201 L32.8216,21.7321 C33.2316,22.1121 33.2606,22.7551 32.8856,23.1691 C32.5106,23.5821 31.8746,23.6101 31.4636,23.2311 L29.3946,21.3191 C28.9846,20.9401 28.9556,20.2971 29.3316,19.8831 C29.5186,19.6761 29.7716,19.5661 30.0286,19.5541 C30.2866,19.5431 30.5476,19.6311 30.7526,19.8201 Z M9.1491,30.783 C9.5531,31.031 9.6611,31.533 9.3911,31.904 L6.5351,35.828 C6.3651,36.061 6.0861,36.187 5.8031,36.187 C5.6341,36.187 5.4641,36.143 5.3141,36.051 C4.9101,35.803 4.8021,35.301 5.0721,34.93 L7.9281,31.007 C8.1991,30.635 8.7451,30.537 9.1491,30.783 Z M25.7678,30.783 C26.1718,31.031 26.2798,31.533 26.0098,31.904 L23.1528,35.828 C22.9838,36.061 22.7048,36.187 22.4208,36.187 C22.2528,36.187 22.0828,36.143 21.9328,36.051 C21.5288,35.803 21.4208,35.301 21.6898,34.93 L24.5468,31.007 C24.8178,30.635 25.3638,30.537 25.7678,30.783 Z M17.4582,30.783 C17.8622,31.031 17.9702,31.533 17.7002,31.904 L14.8442,35.828 C14.6742,36.061 14.3952,36.187 14.1122,36.187 C13.9432,36.187 13.7732,36.143 13.6232,36.051 C13.2192,35.803 13.1112,35.301 13.3812,34.93 L16.2372,31.007 C16.5072,30.635 17.0542,30.537 17.4582,30.783 Z M24.6848,18.3933 C27.0278,18.3933 28.9278,20.2503 28.9278,22.5413 C28.9278,24.8323 27.0278,26.6903 24.6848,26.6903 L9.8348,26.6903 L9.8348,26.6773 C9.7458,26.6813 9.6588,26.6903 9.5698,26.6903 C6.4938,26.6903 3.9998,24.2523 3.9998,21.2453 C3.9998,18.3503 6.3128,15.9893 9.2298,15.8173 C10.3188,12.7893 13.2608,10.6143 16.7288,10.6143 C21.1228,10.6143 24.6848,14.0973 24.6848,18.3933 Z M25.985,17.157 C25.612,14.452 24.026,12.124 21.789,10.703 C22.451,10.328 23.206,10.095 24.018,10.059 C26.765,9.938 29.091,12.066 29.213,14.814 C29.269,16.082 28.841,17.257 28.1,18.17 C27.48,17.7 26.77,17.34 25.985,17.157 Z" id="Combined-Shape" fill="#FFFFFF"></path>
            </g>
        </g>
    </g>
</svg>