<?xml version="1.0" encoding="UTF-8"?>
<svg width="40px" height="40px" viewBox="0 0 40 40" version="1.1" xmlns="http://www.w3.org/2000/svg" xmlns:xlink="http://www.w3.org/1999/xlink">
    <!-- Generator: sketchtool 47.1 (45422) - http://www.bohemiancoding.com/sketch -->
    <title>603E4F71-C0E8-4C44-96C8-5A3E3B06C58E</title>
    <desc>Created with sketchtool.</desc>
    <defs>
        <polygon id="path-1" points="32.5598 0.693 0.0008 0.693 0.0008 27.9998 32.5598 27.9998"></polygon>
    </defs>
    <g id="Symbols" stroke="none" stroke-width="1" fill="none" fill-rule="evenodd">
        <g id="Validated" transform="translate(-833.000000, -389.000000)"></g>
        <g id="Icons/indoor-co2">
            <g id="Original-Icons/indoor-co2">
                <g id="Page-1" transform="translate(3.500000, 6.000000)">
                    <path d="M20.6118,16.6333 C20.4508,16.3703 20.2338,16.1563 19.9608,15.9903 C19.6858,15.8253 19.3488,15.7433 18.9478,15.7433 C18.5468,15.7433 18.2118,15.8253 17.9438,15.9903 C17.6748,16.1563 17.4608,16.3703 17.2988,16.6333 C17.1378,16.8953 17.0238,17.1983 16.9568,17.5403 C16.8888,17.8833 16.8558,18.2313 16.8558,18.5843 C16.8558,18.9383 16.8888,19.2833 16.9568,19.6203 C17.0238,19.9573 17.1378,20.2603 17.2988,20.5273 C17.4608,20.7963 17.6748,21.0093 17.9438,21.1703 C18.2118,21.3293 18.5468,21.4093 18.9478,21.4093 C19.3488,21.4093 19.6858,21.3293 19.9608,21.1703 C20.2338,21.0093 20.4508,20.7963 20.6118,20.5273 C20.7748,20.2603 20.8888,19.9573 20.9548,19.6203 C21.0238,19.2833 21.0558,18.9383 21.0558,18.5843 C21.0558,18.2313 21.0238,17.8833 20.9548,17.5403 C20.8888,17.1983 20.7748,16.8953 20.6118,16.6333" id="Fill-1" fill="#FFFFFF"></path>
                    <g id="Group-5" transform="translate(0.000000, 0.307400)">
                        <mask id="mask-2" fill="white">
                            <use xlink:href="#path-1"></use>
                        </mask>
                        <g id="Clip-4"></g>
                        <path d="M27.2768,22.6228 L27.2768,23.4988 L23.6988,23.4988 C23.6988,23.2068 23.7378,22.9568 23.8158,22.7478 C23.8938,22.5398 24.0018,22.3548 24.1378,22.1888 C24.2738,22.0248 24.4318,21.8778 24.6128,21.7478 C24.7968,21.6148 24.9908,21.4838 25.1968,21.3518 C25.3048,21.2808 25.4188,21.2058 25.5358,21.1338 C25.6528,21.0608 25.7638,20.9798 25.8678,20.8938 C25.9718,20.8048 26.0578,20.7068 26.1258,20.5958 C26.1938,20.4868 26.2268,20.3638 26.2268,20.2248 C26.2268,20.0348 26.1688,19.8728 26.0498,19.7428 C25.9318,19.6108 25.7738,19.5448 25.5738,19.5448 C25.4228,19.5448 25.2988,19.5788 25.1968,19.6438 C25.0978,19.7088 25.0168,19.7928 24.9578,19.8958 C24.8968,19.9978 24.8528,20.1088 24.8288,20.2288 C24.8028,20.3498 24.7948,20.4658 24.8008,20.5748 L23.7088,20.5748 C23.7008,20.0128 23.8598,19.5548 24.1808,19.2008 C24.5018,18.8458 24.9908,18.6688 25.6488,18.6688 C25.8768,18.6688 26.0908,18.7008 26.2908,18.7628 C26.4918,18.8248 26.6678,18.9168 26.8238,19.0408 C26.9758,19.1658 27.0968,19.3208 27.1868,19.5068 C27.2758,19.6928 27.3208,19.9068 27.3208,20.1478 C27.3208,20.4978 27.2358,20.7768 27.0678,20.9858 C26.9008,21.1938 26.6948,21.3778 26.4528,21.5388 C26.2098,21.6998 25.9608,21.8578 25.7028,22.0158 C25.4468,22.1718 25.2228,22.3738 25.0388,22.6228 L27.2768,22.6228 Z M23.1158,20.1948 C22.9028,20.7658 22.6018,21.2538 22.2108,21.6578 C21.8198,22.0638 21.3488,22.3748 20.7978,22.5928 C20.2438,22.8088 19.6268,22.9168 18.9478,22.9168 C18.2658,22.9168 17.6518,22.8088 17.1058,22.5928 C16.5598,22.3748 16.0908,22.0638 15.7008,21.6578 C15.3098,21.2538 15.0088,20.7658 14.7968,20.1948 C14.5858,19.6248 14.4788,18.9848 14.4788,18.2768 C14.4788,17.5698 14.5858,16.9278 14.7968,16.3518 C15.0088,15.7748 15.3098,15.2848 15.7008,14.8788 C16.0908,14.4738 16.5598,14.1598 17.1058,13.9368 C17.6518,13.7148 18.2658,13.6028 18.9478,13.6028 C19.6268,13.6028 20.2438,13.7148 20.7978,13.9368 C21.3488,14.1598 21.8198,14.4738 22.2108,14.8788 C22.6018,15.2848 22.9028,15.7748 23.1158,16.3518 C23.3268,16.9278 23.4318,17.5698 23.4318,18.2768 C23.4318,18.9848 23.3268,19.6248 23.1158,20.1948 L23.1158,20.1948 Z M12.4358,21.9908 C11.6988,22.6078 10.7558,22.9168 9.6068,22.9168 C8.9608,22.9168 8.3658,22.8048 7.8248,22.5828 C7.2828,22.3608 6.8238,22.0498 6.4438,21.6498 C6.0648,21.2508 5.7688,20.7738 5.5568,20.2198 C5.3438,19.6668 5.2388,19.0598 5.2388,18.3968 C5.2388,17.7118 5.3368,17.0758 5.5318,16.4878 C5.7268,15.9008 6.0138,15.3928 6.3938,14.9648 C6.7728,14.5368 7.2358,14.2028 7.7828,13.9628 C8.3298,13.7228 8.9548,13.6028 9.6578,13.6028 C10.1718,13.6028 10.6638,13.6718 11.1378,13.8088 C11.6128,13.9458 12.0368,14.1548 12.4098,14.4338 C12.7848,14.7138 13.0888,15.0608 13.3228,15.4778 C13.5568,15.8948 13.6898,16.3888 13.7238,16.9588 L11.3988,16.9588 C11.2418,15.9428 10.6558,15.4358 9.6398,15.4358 C9.2608,15.4358 8.9428,15.5238 8.6868,15.7008 C8.4298,15.8768 8.2198,16.1048 8.0598,16.3858 C7.8978,16.6648 7.7828,16.9738 7.7148,17.3098 C7.6488,17.6458 7.6158,17.9808 7.6158,18.3108 C7.6158,18.6308 7.6488,18.9558 7.7148,19.2868 C7.7828,19.6178 7.8918,19.9188 8.0428,20.1868 C8.1938,20.4538 8.3968,20.6738 8.6528,20.8458 C8.9108,21.0178 9.2218,21.1018 9.5908,21.1018 C10.1598,21.1018 10.5968,20.9398 10.9038,20.6138 C11.2128,20.2888 11.4038,19.8518 11.4808,19.3048 L13.7748,19.3048 C13.6188,20.4808 13.1718,21.3758 12.4358,21.9908 L12.4358,21.9908 Z M16.2798,0.6928 L0.0008,13.7538 L2.0348,13.7538 L2.0348,27.9998 L30.5248,27.9998 L30.5248,13.7538 L32.5598,13.7538 L16.2798,0.6928 Z" id="Fill-3" fill="#FFFFFF" mask="url(#mask-2)"></path>
                    </g>
                </g>
            </g>
        </g>
    </g>
</svg>