<?xml version="1.0" encoding="UTF-8"?>
<svg width="40px" height="40px" viewBox="0 0 40 40" version="1.1" xmlns="http://www.w3.org/2000/svg" xmlns:xlink="http://www.w3.org/1999/xlink">
    <!-- Generator: sketchtool 47.1 (45422) - http://www.bohemiancoding.com/sketch -->
    <title>8E044124-FEC2-4212-8D66-CCF3BC75681E</title>
    <desc>Created with sketchtool.</desc>
    <defs></defs>
    <g id="Symbols" stroke="none" stroke-width="1" fill="none" fill-rule="evenodd">
        <g id="Original-Icons/sensor-humidity">
            <g id="Page-1">
                <rect id="Rectangle" x="0" y="0" width="40" height="40"></rect>
                <path d="M20.0017544,31.2523429 C16.3048141,31.243642 13.6068837,28.1584809 13.5861967,23.9128927 C13.5650787,21.5920383 15.0941932,18.1982238 17.3973466,13.8138789 L18.0515731,12.5508725 C18.7273486,11.2480251 19.3733866,10.0024206 19.9284879,8.79986262 C19.9603804,8.7302553 20.0504551,8.7302553 20.0823475,8.79986262 C20.6391728,10.0088318 21.2860727,11.2553522 21.9678819,12.5678164 L22.610041,13.8070098 C24.5972865,17.6024402 26.4345512,21.4537396 26.4138642,23.9165563 C26.3957631,28.1584809 23.6974018,31.243642 20.0017544,31.2523429 M24.8752682,12.4817232 L24.2318161,11.240698 C23.5663841,9.95891598 22.9375853,8.74857302 22.3997232,7.58081874 C21.945471,6.6058584 21.0279161,6 20.0052022,6 C18.9811954,6 18.0632096,6.60677428 17.6059405,7.59089348 C17.0741121,8.74399359 16.4487611,9.9483833 15.785053,11.2269598 L15.1394461,12.474854 C12.5643448,17.3771323 10.9740313,21.0049556 11.000321,23.927089 C11.0283346,29.6582438 14.8950808,33.9885514 19.9957207,34 L20.0013234,34 L20.0069261,34 C25.108859,33.9885514 28.9743122,29.6591597 28.99974,23.9408272 C29.0238748,21.0141145 27.3658975,17.2388336 24.8752682,12.4817232" id="Fill-1" fill="#FFFFFF"></path>
            </g>
        </g>
    </g>
</svg>