<?xml version="1.0" encoding="UTF-8"?>
<svg width="40px" height="40px" viewBox="0 0 40 40" version="1.1" xmlns="http://www.w3.org/2000/svg" xmlns:xlink="http://www.w3.org/1999/xlink">
    <!-- Generator: sketchtool 47.1 (45422) - http://www.bohemiancoding.com/sketch -->
    <title>44D7A810-3340-4836-97E7-419A88D627A9</title>
    <desc>Created with sketchtool.</desc>
    <defs></defs>
    <g id="Symbols" stroke="none" stroke-width="1" fill="none" fill-rule="evenodd">
        <g id="Original-Icons/sensor-luminosity">
            <g id="Group">
                <rect id="Rectangle" x="0" y="0" width="40" height="40"></rect>
                <path d="M15.4514571,36 L17.7197714,36 L17.7197714,5 L15.4514571,5 L15.4514571,36 Z M28.6964286,26.2491714 C28.5622429,26.1521857 28.4076857,26.1056857 28.2540143,26.1056857 C28.0193,26.1056857 27.7881286,26.2133 27.6402143,26.4161286 L27.1955857,27.0272714 C26.9511286,27.3634 27.0264143,27.8385857 27.3625429,28.0834857 L30.4209143,30.3057429 C30.5546571,30.4022857 30.7101,30.4487857 30.8628857,30.4487857 C31.0980429,30.4487857 31.3292143,30.3411714 31.4766857,30.1387857 L31.9213143,29.5258714 C32.1657714,29.1901857 32.0904857,28.7145571 31.7543571,28.4701 L28.6964286,26.2491714 Z M33.9757286,19.3658429 L30.1950571,19.3658429 C29.7792143,19.3658429 29.4391,19.7064 29.4391,20.1218 L29.4391,20.8782 C29.4391,21.2940429 29.7792143,21.6341571 30.1950571,21.6341571 L33.9757286,21.6341571 C34.3911286,21.6341571 34.7316857,21.2940429 34.7316857,20.8782 L34.7316857,20.1218 C34.7316857,19.7064 34.3911286,19.3658429 33.9757286,19.3658429 L33.9757286,19.3658429 Z M27.1707857,20.5 C27.1707857,16.2924143 24.0428857,12.8235143 19.9880857,12.2695 L19.9880857,14.5612857 C22.7847286,15.0931571 24.9020286,17.5479143 24.9020286,20.5 C24.9020286,23.4520857 22.7847286,25.9072857 19.9880857,26.4387143 L19.9880857,28.7309429 C24.0428857,28.1764857 27.1707857,24.7080286 27.1707857,20.5 L27.1707857,20.5 Z M6,20.5 C6,24.7080286 9.12701429,28.1764857 13.1831429,28.7309429 L13.1831429,12.2695 C9.12701429,12.8235143 6,16.2924143 6,20.5 L6,20.5 Z M27.6402143,14.5843143 C27.7881286,14.7867 28.0193,14.8943143 28.2540143,14.8943143 C28.4076857,14.8943143 28.5622429,14.8478143 28.6964286,14.7512714 L31.7543571,12.5303429 C32.0904857,12.2854429 32.1657714,11.8102571 31.9213143,11.4741286 L31.4766857,10.8612143 C31.3292143,10.6588286 31.0980429,10.5512143 30.8628857,10.5512143 C30.7101,10.5512143 30.5546571,10.5977143 30.4209143,10.6947 L27.3625429,12.9169571 C27.0264143,13.1614143 26.9511286,13.6370429 27.1955857,13.9727286 L27.6402143,14.5843143 Z M21.7657143,10.3165 L22.4844714,10.5494429 C22.5610857,10.5746857 22.6394714,10.5866429 22.7160857,10.5866429 C23.0353857,10.5866429 23.3334286,10.3829286 23.4366143,10.0640714 L24.6057571,6.4694 C24.7341857,6.07348571 24.5154143,5.64524286 24.1199429,5.51637143 L23.4007429,5.28298571 C23.3228,5.25774286 23.2444143,5.24578571 23.1678,5.24578571 C22.8493857,5.24578571 22.5513429,5.44994286 22.4481571,5.76791429 L21.2803429,9.36391429 C21.1514714,9.75982857 21.3702429,10.1876286 21.7657143,10.3165 L21.7657143,10.3165 Z M24.6057571,34.5306 C24.7341857,34.9265143 24.5154143,35.3547571 24.1199429,35.4840714 L23.4007429,35.7170143 C23.3228,35.7422571 23.2444143,35.7542143 23.1678,35.7542143 C22.8493857,35.7542143 22.5513429,35.5505 22.4481571,35.2320857 L21.2803429,31.6360857 C21.1514714,31.2406143 21.3702429,30.8123714 21.7657143,30.6839429 L22.4844714,30.4505571 C22.5610857,30.4253143 22.6394714,30.4133571 22.7160857,30.4133571 C23.0353857,30.4133571 23.3334286,30.6170714 23.4366143,30.9363714 L24.6057571,34.5306 Z" id="Page-1" fill="#FFFFFF"></path>
            </g>
        </g>
    </g>
</svg>