<?xml version="1.0" encoding="UTF-8"?>
<svg width="40px" height="40px" viewBox="0 0 40 40" version="1.1" xmlns="http://www.w3.org/2000/svg" xmlns:xlink="http://www.w3.org/1999/xlink">
    <!-- Generator: sketchtool 47.1 (45422) - http://www.bohemiancoding.com/sketch -->
    <title>03874E2A-82C6-4CB8-ABC6-319EAD41C81B</title>
    <desc>Created with sketchtool.</desc>
    <defs></defs>
    <g id="Symbols" stroke="none" stroke-width="1" fill="none" fill-rule="evenodd">
        <g id="Original-Icons/weather-night">
            <g id="Group">
                <rect id="Rectangle" x="0" y="0" width="40" height="40"></rect>
                <path d="M23.673,25.643 C24.52,25.643 25.337,25.522 26.118,25.314 C24.415,28.508 21.039,30.686 17.149,30.686 C11.544,30.686 7,26.17 7,20.601 C7,15.341 11.051,11.028 16.22,10.561 C14.989,12.145 14.249,14.123 14.249,16.278 C14.249,21.451 18.468,25.643 23.673,25.643 L23.673,25.643 Z M30.722,13.511 L30.174,12.264 C30.081,12.051 29.908,11.881 29.691,11.79 L28.414,11.256 L29.691,10.721 C29.908,10.629 30.082,10.46 30.174,10.248 L30.722,9 L31.269,10.248 C31.362,10.46 31.536,10.63 31.753,10.721 L33.029,11.256 L31.753,11.79 C31.536,11.882 31.361,12.051 31.269,12.264 L30.722,13.511 Z M25.024,12.308 L24.732,11.643 C24.682,11.53 24.59,11.439 24.474,11.39 L23.793,11.105 L24.474,10.82 C24.59,10.771 24.683,10.68 24.732,10.567 L25.024,9.901 L25.316,10.567 C25.366,10.68 25.459,10.771 25.574,10.82 L26.256,11.105 L25.574,11.39 C25.459,11.439 25.365,11.53 25.316,11.643 L25.024,12.308 Z M27.475,19.931 L26.608,17.953 C26.457,17.608 26.179,17.334 25.832,17.189 L23.799,16.337 L25.832,15.486 C26.179,15.34 26.457,15.067 26.608,14.722 L27.475,12.744 L28.347,14.73 C28.495,15.07 28.769,15.338 29.111,15.482 L31.152,16.337 L29.119,17.189 C28.772,17.334 28.494,17.608 28.343,17.953 L27.475,19.931 Z" id="Fill-1" fill="#FFFFFF"></path>
            </g>
        </g>
    </g>
</svg>