<?xml version="1.0" encoding="UTF-8"?>
<svg width="40px" height="40px" viewBox="0 0 40 40" version="1.1" xmlns="http://www.w3.org/2000/svg" xmlns:xlink="http://www.w3.org/1999/xlink">
    <!-- Generator: sketchtool 47.1 (45422) - http://www.bohemiancoding.com/sketch -->
    <title>1B1864A3-23D8-4EFB-B619-4BDCEA7E548D</title>
    <desc>Created with sketchtool.</desc>
    <defs>
        <polygon id="path-1" points="28.7422 0.0005 0.0002 0.0005 0.0002 24.1041 28.7422 24.1041"></polygon>
    </defs>
    <g id="Symbols" stroke="none" stroke-width="1" fill="none" fill-rule="evenodd">
        <g id="Original-Icons/noise">
            <g id="Page-1" transform="translate(5.500000, 8.000000)">
                <mask id="mask-2" fill="white">
                    <use xlink:href="#path-1"></use>
                </mask>
                <g id="Clip-2"></g>
                <path d="M5.4702,14.7061 L12.0192,20.7291 L12.0192,12.0521 L12.0192,3.3751 L5.4702,9.3981 L5.4702,12.0521 L5.4702,14.7061 Z M4.7182,8.0721 L13.4962,0.0001 L13.4962,12.0521 L13.4962,24.1041 L4.7182,16.0321 L0.5862,16.0321 C0.2612,16.0321 0.0002,15.7131 0.0002,15.3121 L0.0002,12.0521 L0.0002,8.7921 C0.0002,8.3921 0.2612,8.0721 0.5862,8.0721 L4.7182,8.0721 Z M25.8712,2.6171 C25.7652,2.4901 25.6102,2.4171 25.4452,2.4171 C25.3312,2.4171 25.2242,2.4521 25.1322,2.5181 L25.0282,2.5821 L24.5172,2.9531 C24.3992,3.0391 24.3162,3.1721 24.2892,3.3171 C24.2632,3.4631 24.2952,3.6071 24.3852,3.7301 C26.0262,6.2181 26.8932,9.0931 26.8932,12.0461 C26.8932,15.0001 26.0262,17.8761 24.3792,20.3711 C24.2952,20.4861 24.2632,20.6291 24.2892,20.7761 C24.3162,20.9211 24.3992,21.0531 24.5162,21.1401 L25.1392,21.5911 C25.2292,21.6541 25.3332,21.6871 25.4442,21.6871 C25.5972,21.6871 25.7452,21.6221 25.8322,21.5321 C27.7372,18.7061 28.7422,15.4261 28.7422,12.0461 C28.7422,8.6831 27.7452,5.4151 25.8712,2.6171 L25.8712,2.6171 Z M21.8032,5.0611 C21.6912,5.0611 21.5842,5.0961 21.4932,5.1621 L21.4212,5.2021 L20.8522,5.6161 C20.6302,5.7771 20.5692,6.0831 20.7022,6.3201 C21.8092,8.0431 22.3942,10.0231 22.3942,12.0461 C22.3942,14.0691 21.8092,16.0501 20.7072,17.7641 C20.5692,18.0091 20.6302,18.3151 20.8502,18.4761 L21.5022,18.9481 C21.5902,19.0101 21.6952,19.0431 21.8022,19.0431 C21.9502,19.0431 22.0962,18.9811 22.1782,18.9021 C23.5302,16.8521 24.2432,14.4811 24.2432,12.0461 C24.2432,9.6261 23.5382,7.2681 22.2212,5.2501 C22.1142,5.1301 21.9612,5.0611 21.8032,5.0611 L21.8032,5.0611 Z M18.7552,7.9471 C19.5032,9.1851 19.9032,10.6081 19.9032,12.0461 C19.9032,13.4981 19.5002,14.9281 18.7382,16.1831 C18.6452,16.3041 18.4842,16.3841 18.3092,16.3841 C18.1952,16.3841 18.0862,16.3501 17.9932,16.2851 L17.3682,15.8311 C17.1252,15.6521 17.0722,15.3081 17.2492,15.0641 C17.7862,14.1101 18.0532,13.1011 18.0532,12.0461 C18.0532,10.9921 17.7862,9.9831 17.2622,9.0481 C17.1632,8.9101 17.1282,8.7651 17.1522,8.6191 C17.1752,8.4731 17.2522,8.3461 17.3702,8.2601 L17.8182,7.9351 L17.9862,7.8251 C18.0792,7.7571 18.1912,7.7211 18.3082,7.7211 C18.4852,7.7211 18.6532,7.8061 18.7552,7.9471 L18.7552,7.9471 Z" id="Fill-1" fill="#FFFFFF" mask="url(#mask-2)"></path>
            </g>
        </g>
    </g>
</svg>