<?xml version="1.0" encoding="UTF-8"?>
<svg width="40px" height="40px" viewBox="0 0 40 40" version="1.1" xmlns="http://www.w3.org/2000/svg" xmlns:xlink="http://www.w3.org/1999/xlink">
    <!-- Generator: sketchtool 47.1 (45422) - http://www.bohemiancoding.com/sketch -->
    <title>0402102D-6B12-495F-A314-61E0E3D60785</title>
    <desc>Created with sketchtool.</desc>
    <defs></defs>
    <g id="Symbols" stroke="none" stroke-width="1" fill="none" fill-rule="evenodd">
        <g id="Validated" transform="translate(-727.000000, -389.000000)"></g>
        <g id="Icons/indoor-temperature" fill="#FFFFFF">
            <g id="Original-Icons/indoor-temperature">
                <g id="Page-1" transform="translate(3.500000, 6.000000)">
                    <path d="M16.2802,24.9234 C13.9262,24.9234 12.0162,23.0134 12.0162,20.6594 C12.0162,19.4274 12.5402,18.3254 13.3752,17.5484 C13.8162,17.1354 14.1032,16.5674 14.1482,15.9374 L14.1482,6.3434 C14.1482,5.1664 15.1032,4.2114 16.2802,4.2114 C17.4572,4.2114 18.4132,5.1664 18.4132,6.3434 L18.4132,15.9374 C18.4582,16.5674 18.7452,17.1354 19.1862,17.5484 C20.0202,18.3254 20.5452,19.4274 20.5452,20.6594 C20.5452,23.0134 18.6362,24.9234 16.2802,24.9234 L16.2802,24.9234 Z M16.2802,0.0004 L0.0002,13.0614 L2.0352,13.0614 L2.0352,27.3074 L30.5252,27.3074 L30.5252,13.0614 L32.5602,13.0614 L16.2802,0.0004 Z" id="Fill-1"></path>
                    <path d="M16.2802,5.5938 C15.8672,5.5938 15.5312,5.9298 15.5312,6.3438 L15.5312,12.4248 L17.0302,12.4248 L17.0302,6.3438 C17.0302,5.9298 16.6932,5.5938 16.2802,5.5938" id="Fill-3"></path>
                </g>
            </g>
        </g>
    </g>
</svg>