<?xml version="1.0" encoding="UTF-8"?>
<svg width="40px" height="40px" viewBox="0 0 40 40" version="1.1" xmlns="http://www.w3.org/2000/svg" xmlns:xlink="http://www.w3.org/1999/xlink">
    <!-- Generator: sketchtool 47.1 (45422) - http://www.bohemiancoding.com/sketch -->
    <title>561BEC13-0349-4AA1-AD62-2CEE405FC125</title>
    <desc>Created with sketchtool.</desc>
    <defs></defs>
    <g id="Symbols" stroke="none" stroke-width="1" fill="none" fill-rule="evenodd" opacity="0.3">
        <g id="Original-Icons/socket-dark">
            <g id="Original-Icons/Sprinkler">
                <rect id="Rectangle" x="0" y="0" width="40" height="40"></rect>
                <path d="M30.8506,20 C30.8506,20.024 30.8476,20.047 30.8466,20.071 C30.8446,20.374 30.8296,20.672 30.8006,20.967 C30.7866,21.109 30.7616,21.248 30.7416,21.389 C30.7166,21.562 30.6946,21.735 30.6606,21.905 C30.6276,22.075 30.5836,22.241 30.5416,22.407 C30.5086,22.54 30.4766,22.672 30.4376,22.803 C30.3826,22.989 30.3186,23.171 30.2536,23.353 C30.2166,23.453 30.1806,23.554 30.1406,23.652 C30.0606,23.854 29.9736,24.051 29.8806,24.245 C29.8486,24.312 29.8156,24.378 29.7826,24.443 C29.6716,24.663 29.5546,24.878 29.4286,25.088 C29.4136,25.111 29.3986,25.135 29.3846,25.158 C27.5786,28.108 24.2806,30.091 20.4996,30.091 C16.3936,30.091 12.8556,27.754 11.1836,24.374 C11.1736,24.354 11.1636,24.335 11.1546,24.315 C11.0386,24.078 10.9326,23.837 10.8356,23.59 C10.8176,23.544 10.8016,23.498 10.7846,23.452 C10.6976,23.22 10.6166,22.984 10.5476,22.745 C10.5296,22.684 10.5156,22.621 10.4986,22.56 C10.4356,22.326 10.3766,22.091 10.3306,21.852 C10.3186,21.787 10.3116,21.721 10.3006,21.656 C10.2596,21.412 10.2206,21.168 10.1976,20.919 C10.1956,20.908 10.1966,20.896 10.1956,20.886 C10.1686,20.593 10.1496,20.299 10.1496,20 C10.1496,19.749 10.1696,19.503 10.1876,19.257 C10.1926,19.19 10.1916,19.122 10.1986,19.055 C10.2166,18.864 10.2486,18.678 10.2776,18.49 C10.2976,18.359 10.3136,18.228 10.3386,18.099 C10.3726,17.925 10.4166,17.755 10.4606,17.585 C10.4946,17.448 10.5276,17.311 10.5686,17.176 C10.6176,17.011 10.6736,16.851 10.7306,16.689 C10.7786,16.556 10.8276,16.422 10.8806,16.292 C10.9446,16.132 11.0146,15.977 11.0866,15.822 C11.1446,15.698 11.2046,15.576 11.2676,15.455 C11.3496,15.298 11.4336,15.143 11.5226,14.991 C11.5856,14.883 11.6536,14.779 11.7206,14.674 C11.8216,14.516 11.9236,14.358 12.0336,14.206 C12.0936,14.123 12.1586,14.043 12.2216,13.962 C12.3486,13.795 12.4766,13.63 12.6146,13.472 C12.6446,13.438 12.6786,13.405 12.7086,13.371 C13.6546,12.315 14.8206,11.457 16.1396,10.857 C16.1486,10.854 16.1576,10.849 16.1666,10.845 C16.4276,10.728 16.6936,10.622 16.9646,10.526 L17.0176,10.507 C17.2876,10.413 17.5636,10.33 17.8436,10.257 C17.8606,10.253 17.8766,10.249 17.8936,10.245 C18.1786,10.172 18.4676,10.111 18.7626,10.062 C18.7646,10.062 18.7656,10.062 18.7676,10.061 L18.7676,10.062 C18.9246,10.036 19.0816,10.01 19.2406,9.991 L19.2406,9.991 L19.2436,9.991 C19.6566,9.942 20.0736,9.909 20.4996,9.909 L20.5006,9.909 L20.5016,9.909 L20.5056,9.909 C20.9296,9.91 21.3446,9.942 21.7536,9.99 C21.7566,9.991 21.7596,9.99 21.7626,9.991 L21.7626,9.992 C21.9216,10.01 22.0786,10.036 22.2356,10.062 L22.2356,10.061 C22.2396,10.062 22.2436,10.063 22.2476,10.063 C22.5346,10.111 22.8146,10.171 23.0926,10.241 C23.1196,10.248 23.1456,10.254 23.1726,10.261 C23.4426,10.331 23.7066,10.411 23.9676,10.501 C23.9986,10.512 24.0296,10.523 24.0596,10.535 C24.3176,10.627 24.5706,10.727 24.8186,10.838 C24.8466,10.85 24.8726,10.864 24.9006,10.876 C25.1506,10.991 25.3956,11.113 25.6346,11.246 C25.6486,11.253 25.6616,11.262 25.6756,11.27 C26.6096,11.798 27.4486,12.464 28.1686,13.24 C28.2486,13.326 28.3316,13.409 28.4086,13.497 C28.5136,13.618 28.6096,13.745 28.7086,13.871 C28.8056,13.993 28.9026,14.115 28.9946,14.242 C29.0766,14.358 29.1536,14.477 29.2316,14.597 C29.3276,14.743 29.4206,14.89 29.5086,15.041 C29.5746,15.155 29.6376,15.271 29.6986,15.387 C29.7866,15.553 29.8696,15.72 29.9476,15.891 C29.9986,16.003 30.0486,16.115 30.0966,16.229 C30.1726,16.413 30.2416,16.6 30.3066,16.789 C30.3446,16.898 30.3826,17.007 30.4166,17.118 C30.4786,17.321 30.5306,17.528 30.5796,17.737 C30.6036,17.84 30.6316,17.941 30.6526,18.045 C30.6996,18.279 30.7336,18.517 30.7646,18.756 C30.7746,18.84 30.7906,18.922 30.7996,19.007 C30.8316,19.331 30.8506,19.659 30.8506,19.992 L30.8506,19.996 L30.8506,20 Z M32.2466,8 L8.7556,8 C8.3446,8 7.9996,8.26 7.9996,8.582 L7.9996,31.665 C7.9996,32.403 8.7566,33 9.7046,33 L31.2896,33 C32.2396,33 32.9996,32.403 32.9996,31.665 L32.9996,8.582 C32.9996,8.26 32.6576,8 32.2466,8 L32.2466,8 Z" id="Fill-3" fill="#FFFFFF"></path>
                <path d="M17.6963,20.2261 C17.6963,20.9351 17.1053,21.5091 16.3783,21.5091 C15.6503,21.5091 15.0603,20.9351 15.0603,20.2261 C15.0603,19.5161 15.6503,18.9421 16.3783,18.9421 C17.1053,18.9421 17.6963,19.5161 17.6963,20.2261 M25.9353,20.2261 C25.9353,20.9351 25.3453,21.5091 24.6163,21.5091 C23.8903,21.5091 23.3003,20.9351 23.3003,20.2261 C23.3003,19.5161 23.8903,18.9421 24.6163,18.9421 C25.3453,18.9421 25.9353,19.5161 25.9353,20.2261" id="Fill-1" fill="#FFFFFF"></path>
            </g>
        </g>
    </g>
</svg>