<?xml version="1.0" encoding="UTF-8"?>
<svg width="40px" height="40px" viewBox="0 0 40 40" version="1.1" xmlns="http://www.w3.org/2000/svg" xmlns:xlink="http://www.w3.org/1999/xlink">
    <!-- Generator: sketchtool 48.2 (47327) - http://www.bohemiancoding.com/sketch -->
    <title>0D99E32B-F707-42CE-8FE9-26C5D0F36914</title>
    <desc>Created with sketchtool.</desc>
    <defs></defs>
    <g id="Symbols" stroke="none" stroke-width="1" fill="none" fill-rule="evenodd">
        <g id="Original-Icons/binary-input-on">
            <g id="Page-1">
                <rect id="Rectangle" x="0" y="0" width="40" height="40"></rect>
                <g id="Group-4" transform="translate(8.000000, 13.000000)" fill="#FFFFFF">
                    <path d="M17.0866054,12.3083942 C14.2787135,12.3083942 12.0038486,10.1425246 12.0038486,7.46795938 C12.0038486,4.79143764 14.2787135,2.62361156 17.0866054,2.62361156 C19.8944973,2.62361156 22.1693622,4.79143764 22.1693622,7.46795938 C22.1693622,10.1425246 19.8944973,12.3083942 17.0866054,12.3083942 M17.0866054,0.0185028604 C12.7700108,0.0185028604 9.26887568,3.35339416 9.26887568,7.46795938 C9.26887568,11.5815463 12.7700108,14.9144811 17.0866054,14.9144811 C21.404227,14.9144811 24.9053622,11.5815463 24.9053622,7.46795938 C24.9053622,3.35339416 21.404227,0.0185028604 17.0866054,0.0185028604" id="Fill-2"></path>
                    <polygon id="Fill-1" points="0 15 3 15 3 1 0 1"></polygon>
                </g>
            </g>
        </g>
    </g>
</svg>