<?xml version="1.0" encoding="UTF-8"?>
<svg width="24px" height="15px" viewBox="0 0 24 15" version="1.1" xmlns="http://www.w3.org/2000/svg" xmlns:xlink="http://www.w3.org/1999/xlink">
    <!-- Generator: sketchtool 46.2 (44496) - http://www.bohemiancoding.com/sketch -->
    <title>500BC5F0-F23E-45F1-BC41-D95C372238F2</title>
    <desc>Created with sketchtool.</desc>
    <defs></defs>
    <g id="SYMBOLS" stroke="none" stroke-width="1" fill="none" fill-rule="evenodd">
        <g id="Buttons/Binary-Input-OFF" transform="translate(-18.000000, -23.000000)" fill="#2B3032">
            <g id="Group-12">
                <g id="Page-1" transform="translate(18.000000, 23.000000)">
                    <polygon id="Fill-1" points="0 15 3 15 3 1 0 1"></polygon>
                    <path d="M16.5032929,11.9227309 C13.8979432,11.9227309 11.7871715,9.82472531 11.7871715,7.23396319 C11.7871715,4.64130584 13.8979432,2.54140501 16.5032929,2.54140501 C19.1086427,2.54140501 21.2194143,4.64130584 21.2194143,7.23396319 C21.2194143,9.82472531 19.1086427,11.9227309 16.5032929,11.9227309 M16.5032929,0.0179231038 C12.498068,0.0179231038 9.24948082,3.24832109 9.24948082,7.23396319 C9.24948082,11.2186577 12.498068,14.4471604 16.5032929,14.4471604 C20.5094708,14.4471604 23.758058,11.2186577 23.758058,7.23396319 C23.758058,3.24832109 20.5094708,0.0179231038 16.5032929,0.0179231038" id="Fill-2"></path>
                </g>
            </g>
        </g>
    </g>
</svg>