<?xml version="1.0" encoding="UTF-8"?>
<svg width="33px" height="23px" viewBox="0 0 33 23" version="1.1" xmlns="http://www.w3.org/2000/svg" xmlns:xlink="http://www.w3.org/1999/xlink">
    <!-- Generator: sketchtool 45 (43475) - http://www.bohemiancoding.com/sketch -->
    <title>1E8E03DF-6778-4790-972B-D805BDA09BF9</title>
    <desc>Created with sketchtool.</desc>
    <defs></defs>
    <g id="SYMBOLS" stroke="none" stroke-width="1" fill="none" fill-rule="evenodd">
        <g id="Buttons/CO2-ON" transform="translate(-13.000000, -11.000000)">
            <g id="Group-10" transform="translate(14.000000, 12.000000)">
                <path d="M26.2067446,8.33814563 C25.9354572,3.70292806 22.1202197,0 17.5242357,0 C14.732781,0 12.029261,1.37014334 10.351956,3.60700116 C10.3147241,3.5871413 10.2743117,3.57477572 10.2342734,3.55416642 C10.1341776,3.50657769 10.0307142,3.45898896 9.92537982,3.41645887 C9.86550948,3.39322657 9.80769719,3.37336671 9.74707847,3.35088384 C9.64455051,3.31547333 9.53902904,3.28324789 9.43107533,3.25289602 C9.3706437,3.23753273 9.31283141,3.22029586 9.25239978,3.20736821 C9.13752357,3.18226235 9.01909255,3.16240248 8.89897768,3.14497826 C8.84883627,3.13467361 8.79607553,3.12436897 8.74275351,3.11987239 C8.57249723,3.10169874 8.40149257,3.08952052 8.22618473,3.08952052 C5.67308892,3.08952052 3.5998913,5.16824886 3.5998913,7.72230245 C3.5998913,7.78787748 3.60194934,7.85289043 3.6070009,7.91602982 L3.6070009,7.91846546 C1.46832009,9.08719979 0,11.5307126 0,13.9790967 C0,17.6267544 2.96189798,20.5926192 6.6042598,20.5926192 L19.2032245,20.5926192 C19.2561723,20.5926192 19.308746,20.5901835 19.364126,20.5849375 L19.3942483,20.5798789 L19.4642218,20.5849375 C19.5169825,20.5901835 19.5695561,20.5926192 19.622504,20.5926192 L24.6630253,20.5926192 C28.072267,20.5926192 30.8457605,17.8152358 30.8457605,14.4013999 C30.8457605,11.5756784 28.8778973,9.03961105 26.2067446,8.33814563 Z" id="Stroke-1" stroke="#FFFFFF"></path>
                <text id="CO2" font-family="Roboto-Black, Roboto" font-size="10" font-weight="700" fill="#FFFFFF">
                    <tspan x="5.97363281" y="16.5625">CO2</tspan>
                </text>
            </g>
        </g>
    </g>
</svg>