<svg xmlns="http://www.w3.org/2000/svg" width="40" height="40" viewBox="0 0 40 40">
    <g fill="none" fill-rule="evenodd">
        <path d="M0 0h40v40H0z"/>
        <path fill="#FFF" d="M27.57 19.557a8.68 8.68 0 0 0-.16-1.689 4.339 4.339 0 0 0-.544-1.465 3.057 3.057 0 0 0-1.032-1.04c-.436-.266-.969-.4-1.605-.4-.637 0-1.168.134-1.59.4a3.092 3.092 0 0 0-1.023 1.04 4.447 4.447 0 0 0-.543 1.465 8.848 8.848 0 0 0-.16 1.689c0 .572.053 1.13.16 1.675a4.59 4.59 0 0 0 .543 1.467c.255.434.597.78 1.022 1.038.423.258.954.388 1.591.388.636 0 1.17-.13 1.605-.388a2.91 2.91 0 0 0 1.032-1.038c.259-.432.44-.923.544-1.467.11-.544.16-1.103.16-1.675m3.767 0c0 1.144-.167 2.18-.502 3.1-.337.924-.814 1.713-1.434 2.367a6.234 6.234 0 0 1-2.241 1.51c-.877.35-1.855.525-2.93.525-1.08 0-2.055-.176-2.92-.524a6.277 6.277 0 0 1-2.228-1.511c-.619-.654-1.096-1.443-1.433-2.367-.335-.92-.502-1.956-.502-3.1 0-1.144.167-2.182.502-3.114.337-.932.814-1.725 1.433-2.38a6.442 6.442 0 0 1 2.228-1.523c.865-.36 1.84-.54 2.92-.54 1.075 0 2.053.18 2.93.54.875.36 1.622.868 2.24 1.522.62.656 1.098 1.45 1.435 2.381.335.932.502 1.97.502 3.114m-19.858 3.78c-.486.526-1.179.788-2.08.788-.585 0-1.08-.137-1.488-.415a3.104 3.104 0 0 1-.968-1.064 5.041 5.041 0 0 1-.517-1.456 8.176 8.176 0 0 1 0-3.197A4.902 4.902 0 0 1 6.97 16.5c.254-.454.587-.822.995-1.107.405-.286.91-.428 1.51-.428 1.61 0 2.538.819 2.787 2.461h3.686c-.053-.921-.265-1.72-.636-2.393a5.327 5.327 0 0 0-1.446-1.689 6.167 6.167 0 0 0-2.017-1.01A8.25 8.25 0 0 0 9.504 12c-1.115 0-2.105.193-2.973.582-.866.387-1.6.928-2.2 1.62-.602.691-1.058 1.513-1.367 2.462-.309.95-.464 1.98-.464 3.086 0 1.072.168 2.055.505 2.949A6.89 6.89 0 0 0 4.41 25.01c.601.646 1.33 1.15 2.188 1.509.858.359 1.8.54 2.825.54 1.823 0 3.316-.5 4.484-1.497 1.167-.995 1.874-2.443 2.122-4.345h-3.635c-.122.885-.426 1.592-.915 2.118m22.404 3.248h3.548V28H31.76c0-.472.062-.876.186-1.213.124-.338.294-.636.511-.904.214-.266.466-.504.753-.715.29-.214.597-.425.926-.638.17-.116.35-.238.535-.354.186-.118.363-.249.528-.389a1.98 1.98 0 0 0 .408-.48c.108-.177.16-.376.16-.6a1.14 1.14 0 0 0-.279-.78c-.188-.212-.438-.32-.756-.32-.238 0-.435.054-.596.16a1.196 1.196 0 0 0-.38.408 1.758 1.758 0 0 0-.204.539c-.04.195-.056.382-.045.559h-1.731c-.013-.91.239-1.65.748-2.223.509-.574 1.283-.859 2.327-.859.36 0 .702.052 1.017.152.32.1.598.25.845.45.241.201.434.452.576.753.14.3.212.646.212 1.036 0 .567-.134 1.018-.4 1.356a4.328 4.328 0 0 1-.975.892c-.387.261-.78.516-1.19.771-.406.253-.76.58-1.052.983"/>
    </g>
</svg>
