<svg xmlns="http://www.w3.org/2000/svg" width="40" height="40" viewBox="0 0 40 40">
    <g fill="none" fill-rule="evenodd">
        <path d="M0 0h40v40H0z"/>
        <path fill="#FFF" d="M20.002 31.252c-3.697-.008-6.395-3.094-6.416-7.34-.02-2.32 1.508-5.714 3.811-10.098l.655-1.263c.675-1.303 1.321-2.549 1.876-3.751a.083.083 0 0 1 .154 0c.557 1.209 1.204 2.455 1.886 3.768l.642 1.239c1.987 3.795 3.825 7.647 3.804 10.11-.018 4.241-2.717 7.327-6.412 7.335m4.873-18.77l-.643-1.241c-.666-1.282-1.294-2.492-1.832-3.66C21.945 6.606 21.028 6 20.005 6c-1.024 0-1.942.607-2.4 1.59-.53 1.154-1.156 2.358-1.82 3.637l-.646 1.248c-2.575 4.902-4.165 8.53-4.139 11.452.028 5.731 3.895 10.062 8.996 10.073h.011c5.102-.011 8.967-4.34 8.993-10.06.024-2.926-1.634-6.701-4.125-11.458"/>
    </g>
</svg>
