<svg xmlns="http://www.w3.org/2000/svg" width="40" height="40" viewBox="0 0 40 40">
    <g fill="#FFF" fill-rule="evenodd">
        <path d="M34.499 6l-1.782 1.408-9.686 7.651-4.055-.015-4.14-.014-2.312 3.595-2.426 3.777H5.5v1.784h5.56l4.753-7.372 7.83.027L34.5 8.271v-2.27zM33.455 13.162h-.892V35h1.784V13.162zM28.117 17.525h-.892V35H29.01V17.525zM22.78 20.52h-.891V35h1.783V20.52z"/>
        <path d="M17.443 20.52h-.877V35H18.335V20.52zM12.119 27.196h-.891V35H12.997v-7.804zM6.782 27.196H5.89V35h1.783v-7.804z"/>
    </g>
</svg>
