<?xml version="1.0" encoding="UTF-8"?>
<svg width="60px" height="58px" viewBox="0 0 60 58" version="1.1" xmlns="http://www.w3.org/2000/svg" xmlns:xlink="http://www.w3.org/1999/xlink">
    <!-- Generator: sketchtool 46.2 (44496) - http://www.bohemiancoding.com/sketch -->
    <title>004FDBAA-14D8-42D1-BCEB-FFFF9596D3AA</title>
    <desc>Created with sketchtool.</desc>
    <defs>
        <linearGradient x1="0%" y1="0%" x2="100%" y2="100%" id="linearGradient-1">
            <stop stop-color="#F85271" offset="0%"></stop>
            <stop stop-color="#FDB98A" offset="100%"></stop>
        </linearGradient>
    </defs>
    <g id="SYMBOLS" stroke="none" stroke-width="1" fill="none" fill-rule="evenodd">
        <g id="Buttons-Sensor/Icon-Sensor-Wind" fill="url(#linearGradient-1)">
            <path d="M38.8626276,20.2033998 L48.5094415,21.4363073 L48.5094415,29.7186615 L38.8626276,30.9515689 L38.8626276,20.2033998 Z M19.5756175,17.739242 L29.2174682,18.9671781 L29.2174682,32.1877907 L19.5756175,33.4173839 L19.5756175,17.739242 Z M9.08009584,31.6177367 L3.04980318,25.5774844 L9.08009584,19.5438606 L9.08009584,31.6177367 Z M56.5796109,20.7552253 L11.6096754,15 L11.558389,15 C10.342404,15 9.38285128,15.8865665 9.16943351,17.0465601 L1.24816019,24.9792591 C1.16544013,25.0554873 1.16047692,25.1864008 1.11415369,25.2974288 C1.08272006,25.3968568 1,25.4797135 1,25.5774844 L1,45.1532047 C1,45.6205164 1.37720349,46 1.84870786,46 C2.31855782,46 2.69907011,45.6205164 2.69907011,45.1532047 L2.69907011,27.6339873 L9.16943351,34.1150372 C9.38285128,35.2617737 10.342404,36.1483402 11.558389,36.1483402 L11.6096754,36.1483402 L56.5796109,30.4063719 C57.9246392,30.3732293 59,29.279521 59,27.9256428 L59,23.2293259 C59,21.8820762 57.9246392,20.7817395 56.5796109,20.7552253 L56.5796109,20.7552253 Z" id="wind"></path>
        </g>
    </g>
</svg>