<svg xmlns="http://www.w3.org/2000/svg" width="38" height="33" viewBox="0 0 38 33">
    <g fill="#2B3032" fill-rule="evenodd">
        <path d="M12.194 23.641c-2.218 0-4.016-1.84-4.016-4.106 0-2.268 1.798-4.106 4.016-4.106 2.217 0 4.014 1.838 4.014 4.106 0 2.267-1.797 4.106-4.014 4.106m2.85-9.663v-2.426a.545.545 0 0 0-.538-.552H9.805c-.3 0-.54.246-.54.552v2.427A6.31 6.31 0 0 0 6 19.535c0 3.477 2.756 6.296 6.155 6.296 3.399 0 6.155-2.819 6.155-6.296a6.311 6.311 0 0 0-3.266-5.557M1.53 26.681l4.237-3.147.738 1.04-4.236 3.146zM7.694 31.751l1.618-5.091 1.195.397-1.618 5.091zM15.596 32.149l-1.618-5.091 1.195-.398 1.618 5.092zM22.216 27.72l-4.236-3.147.74-1.039 4.235 3.147zM4.692 20.158H0v-1.284h4.693zM19.793 20.158h4.8v-1.284h-4.8z"/>
        <g>
            <path d="M25.194 12.641c-2.218 0-4.016-1.84-4.016-4.106 0-2.268 1.798-4.106 4.016-4.106 2.217 0 4.014 1.838 4.014 4.106 0 2.267-1.797 4.106-4.014 4.106m2.85-9.663V.552A.545.545 0 0 0 27.506 0h-4.701c-.3 0-.54.246-.54.552v2.427A6.31 6.31 0 0 0 19 8.535c0 3.477 2.756 6.296 6.155 6.296 3.399 0 6.155-2.819 6.155-6.296a6.311 6.311 0 0 0-3.266-5.557M28.596 21.149l-1.618-5.091 1.195-.398 1.618 5.092zM35.216 16.72l-4.236-3.147.74-1.039 4.235 3.147zM32.793 9.158h4.8V7.874h-4.8z"/>
        </g>
    </g>
</svg>
