<?xml version="1.0" encoding="UTF-8"?>
<svg width="40px" height="40px" viewBox="0 0 40 40" version="1.1" xmlns="http://www.w3.org/2000/svg" xmlns:xlink="http://www.w3.org/1999/xlink">
    <!-- Generator: sketchtool 47.1 (45422) - http://www.bohemiancoding.com/sketch -->
    <title>47CDA7D2-FD73-454E-9203-CF13817458EB</title>
    <desc>Created with sketchtool.</desc>
    <defs></defs>
    <g id="Symbols" stroke="none" stroke-width="1" fill="none" fill-rule="evenodd" opacity="0.3">
        <g id="Original-Icons/ventilation-dark">
            <g id="Original-Icons/Light">
                <rect id="Rectangle" x="0" y="0" width="40" height="40"></rect>
                <path d="M31.7520409,24.6563035 C31.5341263,24.9558447 31.2775165,25.2109642 30.9923945,25.4192167 C29.8193212,26.2709735 28.1757965,26.3198782 26.942033,25.4232921 L20.8058004,20.9611462 L23.7405203,18.8272713 L32.5287947,18.8219733 C34.4240413,18.8211582 35.0659731,20.0767863 33.9544046,21.6132088 L31.7520409,24.6563035 Z M22.2220421,34.3337276 L18.6490563,33.1783542 C18.2975416,33.0638357 17.9749464,32.8979672 17.6898244,32.6909374 C16.5167511,31.8383655 15.9632071,30.2889017 16.434473,28.83847 L18.7789904,21.620137 L21.7141176,23.7536043 L24.4354034,32.1142695 C25.02194,33.9176301 24.026457,34.9165085 22.2220421,34.3337276 L22.2220421,34.3337276 Z M6.50611807,27.1003156 L6.50000832,23.3436199 C6.49919368,22.9731669 6.55825466,22.6153475 6.66700834,22.2803504 C7.11546449,20.8996078 8.41602808,19.8950238 9.9410234,19.8950238 L17.5268976,19.8950238 L16.4055535,23.3468803 L9.2986843,28.5197744 C7.76676458,29.6356165 6.50937661,28.9974102 6.50611807,27.1003156 L6.50611807,27.1003156 Z M8.52437444,9.90990769 L12.0936944,8.74353071 C12.4468384,8.62860467 12.8032409,8.57440197 13.1559775,8.57277181 C14.6068411,8.57440197 15.9640218,9.50114594 16.4352877,10.9519852 L18.7789904,18.1707258 L15.1514241,18.1707258 L8.03803779,13.0072051 C6.50408149,11.8925855 6.72281078,10.4996168 8.52437444,9.90990769 L8.52437444,9.90990769 Z M22.3947446,7.01271203 C22.9792446,5.20853632 24.3714546,4.98601995 25.4891328,6.51877461 L27.7000501,9.55494111 C27.9183721,9.85448237 28.0804843,10.1776609 28.1908673,10.5130656 C28.6376942,11.8934006 28.1766112,13.4717997 26.9428476,14.3683857 L20.8053931,18.8289015 L19.6844564,15.3778602 L22.3947446,7.01271203 Z" id="Fill-1" fill="#FFFFFF"></path>
            </g>
        </g>
    </g>
</svg>