<?xml version="1.0" encoding="UTF-8"?>
<svg width="30px" height="10px" viewBox="0 0 30 10" version="1.1" xmlns="http://www.w3.org/2000/svg" xmlns:xlink="http://www.w3.org/1999/xlink">
    <!-- Generator: sketchtool 47.1 (45422) - http://www.bohemiancoding.com/sketch -->
    <title>CEADFC0F-45B5-4EDD-9017-8C1E11FAC675</title>
    <desc>Created with sketchtool.</desc>
    <defs></defs>
    <g id="Symbols" stroke="none" stroke-width="1" fill="none" fill-rule="evenodd" opacity="0.3">
        <g id="Device/Ventilation/Turbo-OFF" transform="translate(-15.000000, -26.000000)">
            <g id="Icons/ventilation-turbo-dark" transform="translate(12.500000, 13.000000)">
                <g id="Original-Icons/Ventilation-Turbo">
                    <g id="Group">
                        <rect id="Rectangle" x="0" y="0" width="35" height="35"></rect>
                        <g id="Page-1" transform="translate(3.062500, 13.125000)" fill="#FFFFFF">
                            <path d="M3.32436131,8.56661677 L3.5,9.52878334 C3.15830292,9.59165759 2.85173358,9.625 2.58135645,9.625 C2.13959854,9.625 1.79683698,9.56212575 1.55413625,9.43732989 C1.31037105,9.31253402 1.13899027,9.14867991 1.03999392,8.94386228 C0.942062044,8.74190256 0.89203163,8.3113092 0.89203163,7.65875068 L0.89203163,3.96536473 L0,3.96536473 L0,3.11846761 L0.89203163,3.11846761 L0.89203163,1.52755852 L2.10234185,0.875 L2.10234185,3.11846761 L3.32436131,3.11846761 L3.32436131,3.96536473 L2.10234185,3.96536473 L2.10234185,7.71971965 C2.10234185,8.03123299 2.12256691,8.22938214 2.16514599,8.31893032 C2.20772506,8.40657322 2.27904501,8.47706859 2.37484793,8.5294638 C2.47171533,8.58376429 2.61009732,8.60948557 2.78999392,8.60948557 C2.92518248,8.60948557 3.1040146,8.59424333 3.32436131,8.56661677" id="Fill-1"></path>
                            <path d="M8.64398792,9.47061811 L8.64398792,8.46510447 C8.13954978,9.2380296 7.45447474,9.625 6.58780198,9.625 C6.20635066,9.625 5.8489202,9.54780905 5.51743228,9.39342716 C5.18594436,9.2380296 4.94093155,9.04403656 4.78047218,8.81043239 C4.62001281,8.57581254 4.5056735,8.28837783 4.44129758,7.94914393 C4.39613836,7.72061811 4.375,7.36005514 4.375,6.86643935 L4.375,2.625 L5.47227306,2.625 L5.47227306,6.42157574 C5.47227306,7.02691526 5.49437225,7.43521474 5.53953148,7.6454585 C5.60871157,7.95117528 5.75475842,8.19087348 5.97863287,8.36556878 C6.20154649,8.54026407 6.47826684,8.62558038 6.80783309,8.62558038 C7.13739934,8.62558038 7.44582723,8.53823273 7.73503843,8.35947475 C8.0232888,8.18071677 8.22698572,7.93695589 8.34709004,7.63022345 C8.46719436,7.32247533 8.52772694,6.87761172 8.52772694,6.29258561 L8.52772694,2.625 L9.625,2.625 L9.625,9.47061811 L8.64398792,9.47061811 Z" id="Fill-3"></path>
                            <path d="M11.375,9.625 L11.375,2.78037502 L12.3582105,2.78037502 L12.3582105,3.817224 C12.6085517,3.331804 12.839783,3.01191426 13.0528597,2.85755477 C13.2649809,2.70319527 13.4990786,2.625 13.7522864,2.625 C14.1211097,2.625 14.4956661,2.74990933 14.875,2.99871246 L14.4994881,4.07516684 C14.2319479,3.90659002 13.9653631,3.82331713 13.6987783,3.82331713 C13.4599031,3.82331713 13.2458709,3.90049688 13.0557262,4.05384085 C12.8655815,4.2061693 12.7299004,4.41638256 12.6496383,4.68854272 C12.5282897,5.10084506 12.4671376,5.55072175 12.4671376,6.04121935 L12.4671376,9.625 L11.375,9.625 Z" id="Fill-5"></path>
                            <path d="M16.7168,6.1848325 C16.7168,6.963495 16.8258,7.525595 17.0468,7.8711325 C17.4058,8.4390075 17.8928,8.72102 18.5058,8.72102 C19.0058,8.72102 19.4378,8.5121575 19.8008,8.0944325 C20.1648,7.67767 20.3478,7.0549325 20.3478,6.228145 C20.3478,5.3821075 20.1728,4.7564825 19.8228,4.3522325 C19.4748,3.9499075 19.0528,3.748745 18.5568,3.748745 C18.0578,3.748745 17.6258,3.9576075 17.2618,4.37437 C16.8988,4.792095 16.7168,5.3955825 16.7168,6.1848325 L16.7168,6.1848325 Z M16.7288,9.4785075 L15.6688,9.4785075 L15.6688,0.522445 L16.8118,0.522445 L16.8118,3.7169825 C17.2938,3.1356325 17.9098,2.843995 18.6578,2.843995 C19.0728,2.843995 19.4658,2.924845 19.8358,3.08462 C20.2058,3.24632 20.5108,3.4725075 20.7498,3.7631825 C20.9888,4.05482 21.1768,4.4061325 21.3128,4.8161575 C21.4468,5.2281075 21.5158,5.66797 21.5158,6.135745 C21.5158,7.248395 21.2298,8.1079075 20.6578,8.715245 C20.0868,9.3225825 19.4018,9.6248075 18.6018,9.6248075 C17.8058,9.6248075 17.1818,9.3052575 16.7288,8.6661575 L16.7288,9.4785075 Z" id="Fill-7"></path>
                            <path d="M23.6533,6.15665312 C23.6533,7.00616875 23.8413,7.64305937 24.2183,8.06535625 C24.5953,8.4886375 25.0693,8.70027812 25.6403,8.70027812 C26.2083,8.70027812 26.6793,8.4886375 27.0553,8.0633875 C27.4323,7.63912187 27.6213,6.99140312 27.6213,6.12023125 C27.6213,5.2992625 27.4313,4.67812187 27.0523,4.25484062 C26.6743,3.83254375 26.2033,3.62090312 25.6403,3.62090312 C25.0693,3.62090312 24.5953,3.830575 24.2183,4.25090312 C23.8413,4.67221562 23.6533,5.3071375 23.6533,6.15665312 M22.4793,6.15665312 C22.4793,4.92815312 22.8263,4.01859062 23.5203,3.42698125 C24.1003,2.9367625 24.8063,2.69066875 25.6403,2.69066875 C26.5673,2.69066875 27.3253,2.98795 27.9133,3.58645 C28.5013,4.18396562 28.7963,5.01084062 28.7963,6.06412187 C28.7963,6.917575 28.6653,7.58891875 28.4053,8.0791375 C28.1443,8.5673875 27.7653,8.94834062 27.2683,9.21904375 C26.7713,9.49073125 26.2283,9.62460625 25.6403,9.62460625 C24.6973,9.62460625 23.9343,9.327325 23.3523,8.73079375 C22.7703,8.13721562 22.4793,7.27785625 22.4793,6.15665312" id="Fill-10"></path>
                        </g>
                    </g>
                </g>
            </g>
        </g>
    </g>
</svg>