<?xml version="1.0" encoding="UTF-8"?>
<svg width="40px" height="40px" viewBox="0 0 40 40" version="1.1" xmlns="http://www.w3.org/2000/svg" xmlns:xlink="http://www.w3.org/1999/xlink">
    <!-- Generator: sketchtool 48.2 (47327) - http://www.bohemiancoding.com/sketch -->
    <title>16032FBB-08AC-4E25-B4BC-1F71471DF685</title>
    <desc>Created with sketchtool.</desc>
    <defs>
        <polygon id="path-1" points="0.825275405 0.0721806798 10.52975 0.0721806798 10.52975 6.90136352 0.825275405 6.90136352"></polygon>
        <polygon id="path-3" points="0.000533333333 0.2090375 7.28586667 0.2090375 7.28586667 10 0.000533333333 10"></polygon>
    </defs>
    <g id="Symbols" stroke="none" stroke-width="1" fill="none" fill-rule="evenodd">
        <g id="Original-Icons/camera">
            <g id="Group">
                <rect id="Rectangle" x="0" y="0" width="40" height="40"></rect>
                <g id="Page-1" transform="translate(6.000000, 10.000000)">
                    <g id="Group-3" transform="translate(17.000000, 4.000000)">
                        <mask id="mask-2" fill="white">
                            <use xlink:href="#path-1"></use>
                        </mask>
                        <g id="Clip-2"></g>
                        <path d="M2.0953625,0.67452 L0.8564875,4.64072 C0.7286125,5.07892 1.0077375,5.49052 1.4367375,5.62072 L5.2826125,6.88212 C5.7391125,6.95912 6.2189875,6.80512 6.5228625,6.41872 L6.9284875,6.10932 L10.4952375,3.37932 C10.6217375,2.94112 10.3934875,2.45252 9.9644875,2.32232 L3.1582375,0.10752 C2.7031125,-0.02128 2.2466125,0.20972 2.0953625,0.67452" id="Fill-1" fill="#FEFEFE" mask="url(#mask-2)"></path>
                    </g>
                    <path d="M17.4328128,3.51140711 L6.79947885,0.0354923524 C6.37582387,-0.0932452313 5.90208827,0.137642826 5.77756349,0.575630475 L4.03421648,6.26667126 C3.90969169,6.70325959 4.13437772,7.19302214 4.55667917,7.32175972 L5.42835267,7.60442268 C5.05477831,8.97016052 5.80192703,10.4366495 7.09725552,10.8746372 C8.41694754,11.3126248 9.86251789,10.5667864 10.2848193,9.20104858 L15.1913666,10.7976745 C15.6150216,10.9515999 16.0874037,10.6941247 16.213282,10.2575364 L17.956629,4.56649557 C18.1055173,4.12850792 17.8564678,3.66533248 17.4328128,3.51140711" id="Fill-4" fill="#FEFEFE"></path>
                    <g id="Group-8" transform="translate(0.000000, 11.000000)">
                        <mask id="mask-4" fill="white">
                            <use xlink:href="#path-3"></use>
                        </mask>
                        <g id="Clip-7"></g>
                        <path d="M5.61786667,0.2090375 L3.2872,2.8146625 L0.956533333,2.7129125 C0.833866667,2.6881625 0.6872,2.6881625 0.5152,2.7885375 C0.3672,2.8655375 0.196533333,3.0167875 0.0978666667,3.1941625 C0.0245333333,3.3467875 0.0245333333,3.5227875 0.000533333333,3.6754125 L0.0245333333,10.0004125 L1.34986667,9.9495375 C2.0112,9.1396625 2.67386667,8.3050375 3.11653333,7.4195375 C3.55786667,6.5340375 3.75386667,5.5976625 3.9752,4.6365375 L7.28586667,0.8924125 C6.9672,0.8924125 6.62453333,0.8676625 6.35386667,0.7659125 C6.06053333,0.6380375 5.8392,0.4111625 5.61786667,0.2090375" id="Fill-6" fill="#FEFEFE" mask="url(#mask-4)"></path>
                    </g>
                </g>
            </g>
        </g>
    </g>
</svg>