<svg xmlns="http://www.w3.org/2000/svg" width="47" height="48" viewBox="0 0 47 48">
    <path fill="#4D4D4D" fill-rule="evenodd" d="M45.917 1.13a2.471 2.471 0 0 1 .082 3.52L5.288 46.87a2.518 2.518 0 0 1-3.546.075 2.46 2.46 0 0 1-.085-3.513l40.71-42.217a2.524 2.524 0 0 1 3.55-.084zM7.977.405c2.109 0 3.818 1.693 3.818 3.783 0 2.093-1.71 3.795-3.819 3.795-2.115 0-3.827-1.702-3.827-3.795 0-2.09 1.712-3.783 3.827-3.783zm12 0c2.11 0 3.82 1.693 3.82 3.783 0 2.093-1.71 3.795-3.82 3.795-2.113 0-3.825-1.702-3.825-3.795 0-2.09 1.712-3.783 3.824-3.783zm19.708 39.661c2.106 0 3.818 1.693 3.818 3.789 0 2.081-1.712 3.783-3.818 3.783-2.116 0-3.825-1.702-3.825-3.783 0-2.096 1.709-3.789 3.825-3.789zm-12.003 0c2.112 0 3.821 1.693 3.821 3.789 0 2.081-1.709 3.783-3.821 3.783-2.113 0-3.822-1.702-3.822-3.783 0-2.096 1.71-3.789 3.822-3.789z" opacity=".5"/>
</svg>
