<svg xmlns="http://www.w3.org/2000/svg" width="47" height="48" viewBox="0 0 47 48">
    <path fill="#74D0F0" fill-rule="evenodd" d="M45.915 1.13a2.471 2.471 0 0 1 .082 3.52L5.287 46.87a2.518 2.518 0 0 1-3.547.075 2.46 2.46 0 0 1-.085-3.513L42.366 1.215a2.524 2.524 0 0 1 3.55-.084zM7.975.405c2.11 0 3.818 1.693 3.818 3.783 0 2.093-1.709 3.795-3.818 3.795-2.116 0-3.828-1.702-3.828-3.795 0-2.09 1.712-3.783 3.828-3.783zm12 0c2.11 0 3.821 1.693 3.821 3.783 0 2.093-1.711 3.795-3.821 3.795-2.113 0-3.824-1.702-3.824-3.795 0-2.09 1.711-3.783 3.824-3.783zm19.708 39.661c2.107 0 3.819 1.693 3.819 3.789 0 2.081-1.712 3.783-3.819 3.783-2.115 0-3.824-1.702-3.824-3.783 0-2.096 1.709-3.789 3.824-3.789zm-12.003 0c2.113 0 3.822 1.693 3.822 3.789 0 2.081-1.71 3.783-3.822 3.783s-3.821-1.702-3.821-3.783c0-2.096 1.709-3.789 3.821-3.789z"/>
</svg>
