<?xml version="1.0" encoding="UTF-8"?>
<svg width="60px" height="60px" viewBox="0 0 60 60" version="1.1" xmlns="http://www.w3.org/2000/svg" xmlns:xlink="http://www.w3.org/1999/xlink">
    <!-- Generator: sketchtool 46.2 (44496) - http://www.bohemiancoding.com/sketch -->
    <title>890441D9-10B0-4B5A-B190-5052E2B525B5</title>
    <desc>Created with sketchtool.</desc>
    <defs></defs>
    <g id="SYMBOLS" stroke="none" stroke-width="1" fill="none" fill-rule="evenodd">
        <g id="Buttons-Generic/Generic-Device-OFF" fill="#FFFFFF">
            <path d="M44.6142937,14.491912 C45.2942073,15.1340486 45.3199767,16.2023125 44.6697968,16.8758686 L17.0906757,45.477457 C16.4424781,46.1510131 15.3661134,46.1745777 14.688182,45.5285137 C14.0043039,44.8863771 13.9805168,43.8181132 14.6306966,43.1484845 L42.2098177,14.5488599 C42.8580153,13.87334 43.9363623,13.8497754 44.6142937,14.491912 Z M18.9117739,14 C20.3409801,14 21.4986173,15.1468127 21.4986173,16.5626552 C21.4986173,17.9804614 20.3409801,19.1331653 18.9117739,19.1331653 C17.4786031,19.1331653 16.3189836,17.9804614 16.3189836,16.5626552 C16.3189836,15.1468127 17.4786031,14 18.9117739,14 Z M27.041202,14 C28.4704082,14 29.6300277,15.1468127 29.6300277,16.5626552 C29.6300277,17.9804614 28.4704082,19.1331653 27.041202,19.1331653 C25.6100135,19.1331653 24.450394,17.9804614 24.450394,16.5626552 C24.450394,15.1468127 25.6100135,14 27.041202,14 Z M40.3922876,40.8678196 C41.8195116,40.8678196 42.9791311,42.0146323 42.9791311,43.4344022 C42.9791311,44.8443535 41.8195116,45.9970574 40.3922876,45.9970574 C38.9591169,45.9970574 37.8014797,44.8443535 37.8014797,43.4344022 C37.8014797,42.0146323 38.9591169,40.8678196 40.3922876,40.8678196 Z M32.2610755,40.8678196 C33.692264,40.8678196 34.8499012,42.0146323 34.8499012,43.4344022 C34.8499012,44.8443535 33.692264,45.9970574 32.2610755,45.9970574 C30.829887,45.9970574 29.6722498,44.8443535 29.6722498,43.4344022 C29.6722498,42.0146323 30.829887,40.8678196 32.2610755,40.8678196 Z" id="Combined-Shape"></path>
        </g>
    </g>
</svg>