<svg xmlns="http://www.w3.org/2000/svg" width="40" height="40" viewBox="0 0 40 40">
    <g fill="none" fill-rule="evenodd" opacity=".3">
        <path d="M0 0h40v40H0z"/>
        <path fill="#FFF" d="M22.448 30.583a2.415 2.415 0 0 1 2.427 2.407c0 1.321-1.087 2.403-2.427 2.403s-2.428-1.082-2.428-2.403a2.416 2.416 0 0 1 2.428-2.407zm7.623 0a2.417 2.417 0 0 1 2.427 2.407c0 1.321-1.088 2.403-2.427 2.403-1.344 0-2.428-1.082-2.428-2.403a2.415 2.415 0 0 1 2.428-2.407zM17.554 5.394c1.34 0 2.426 1.075 2.426 2.403a2.42 2.42 0 0 1-2.426 2.41 2.421 2.421 0 0 1-2.43-2.41c0-1.328 1.089-2.403 2.43-2.403zm-7.622 0a2.413 2.413 0 0 1 2.426 2.403 2.419 2.419 0 0 1-2.426 2.41 2.422 2.422 0 0 1-2.431-2.41c0-1.328 1.088-2.403 2.431-2.403zm24.097.459c.633.595.663 1.588.069 2.218l-.017.018L8.224 34.904a1.597 1.597 0 0 1-2.252.048 1.562 1.562 0 0 1-.076-2.208l.023-.022L31.775 5.907a1.604 1.604 0 0 1 2.255-.053l-.001-.001z"/>
    </g>
</svg>
