<?xml version="1.0" encoding="UTF-8"?>
<svg width="40px" height="40px" viewBox="0 0 40 40" version="1.1" xmlns="http://www.w3.org/2000/svg" xmlns:xlink="http://www.w3.org/1999/xlink">
    <!-- Generator: sketchtool 47.1 (45422) - http://www.bohemiancoding.com/sketch -->
    <title>B5E7B0B7-FB6E-46F7-BE70-24400BCCFE0D</title>
    <desc>Created with sketchtool.</desc>
    <defs></defs>
    <g id="Symbols" stroke="none" stroke-width="1" fill="none" fill-rule="evenodd">
        <g id="Validated" transform="translate(-416.000000, -30.000000)"></g>
        <g id="Icons/IntrusionCentral_Access_Areas" fill="#FFFFFF">
            <path d="M14.5,29.5 L32.5,29.5 L32.5,27.5 L14.5,27.5 L14.5,29.5 Z M9.5,27 C8.672,27 8,27.672 8,28.5 C8,29.329 8.672,30 9.5,30 C10.328,30 11,29.329 11,28.5 C11,27.672 10.328,27 9.5,27 L9.5,27 Z M14.5,21.5 L32.5,21.5 L32.5,19.5 L14.5,19.5 L14.5,21.5 Z M9.5,19 C8.672,19 8,19.672 8,20.5 C8,21.329 8.672,22 9.5,22 C10.328,22 11,21.329 11,20.5 C11,19.672 10.328,19 9.5,19 L9.5,19 Z M14.5,13.5 L32.5,13.5 L32.5,11.5 L14.5,11.5 L14.5,13.5 Z M9.5,11 C8.672,11 8,11.672 8,12.5 C8,13.329 8.672,14 9.5,14 C10.328,14 11,13.329 11,12.5 C11,11.672 10.328,11 9.5,11 L9.5,11 Z" id="Fill-13"></path>
        </g>
    </g>
</svg>