<svg xmlns="http://www.w3.org/2000/svg" width="40" height="40" viewBox="0 0 40 40">
    <g fill="none" fill-rule="evenodd" opacity=".3">
        <path d="M0 0h40v40H0z"/>
        <path d="M18.285 33.693h9.612v-23.23h-9.612z"/>
        <path fill="#FFF" d="M25.927 25.02h.03a1.065 1.065 0 0 1-.428-.785h-.01l-.003-11.362h-.006a2.42 2.42 0 0 0-4.84 0h-.006v11.362h-.014a1.064 1.064 0 0 1-.413.775v.01h.018a4.778 4.778 0 0 0-1.97 3.866 4.806 4.806 0 1 0 9.612 0c0-1.59-.78-2.994-1.97-3.866zm-4.583-11.928v-.008a1.747 1.747 0 0 1 1.75-1.734c.963 0 1.748.782 1.743 1.78v6.98h-3.493v-7.018zM14.819 8.974v-.008a1.75 1.75 0 0 1 1.749-1.735 1.75 1.75 0 0 1 1.744 1.782v6.98h-3.493v-7.02zm3.226 14.922a.241.241 0 0 1 .056-.064c.186-.145.903-.575.903-.9v-10.58c.022-.635 0-1.013-.013-2.064V8.755a2.43 2.43 0 0 0-2.425-2.411 2.42 2.42 0 0 0-2.42 2.41l-.006 11.364a1.133 1.133 0 0 1-.427.776 4.84 4.84 0 0 0-1.953 3.875c0 2.585 2.045 4.679 4.607 4.787a4.999 4.999 0 0 1-.306-1.668c0-1.631.782-3.075 1.984-3.992z"/>
    </g>
</svg>
