<?xml version="1.0" encoding="UTF-8"?>
<svg width="40px" height="40px" viewBox="0 0 40 40" version="1.1" xmlns="http://www.w3.org/2000/svg" xmlns:xlink="http://www.w3.org/1999/xlink">
    <!-- Generator: sketchtool 47.1 (45422) - http://www.bohemiancoding.com/sketch -->
    <title>D12B1B23-E955-4254-B0D9-8027DFA38A19</title>
    <desc>Created with sketchtool.</desc>
    <defs></defs>
    <g id="Symbols" stroke="none" stroke-width="1" fill="none" fill-rule="evenodd">
        <g id="Original-Icons/thermostat-comfort-white">
            <g id="Page-1">
                <rect id="Rectangle" x="0" y="0" width="40" height="40"></rect>
                <path d="M31.5203439,25.2329302 C31.252982,25.2329302 30.9881713,25.1546512 30.7580564,24.985814 L29.0804117,23.7640465 L28.7263103,22.6712093 C28.398741,21.658186 27.4696075,20.9782326 26.4062828,20.9782326 C26.1481051,20.9782326 25.8940093,21.0181395 25.6506284,21.0994884 C25.1771326,21.2555349 24.7730284,21.5420465 24.4740321,21.9293488 L21.8070464,23.8771163 L21.5723394,24.0444186 C21.1687455,24.3370698 20.6983111,24.4777674 20.2324687,24.4777674 C19.522225,24.4777674 18.8186143,24.1493023 18.3736915,23.5322791 L15.2587216,19.2207907 L15.3413793,19.159907 L9.13695124,19.159907 C8.64304611,19.159907 8.20781773,18.8411628 8.05627865,18.3725116 C7.90371911,17.9033488 8.0695447,17.390186 8.4690568,17.100093 L10.8314336,15.3769302 C11.0875704,15.7227907 11.3937099,16.0072558 11.7294429,16.2323721 C11.734035,16.2364651 11.7370964,16.238 11.7411783,16.2395349 C12.0774215,16.4651628 12.4463197,16.6304186 12.8284839,16.7373488 L12.8218509,16.7424651 C13.1014583,16.8197209 13.3856579,16.8688372 13.6749597,16.8836744 L13.8428262,16.8836744 C13.8698686,16.8836744 13.8979314,16.8821395 13.9259941,16.8836744 C14.656137,16.8647442 15.3929128,16.6411628 16.0312137,16.1771163 C16.9935124,15.4751628 17.5124189,14.398186 17.5593603,13.2920465 L17.552217,13.2951163 C17.5685445,12.9016744 17.5267054,12.506186 17.4215975,12.1224651 C17.4170054,12.1066047 17.4134338,12.0912558 17.4088417,12.0753953 C17.297611,11.692186 17.1256626,11.318186 16.8802407,10.9713023 L19.2880282,9.21795349 C19.6865199,8.92734884 20.224305,8.92734884 20.6238171,9.21795349 C21.0212883,9.50548837 21.1866036,10.0217209 21.0345543,10.4908837 L19.1160799,16.4170698 L19.1992478,16.3566977 L22.1341055,20.4174884 L24.7556805,18.5070698 C25.2123386,18.1745116 25.8271689,18.1745116 26.283827,18.5070698 L32.2821211,22.8825116 C32.8642965,23.3035814 32.9928751,24.1155349 32.5719332,24.6967442 C32.3157965,25.0477209 31.919856,25.2329302 31.5203439,25.2329302 M28.8196829,30.8813023 C28.6880429,30.9242791 28.5502801,30.947814 28.4211912,30.947814 C27.8711605,30.947814 27.3634791,30.5973488 27.185408,30.0468372 L25.1689688,23.8274884 C24.9480381,23.146 25.3210181,22.4113023 26.0031991,22.1897674 C26.6838493,21.966186 27.4196047,22.3422326 27.6369638,23.022186 L29.6544234,29.2405116 C29.8763745,29.9271163 29.5018638,30.6597674 28.8196829,30.8813023 M12.5305081,11.3033488 C13.5514834,10.5573953 14.9847267,10.7871163 15.7271151,11.8113953 C16.4689933,12.8366977 16.2450012,14.2733488 15.2199439,15.0157209 C14.2004993,15.762186 12.7657253,15.5345116 12.0228267,14.5097209 C11.279928,13.483907 11.508002,12.0472558 12.5305081,11.3033488" id="Fill-1" fill="#FFFFFF"></path>
            </g>
        </g>
    </g>
</svg>