<?xml version="1.0" encoding="UTF-8"?>
<svg width="40px" height="40px" viewBox="0 0 40 40" version="1.1" xmlns="http://www.w3.org/2000/svg" xmlns:xlink="http://www.w3.org/1999/xlink">
    <!-- Generator: sketchtool 48.2 (47327) - http://www.bohemiancoding.com/sketch -->
    <title>658670E3-EDC2-4214-A62C-E2E49B053641</title>
    <desc>Created with sketchtool.</desc>
    <defs></defs>
    <g id="Symbols" stroke="none" stroke-width="1" fill="none" fill-rule="evenodd">
        <g id="Original-Icons/default-picture">
            <rect id="Rectangle" x="0" y="2.27373675e-13" width="40" height="40"></rect>
            <path d="M26.001,14 L34,14 L34,6 L26.001,6 L26.001,14 Z M16,14 L24,14 L24,6 L16,6 L16,14 Z M6,14 L14,14 L14,6 L6,6 L6,14 Z M26.001,24 L34,24 L34,16 L26.001,16 L26.001,24 Z M16,24 L24,24 L24,16 L16,16 L16,24 Z M6,24 L14,24 L14,16 L6,16 L6,24 Z M26.001,34 L34,34 L34,26 L26.001,26 L26.001,34 Z M16,34 L24,34 L24,26 L16,26 L16,34 Z M6,34 L14,34 L14,26 L6,26 L6,34 Z" id="Page-1" fill="#FFFFFF"></path>
        </g>
    </g>
</svg>