<?xml version="1.0" encoding="UTF-8"?>
<svg width="40px" height="40px" viewBox="0 0 40 40" version="1.1" xmlns="http://www.w3.org/2000/svg" xmlns:xlink="http://www.w3.org/1999/xlink">
    <!-- Generator: sketchtool 48.2 (47327) - http://www.bohemiancoding.com/sketch -->
    <title>50DF36F5-BA41-4E72-8489-E3E9FC95C3C8</title>
    <desc>Created with sketchtool.</desc>
    <defs></defs>
    <g id="Symbols" stroke="none" stroke-width="1" fill="none" fill-rule="evenodd">
        <g id="Original-Icons/at-home-white">
            <g id="Group">
                <rect id="Rectangle" x="0" y="0" width="40" height="40"></rect>
                <g id="Group-2" transform="translate(4.000000, 7.000000)" fill="#FFFFFF">
                    <path d="M17.0446631,8.25142869 C17.0446631,8.89234299 16.5253488,9.41165728 15.8844345,9.41165728 C15.2444345,9.41165728 14.7251202,8.89234299 14.7251202,8.25142869 C14.7251202,7.6105144 15.2444345,7.09120011 15.8844345,7.09120011 C16.5253488,7.09120011 17.0446631,7.6105144 17.0446631,8.25142869" id="Fill-1"></path>
                    <path d="M18.5397946,10.6599316 C18.4986517,10.2119316 18.1338517,9.858103 17.6757945,9.858103 L17.6757945,9.84804586 L14.1731659,9.84804586 L14.1731659,9.85627443 C14.1448231,9.85536015 14.1219659,9.84073158 14.0945374,9.84073158 C13.6072231,9.84073158 13.2131659,10.235703 13.2131659,10.722103 C13.2131659,10.7614173 13.2314516,10.7952459 13.2360231,10.8336459 L13.2131659,10.8336459 L13.2131659,15.9829031 L13.9071088,15.9829031 L13.9071088,11.5897602 L14.1594516,11.5897602 L14.1594516,21.7913603 L14.1713374,21.7913603 C14.1695088,21.8105603 14.1594516,21.8279318 14.1594516,21.848046 C14.1594516,22.2613032 14.4986516,22.5968461 14.9119088,22.5968461 C15.3279088,22.5968461 15.6643659,22.2613032 15.6643659,21.848046 C15.6643659,21.8279318 15.6543088,21.8105603 15.6533945,21.7913603 L15.6680231,21.7913603 L15.6680231,15.7982174 L15.9669945,15.7982174 L15.9669945,21.7913603 L15.9788802,21.7913603 C15.9770517,21.8105603 15.9669945,21.8279318 15.9669945,21.848046 C15.9669945,22.2613032 16.3025374,22.5968461 16.7194517,22.5968461 C17.1327088,22.5968461 17.4719088,22.2613032 17.4719088,21.848046 C17.4719088,21.8279318 17.4618517,21.8105603 17.4600231,21.7913603 L17.4746517,21.7913603 L17.4746517,15.9829031 L17.4783088,15.9829031 L17.4783088,11.5897602 L17.731566,11.5897602 L17.731566,15.9829031 L18.5562517,15.9829031 L18.5562517,10.6599316 L18.5397946,10.6599316" id="Fill-3"></path>
                    <path d="M31.7678633,13.8924802 L23.8263775,7.4037944 L15.8848917,0.914194299 L7.94340583,7.4037944 L9.14285714e-05,13.8924802 L1.57174859,13.8924802 L1.57174859,24.8529375 L30.1971204,24.8529375 L30.1971204,13.8924802 L31.7678633,13.8924802 Z M2.93037719,23.7466518 L2.93037719,13.5276802 L7.94340583,9.42985157 L15.8848917,2.94116576 L23.8263775,9.42985157 L28.8403204,13.5276802 L28.8403204,23.7466518 L2.93037719,23.7466518 Z" id="Fill-5"></path>
                </g>
            </g>
        </g>
    </g>
</svg>