<?xml version="1.0" encoding="UTF-8"?>
<svg width="40px" height="40px" viewBox="0 0 40 40" version="1.1" xmlns="http://www.w3.org/2000/svg" xmlns:xlink="http://www.w3.org/1999/xlink">
    <!-- Generator: sketchtool 48.2 (47327) - http://www.bohemiancoding.com/sketch -->
    <title>949956D6-71C9-44A9-BFEB-1AC923417AB0</title>
    <desc>Created with sketchtool.</desc>
    <defs></defs>
    <g id="Symbols" stroke="none" stroke-width="1" fill="none" fill-rule="evenodd">
        <g id="Original-Icons/atmosphere-pressure">
            <g id="Page-1">
                <rect id="Rectangle" x="0" y="0" width="40" height="40"></rect>
                <path d="M28.6069,23.125 C28.6069,23.298 28.5919,23.467 28.5809,23.638 L31.4369,23.638 C31.4189,23.97 31.3589,24.293 31.3099,24.62 L22.3869,24.62 C22.1799,23.873 21.5549,23.302 20.7749,23.18 L17.7519,17.75 L18.8949,23.926 C18.7369,24.13 18.6209,24.366 18.5469,24.62 L9.6229,24.62 C9.5739,24.293 9.5149,23.97 9.4959,23.638 L12.3529,23.638 C12.3419,23.468 12.3269,23.299 12.3269,23.126 C12.3269,22.953 12.3419,22.784 12.3529,22.614 L9.4859,22.614 C9.5799,19.949 10.6209,17.528 12.2879,15.67 L14.3659,17.749 C14.5919,17.493 14.8339,17.251 15.0899,17.025 L13.0049,14.94 C14.8509,13.231 17.2769,12.15 19.9549,12.026 L19.9549,15.011 C20.1259,15 20.2939,14.985 20.4669,14.985 C20.6389,14.985 20.8079,15 20.9789,15.011 L20.9789,12.026 C23.6569,12.15 26.0829,13.231 27.9269,14.94 L25.8429,17.024 C26.0999,17.25 26.3409,17.492 26.5679,17.749 L28.6459,15.67 C30.3119,17.528 31.3539,19.949 31.4469,22.614 L28.5809,22.614 C28.5919,22.784 28.6069,22.952 28.6069,23.125 Z M33.3499,24.62 C33.4209,24.089 33.4659,23.551 33.4659,23 C33.4659,15.82 27.6459,10 20.4659,10 C13.2869,10 7.4659,15.82 7.4659,23 C7.4659,23.551 7.5119,24.089 7.5839,24.62 L5.0009,24.62 L5.0009,26.883 L8.9179,26.883 L32.0159,26.883 L35.9339,26.883 L35.9339,24.62 L33.3499,24.62 Z" id="Fill-1" fill="#FFFFFF"></path>
            </g>
        </g>
    </g>
</svg>