<?xml version="1.0" encoding="UTF-8"?>
<svg width="40px" height="40px" viewBox="0 0 40 40" version="1.1" xmlns="http://www.w3.org/2000/svg" xmlns:xlink="http://www.w3.org/1999/xlink">
    <!-- Generator: sketchtool 48.2 (47327) - http://www.bohemiancoding.com/sketch -->
    <title>70ACE99A-FA1C-42CC-8660-A9E324BAC5F1</title>
    <desc>Created with sketchtool.</desc>
    <defs></defs>
    <g id="Symbols" stroke="none" stroke-width="1" fill="none" fill-rule="evenodd">
        <g id="Original-Icons/hs_clock">
            <g id="Group">
                <rect id="Rectangle" x="0" y="0" width="40" height="40"></rect>
                <g id="Page-1" transform="translate(9.000000, 11.000000)" fill="#FEFEFE">
                    <polygon id="Fill-1" points="11.1716033 8.87336337 7.3943373 6.33483122 6.91058078 7.04619122 11.2548729 9.96062596 11.2596312 9.9685564 11.2635964 9.97252161 11.2715268 9.95190248 16.8149007 4.84073733 16.2312207 4.20868169"></polygon>
                    <path d="M20.8480818,8.79318667 L17.8305514,8.79318667 L17.8305514,9.26901275 L20.8480818,9.26901275 L20.8480818,13.7774649 C20.8480818,14.8084214 20.0764505,15.6442892 19.1255914,15.6442892 L15.8875949,15.6442892 L15.3998732,15.6442892 L11.4790663,15.6442892 L11.4790663,13.377771 L11.0032402,13.377771 L11.0032402,15.6442892 L3.46932726,15.6442892 C2.52243336,15.6442892 1.74683685,14.8084214 1.74683685,13.7774649 L1.74683685,9.2333258 L4.90077072,9.2333258 L4.90077072,8.75749972 L1.74683685,8.75749972 L1.74683685,3.78908239 C1.74683685,2.75812588 2.52243336,1.92622328 3.46932726,1.92622328 L11.0032402,1.92622328 L11.0032402,4.19274151 L11.4790663,4.19274151 L11.4790663,1.92622328 L19.1255914,1.92622328 C20.0764505,1.92622328 20.8480818,2.75812588 20.8480818,3.78908239 L20.8480818,8.79318667 Z M19.0098071,-7.93043468e-05 L3.58907682,-7.93043468e-05 C1.60646815,-7.93043468e-05 -0.00023791304,1.60662676 -0.00023791304,3.581305 L-0.00023791304,13.981277 C-0.00023791304,15.9678509 1.60646815,17.5705918 3.58907682,17.5705918 L15.3998732,17.5705918 L15.8875949,17.5705918 L19.0098071,17.5705918 C20.9876575,17.5705918 22.5951566,15.9678509 22.5951566,13.981277 L22.5951566,3.581305 C22.5951566,1.60662676 20.9876575,-7.93043468e-05 19.0098071,-7.93043468e-05 Z" id="Fill-2"></path>
                </g>
            </g>
        </g>
    </g>
</svg>