<?xml version="1.0" encoding="UTF-8"?>
<svg width="40px" height="40px" viewBox="0 0 40 40" version="1.1" xmlns="http://www.w3.org/2000/svg" xmlns:xlink="http://www.w3.org/1999/xlink">
    <!-- Generator: sketchtool 48.2 (47327) - http://www.bohemiancoding.com/sketch -->
    <title>E2FF85B2-9BE8-4E4F-9F3D-F74A4CF4B3B7</title>
    <desc>Created with sketchtool.</desc>
    <defs></defs>
    <g id="Symbols" stroke="none" stroke-width="1" fill="none" fill-rule="evenodd">
        <g id="Original-Icons/hs_guest">
            <g id="Page-1" transform="translate(-0.500000, 0.000000)">
                <rect id="Rectangle" x="0.5" y="0" width="40" height="40"></rect>
                <path d="M32.4387,11.8039 C33.4867,11.8039 34.3397,10.9549 34.3397,9.9029 C34.3397,8.8529 33.4867,7.9999 32.4387,7.9999 C31.3857,7.9999 30.5377,8.8529 30.5377,9.9029 C30.5377,10.9549 31.3857,11.8039 32.4387,11.8039 M35.8297,21.5569 C35.9787,21.9529 36.4257,22.1449 36.8217,21.9959 C37.2167,21.8409 37.4127,21.3989 37.2597,21.0039 L34.3487,13.3909 C34.2157,12.7649 33.8367,12.3589 33.1017,12.3589 L32.3277,12.3589 C31.3897,12.3589 31.0197,13.0029 31.0197,13.9409 L31.0197,17.4259 L28.8647,21.5099 C28.6677,21.8849 28.8077,22.3469 29.1817,22.5439 C29.5567,22.7419 30.0237,22.6019 30.2217,22.2269 L31.0197,20.7079 L31.0197,22.3389 L28.6157,31.5699 C28.4897,32.1229 28.8307,32.6709 29.3847,32.7959 C29.9327,32.9229 30.4817,32.5799 30.6057,32.0269 L32.7137,23.9489 L34.8197,32.0269 C34.9507,32.5799 35.4937,32.9229 36.0467,32.7959 C36.5947,32.6709 36.9417,32.1229 36.8157,31.5699 L34.4117,22.3589 L34.4117,17.8439 L35.8297,21.5569" id="Fill-1" fill="#FEFEFE"></path>
                <path d="M15.8322,19.3498 C15.8322,19.8698 15.4122,20.2908 14.8912,20.2908 C14.3712,20.2908 13.9492,19.8698 13.9492,19.3498 C13.9492,18.8298 14.3712,18.4098 14.8912,18.4098 C15.4122,18.4098 15.8322,18.8298 15.8322,19.3498" id="Fill-4" fill="#FEFEFE"></path>
                <path d="M17.0451,21.3039 C17.0131,20.9409 16.7161,20.6539 16.3441,20.6539 L16.3441,20.6449 L13.5021,20.6449 L13.5021,20.6529 C13.4781,20.6519 13.4601,20.6399 13.4371,20.6399 C13.0441,20.6399 12.7241,20.9609 12.7241,21.3549 C12.7241,21.3869 12.7381,21.4149 12.7421,21.4459 L12.7241,21.4459 L12.7241,25.6239 L13.2861,25.6239 L13.2861,22.0589 L13.4911,22.0589 L13.4911,30.3369 L13.5001,30.3369 C13.5001,30.3529 13.4911,30.3669 13.4911,30.3829 C13.4911,30.7189 13.7661,30.9899 14.1021,30.9899 C14.4381,30.9899 14.7121,30.7189 14.7121,30.3829 C14.7121,30.3669 14.7041,30.3529 14.7041,30.3369 L14.7141,30.3369 L14.7141,25.4739 L14.9571,25.4739 L14.9571,30.3369 L14.9661,30.3369 C14.9661,30.3529 14.9571,30.3669 14.9571,30.3829 C14.9571,30.7189 15.2301,30.9899 15.5681,30.9899 C15.9041,30.9899 16.1791,30.7189 16.1791,30.3829 C16.1791,30.3669 16.1701,30.3529 16.1701,30.3369 L16.1811,30.3369 L16.1811,25.6239 L16.1841,25.6239 L16.1841,22.0589 L16.3891,22.0589 L16.3891,25.6239 L17.0581,25.6239 L17.0581,21.3039 L17.0451,21.3039" id="Fill-6" fill="#FEFEFE"></path>
                <path d="M27.7795,23.9284 L21.3365,18.6614 L14.8905,13.3964 L8.4465,18.6614 L2.0005,23.9284 L3.2775,23.9284 L3.2775,32.8224 L26.5055,32.8224 L26.5055,23.9284 L27.7795,23.9284 Z M4.3795,31.9234 L4.3795,23.6324 L8.4465,20.3064 L14.8905,15.0414 L21.3365,20.3064 L25.4045,23.6324 L25.4045,31.9234 L4.3795,31.9234 Z" id="Fill-8" fill="#FEFEFE"></path>
            </g>
        </g>
    </g>
</svg>