<?xml version="1.0" encoding="UTF-8"?>
<svg width="40px" height="40px" viewBox="0 0 40 40" version="1.1" xmlns="http://www.w3.org/2000/svg" xmlns:xlink="http://www.w3.org/1999/xlink">
    <!-- Generator: sketchtool 48.2 (47327) - http://www.bohemiancoding.com/sketch -->
    <title>AD3EE08F-372C-45F8-B2D9-0C3712C97D30</title>
    <desc>Created with sketchtool.</desc>
    <defs></defs>
    <g id="Symbols" stroke="none" stroke-width="1" fill="none" fill-rule="evenodd">
        <g id="Original-Icons/hs_luggage">
            <g id="Page-1" transform="translate(-0.500000, 0.000000)">
                <rect id="Rectangle" x="0.5" y="0" width="40" height="40"></rect>
                <path d="M17.7002,11.82 L22.4852,11.82 L22.4852,11.083 L17.7002,11.083 L17.7002,11.82 Z M23.7462,11.82 L26.2922,11.82 L26.2922,30.631 L13.8942,30.631 L13.8942,11.82 L16.4402,11.82 L16.4402,10.658 C16.4402,10.293 16.7332,10 17.0972,10 L23.0872,10 C23.4502,10 23.7462,10.293 23.7462,10.658 L23.7462,11.82 Z M28.35,11.8196 C30.465,11.8196 32.186,13.5366 32.186,15.6556 L32.186,26.7946 C32.186,28.9146 30.465,30.6316 28.35,30.6316 L27.696,30.6316 L27.696,11.8196 L28.35,11.8196 Z M8,15.6556 C8,13.5366 9.716,11.8196 11.836,11.8196 L12.489,11.8196 L12.489,30.6316 L11.836,30.6316 C9.716,30.6316 8,28.9146 8,26.7946 L8,15.6556 Z" id="Combined-Shape" fill="#FEFEFE"></path>
            </g>
        </g>
    </g>
</svg>