<?xml version="1.0" encoding="UTF-8"?>
<svg width="40px" height="40px" viewBox="0 0 40 40" version="1.1" xmlns="http://www.w3.org/2000/svg" xmlns:xlink="http://www.w3.org/1999/xlink">
    <!-- Generator: sketchtool 48.2 (47327) - http://www.bohemiancoding.com/sketch -->
    <title>4F9ECD7A-C21F-420E-8495-8DBBA9A4EF3E</title>
    <desc>Created with sketchtool.</desc>
    <defs></defs>
    <g id="Symbols" stroke="none" stroke-width="1" fill="none" fill-rule="evenodd">
        <g id="Original-Icons/hs_manual">
            <g id="Page-1" transform="translate(-0.500000, 0.000000)">
                <rect id="Rectangle" x="0.5" y="0" width="40" height="40"></rect>
                <g id="Group" transform="translate(3.500000, 7.000000)" fill="#FEFEFE">
                    <path d="M8.8097,6.7883 L0.4997,13.5773 L2.1447,13.5773 L2.1447,25.0453 L32.0927,25.0453 L32.0927,13.5773 L33.7347,13.5773 L25.4277,6.7883 L17.1187,0.0003 L8.8097,6.7883 Z M3.5667,13.1943 L8.8097,8.9093 L17.1187,2.1213 L25.4277,8.9093 L30.6727,13.1943 L30.6727,23.8863 L3.5667,23.8863 L3.5667,13.1943 Z" id="Fill-1"></path>
                    <path d="M15.1226,22.0988 L20.4736,22.1318 L21.8676,18.2278 C22.1476,17.2488 22.2996,16.0488 22.2996,15.0588 C22.2996,14.9418 22.2976,14.8278 22.2946,14.7178 L22.2916,14.7078 L22.2916,10.2648 C22.0846,10.0868 21.8566,9.9958 21.6176,9.9958 C21.3786,9.9958 21.1496,10.0868 20.9406,10.2648 L20.9406,13.5998 C20.9406,13.6868 20.9026,13.7698 20.8336,13.8298 C20.7666,13.8908 20.6726,13.9278 20.5756,13.9278 C20.4796,13.9278 20.3836,13.8908 20.3166,13.8298 C20.2486,13.7698 20.2106,13.6868 20.2106,13.5998 L20.2106,10.1348 L20.2106,8.0068 C20.0376,7.8308 19.7446,7.7208 19.4956,7.7238 C19.2596,7.7278 19.0696,7.8068 18.8576,7.9938 L18.8576,12.9428 C18.8576,13.0268 18.8186,13.1118 18.7506,13.1738 C18.6836,13.2328 18.5896,13.2678 18.4926,13.2678 C18.3966,13.2678 18.3036,13.2328 18.2356,13.1738 C18.1666,13.1118 18.1276,13.0268 18.1276,12.9428 L18.1276,7.8638 L18.1276,6.9808 C17.9196,6.8078 17.6516,6.7078 17.4106,6.7118 C17.1646,6.7098 16.9036,6.8078 16.6946,7.0048 L16.6946,12.9598 C16.6946,13.0428 16.6556,13.1298 16.5876,13.1908 C16.5196,13.2498 16.4256,13.2858 16.3296,13.2858 C16.2336,13.2858 16.1396,13.2498 16.0706,13.1908 C16.0036,13.1298 15.9636,13.0428 15.9636,12.9598 L15.9636,7.9638 C15.7566,7.7858 15.5256,7.6928 15.2886,7.6928 C15.0486,7.6928 14.7816,7.7928 14.5726,7.9638 L14.5726,16.0108 C14.5726,16.1408 14.4866,16.2578 14.3526,16.3098 C14.2206,16.3608 14.0666,16.3398 13.9596,16.2488 L13.3276,15.7308 C13.2536,15.6678 13.2106,15.5808 13.2106,15.4918 L13.2106,12.6598 C13.0016,12.4788 12.7666,12.3868 12.5756,12.3898 C12.3806,12.3868 12.1466,12.4788 11.9356,12.6598 L11.9356,17.4408 L11.9356,17.4518 L11.9356,17.4678 C11.9196,17.9698 12.4616,18.6888 12.9116,19.2918 L15.1226,22.0988 Z M20.7386,22.7858 L14.9296,22.7508 C14.8116,22.7488 14.7006,22.6988 14.6316,22.6108 L12.3116,19.6678 L12.3056,19.6558 C11.8866,19.0608 11.2236,18.3158 11.2056,17.4678 L11.2056,17.4328 L11.2056,12.5288 C11.2056,12.4498 11.2386,12.3718 11.2976,12.3138 C11.6286,11.9768 12.0746,11.7398 12.5756,11.7378 C13.0706,11.7398 13.5126,11.9738 13.8416,12.3048 L13.8416,7.8328 C13.8416,7.7538 13.8746,7.6798 13.9326,7.6188 C14.2746,7.2698 14.7636,7.0438 15.2886,7.0418 C15.5306,7.0418 15.7576,7.0918 15.9636,7.1778 L15.9636,6.8848 C15.9636,6.8118 15.9916,6.7418 16.0416,6.6838 C16.3846,6.2898 16.8886,6.0588 17.4106,6.0588 C17.9346,6.0608 18.4236,6.2848 18.7676,6.6338 L18.4926,6.8498 L18.7676,6.6338 C18.8266,6.6948 18.8576,6.7688 18.8576,6.8498 L18.8576,7.1988 C19.0506,7.1188 19.2636,7.0708 19.4956,7.0718 C20.0136,7.0758 20.5526,7.2908 20.8776,7.7158 C20.9196,7.7698 20.9406,7.8328 20.9406,7.9008 L20.9406,9.4788 C21.1476,9.3928 21.3756,9.3438 21.6176,9.3438 C22.1426,9.3438 22.6056,9.5798 22.9346,9.9198 C22.9926,9.9798 23.0226,10.0568 23.0226,10.1348 L23.0226,14.6988 C23.0266,14.8158 23.0306,14.9348 23.0306,15.0588 C23.0306,16.1088 22.8736,17.3518 22.5736,18.4008 L22.5676,18.4198 L21.0886,22.5578 C21.0396,22.6928 20.8996,22.7858 20.7416,22.7858 L20.7386,22.7858 Z" id="Fill-2"></path>
                </g>
            </g>
        </g>
    </g>
</svg>