<?xml version="1.0" encoding="UTF-8"?>
<svg width="40px" height="40px" viewBox="0 0 40 40" version="1.1" xmlns="http://www.w3.org/2000/svg" xmlns:xlink="http://www.w3.org/1999/xlink">
    <!-- Generator: sketchtool 48.2 (47327) - http://www.bohemiancoding.com/sketch -->
    <title>F70EC4AE-CF86-476D-9A3B-14F5A3863F1E</title>
    <desc>Created with sketchtool.</desc>
    <defs></defs>
    <g id="Symbols" stroke="none" stroke-width="1" fill="none" fill-rule="evenodd">
        <g id="Original-Icons/hs_monitoring">
            <g id="Page-1" transform="translate(-0.500000, 0.000000)">
                <rect id="Rectangle" x="0.5" y="0" width="40" height="40"></rect>
                <path d="M24.0863,18.7025 L23.1853,21.5355 C23.0923,21.8485 23.2953,22.1435 23.6073,22.2355 L26.4043,23.1365 C26.7363,23.1925 27.0863,23.0815 27.3063,22.8055 L27.6013,22.5845 L30.1953,20.6345 C30.2873,20.3215 30.1213,19.9725 29.8093,19.8805 L24.8593,18.2975 C24.5283,18.2055 24.1963,18.3715 24.0863,18.7025" id="Fill-1" fill="#FEFEFE"></path>
                <path d="M23.2582,17.8192 L15.4022,15.3352 C15.0892,15.2432 14.7392,15.4092 14.6472,15.7212 L13.3592,19.7882 C13.2672,20.1012 13.4332,20.4502 13.7452,20.5422 L14.3892,20.7452 C14.1132,21.7202 14.6652,22.7692 15.6222,23.0812 C16.5972,23.3942 17.6652,22.8612 17.9772,21.8852 L21.6022,23.0262 C21.9152,23.1362 22.2652,22.9532 22.3572,22.6402 L23.6452,18.5732 C23.7552,18.2602 23.5712,17.9292 23.2582,17.8192" id="Fill-3" fill="#FEFEFE"></path>
                <path d="M14.7762,23.1 L13.0282,24.995 L11.2802,24.922 C11.1882,24.903 11.0772,24.903 10.9482,24.977 C10.8382,25.032 10.7102,25.142 10.6362,25.271 C10.5812,25.382 10.5812,25.511 10.5622,25.621 L10.5812,30.221 L11.5742,30.184 C12.0712,29.595 12.5682,28.988 12.8992,28.344 C13.2302,27.7 13.3782,27.019 13.5432,26.32 L16.0272,23.597 C15.7882,23.597 15.5302,23.579 15.3282,23.505 C15.1072,23.413 14.9422,23.247 14.7762,23.1" id="Fill-5" fill="#FEFEFE"></path>
                <path d="M34.556,31.9686 L6.22,31.9686 L6.22,20.7816 L11.703,16.3106 L20.388,9.2076 L29.073,16.3106 L34.556,20.7816 L34.556,31.9686 Z M29.073,14.0836 L20.388,6.9996 L11.703,14.0836 L3,21.1866 L4.73,21.1866 L4.73,33.1646 L36.028,33.1646 L36.028,21.1866 L37.758,21.1866 L29.073,14.0836 Z" id="Fill-7" fill="#FEFEFE"></path>
            </g>
        </g>
    </g>
</svg>