<?xml version="1.0" encoding="UTF-8"?>
<svg width="40px" height="40px" viewBox="0 0 40 40" version="1.1" xmlns="http://www.w3.org/2000/svg" xmlns:xlink="http://www.w3.org/1999/xlink">
    <!-- Generator: sketchtool 48.2 (47327) - http://www.bohemiancoding.com/sketch -->
    <title>7E637C63-F0F6-4237-B720-4A3E029DF78C</title>
    <desc>Created with sketchtool.</desc>
    <defs></defs>
    <g id="Symbols" stroke="none" stroke-width="1" fill="none" fill-rule="evenodd">
        <g id="Original-Icons/hs_security">
            <g id="Page-1" transform="translate(-0.500000, 0.000000)">
                <rect id="Rectangle" x="0.5" y="0" width="40" height="40"></rect>
                <g transform="translate(4.500000, 4.000000)" fill="#FEFEFE">
                    <path d="M20.0092,10.1115 C20.0092,9.4815 19.5222,8.9705 18.9112,8.9375 L18.9112,8.9325 L12.7472,8.9325 C12.0932,8.9325 11.5662,9.4605 11.5662,10.1115 C11.5662,10.1745 11.5742,10.2365 11.5842,10.2975 L11.5662,10.2975 L11.5662,17.4205 L12.5732,17.4205 L12.5732,11.2985 L13.1702,11.2985 L13.1702,17.5225 L13.1762,17.5225 L13.1762,25.8055 C13.1762,25.8155 13.1702,25.8235 13.1702,25.8335 C13.1702,26.3475 13.6282,26.7645 14.1942,26.7645 C14.7512,26.7645 15.2002,26.3585 15.2122,25.8555 L15.2172,25.8555 L15.2172,25.8355 L15.2172,25.8335 L15.2172,25.8325 L15.2172,17.5225 L16.2962,17.5225 L16.2962,25.8055 C16.2962,25.8155 16.2902,25.8235 16.2902,25.8335 C16.2902,26.3475 16.7482,26.7645 17.3132,26.7645 C17.8702,26.7645 18.3192,26.3585 18.3322,25.8555 L18.3362,25.8555 L18.3362,25.8355 L18.3362,25.8335 L18.3362,25.8325 L18.3362,17.5225 L18.3382,17.5225 L18.3382,11.2985 L19.0212,11.2985 L19.0212,17.4205 L20.0092,17.4205 L20.0092,10.2975 L19.9912,10.2975 C20.0012,10.2365 20.0092,10.1745 20.0092,10.1115 M15.7872,8.3505 C16.7742,8.3505 17.5732,7.5495 17.5732,6.5635 C17.5732,5.5775 16.7742,4.7785 15.7872,4.7785 C14.8012,4.7785 14.0012,5.5775 14.0012,6.5635 C14.0012,7.5495 14.8012,8.3505 15.7872,8.3505" id="Fill-1"></path>
                    <path d="M15.6865,27.5886 C9.1135,27.5886 3.7855,22.2606 3.7855,15.6876 C3.7855,9.1136 9.1135,3.7856 15.6865,3.7856 C22.2605,3.7856 27.5885,9.1136 27.5885,15.6876 C27.5885,22.2606 22.2605,27.5886 15.6865,27.5886 Z M27.8465,16.3246 L31.3745,15.6876 L27.8465,15.0496 L31.2885,14.0476 L27.7135,13.7826 L31.0305,12.4256 L27.4485,12.5356 L30.6055,10.8396 L27.0545,11.3236 L30.0185,9.3066 L26.5365,10.1596 L29.2725,7.8446 L25.8985,9.0556 L28.3775,6.4666 L25.1495,8.0246 L27.3435,5.1906 L24.2965,7.0776 L26.1835,4.0296 L23.3505,6.2246 L24.9075,2.9966 L22.3185,5.4756 L23.5305,2.1016 L21.2155,4.8386 L22.0675,1.3576 L20.0505,4.3196 L20.5345,0.7686 L18.8375,3.9256 L18.9485,0.3426 L17.5915,3.6606 L17.3265,0.0866 L16.3245,3.5276 L15.6865,0.0006 L15.0495,3.5276 L14.0475,0.0866 L13.7825,3.6606 L12.4255,0.3426 L12.5355,3.9256 L10.8395,0.7686 L11.3235,4.3196 L9.3065,1.3576 L10.1585,4.8386 L7.8435,2.1016 L9.0555,5.4756 L6.4665,2.9966 L8.0235,6.2246 L5.1905,4.0296 L7.0765,7.0776 L4.0295,5.1906 L6.2245,8.0246 L2.9965,6.4666 L5.4745,9.0556 L2.1015,7.8446 L4.8375,10.1596 L1.3565,9.3066 L4.3195,11.3236 L0.7685,10.8396 L3.9255,12.5356 L0.3435,12.4256 L3.6605,13.7826 L0.0865,14.0476 L3.5265,15.0496 L-0.0005,15.6876 L3.5265,16.3246 L0.0865,17.3266 L3.6605,17.5916 L0.3435,18.9476 L3.9255,18.8386 L0.7685,20.5346 L4.3195,20.0506 L1.3565,22.0676 L4.8375,21.2156 L2.1015,23.5296 L5.4745,22.3186 L2.9965,24.9076 L6.2245,23.3506 L4.0295,26.1836 L7.0765,24.2966 L5.1905,27.3446 L8.0235,25.1506 L6.4665,28.3786 L9.0555,25.8996 L7.8435,29.2726 L10.1585,26.5366 L9.3065,30.0176 L11.3235,27.0546 L10.8395,30.6066 L12.5355,27.4486 L12.4255,31.0316 L13.7825,27.7136 L14.0465,31.2876 L15.0495,27.8466 L15.6865,31.3746 L16.3245,27.8466 L17.3265,31.2876 L17.5915,27.7136 L18.9485,31.0316 L18.8375,27.4486 L20.5345,30.6066 L20.0505,27.0546 L22.0675,30.0176 L21.2155,26.5366 L23.5305,29.2726 L22.3185,25.8996 L24.9075,28.3786 L23.3505,25.1506 L26.1835,27.3446 L24.2965,24.2966 L27.3435,26.1836 L25.1495,23.3506 L28.3775,24.9076 L25.8985,22.3186 L29.2725,23.5296 L26.5365,21.2156 L30.0185,22.0676 L27.0545,20.0506 L30.6055,20.5346 L27.4485,18.8386 L31.0305,18.9476 L27.7135,17.5916 L31.2885,17.3266 L27.8465,16.3246 Z" id="Fill-3"></path>
                </g>
            </g>
        </g>
    </g>
</svg>