<?xml version="1.0" encoding="UTF-8"?>
<svg width="40px" height="40px" viewBox="0 0 40 40" version="1.1" xmlns="http://www.w3.org/2000/svg" xmlns:xlink="http://www.w3.org/1999/xlink">
    <!-- Generator: sketchtool 48.2 (47327) - http://www.bohemiancoding.com/sketch -->
    <title>2129E253-771B-43F6-95CF-8706E0A94AE6</title>
    <desc>Created with sketchtool.</desc>
    <defs></defs>
    <g id="Symbols" stroke="none" stroke-width="1" fill="none" fill-rule="evenodd">
        <g id="Original-Icons/hs_shortabsence">
            <g id="Page-1">
                <rect id="Rectangle" x="0" y="0" width="40" height="40"></rect>
                <path d="M34.8914,9.8554 C34.8914,10.8794 34.0594,11.7144 33.0354,11.7144 C32.0094,11.7144 31.1794,10.8794 31.1794,9.8554 C31.1794,8.8304 32.0094,8.0004 33.0354,8.0004 C34.0594,8.0004 34.8914,8.8304 34.8914,9.8554" id="Fill-1" fill="#FEFEFE"></path>
                <path d="M37.2869,13.7099 C37.2209,12.9939 36.6369,12.4249 35.9049,12.4239 L35.9049,12.4129 L30.2929,12.4129 L30.2929,12.4239 C30.2519,12.4199 30.2159,12.3989 30.1709,12.3989 C29.3909,12.3989 28.7589,13.0319 28.7589,13.8119 C28.7589,13.8749 28.7879,13.9299 28.7949,13.9929 L28.7589,13.9929 L28.7589,22.2299 L29.8699,22.2299 L29.8699,15.1969 L30.2739,15.1969 L30.2739,31.5349 L30.2919,31.5349 C30.2879,31.5639 30.2739,31.5899 30.2739,31.6189 C30.2739,32.2839 30.8129,32.8219 31.4789,32.8219 C32.1439,32.8219 32.6819,32.2839 32.6819,31.6189 C32.6819,31.5899 32.6649,31.5639 32.6629,31.5349 L32.6849,31.5349 L32.6849,21.9389 L33.1679,21.9389 L33.1679,31.5349 L33.1839,31.5349 C33.1839,31.5639 33.1679,31.5899 33.1679,31.6189 C33.1679,32.2839 33.7059,32.8219 34.3739,32.8219 C35.0339,32.8219 35.5749,32.2839 35.5749,31.6189 C35.5749,31.5899 35.5599,31.5639 35.5579,31.5349 L35.5809,31.5349 L35.5809,22.2299 L35.5889,22.2299 L35.5889,15.1969 L35.9929,15.1969 L35.9929,22.2299 L37.3119,22.2299 L37.3119,13.7099 L37.2869,13.7099" id="Fill-3" fill="#FEFEFE"></path>
                <path d="M26.7791,24.267 L20.5831,19.209 L14.3891,14.146 L8.1941,19.209 L2.0001,24.267 L3.2271,24.267 L3.2271,32.822 L25.5531,32.822 L25.5531,24.267 L26.7791,24.267 Z M4.7001,31.541 L4.7001,23.988 L14.3891,16.142 L24.0811,23.988 L24.0811,31.541 L4.7001,31.541 Z" id="Fill-5" fill="#FEFEFE"></path>
                <path d="M14.3909,20.5976 C12.1469,20.5976 10.3339,22.4116 10.3339,24.6576 C10.3339,26.8956 12.1469,28.7136 14.3909,28.7136 C16.6299,28.7136 18.4469,26.8956 18.4469,24.6576 C18.4469,22.4116 16.6299,20.5976 14.3909,20.5976 M14.4179,28.1666 C12.4739,28.1666 10.9029,26.5926 10.9029,24.6576 C10.9029,22.7146 12.4739,21.1446 14.4179,21.1446 C16.3529,21.1446 17.9279,22.7146 17.9279,24.6576 C17.9279,26.5926 16.3529,28.1666 14.4179,28.1666" id="Fill-7" fill="#FEFEFE"></path>
                <path d="M14.3909,24.6572 L14.3909,20.5972 C15.0419,20.5972 15.8999,20.8302 16.4219,21.1412 L14.3909,24.6572" id="Fill-9" fill="#FEFEFE"></path>
            </g>
        </g>
    </g>
</svg>