<?xml version="1.0" encoding="UTF-8"?>
<svg width="40px" height="40px" viewBox="0 0 40 40" version="1.1" xmlns="http://www.w3.org/2000/svg" xmlns:xlink="http://www.w3.org/1999/xlink">
    <!-- Generator: sketchtool 48.2 (47327) - http://www.bohemiancoding.com/sketch -->
    <title>C341EAB5-F279-452D-801D-A697134CC51B</title>
    <desc>Created with sketchtool.</desc>
    <defs></defs>
    <g id="Symbols" stroke="none" stroke-width="1" fill="none" fill-rule="evenodd">
        <g id="Original-Icons/hs_travel">
            <g id="Group">
                <rect id="Rectangle" x="0" y="0" width="40" height="40"></rect>
                <g id="Page-1" transform="translate(13.000000, 8.000000)" fill="#FEFEFE">
                    <path d="M4.2765,3.7146 C5.3005,3.7146 6.1325,2.8796 6.1325,1.8556 C6.1325,0.8306 5.3005,0.0006 4.2765,0.0006 C3.2505,0.0006 2.4205,0.8306 2.4205,1.8556 C2.4205,2.8796 3.2505,3.7146 4.2765,3.7146" id="Fill-1"></path>
                    <path d="M11.114,15.153 L12.98,15.153 L12.98,12.343 L11.114,12.343 L11.114,15.153 Z M14.318,15.153 L13.846,15.153 L13.846,12.342 L14.234,12.342 C14.349,12.342 14.443,12.249 14.443,12.133 L14.443,11.436 C14.443,11.32 14.349,11.226 14.234,11.226 L12.592,11.226 L12.603,11.222 L9.854,11.222 C9.825,11.222 9.805,11.242 9.78,11.253 L8.553,10.475 L8.553,5.71 L8.528,5.71 C8.462,4.994 7.878,4.425 7.146,4.424 L7.146,4.412 L1.535,4.412 L1.535,4.424 C1.493,4.421 1.457,4.399 1.412,4.399 C0.632,4.399 0,5.032 0,5.812 C0,5.875 0.029,5.929 0.036,5.993 L0,5.993 L0,14.229 L1.111,14.229 L1.111,7.197 L1.515,7.197 L1.515,23.535 L1.533,23.535 C1.529,23.564 1.515,23.59 1.515,23.619 C1.515,24.284 2.054,24.822 2.72,24.822 C3.385,24.822 3.923,24.284 3.923,23.619 C3.923,23.59 3.906,23.564 3.905,23.535 L3.926,23.535 L3.926,13.938 L4.41,13.938 L4.41,23.535 L4.426,23.535 C4.426,23.564 4.41,23.59 4.41,23.619 C4.41,24.284 4.947,24.822 5.615,24.822 C6.275,24.822 6.816,24.284 6.816,23.619 C6.816,23.59 6.801,23.564 6.799,23.535 L6.823,23.535 L6.823,14.229 L6.83,14.229 L6.83,7.197 L7.235,7.197 L7.235,10.476 L9.742,12.306 C9.776,12.329 9.817,12.342 9.86,12.342 L10.241,12.342 L10.241,15.149 L10.247,15.105 L10.247,15.153 L9.776,15.153 C9.425,15.153 9.141,15.437 9.141,15.787 L9.141,23.069 C9.141,23.419 9.425,23.703 9.776,23.703 L10.247,23.703 L10.247,24.389 C10.247,24.628 10.441,24.822 10.68,24.822 C10.92,24.822 11.113,24.628 11.113,24.389 L11.113,23.703 L12.98,23.703 L12.98,24.389 C12.98,24.628 13.174,24.822 13.413,24.822 C13.652,24.822 13.846,24.628 13.846,24.389 L13.846,23.703 L14.318,23.703 C14.669,23.703 14.952,23.419 14.952,23.069 L14.952,15.787 C14.953,15.437 14.669,15.153 14.318,15.153 Z" id="Fill-3"></path>
                </g>
            </g>
        </g>
    </g>
</svg>