<?xml version="1.0" encoding="UTF-8"?>
<svg width="40px" height="40px" viewBox="0 0 40 40" version="1.1" xmlns="http://www.w3.org/2000/svg" xmlns:xlink="http://www.w3.org/1999/xlink">
    <!-- Generator: sketchtool 48.2 (47327) - http://www.bohemiancoding.com/sketch -->
    <title>1E2A4041-DE48-4CEA-AA77-9E98CFA004CD</title>
    <desc>Created with sketchtool.</desc>
    <defs>
        <polygon id="path-1" points="0.0002 0.0003 19.736 0.0003 19.736 25.2653 0.0002 25.2653"></polygon>
    </defs>
    <g id="Symbols" stroke="none" stroke-width="1" fill="none" fill-rule="evenodd">
        <g id="Original-Icons/hs_work">
            <g id="Group">
                <rect id="Rectangle" x="0" y="0" width="40" height="40"></rect>
                <g id="Page-1" transform="translate(10.000000, 7.000000)">
                    <mask id="mask-2" fill="white">
                        <use xlink:href="#path-1"></use>
                    </mask>
                    <g id="Clip-2"></g>
                    <path d="M14.176,18.6293 L16.359,18.6293 L16.359,17.4243 L14.176,17.4243 L14.176,18.6293 Z M18.99,18.6293 L17.519,18.6293 L17.519,17.3313 C17.519,16.7443 17.041,16.2653 16.453,16.2653 L14.083,16.2653 C13.496,16.2653 13.017,16.7443 13.017,17.3313 L13.017,18.6293 L11.547,18.6293 C11.135,18.6293 10.8,18.9633 10.8,19.3753 L10.8,24.5193 C10.8,24.9313 11.135,25.2653 11.547,25.2653 L18.99,25.2653 C19.402,25.2653 19.736,24.9313 19.736,24.5193 L19.736,19.3753 C19.736,18.9633 19.402,18.6293 18.99,18.6293 Z" id="Fill-1" fill="#FEFEFE" mask="url(#mask-2)"></path>
                    <path d="M6.1327,1.8551 C6.1327,2.8791 5.3007,3.7141 4.2767,3.7141 C3.2507,3.7141 2.4207,2.8791 2.4207,1.8551 C2.4207,0.8301 3.2507,0.0001 4.2767,0.0001 C5.3007,0.0001 6.1327,0.8301 6.1327,1.8551" id="Fill-3" fill="#FEFEFE" mask="url(#mask-2)"></path>
                    <path d="M8.5282,5.7096 C8.4622,4.9936 7.8772,4.4246 7.1462,4.4236 L7.1462,4.4126 L1.5342,4.4126 L1.5342,4.4236 C1.4932,4.4206 1.4572,4.3986 1.4122,4.3986 C0.6322,4.3986 0.0002,5.0326 0.0002,5.8116 C0.0002,5.8756 0.0282,5.9296 0.0362,5.9926 L0.0002,5.9926 L0.0002,14.2296 L1.1102,14.2296 L1.1102,7.1976 L1.5152,7.1976 L1.5152,23.5346 L1.5322,23.5346 C1.5292,23.5636 1.5152,23.5896 1.5152,23.6186 C1.5152,24.2836 2.0532,24.8216 2.7202,24.8216 C3.3852,24.8216 3.9232,24.2836 3.9232,23.6186 C3.9232,23.5896 3.9062,23.5636 3.9042,23.5346 L3.9262,23.5346 L3.9262,13.9386 L4.4092,13.9386 L4.4092,23.5346 L4.4252,23.5346 C4.4252,23.5636 4.4092,23.5896 4.4092,23.6186 C4.4092,24.2836 4.9462,24.8216 5.6152,24.8216 C6.2752,24.8216 6.8152,24.2836 6.8152,23.6186 C6.8152,23.5896 6.8012,23.5636 6.7992,23.5346 L6.8222,23.5346 L6.8222,14.2296 L6.8302,14.2296 L6.8302,7.1976 L7.2342,7.1976 L7.2342,14.2296 L8.5532,14.2296 L8.5532,5.7096 L8.5282,5.7096" id="Fill-4" fill="#FEFEFE" mask="url(#mask-2)"></path>
                </g>
            </g>
        </g>
    </g>
</svg>