<?xml version="1.0" encoding="UTF-8"?>
<svg width="40px" height="40px" viewBox="0 0 40 40" version="1.1" xmlns="http://www.w3.org/2000/svg" xmlns:xlink="http://www.w3.org/1999/xlink">
    <!-- Generator: sketchtool 47.1 (45422) - http://www.bohemiancoding.com/sketch -->
    <title>6F06B4D2-8499-4CF4-B06D-6D1ED2852EB9</title>
    <desc>Created with sketchtool.</desc>
    <defs></defs>
    <g id="Symbols" stroke="none" stroke-width="1" fill="none" fill-rule="evenodd">
        <g id="Validated" transform="translate(-837.000000, -89.000000)"></g>
        <g id="Icons/dots" fill="#FFFFFF">
            <path d="M19.5,30.324 C18.119,30.324 17,31.444 17,32.824 C17,34.205 18.119,35.324 19.5,35.324 C20.881,35.324 22,34.205 22,32.824 C22,31.444 20.881,30.324 19.5,30.324 M19.5,19.163 C18.119,19.163 17,20.282 17,21.663 C17,23.043 18.119,24.163 19.5,24.163 C20.881,24.163 22,23.043 22,21.663 C22,20.282 20.881,19.163 19.5,19.163 M19.5,8.001 C18.119,8.001 17,9.12 17,10.501 C17,11.881 18.119,13.001 19.5,13.001 C20.881,13.001 22,11.881 22,10.501 C22,9.12 20.881,8.001 19.5,8.001" id="Page-1"></path>
        </g>
    </g>
</svg>