<?xml version="1.0" encoding="UTF-8"?>
<svg width="40px" height="40px" viewBox="0 0 40 40" version="1.1" xmlns="http://www.w3.org/2000/svg" xmlns:xlink="http://www.w3.org/1999/xlink">
    <!-- Generator: sketchtool 47.1 (45422) - http://www.bohemiancoding.com/sketch -->
    <title>1C16CDB5-8399-4614-B0A8-0794FFB8B1CE</title>
    <desc>Created with sketchtool.</desc>
    <defs></defs>
    <g id="Symbols" stroke="none" stroke-width="1" fill="none" fill-rule="evenodd">
        <g id="Validated" transform="translate(-765.000000, -152.000000)"></g>
        <g id="Icons/Audio-Song-Right" fill="#FFFFFF">
            <path d="M11,28.3261713 L11,10.6741713 C11,10.1341713 11.592,9.81317127 12.028,10.1181713 L24.729,18.9741713 C25.091,19.2271713 25.091,19.7731713 24.729,20.0251713 L12.028,28.8821713 C11.592,29.1861713 11,28.8671713 11,28.3261713" id="Fill-6"></path>
            <path d="M28.499,29 L27.502,29 C27.225,29 27,28.775 27,28.499 L27,10.502 C27,10.225 27.225,10 27.502,10 L28.499,10 C28.775,10 29,10.225 29,10.502 L29,28.499 C29,28.775 28.775,29 28.499,29" id="Fill-8"></path>
        </g>
    </g>
</svg>