<?xml version="1.0" encoding="UTF-8"?>
<svg width="40px" height="40px" viewBox="0 0 40 40" version="1.1" xmlns="http://www.w3.org/2000/svg" xmlns:xlink="http://www.w3.org/1999/xlink">
    <!-- Generator: sketchtool 47.1 (45422) - http://www.bohemiancoding.com/sketch -->
    <title>FFE3A9DB-58DA-47F9-8F49-60FD95340A47</title>
    <desc>Created with sketchtool.</desc>
    <defs>
        <polygon id="path-1" points="17.7127 0.506 0.0007 0.506 0.0007 13.0363 17.7127 13.0363 17.7127 0.506"></polygon>
    </defs>
    <g id="Symbols" stroke="none" stroke-width="1" fill="none" fill-rule="evenodd">
        <g id="Validated" transform="translate(-541.000000, -331.000000)"></g>
        <g id="Device/Audio/Repeat-OFF" opacity="0.3">
            <g id="Page-1" transform="translate(11.000000, 9.000000)">
                <g id="Group-3" transform="translate(0.000000, 8.494000)" fill="#FFFFFF">
                    <path d="M4.6067,12.6161 C4.6067,12.7281 4.5707,12.8201 4.5007,12.8921 C4.4267,12.9641 4.3357,13.0001 4.2237,13.0001 C4.1277,13.0001 4.0317,12.9611 3.9357,12.8801 L0.1087,9.0531 C0.0367,8.9801 0.0007,8.8881 0.0007,8.7771 C0.0007,8.6651 0.0367,8.5731 0.1087,8.5011 L3.9477,4.6611 C4.0197,4.5901 4.1117,4.5531 4.2237,4.5531 C4.3277,4.5531 4.4177,4.5921 4.4937,4.6681 C4.5697,4.7431 4.6067,4.8341 4.6067,4.9371 L4.6067,7.2411 L14.6457,7.2411 L14.6457,3.5461 L17.7127,0.4691 L17.7127,8.9181 C17.7127,9.6881 17.0877,10.3121 16.3177,10.3121 L4.6067,10.3121 L4.6067,12.6161 Z" id="Fill-1"></path>
                </g>
                <g id="Group-6" transform="translate(0.000000, 0.494000)">
                    <mask id="mask-2" fill="white">
                        <use xlink:href="#path-1"></use>
                    </mask>
                    <g id="Clip-5"></g>
                    <path d="M13.1057,3.1933 L1.3947,3.1933 C0.6257,3.1933 0.0007,3.8183 0.0007,4.5883 L0.0007,13.0363 L3.0677,9.9523 L3.0677,6.2643 L13.1057,6.2643 L13.1057,8.5683 C13.1057,8.6723 13.1437,8.7623 13.2197,8.8383 C13.2957,8.9143 13.3857,8.9533 13.4897,8.9533 C13.6017,8.9533 13.6937,8.9173 13.7657,8.8443 L17.6047,5.0053 C17.6767,4.9333 17.7127,4.8403 17.7127,4.7283 C17.7127,4.6173 17.6767,4.5253 17.6047,4.4533 L13.7777,0.6263 C13.6807,0.5463 13.5847,0.5053 13.4897,0.5053 C13.3767,0.5053 13.2867,0.5423 13.2127,0.6143 C13.1417,0.6853 13.1057,0.7783 13.1057,0.8893 L13.1057,3.1933 Z" id="Fill-4" fill="#FFFFFF" mask="url(#mask-2)"></path>
                </g>
            </g>
        </g>
    </g>
</svg>