<?xml version="1.0" encoding="UTF-8"?>
<svg width="40px" height="40px" viewBox="0 0 40 40" version="1.1" xmlns="http://www.w3.org/2000/svg" xmlns:xlink="http://www.w3.org/1999/xlink">
    <!-- Generator: sketchtool 47.1 (45422) - http://www.bohemiancoding.com/sketch -->
    <title>97EE34A9-B121-4CB6-B849-3DAC32C5E4DB</title>
    <desc>Created with sketchtool.</desc>
    <defs></defs>
    <g id="Symbols" stroke="none" stroke-width="1" fill="none" fill-rule="evenodd" opacity="0.3">
        <g id="Original-Icons/thermostat-comfort-dark">
            <g id="Icons/Generic-Device-Send">
                <rect id="Rectangle" x="0" y="0" width="40" height="40"></rect>
                <path d="M31.0203439,25.2330837 C30.752982,25.2330837 30.4881713,25.1548047 30.2580564,24.9859674 L28.5804117,23.7642 L28.2263103,22.6713628 C27.898741,21.6583395 26.9696075,20.978386 25.9062828,20.978386 C25.6481051,20.978386 25.3940093,21.018293 25.1506284,21.0996419 C24.6771326,21.2556884 24.2730284,21.5422 23.9740321,21.9295023 L21.3070464,23.8772698 L21.0723394,24.0445721 C20.6687455,24.3372233 20.1983111,24.4779209 19.7324687,24.4779209 C19.022225,24.4779209 18.3186143,24.1494558 17.8736915,23.5324326 L14.7587216,19.2209442 L14.8413793,19.1600605 L8.63695124,19.1600605 C8.14304611,19.1600605 7.70781773,18.8413163 7.55627865,18.3726651 C7.40371911,17.9035023 7.5695447,17.3903395 7.9690568,17.1002465 L10.3314336,15.3770837 C10.5875704,15.7229442 10.8937099,16.0074093 11.2294429,16.2325256 C11.234035,16.2366186 11.2370964,16.2381535 11.2411783,16.2396884 C11.5774215,16.4653163 11.9463197,16.6305721 12.3284839,16.7375023 L12.3218509,16.7426186 C12.6014583,16.8198744 12.8856579,16.8689907 13.1749597,16.8838279 L13.3428262,16.8838279 C13.3698686,16.8838279 13.3979314,16.882293 13.4259941,16.8838279 C14.156137,16.8648977 14.8929128,16.6413163 15.5312137,16.1772698 C16.4935124,15.4753163 17.0124189,14.3983395 17.0593603,13.2922 L17.052217,13.2952698 C17.0685445,12.9018279 17.0267054,12.5063395 16.9215975,12.1226186 C16.9170054,12.1067581 16.9134338,12.0914093 16.9088417,12.0755488 C16.797611,11.6923395 16.6256626,11.3183395 16.3802407,10.9714558 L18.7880282,9.21810698 C19.1865199,8.92750233 19.724305,8.92750233 20.1238171,9.21810698 C20.5212883,9.50564186 20.6866036,10.0218744 20.5345543,10.4910372 L18.6160799,16.4172233 L18.6992478,16.3568512 L21.6341055,20.4176419 L24.2556805,18.5072233 C24.7123386,18.1746651 25.3271689,18.1746651 25.783827,18.5072233 L31.7821211,22.8826651 C32.3642965,23.3037349 32.4928751,24.1156884 32.0719332,24.6968977 C31.8157965,25.0478744 31.419856,25.2330837 31.0203439,25.2330837 M28.3196829,30.8814558 C28.1880429,30.9244326 28.0502801,30.9479674 27.9211912,30.9479674 C27.3711605,30.9479674 26.8634791,30.5975023 26.685408,30.0469907 L24.6689688,23.8276419 C24.4480381,23.1461535 24.8210181,22.4114558 25.5031991,22.1899209 C26.1838493,21.9663395 26.9196047,22.342386 27.1369638,23.0223395 L29.1544234,29.2406651 C29.3763745,29.9272698 29.0018638,30.6599209 28.3196829,30.8814558 M12.0305081,11.3035023 C13.0514834,10.5575488 14.4847267,10.7872698 15.2271151,11.8115488 C15.9689933,12.8368512 15.7450012,14.2735023 14.7199439,15.0158744 C13.7004993,15.7623395 12.2657253,15.5346651 11.5228267,14.5098744 C10.779928,13.4840605 11.008002,12.0474093 12.0305081,11.3035023" id="Fill-1" fill="#FFFFFF"></path>
            </g>
        </g>
    </g>
</svg>