<?xml version="1.0" encoding="UTF-8"?>
<svg width="34px" height="34px" viewBox="0 0 34 34" version="1.1" xmlns="http://www.w3.org/2000/svg" xmlns:xlink="http://www.w3.org/1999/xlink">
    <!-- Generator: sketchtool 45.2 (43514) - http://www.bohemiancoding.com/sketch -->
    <title>C97DFC88-BE16-4151-B18D-ACBFD73B8834</title>
    <desc>Created with sketchtool.</desc>
    <defs></defs>
    <g id="SYMBOLS" stroke="none" stroke-width="1" fill="none" fill-rule="evenodd">
        <g id="Buttons/Groups/Thermostats-ON-OFF" transform="translate(-11.000000, -11.000000)">
            <g id="Group-3">
                <g id="Group-2" transform="translate(11.000000, 11.000000)">
                    <g id="Page-1-Copy" opacity="0.599999964" style="mix-blend-mode: multiply;" transform="translate(8.000000, 0.000000)" fill="#323232">
                        <path d="M24.4041796,7.61693955 C24.4041796,7.9161077 24.1658839,8.16047772 23.8734302,8.16047772 L22.8126535,8.16047772 L22.8126535,6.52838218 L23.8734302,6.52838218 C24.1658839,6.52838218 24.4041796,6.7727522 24.4041796,7.07266086 L24.4041796,7.61693955 Z M21.2211274,20.4019348 C21.2211274,21.1513362 20.6261104,21.7622613 19.8946149,21.7622613 L18.5681025,21.7622613 L18.5681025,2.992422 C18.5681025,2.24228009 19.1631195,1.63209554 19.8946149,1.63209554 C20.6261104,1.63209554 21.2211274,2.24228009 21.2211274,2.992422 L21.2211274,20.4019348 Z M14.3242735,21.7622613 L14.3242735,2.992422 C14.3242735,2.24228009 14.9192906,1.63209554 15.6500639,1.63209554 C16.3815593,1.63209554 16.9765764,2.24228009 16.9765764,2.992422 L16.9765764,21.7622613 L14.3242735,21.7622613 Z M12.7327474,21.7622613 L10.0797225,21.7622613 L10.0797225,2.992422 C10.0797225,2.24228009 10.6747395,1.63209554 11.406235,1.63209554 C12.1377304,1.63209554 12.7327474,2.24228009 12.7327474,2.992422 L12.7327474,21.7622613 Z M8.48819641,21.7622613 L5.8358936,21.7622613 L5.8358936,2.992422 C5.8358936,2.24228009 6.43091062,1.63209554 7.16240606,1.63209554 C7.89317939,1.63209554 8.48819641,2.24228009 8.48819641,2.992422 L8.48819641,21.7622613 Z M2.91785503,21.7622613 C2.18635959,21.7622613 1.59134257,21.1513362 1.59134257,20.4019348 L1.59134257,2.992422 C1.59134257,2.24228009 2.18635959,1.63209554 2.91785503,1.63209554 C3.64862836,1.63209554 4.24436749,2.24228009 4.24436749,2.992422 L4.24436749,21.7622613 L2.91785503,21.7622613 Z M20.022428,23.3913948 C21.572794,23.3225268 22.8126535,22.0081123 22.8126535,20.4019348 L22.8126535,9.79257327 L23.8734302,9.79257327 C25.0439673,9.79257327 25.9957057,8.81657421 25.9957057,7.61693955 L25.9957057,7.07266086 C25.9957057,5.87302621 25.0439673,4.89628663 23.8734302,4.89628663 L22.8126535,4.89628663 L22.8126535,2.992422 C22.8126535,1.34181358 21.5034716,0 19.8946149,0 C19.0591359,0 18.3052551,0.361371427 17.7723394,0.940454329 C17.2401458,0.361371427 16.486265,0 15.6500639,0 C14.815307,0 14.0607041,0.361371427 13.5285105,0.940454329 C12.9963169,0.361371427 12.241714,0 11.406235,0 C10.570756,0 9.81615308,0.361371427 9.28395946,0.940454329 C8.75176584,0.361371427 7.99716294,0 7.16240606,0 C6.32620495,0 5.57232416,0.361371427 5.04013054,0.940454329 C4.50721481,0.361371427 3.75333403,0 2.91785503,0 C1.30899833,0 -0.000183535792,1.34181358 -0.000183535792,2.992422 L-0.000183535792,20.4019348 C-0.000183535792,22.0081123 1.23967596,23.3225268 2.79004191,23.3913948 C2.70050051,23.647613 20.1112473,23.647613 20.022428,23.3913948 L20.022428,23.3913948 Z" id="Fill-1"></path>
                    </g>
                    <g id="Page-1-Copy" transform="translate(0.000000, 10.000000)" fill="#FFFFFF">
                        <path d="M24.4041796,7.61693955 C24.4041796,7.9161077 24.1658839,8.16047772 23.8734302,8.16047772 L22.8126535,8.16047772 L22.8126535,6.52838218 L23.8734302,6.52838218 C24.1658839,6.52838218 24.4041796,6.7727522 24.4041796,7.07266086 L24.4041796,7.61693955 Z M21.2211274,20.4019348 C21.2211274,21.1513362 20.6261104,21.7622613 19.8946149,21.7622613 L18.5681025,21.7622613 L18.5681025,2.992422 C18.5681025,2.24228009 19.1631195,1.63209554 19.8946149,1.63209554 C20.6261104,1.63209554 21.2211274,2.24228009 21.2211274,2.992422 L21.2211274,20.4019348 Z M14.3242735,21.7622613 L14.3242735,2.992422 C14.3242735,2.24228009 14.9192906,1.63209554 15.6500639,1.63209554 C16.3815593,1.63209554 16.9765764,2.24228009 16.9765764,2.992422 L16.9765764,21.7622613 L14.3242735,21.7622613 Z M12.7327474,21.7622613 L10.0797225,21.7622613 L10.0797225,2.992422 C10.0797225,2.24228009 10.6747395,1.63209554 11.406235,1.63209554 C12.1377304,1.63209554 12.7327474,2.24228009 12.7327474,2.992422 L12.7327474,21.7622613 Z M8.48819641,21.7622613 L5.8358936,21.7622613 L5.8358936,2.992422 C5.8358936,2.24228009 6.43091062,1.63209554 7.16240606,1.63209554 C7.89317939,1.63209554 8.48819641,2.24228009 8.48819641,2.992422 L8.48819641,21.7622613 Z M2.91785503,21.7622613 C2.18635959,21.7622613 1.59134257,21.1513362 1.59134257,20.4019348 L1.59134257,2.992422 C1.59134257,2.24228009 2.18635959,1.63209554 2.91785503,1.63209554 C3.64862836,1.63209554 4.24436749,2.24228009 4.24436749,2.992422 L4.24436749,21.7622613 L2.91785503,21.7622613 Z M20.022428,23.3913948 C21.572794,23.3225268 22.8126535,22.0081123 22.8126535,20.4019348 L22.8126535,9.79257327 L23.8734302,9.79257327 C25.0439673,9.79257327 25.9957057,8.81657421 25.9957057,7.61693955 L25.9957057,7.07266086 C25.9957057,5.87302621 25.0439673,4.89628663 23.8734302,4.89628663 L22.8126535,4.89628663 L22.8126535,2.992422 C22.8126535,1.34181358 21.5034716,0 19.8946149,0 C19.0591359,0 18.3052551,0.361371427 17.7723394,0.940454329 C17.2401458,0.361371427 16.486265,0 15.6500639,0 C14.815307,0 14.0607041,0.361371427 13.5285105,0.940454329 C12.9963169,0.361371427 12.241714,0 11.406235,0 C10.570756,0 9.81615308,0.361371427 9.28395946,0.940454329 C8.75176584,0.361371427 7.99716294,0 7.16240606,0 C6.32620495,0 5.57232416,0.361371427 5.04013054,0.940454329 C4.50721481,0.361371427 3.75333403,0 2.91785503,0 C1.30899833,0 -0.000183535792,1.34181358 -0.000183535792,2.992422 L-0.000183535792,20.4019348 C-0.000183535792,22.0081123 1.23967596,23.3225268 2.79004191,23.3913948 C2.70050051,23.647613 20.1112473,23.647613 20.022428,23.3913948 L20.022428,23.3913948 Z" id="Fill-1"></path>
                    </g>
                </g>
            </g>
        </g>
    </g>
</svg>
