<?xml version="1.0" encoding="UTF-8"?>
<svg width="40px" height="40px" viewBox="0 0 40 40" version="1.1" xmlns="http://www.w3.org/2000/svg" xmlns:xlink="http://www.w3.org/1999/xlink">
    <!-- Generator: sketchtool 47.1 (45422) - http://www.bohemiancoding.com/sketch -->
    <title>995AEFA6-50C0-48F1-8CEC-4750B8C2F584</title>
    <desc>Created with sketchtool.</desc>
    <defs></defs>
    <g id="Symbols" stroke="none" stroke-width="1" fill="none" fill-rule="evenodd">
        <g id="Validated" transform="translate(-526.000000, -273.000000)"></g>
        <g id="Icons/thermostat-white">
            <g id="Original-Icons/thermostat">
                <g id="Group">
                    <rect id="Rectangle" x="0" y="0" width="40" height="40"></rect>
                    <g id="Page-1" transform="translate(4.000000, 11.000000)" fill="#FFFFFF">
                        <g id="Group-3" transform="translate(3.750000, 0.000000)">
                            <path d="M3.73922917,16.2939788 C3.73922917,16.8199946 3.3331875,17.2455674 2.83172917,17.2455674 L0.997979167,17.2455674 C0.496520833,17.2455674 0.0894375,16.8199946 0.0894375,16.2939788 L0.0894375,1.16944082 C0.0894375,0.644080063 0.496520833,0.217415506 0.997979167,0.217415506 L2.83172917,0.217415506 C3.3331875,0.217415506 3.73922917,0.644080063 3.73922917,1.16944082 L3.73922917,16.2939788 Z" id="Fill-1"></path>
                        </g>
                        <g id="Group-6" transform="translate(9.000000, 0.000000)">
                            <path d="M3.68795833,16.2939788 C3.68795833,16.8199946 3.28108333,17.2455674 2.78004167,17.2455674 L0.946291667,17.2455674 C0.444208333,17.2455674 0.0381666667,16.8199946 0.0381666667,16.2939788 L0.0381666667,1.16944082 C0.0381666667,0.644080063 0.444208333,0.217415506 0.946291667,0.217415506 L2.78004167,0.217415506 C3.28108333,0.217415506 3.68795833,0.644080063 3.68795833,1.16944082 L3.68795833,16.2939788 Z" id="Fill-4"></path>
                        </g>
                        <g id="Group-9" transform="translate(14.000000, 0.000000)">
                            <path d="M3.64128947,16.2939788 C3.64128947,16.8199946 3.25661842,17.2455674 2.78194737,17.2455674 L1.04372368,17.2455674 C0.56925,17.2455674 0.184381579,16.8199946 0.184381579,16.2939788 L0.184381579,1.16944082 C0.184381579,0.644080063 0.56925,0.217415506 1.04372368,0.217415506 L2.78194737,0.217415506 C3.25661842,0.217415506 3.64128947,0.644080063 3.64128947,1.16944082 L3.64128947,16.2939788 Z" id="Fill-7"></path>
                        </g>
                        <g id="Group-12" transform="translate(19.000000, 0.000000)">
                            <path d="M3.46000004,16.2965636 C3.46000004,16.8225794 3.07579714,17.2481522 2.60008914,17.2481522 L0.860503808,17.2481522 C0.384202895,17.2481522 0,16.8225794 0,16.2965636 L0,1.17202558 C0,0.646664824 0.384202895,0.220000267 0.860503808,0.220000267 L2.60008914,0.220000267 C3.07579714,0.220000267 3.46000004,0.646664824 3.46000004,1.17202558 L3.46000004,16.2965636 Z" id="Fill-10"></path>
                        </g>
                        <g id="Group-15" transform="translate(24.000000, 0.000000)">
                            <path d="M3.739625,16.2939788 C3.739625,16.8199946 3.33254167,17.2455674 2.83170833,17.2455674 L0.99775,17.2455674 C0.496916667,17.2455674 0.089625,16.8199946 0.089625,16.2939788 L0.089625,1.16944082 C0.089625,0.644080063 0.496916667,0.217415506 0.99775,0.217415506 L2.83170833,0.217415506 C3.33254167,0.217415506 3.739625,0.644080063 3.739625,1.16944082 L3.739625,16.2939788 Z" id="Fill-13"></path>
                        </g>
                        <path d="M0.458105707,1.499605 C0.458105707,2.0764977 0.923122491,2.54140882 1.49990127,2.54140882 C2.07490292,2.54061883 2.5399197,2.0755102 2.54169683,1.499605 L2.540907,1.499605 C2.5399197,0.924292298 2.07490292,0.459183673 1.49990127,0.45839368 C0.923912328,0.459183673 0.459093003,0.924292298 0.458105707,1.499605 M0,1.499605 C0,0.671494404 0.670571974,0 1.49990127,0 C2.32784835,0 2.99921016,0.671494404 3,1.499605 L2.99921016,1.499605 C2.99921016,2.32890059 2.32784835,3 1.49990127,3 C0.670571974,2.99901251 0.000987296781,2.32890059 0,1.499605" id="Fill-16"></path>
                        <path d="M31.25,16.8788345 C31.25,17.0835507 31.0828464,17.25 30.8776607,17.25 L29.3718698,17.25 C29.1664493,17.25 29,17.0835507 29,16.8788345 L29,15.3718698 C29,15.1666841 29.1664493,15 29.3718698,15 L30.8776607,15 C31.0828464,15 31.25,15.1666841 31.25,15.3718698 L31.25,16.8788345 Z" id="Fill-18"></path>
                    </g>
                </g>
            </g>
        </g>
    </g>
</svg>