<?xml version="1.0" encoding="UTF-8"?>
<svg width="40px" height="40px" viewBox="0 0 40 40" version="1.1" xmlns="http://www.w3.org/2000/svg" xmlns:xlink="http://www.w3.org/1999/xlink">
    <!-- Generator: sketchtool 47.1 (45422) - http://www.bohemiancoding.com/sketch -->
    <title>E55381D8-80D6-4B3B-92EF-DBA13B4F5F37</title>
    <desc>Created with sketchtool.</desc>
    <defs></defs>
    <g id="Symbols" stroke="none" stroke-width="1" fill="none" fill-rule="evenodd">
        <g id="Original-Icons/sensor-rain-no">
            <g id="Group">
                <rect id="Rectangle" x="0" y="0" width="40" height="40"></rect>
                <path d="M17.6779575,11.5461487 C18.1037671,11.9761079 18.7938031,11.9761079 19.2196127,11.5461487 C19.6454223,11.1161895 19.6454223,10.4194288 19.2196127,9.98946963 L17.0721211,7.82064527 C16.8592163,7.60566567 16.5805556,7.4983783 16.3014939,7.4983783 C16.0224323,7.4983783 15.7437716,7.60566567 15.5308668,7.82064527 C15.1046563,8.25060448 15.1046563,8.94736511 15.5308668,9.37732432 L17.6779575,11.5461487 Z M33.8013857,24.7133457 C34.2271953,25.1433049 34.2271953,25.8404704 33.8013857,26.2700247 C33.3755761,26.6999839 32.685941,26.6999839 32.2597305,26.2700247 L30.1126398,24.1016052 C29.6868302,23.671646 29.6868302,22.9748854 30.1126398,22.5449262 C30.3255446,22.3299466 30.6042053,22.2226592 30.8836679,22.2226592 C31.1623286,22.2226592 31.4413902,22.3299466 31.653894,22.5449262 L33.8013857,24.7133457 Z M36.495774,15.9449309 C37.0980019,15.9449309 37.5855579,16.4376431 37.5855579,17.045335 C37.5855579,17.6534317 37.0980019,18.1461439 36.495774,18.1461439 L33.4585729,18.1461439 C32.856345,18.1461439 32.3683881,17.6530269 32.368789,17.045335 C32.368789,16.7412866 32.4902771,16.4659832 32.6879458,16.266793 C32.8852135,16.0676029 33.157459,15.9445261 33.4585729,15.9445261 L36.495774,15.9449309 Z M32.2601314,7.82064527 C32.685941,7.39068607 33.3759771,7.39068607 33.8017866,7.82064527 C34.2271953,8.25100934 34.2271953,8.94736511 33.8017866,9.37732432 L31.653894,11.5457438 C31.2280845,11.975703 30.5380484,11.975703 30.1126398,11.5457438 C29.899334,11.3307642 29.7930821,11.048983 29.7930821,10.7676067 C29.7930821,10.4858255 29.899334,10.2040444 30.1126398,9.98906477 L32.2601314,7.82064527 Z M23.5759414,5.10040432 C23.5759414,4.49230759 24.0642993,3.99959539 24.6661262,4.00000025 C25.2683541,4.00000025 25.7559101,4.49230759 25.7559101,5.10040432 L25.7559101,8.16720373 C25.7559101,8.77530046 25.2679532,9.26801265 24.6661262,9.2676078 C24.3650123,9.2676078 24.0923659,9.14453096 23.8950982,8.94534082 C23.6978304,8.74615068 23.5759414,8.47125209 23.5759414,8.16720373 L23.5759414,5.10040432 Z M22.7584031,27.1157731 C22.7584031,22.5558573 19.0977237,18.8595037 14.5818166,18.8595037 C11.0169645,18.8595037 7.99339566,21.1675992 6.87474337,24.3813621 C3.87683541,24.5643579 1.5,27.0700241 1.5,30.1428964 C1.5,33.3343921 4.06247556,35.9218396 7.22357043,35.9218396 L22.7584031,35.9218396 C25.1665126,35.9218396 27.1187413,33.950586 27.1187413,31.5190088 C27.1187413,29.0870267 25.1665126,27.1157731 22.7584031,27.1157731 L22.7584031,27.1157731 Z M19.4521641,17.8987757 C19.4068567,17.6190188 19.3771863,17.333189 19.3771863,17.0404767 C19.3771863,14.0910861 21.7452008,11.7003996 24.6661262,11.7003996 C27.5870517,11.7003996 29.9546652,14.0910861 29.9546652,17.0404767 C29.9546652,19.9894624 27.5870517,22.3805538 24.6661262,22.3805538 C24.3569933,22.3805538 24.0558794,22.3481652 23.7615816,22.2967482 C22.7956915,20.4287334 21.2905228,18.8935118 19.4521641,17.8987757 L19.4521641,17.8987757 Z" id="Fill-1" fill="#FFFFFF"></path>
            </g>
        </g>
    </g>
</svg>