<?xml version="1.0" encoding="UTF-8"?>
<svg width="40px" height="40px" viewBox="0 0 40 40" version="1.1" xmlns="http://www.w3.org/2000/svg" xmlns:xlink="http://www.w3.org/1999/xlink">
    <!-- Generator: sketchtool 47.1 (45422) - http://www.bohemiancoding.com/sketch -->
    <title>D6686916-11E7-491D-B0A0-4DC124D7D6CD</title>
    <desc>Created with sketchtool.</desc>
    <defs></defs>
    <g id="Symbols" stroke="none" stroke-width="1" fill="none" fill-rule="evenodd">
        <g id="Original-Icons/weather-heavy-cloud">
            <g id="Group">
                <rect id="Rectangle" x="0" y="0" width="40" height="40"></rect>
                <path d="M33.1595,23.5777 C34.6355,23.5777 35.8325,24.7867 35.8325,26.2767 C35.8325,27.7667 34.6355,28.9757 33.1595,28.9757 L23.6375,28.9757 C21.7005,28.9757 20.1295,27.3907 20.1295,25.4327 C20.1295,23.5507 21.5865,22.0147 23.4235,21.9017 C24.1095,19.9317 25.9625,18.5167 28.1475,18.5167 C30.9155,18.5167 33.1595,20.7827 33.1595,23.5777 Z M18.6293,25.4331 C18.6293,26.8601 19.2263,28.1441 20.1763,29.0621 L12.5583,29.0621 C9.3973,29.0621 6.8343,26.4751 6.8343,23.2841 C6.8343,23.0811 6.8713,22.8891 6.8913,22.6931 L13.3343,22.6931 C14.9413,22.6931 16.2483,21.3761 16.2483,19.7591 C16.2483,18.4661 15.4123,17.3661 14.2563,16.9761 C14.1333,16.3151 13.8583,15.7131 13.4883,15.1831 C14.9823,13.2501 17.2993,12.0001 19.9163,12.0001 C23.3123,12.0001 26.2223,14.0901 27.4593,17.0661 C25.2893,17.3001 23.3743,18.6121 22.3723,20.5581 C20.2103,21.1251 18.6293,23.1071 18.6293,25.4331 Z M13.3338,17.8257 C14.3908,17.8257 15.2488,18.6917 15.2488,19.7597 C15.2488,20.8267 14.3908,21.6927 13.3338,21.6927 L6.5128,21.6927 C5.1248,21.6927 3.9998,20.5557 3.9998,19.1547 C3.9998,17.8057 5.0438,16.7057 6.3598,16.6257 C6.8508,15.2147 8.1788,14.2007 9.7438,14.2007 C11.7268,14.2007 13.3338,15.8237 13.3338,17.8257 Z" id="Combined-Shape" fill="#FFFFFF"></path>
            </g>
        </g>
    </g>
</svg>