<?xml version="1.0" encoding="UTF-8"?>
<svg width="40px" height="40px" viewBox="0 0 40 40" version="1.1" xmlns="http://www.w3.org/2000/svg" xmlns:xlink="http://www.w3.org/1999/xlink">
    <!-- Generator: sketchtool 47.1 (45422) - http://www.bohemiancoding.com/sketch -->
    <title>4743C7AB-6AD8-477D-971A-5F224EBABA80</title>
    <desc>Created with sketchtool.</desc>
    <defs></defs>
    <g id="Symbols" stroke="none" stroke-width="1" fill="none" fill-rule="evenodd">
        <g id="Original-Icons/weather-big-rain">
            <g id="Group">
                <rect id="Rectangle" x="0" y="0" width="40" height="40"></rect>
                <path d="M14.3339,13.0014 C15.3909,13.0014 16.2489,13.8664 16.2489,14.9354 C16.2489,16.0024 15.3909,16.8674 14.3339,16.8674 L7.5129,16.8674 C6.1249,16.8674 4.9999,15.7314 4.9999,14.3304 C4.9999,12.9804 6.0439,11.8814 7.3599,11.8004 C7.8509,10.3894 9.1789,9.3764 10.7439,9.3764 C12.7269,9.3764 14.3339,10.9994 14.3339,13.0014 Z M22.3856,28.8462 C22.8226,29.1152 22.9406,29.6582 22.6476,30.0602 L19.5536,34.3102 C19.3706,34.5622 19.0686,34.6992 18.7606,34.6992 C18.5786,34.6992 18.3946,34.6512 18.2316,34.5512 C17.7946,34.2832 17.6776,33.7402 17.9686,33.3372 L21.0636,29.0872 C21.3556,28.6852 21.9486,28.5782 22.3856,28.8462 Z M31.3856,28.8462 C31.8226,29.1152 31.9396,29.6582 31.6486,30.0602 L28.5536,34.3102 C28.3706,34.5622 28.0686,34.6992 27.7606,34.6992 C27.5786,34.6992 27.3946,34.6512 27.2316,34.5512 C26.7946,34.2832 26.6776,33.7402 26.9686,33.3372 L30.0636,29.0872 C30.3566,28.6852 30.9486,28.5782 31.3856,28.8462 Z M30.2128,15.4253 C32.7508,15.4253 34.8088,17.4383 34.8088,19.9193 C34.8088,22.4013 32.7508,24.4123 30.2128,24.4123 L14.1278,24.4123 L14.1278,24.3993 C14.0318,24.4033 13.9378,24.4123 13.8408,24.4123 C10.5088,24.4123 7.8088,21.7723 7.8088,18.5153 C7.8088,18.2953 7.8228,18.0803 7.8468,17.8673 L14.3338,17.8673 C15.9408,17.8673 17.2488,16.5523 17.2488,14.9353 C17.2488,13.6423 16.4128,12.5413 15.2558,12.1523 C15.1478,11.5623 14.9178,11.0173 14.6088,10.5293 C16.1698,8.3973 18.7098,7.0003 21.5958,7.0003 C26.3548,7.0003 30.2128,10.7723 30.2128,15.4253 Z M14.3856,28.8462 C14.8226,29.1152 14.9406,29.6582 14.6476,30.0602 L11.5536,34.3102 C11.3696,34.5622 11.0686,34.6992 10.7606,34.6992 C10.5786,34.6992 10.3946,34.6512 10.2316,34.5512 C9.7946,34.2832 9.6776,33.7402 9.9686,33.3372 L13.0636,29.0872 C13.3566,28.6852 13.9486,28.5782 14.3856,28.8462 Z" id="Combined-Shape" fill="#FFFFFF"></path>
            </g>
        </g>
    </g>
</svg>