<?xml version="1.0" encoding="UTF-8"?>
<svg width="40px" height="40px" viewBox="0 0 40 40" version="1.1" xmlns="http://www.w3.org/2000/svg" xmlns:xlink="http://www.w3.org/1999/xlink">
    <!-- Generator: sketchtool 47.1 (45422) - http://www.bohemiancoding.com/sketch -->
    <title>99ED63D4-6E24-43ED-A4EC-06D01BD50386</title>
    <desc>Created with sketchtool.</desc>
    <defs>
        <polygon id="path-1" points="32.561 27.9994 32.561 0.693 0.0003 0.693 0.0003 27.9994 32.561 27.9994"></polygon>
    </defs>
    <g id="Symbols" stroke="none" stroke-width="1" fill="none" fill-rule="evenodd">
        <g id="Validated" transform="translate(-777.000000, -389.000000)"></g>
        <g id="Icons/indoor-humidity">
            <g id="Original-Icons/indoor-humidity">
                <g id="Page-1" transform="translate(3.500000, 6.000000)">
                    <g id="Group-3" transform="translate(0.000000, 0.307400)">
                        <mask id="mask-2" fill="white">
                            <use xlink:href="#path-1"></use>
                        </mask>
                        <g id="Clip-2"></g>
                        <path d="M16.2143,24.7024 L16.2103,24.7024 L16.2063,24.7024 C12.8383,24.6954 10.2833,22.0034 10.2653,18.4414 C10.2473,16.6244 11.2983,14.3694 12.9993,11.3224 L13.4253,10.5464 C13.8633,9.7514 14.2773,9.0024 14.6283,8.2864 C14.9303,7.6744 15.5363,7.2974 16.2133,7.2974 C16.8883,7.2974 17.4943,7.6744 17.7943,8.2804 C18.1503,9.0064 18.5653,9.7584 19.0043,10.5554 L19.4293,11.3264 C21.0743,14.2834 22.1693,16.6304 22.1533,18.4494 C22.1373,22.0044 19.5833,24.6954 16.2143,24.7024 L16.2143,24.7024 Z M16.2803,0.6924 L0.0003,13.7544 L2.0353,13.7544 L2.0353,27.9994 L30.5263,27.9994 L30.5263,13.7544 L32.5613,13.7544 L16.2803,0.6924 Z" id="Fill-1" fill="#FFFFFF" mask="url(#mask-2)"></path>
                    </g>
                    <path d="M17.5092,11.6875 C17.0592,10.8715 16.6322,10.0965 16.2642,9.3455 C16.2422,9.3015 16.1832,9.3015 16.1622,9.3455 C15.7952,10.0925 15.3682,10.8675 14.9222,11.6765 L14.4902,12.4615 C12.9692,15.1875 11.9592,17.2965 11.9732,18.7395 C11.9872,21.3785 13.7692,23.2965 16.2102,23.3015 C18.6522,23.2965 20.4342,21.3785 20.4462,18.7415 C20.4592,17.2105 19.2452,14.8165 17.9332,12.4575 L17.5092,11.6875 Z" id="Fill-4" fill="#FFFFFF"></path>
                </g>
            </g>
        </g>
    </g>
</svg>