<?xml version="1.0" encoding="UTF-8"?>
<svg width="40px" height="40px" viewBox="0 0 40 40" version="1.1" xmlns="http://www.w3.org/2000/svg" xmlns:xlink="http://www.w3.org/1999/xlink">
    <!-- Generator: sketchtool 47.1 (45422) - http://www.bohemiancoding.com/sketch -->
    <title>92B749F3-3151-44F5-B463-41C1DC040A23</title>
    <desc>Created with sketchtool.</desc>
    <defs></defs>
    <g id="Symbols" stroke="none" stroke-width="1" fill="none" fill-rule="evenodd">
        <g id="Original-Icons/weather-night-cloud">
            <g id="Group">
                <rect id="Rectangle" x="0" y="0" width="40" height="40"></rect>
                <path d="M23.018,19.9404 C23.857,19.9404 24.667,19.8194 25.44,19.6134 C23.753,22.7784 20.41,24.9344 16.556,24.9344 C11.003,24.9344 6.503,20.4614 6.503,14.9454 C6.503,9.7354 10.515,5.4614 15.636,5.0004 C14.416,6.5684 13.684,8.5294 13.684,10.6634 C13.684,15.7874 17.862,19.9404 23.018,19.9404 Z M11.5483,29.3681 C11.9853,29.6371 12.1033,30.1801 11.8113,30.5821 L8.7163,34.8321 C8.5333,35.0851 8.2313,35.2211 7.9243,35.2211 C7.7413,35.2211 7.5573,35.1731 7.3943,35.0731 C6.9573,34.8051 6.8403,34.2621 7.1323,33.8591 L10.2263,29.6091 C10.5193,29.2071 11.1113,29.1001 11.5483,29.3681 Z M29.5488,29.3681 C29.9858,29.6371 30.1028,30.1801 29.8108,30.5821 L26.7168,34.8321 C26.5338,35.0851 26.2318,35.2211 25.9238,35.2211 C25.7418,35.2211 25.5578,35.1731 25.3948,35.0731 C24.9578,34.8051 24.8408,34.2621 25.1318,33.8591 L28.2268,29.6091 C28.5198,29.2071 29.1118,29.1001 29.5488,29.3681 Z M20.5488,29.3681 C20.9858,29.6371 21.1028,30.1801 20.8108,30.5821 L17.7168,34.8321 C17.5338,35.0851 17.2318,35.2211 16.9238,35.2211 C16.7418,35.2211 16.5578,35.1731 16.3948,35.0731 C15.9578,34.8051 15.8408,34.2621 16.1318,33.8591 L19.2268,29.6091 C19.5188,29.2071 20.1118,29.1001 20.5488,29.3681 Z M5.9999,19.5927 C6.2429,22.1237 8.1209,24.1847 10.5909,24.7657 C8.5769,23.5517 6.9639,21.7497 5.9999,19.5927 Z M28.3759,15.9482 C30.9139,15.9482 32.9709,17.9602 32.9709,20.4412 C32.9709,22.9232 30.9139,24.9342 28.3759,24.9342 L22.2319,24.9342 C24.1169,23.8742 25.7079,22.3012 26.7639,20.3182 L28.3859,17.2752 L25.0539,18.1642 C19.8779,19.5442 15.1839,15.6082 15.1839,10.6632 C15.1839,9.9772 15.2979,9.3122 15.4729,8.6652 C16.7369,7.9502 18.1919,7.5222 19.7589,7.5222 C24.5179,7.5222 28.3759,11.2952 28.3759,15.9482 Z" id="Combined-Shape" fill="#FFFFFF"></path>
            </g>
        </g>
    </g>
</svg>