<?xml version="1.0" encoding="UTF-8"?>
<svg width="40px" height="40px" viewBox="0 0 40 40" version="1.1" xmlns="http://www.w3.org/2000/svg" xmlns:xlink="http://www.w3.org/1999/xlink">
    <!-- Generator: sketchtool 47.1 (45422) - http://www.bohemiancoding.com/sketch -->
    <title>9F66A6BA-14B8-49DA-86DE-8773FE66DA4B</title>
    <desc>Created with sketchtool.</desc>
    <defs></defs>
    <g id="Symbols" stroke="none" stroke-width="1" fill="none" fill-rule="evenodd">
        <g id="Original-Icons/weather-sun">
            <g id="Group">
                <rect id="Rectangle" x="0" y="0" width="40" height="40"></rect>
                <path d="M12.8832,14.5464 L10.7362,12.3774 C10.3102,11.9474 10.3102,11.2504 10.7362,10.8204 C10.9482,10.6064 11.2272,10.4984 11.5072,10.4984 C11.7852,10.4984 12.0642,10.6064 12.2772,10.8204 L14.4252,12.9894 C14.8502,13.4194 14.8502,14.1154 14.4252,14.5464 C13.9992,14.9764 13.3092,14.9764 12.8832,14.5464 Z M26.8588,14.5455 C26.4328,14.9765 25.7428,14.9765 25.3178,14.5455 C25.1048,14.3305 24.9978,14.0495 24.9978,13.7675 C24.9978,13.4855 25.1048,13.2035 25.3178,12.9885 L27.4648,10.8205 C27.8908,10.3915 28.5808,10.3915 29.0068,10.8205 C29.4328,11.2505 29.4328,11.9475 29.0068,12.3775 L26.8588,14.5455 Z M31.7011,18.9449 C32.3031,18.9449 32.7901,19.4379 32.7901,20.0459 C32.7901,20.6539 32.3031,21.1459 31.7011,21.1459 L28.6631,21.1459 C28.0611,21.1459 27.5741,20.6529 27.5741,20.0459 C27.5741,19.7419 27.6951,19.4659 27.8931,19.2669 C28.0901,19.0679 28.3631,18.9449 28.6631,18.9449 L31.7011,18.9449 Z M26.8588,25.5445 L29.0058,27.7135 C29.4328,28.1435 29.4328,28.8405 29.0058,29.2705 C28.5808,29.6995 27.8908,29.6995 27.4648,29.2705 L25.3178,27.1015 C24.8918,26.6715 24.8918,25.9755 25.3178,25.5445 C25.5308,25.3295 25.8098,25.2225 26.0888,25.2225 C26.3678,25.2225 26.6468,25.3295 26.8588,25.5445 Z M12.9267,25.5923 C13.3527,25.1633 14.0427,25.1633 14.4677,25.5943 C14.6807,25.8093 14.7867,26.0913 14.7867,26.3723 C14.7867,26.6543 14.6797,26.9363 14.4667,27.1513 L12.3167,29.3173 C11.8907,29.7463 11.2007,29.7463 10.7757,29.3163 C10.3497,28.8853 10.3507,28.1893 10.7767,27.7593 L12.9267,25.5923 Z M19.912,27.8775 C20.213,27.8775 20.486,28.0005 20.683,28.2005 C20.88,28.3995 21.002,28.6745 21.001,28.9795 L20.998,32.0455 C20.998,32.6535 20.509,33.1465 19.907,33.1455 C19.305,33.1445 18.818,32.6515 18.819,32.0435 L18.821,28.9775 C18.822,28.3685 19.31,27.8765 19.912,27.8775 Z M11.8969,20.8706 C11.6999,21.0696 11.4269,21.1926 11.1259,21.1916 L8.0889,21.1886 C7.4869,21.1876 6.9999,20.6946 6.9999,20.0876 C7.0009,19.4786 7.4889,18.9866 8.0909,18.9876 L11.1279,18.9906 C11.7299,18.9906 12.2179,19.4846 12.2169,20.0926 C12.2169,20.3956 12.0949,20.6716 11.8969,20.8706 Z M20.039,14.6607 C23.018,14.6607 25.433,17.0747 25.433,20.0547 C25.433,23.0327 23.018,25.4477 20.039,25.4477 C17.06,25.4477 14.645,23.0327 14.645,20.0547 C14.645,17.0747 17.06,14.6607 20.039,14.6607 Z M19.871,12.2671 C19.57,12.2671 19.297,12.1441 19.1,11.9451 C18.903,11.7461 18.781,11.4711 18.781,11.1671 L18.781,8.1001 C18.781,7.4931 19.269,6.9991 19.871,6.9991 C20.474,6.9991 20.961,7.4931 20.961,8.1001 L20.961,11.1671 C20.961,11.7751 20.473,12.2681 19.871,12.2671 Z" id="Combined-Shape" fill="#FFFFFF"></path>
            </g>
        </g>
    </g>
</svg>