<?xml version="1.0" encoding="UTF-8"?>
<svg width="40px" height="40px" viewBox="0 0 40 40" version="1.1" xmlns="http://www.w3.org/2000/svg" xmlns:xlink="http://www.w3.org/1999/xlink">
    <!-- Generator: sketchtool 47.1 (45422) - http://www.bohemiancoding.com/sketch -->
    <title>97B98783-BB12-49E4-B2AC-6097D6DCD4A4</title>
    <desc>Created with sketchtool.</desc>
    <defs></defs>
    <g id="Symbols" stroke="none" stroke-width="1" fill="none" fill-rule="evenodd">
        <g id="Original-Icons/sensor-temperature">
            <g id="Page-1-Copy">
                <rect id="Rectangle" x="0" y="0" width="40" height="40"></rect>
                <path d="M21.3571106,6.50005714 C21.3571106,5.397 20.5236096,4.49988571 19.5002255,4.49988571 C18.4763904,4.49988571 17.6428894,5.397 17.6428894,6.50005714 L17.6428894,16.4999429 L21.3571106,16.4999429 L21.3571106,6.50005714 Z M26,29.9998857 C26,33.8652 23.091316,37 19.5002255,37 C15.9109392,37 13,33.8652 13,29.9998857 C13,27.6796286 14.0499948,25.6289429 15.6642265,24.3563714 C15.9961836,24.0931143 16.2189918,23.6846286 16.2501128,23.2227143 L16.2501128,6.50005714 C16.2501128,4.56691429 17.7064844,3 19.5002255,3 C21.2935156,3 22.7498872,4.56691429 22.7498872,6.50005714 L22.7498872,23.2227143 C22.7828123,23.6846286 23.0038164,24.0931143 23.3380287,24.3563714 C24.9518093,25.6289429 26,27.6796286 26,29.9998857 L26,29.9998857 Z" id="Fill-1" fill="#FFFFFF"></path>
            </g>
        </g>
    </g>
</svg>