<?xml version="1.0" encoding="UTF-8"?>
<svg width="40px" height="40px" viewBox="0 0 40 40" version="1.1" xmlns="http://www.w3.org/2000/svg" xmlns:xlink="http://www.w3.org/1999/xlink">
    <!-- Generator: sketchtool 47.1 (45422) - http://www.bohemiancoding.com/sketch -->
    <title>CEE61EA0-7CB1-4CA8-AEF7-A2EECDE7EB9C</title>
    <desc>Created with sketchtool.</desc>
    <defs></defs>
    <g id="Symbols" stroke="none" stroke-width="1" fill="none" fill-rule="evenodd">
        <g id="Original-Icons/sensor-wind">
            <g id="Group">
                <rect id="Rectangle" x="0" y="0" width="40" height="40"></rect>
                <path d="M26.1192143,12.8342225 L32.5742144,13.6577596 L32.5742144,19.1917673 L26.1192143,20.0153044 L26.1192143,12.8342225 Z M13.2128386,11.1883566 L19.6650197,12.0082692 L19.6650197,20.8412577 L13.2128386,21.661573 L13.2128386,11.1883566 Z M6.18961809,20.4594909 L2.15408527,16.4251662 L6.18961809,12.3936604 L6.18961809,20.4594909 Z M37.9745232,13.2027 L7.88300353,9.35885597 L7.84756526,9.35885597 C7.03449863,9.35885597 6.39298543,9.95003072 6.24962152,10.7252428 L0.948378725,16.0244721 C0.893610492,16.0760187 0.890791539,16.1634062 0.858977639,16.2375044 C0.838036844,16.3039512 0.782463196,16.3587194 0.782463196,16.4251662 L0.782463196,29.5018872 C0.782463196,29.814791 1.03496086,30.0684968 1.35108632,30.0684968 C1.66519825,30.0684968 1.91970945,29.814791 1.91970945,29.5018872 L1.91970945,17.7996072 L6.24962152,22.1279084 C6.39298543,22.8946637 7.03449863,23.4870466 7.84756526,23.4870466 L7.88300353,23.4870466 L37.9745232,19.6512567 C38.8745747,19.6287051 39.5942132,18.8973881 39.5942132,17.9937122 L39.5942132,14.8558147 C39.5942132,13.9557632 38.8745747,13.2208218 37.9745232,13.2027 L37.9745232,13.2027 Z" id="Page-1" fill="#FFFFFF"></path>
            </g>
        </g>
    </g>
</svg>