<svg xmlns="http://www.w3.org/2000/svg" width="40" height="40" viewBox="0 0 40 40">
    <g fill="none" fill-rule="evenodd">
        <path d="M0 0h40v40H0z"/>
        <g fill="#FFF">
            <path d="M21.045 15.251a1.16 1.16 0 1 1-2.32 0 1.16 1.16 0 0 1 2.32 0M22.54 17.66a.872.872 0 0 0-.864-.802v-.01h-3.503v.008c-.028 0-.051-.015-.078-.015a.881.881 0 0 0-.882.881c0 .04.018.073.023.112h-.023v5.149h.694V18.59h.252V28.79h.012c-.001.02-.012.037-.012.057a.752.752 0 0 0 1.505 0c0-.02-.01-.037-.01-.057h.014v-5.993h.299v5.993h.012c-.002.02-.012.037-.012.057a.752.752 0 1 0 1.505 0c0-.02-.01-.037-.012-.057h.015v-5.808h.003V18.59h.254v4.393h.824V17.66h-.016"/>
            <path d="M35.768 20.892l-7.942-6.488-7.941-6.49-7.942 6.49L4 20.892h1.572v10.96h28.625v-10.96h1.57zM6.93 30.747v-10.22l5.013-4.097 7.942-6.489 7.941 6.489 5.014 4.098v10.219H6.93z"/>
        </g>
    </g>
</svg>
