<?xml version="1.0" encoding="UTF-8"?>
<svg width="40px" height="40px" viewBox="0 0 40 40" version="1.1" xmlns="http://www.w3.org/2000/svg" xmlns:xlink="http://www.w3.org/1999/xlink">
    <!-- Generator: sketchtool 48.2 (47327) - http://www.bohemiancoding.com/sketch -->
    <title>2450E34A-F3A6-4E2F-B290-CBE4E19867C9</title>
    <desc>Created with sketchtool.</desc>
    <defs></defs>
    <g id="Symbols" stroke="none" stroke-width="1" fill="none" fill-rule="evenodd" opacity="0.7">
        <g id="Icons/energy_grey" fill="#FFFFFF">
            <g id="Original-Icons/energy_grey">
                <g id="Page-1" transform="translate(5.500000, 6.000000)">
                    <polygon id="Fill-1" points="28.9987 0.0002 27.2167 1.4082 17.5307 9.0592 13.4757 9.0442 9.3367 9.0302 7.0237 12.6252 4.5977 16.4022 0.2227 16.4022 -0.0003 16.4022 -0.0003 16.5282 -0.0003 17.2942 -0.0003 18.1862 5.5607 18.1862 10.3127 10.8142 18.1437 10.8412 28.9997 2.2712 28.9997 0.0002"></polygon>
                    <polygon id="Fill-2" points="27.9549 7.1624 27.0629 7.1624 27.0629 20.2624 27.0629 29.0004 27.9549 29.0004 28.8469 29.0004 28.8469 20.2624 28.8469 7.1624"></polygon>
                    <polygon id="Fill-3" points="22.617 11.5247 21.725 11.5247 21.725 20.2627 21.725 28.9997 22.617 28.9997 23.51 28.9997 23.51 20.2627 23.51 11.5247"></polygon>
                    <polygon id="Fill-4" points="17.28 14.5208 16.389 14.5208 16.389 20.2628 16.389 28.9998 17.28 28.9998 18.172 28.9998 18.172 20.2628 18.172 14.5208"></polygon>
                    <polygon id="Fill-5" points="11.943 14.5208 11.066 14.5208 11.066 20.2628 11.066 28.9998 11.943 28.9998 12.835 28.9998 12.835 20.2628 12.835 14.5208"></polygon>
                    <polygon id="Fill-6" points="6.6186 21.1961 5.7276 21.1961 5.7276 29.0001 6.6186 29.0001 7.4966 29.0001 7.4966 21.1961"></polygon>
                    <polygon id="Fill-7" points="1.2825 21.1961 0.3905 21.1961 0.3905 29.0001 1.2825 29.0001 2.1735 29.0001 2.1735 21.1961"></polygon>
                </g>
            </g>
        </g>
    </g>
</svg>