<?xml version="1.0" encoding="UTF-8"?>
<svg width="40px" height="40px" viewBox="0 0 40 40" version="1.1" xmlns="http://www.w3.org/2000/svg" xmlns:xlink="http://www.w3.org/1999/xlink">
    <!-- Generator: sketchtool 48.2 (47327) - http://www.bohemiancoding.com/sketch -->
    <title>C650580D-BCE4-4AC2-B318-11BA06DE1DC4</title>
    <desc>Created with sketchtool.</desc>
    <defs></defs>
    <g id="Symbols" stroke="none" stroke-width="1" fill="none" fill-rule="evenodd">
        <g id="Original-Icons/interrogation_grey">
            <g id="Group">
                <rect id="Rectangle" x="0" y="0" width="40" height="40"></rect>
                <path d="M18.0246921,30.8421086 L22.1084416,30.8421086 L22.1084416,26.7583591 L18.0246921,26.7583591 L18.0246921,30.8421086 Z M21.7310222,25.3480963 L18.0246921,25.3480963 C18.0151673,24.8158992 18.0104049,24.4908661 18.0104049,24.3747829 C18.0104049,23.17347 18.2092347,22.185274 18.606299,21.4095997 C19.0033633,20.635116 19.7980871,19.7630033 20.9898752,18.7938569 C22.1816634,17.8247106 22.8936407,17.1901221 23.1264025,16.8900915 C23.4847724,16.4150431 23.6639573,15.8917755 23.6639573,15.3202887 C23.6639573,14.5255648 23.346663,13.8451383 22.7120746,13.2784139 C22.0774861,12.7110942 21.2226371,12.427732 20.1469322,12.427732 C19.1099217,12.427732 18.2431667,12.7235954 17.5454766,13.3147271 C16.8477864,13.9058588 16.3679756,14.8065458 16.1066395,16.0179788 L12.3568526,15.5524552 C12.463411,13.8183499 13.2021768,12.3455807 14.5731499,11.134743 C15.9441229,9.92331006 17.7437111,9.31789122 19.9725096,9.31789122 C22.3167962,9.31789122 24.1824625,9.93104894 25.5677227,11.1561738 C26.9535783,12.381894 27.646506,13.8088251 27.646506,15.4363719 C27.646506,16.3376542 27.3917181,17.1901221 26.883333,17.9943707 C26.3743526,18.7986193 25.2867417,19.8933738 23.6205005,21.2792293 C22.7579126,21.995969 22.222739,22.5722182 22.0143844,23.0085722 C21.8060298,23.4443309 21.7113773,24.2247676 21.7310222,25.3480963 Z" id="Page-1" fill="#FFFFFF" opacity="0.7"></path>
            </g>
        </g>
    </g>
</svg>