<svg xmlns="http://www.w3.org/2000/svg" width="40" height="40" viewBox="0 0 40 40">
    <g fill="none" fill-rule="evenodd">
        <path d="M0 0h40v40H0z"/>
        <path fill="#FFF" d="M24.73 20.006l6.219 6.163V13.848l-6.22 6.158zM9.05 13.842v12.326l6.222-6.16-6.221-6.166zm1.058 13.445h19.778l-6.269-6.213c-.037.05-.082.128-.143.19a315.36 315.36 0 0 1-1.78 1.788c-.991.987-2.398.984-3.392-.006-.596-.593-1.187-1.19-1.78-1.786-.062-.061-.126-.12-.17-.16l-6.244 6.187zm.014-14.52c.081.086.134.146.19.202l8.99 9.017c.476.478.922.475 1.404-.008l8.99-9.017c.054-.055.106-.114.18-.195H10.123zm9.903-1.47h10.09c.939.001 1.667.388 2.074 1.248.143.303.222.667.223 1.003.014 4.318.013 8.636.007 12.953-.001 1.319-.947 2.261-2.268 2.262-6.767.003-13.535.003-20.303 0-1.321 0-2.266-.943-2.267-2.262-.006-4.31-.005-8.62 0-12.929 0-1.343.948-2.273 2.304-2.274 3.38-.003 6.76-.001 10.14-.001z"/>
    </g>
</svg>
