<?xml version="1.0" encoding="UTF-8"?>
<svg width="40px" height="40px" viewBox="0 0 40 40" version="1.1" xmlns="http://www.w3.org/2000/svg" xmlns:xlink="http://www.w3.org/1999/xlink">
    <!-- Generator: sketchtool 48.2 (47327) - http://www.bohemiancoding.com/sketch -->
    <title>04AC901B-9675-45C4-9341-A01E94A40BAE</title>
    <desc>Created with sketchtool.</desc>
    <defs></defs>
    <g id="Symbols" stroke="none" stroke-width="1" fill="none" fill-rule="evenodd">
        <g id="Original-Icons/notifications_grey">
            <g id="Page-1">
                <rect id="Rectangle" x="0" y="0" width="40" height="40"></rect>
            </g>
            <path d="M25.1523285,20.0099027 C27.2534889,22.0919458 29.3320385,24.1514751 31.3719652,26.1727697 L31.3719652,13.8514026 C29.3038962,15.8990927 27.2264141,17.9560989 25.1523285,20.0099027 Z M9.47387922,13.845483 L9.47387922,26.1717022 C11.523025,24.1428383 13.6046799,22.0818534 15.6955539,20.0116495 C13.6199155,17.9545462 11.5435009,15.8965696 9.47387922,13.845483 Z M10.5309613,27.2904061 L30.3089636,27.2904061 C28.2115878,25.2116625 26.1460419,23.1642635 24.0406116,21.0774653 C24.0033474,21.1276362 23.9583197,21.2059494 23.8968919,21.2680565 C23.305613,21.8657401 22.7138489,22.4630357 22.1177179,23.0560613 C21.1256542,24.0426906 19.7192198,24.0400705 18.7251182,23.0501417 C18.1293754,22.456922 17.5381935,21.8590442 16.9444886,21.2635925 C16.883449,21.2023588 16.8190129,21.1443275 16.7753438,21.1029875 C14.6957268,23.1635842 12.6295986,25.2108861 10.5309613,27.2904061 Z M10.5446442,12.7697689 C10.626548,12.8571069 10.679436,12.9164969 10.7354295,12.9726844 C13.7318054,15.9784734 16.7282783,18.9840683 19.7250423,21.9893721 C20.2016172,22.4673055 20.6473326,22.4646854 21.1289537,21.9816087 C24.1257177,18.9762078 27.1223848,15.9706129 30.1186636,12.9648239 C30.1734925,12.9097039 30.2247309,12.8509933 30.3000357,12.7697689 L10.5446442,12.7697689 Z M20.4477165,11.300548 C23.8113006,11.300548 27.1748847,11.2993835 30.5384687,11.3013244 C31.476868,11.3019066 32.2052677,11.6888144 32.611778,12.5483183 C32.7553036,12.8516726 32.8337138,13.2152902 32.8348783,13.5517359 C32.8493376,17.8694401 32.8476879,22.1872414 32.8425447,26.5049456 C32.840992,27.8235567 31.8953145,28.7658377 30.5743744,28.7664199 C23.8067396,28.7700105 17.0391049,28.7700105 10.2713731,28.7664199 C8.94985066,28.7658377 8.00524066,27.8241389 8.00368799,26.5048485 C7.99854474,22.1951988 7.999127,17.8854521 8.00329982,13.5758995 C8.00456137,12.2327366 8.95208264,11.3023918 10.3082491,11.3013244 C13.6880393,11.2988983 17.0678294,11.300548 20.4477165,11.300548 Z" id="Fill-1" fill="#FFFFFF" opacity="0.7"></path>
        </g>
    </g>
</svg>