<?xml version="1.0" encoding="UTF-8"?>
<svg width="40px" height="40px" viewBox="0 0 40 40" version="1.1" xmlns="http://www.w3.org/2000/svg" xmlns:xlink="http://www.w3.org/1999/xlink">
    <!-- Generator: sketchtool 48.2 (47327) - http://www.bohemiancoding.com/sketch -->
    <title>E312E8CD-CDA5-43F0-831B-6E5C816508AA</title>
    <desc>Created with sketchtool.</desc>
    <defs></defs>
    <g id="Symbols" stroke="none" stroke-width="1" fill="none" fill-rule="evenodd" opacity="0.7">
        <g id="Original-Icons/alarm-grey">
            <g id="Group">
                <rect id="Rectangle" x="0" y="0" width="40" height="40"></rect>
                <path d="M20.860718,26.4637157 C20.860718,27.0641657 20.3809396,27.5483213 19.788864,27.5483213 C19.194776,27.5483213 18.7121801,27.0641657 18.7121801,26.4637157 L18.7121801,20.9809253 C18.7121801,20.3824943 19.194776,19.8975311 19.788864,19.8975311 C20.3809396,19.8975311 20.860718,20.3824943 20.860718,20.9809253 L20.860718,26.4637157 Z M27.010495,12.5915856 C26.8245406,11.1294274 25.5872597,10 24.0855372,10 L15.5167433,10 C13.8858187,10 12.5636106,11.33375 12.5636106,12.9792332 L12.5636106,13.4843864 L12.5801131,14.1643849 L12.5636106,15.703265 L14.711746,15.703265 L14.711746,13.4411799 C14.711746,12.5653386 15.4744809,11.8603046 16.4106928,11.8603046 L23.1634128,11.8603046 C24.1036497,11.8603046 24.8631646,12.5653386 24.8631646,13.4411799 L24.8631646,16.4450448 L13.0671364,16.4450448 C11.6177388,16.6336192 10.5,17.8801484 10.5,19.3883398 L10.5,28.0235934 C10.5,29.668269 11.8181831,30.9971734 13.4470952,30.9971734 L13.5803222,30.9971734 L26.1511603,31 C27.7679974,30.9830404 29.0769231,29.6597893 29.0769231,28.0235934 L29.0769231,19.3883398 C29.0769231,18.0594354 28.205916,16.9376803 27.010495,16.5589163 L27.010495,12.5915856 Z" id="Fill-78" fill="#FFFFFF"></path>
            </g>
        </g>
    </g>
</svg>