<svg xmlns="http://www.w3.org/2000/svg" width="40" height="40" viewBox="0 0 40 40">
    <g fill="none" fill-rule="evenodd" opacity=".7">
        <path d="M0 0h40v40H0z"/>
        <path fill="#FFF" d="M31.669 17.27c.777.131 1.341.8 1.33 1.587v2.286c0 .788-.564 1.456-1.341 1.586l-1.825.304a10.2 10.2 0 0 1-.733 1.77l1.075 1.511c.456.64.38 1.515-.173 2.07l-1.619 1.618a1.595 1.595 0 0 1-1.135.473c-.337 0-.663-.104-.934-.3L24.809 29.1c-.564.3-1.157.543-1.77.733l-.31 1.825A1.605 1.605 0 0 1 21.143 33h-2.292a1.605 1.605 0 0 1-1.586-1.342l-.304-1.825a10.287 10.287 0 0 1-1.716-.706l-1.526 1.087a1.595 1.595 0 0 1-2.064-.174l-1.62-1.619a1.602 1.602 0 0 1-.173-2.07l1.07-1.487a10.065 10.065 0 0 1-.744-1.765l-1.846-.316A1.605 1.605 0 0 1 7 21.198V18.91c0-.788.565-1.456 1.342-1.586l1.803-.304c.184-.614.423-1.206.722-1.776l-1.086-1.526a1.608 1.608 0 0 1 .174-2.07l1.624-1.618a1.585 1.585 0 0 1 1.135-.473c.337 0 .663.104.934.299l1.494 1.075a10.06 10.06 0 0 1 1.765-.744l.315-1.846A1.605 1.605 0 0 1 18.808 7h2.286c.788 0 1.456.565 1.586 1.342l.304 1.803c.636.19 1.25.445 1.836.755l1.51-1.076a1.595 1.595 0 0 1 2.064.174l1.618 1.619c.56.554.63 1.428.174 2.07l-1.075 1.504c.298.564.543 1.156.733 1.77l1.825.31zM20 24c2.207 0 4-1.793 4-4s-1.793-4-4-4-4 1.793-4 4 1.793 4 4 4z"/>
    </g>
</svg>
