<svg xmlns="http://www.w3.org/2000/svg" width="60" height="63" viewBox="0 0 60 63">
    <g fill="none" fill-rule="evenodd">
        <path fill="#4D4D4D" d="M59.217 24.798V7.854c0-3.892-3.12-7.06-6.956-7.06H7.739C3.902.794.783 3.962.783 7.854V55.86c0 3.892 3.12 7.06 6.956 7.06h44.522c3.837 0 6.956-3.168 6.956-7.06V24.798z"/>
        <path fill="#FFF" d="M7.74 3.618h44.52c2.302 0 4.175 1.9 4.175 4.236v4.236H3.565V7.854c0-2.336 1.873-4.236 4.174-4.236"/>
        <path fill="#4D4D4D" d="M9.13 7.854c0 .78-.622 1.412-1.39 1.412a1.401 1.401 0 0 1-1.392-1.412c0-.78.623-1.412 1.391-1.412.769 0 1.392.632 1.392 1.412zM14.696 7.854c0 .78-.623 1.412-1.392 1.412a1.401 1.401 0 0 1-1.391-1.412c0-.78.623-1.412 1.391-1.412.769 0 1.392.632 1.392 1.412zM20.261 7.854c0 .78-.623 1.412-1.392 1.412a1.401 1.401 0 0 1-1.391-1.412c0-.78.623-1.412 1.391-1.412.769 0 1.392.632 1.392 1.412z"/>
        <path fill="#FFF" d="M15.221 41.28h-2.404v-4.242H8.97v4.243H6.552V30.738h2.42v4.417h3.845v-4.417h2.404zM23.897 32.62h-2.74v8.66H18.74v-8.66H16.02v-1.882h7.877zM32.238 32.62h-2.74v8.66h-2.419v-8.66h-2.718v-1.882h7.877zM35.634 35.785h1.798c.523 0 .92-.146 1.195-.438.273-.292.41-.667.41-1.126 0-.468-.137-.852-.41-1.151-.274-.299-.672-.45-1.195-.45h-1.798v3.165zm0 1.883v3.613h-2.42V30.738h4.218c1.231 0 2.21.32 2.932.96.723.64 1.084 1.476 1.084 2.51 0 1.037-.361 1.873-1.084 2.508-.723.635-1.7.952-2.932.952h-1.798zM42.961 41.28h2.404v-2.056h-2.404v2.057zm0-5.777h2.404v-2.056h-2.404v2.056zM47.862 42.186h-1.705l3.546-11.448h1.712zM51.223 42.186h-1.705l3.546-11.448h1.712z"/>
    </g>
</svg>
