<?xml version="1.0" encoding="UTF-8"?>
<svg width="24px" height="21px" viewBox="0 0 24 21" version="1.1" xmlns="http://www.w3.org/2000/svg" xmlns:xlink="http://www.w3.org/1999/xlink">
    <!-- Generator: sketchtool 47.1 (45422) - http://www.bohemiancoding.com/sketch -->
    <title>F26CB46B-F6BB-4397-9EE4-B9BFB216CF54</title>
    <desc>Created with sketchtool.</desc>
    <defs></defs>
    <g id="Symbols" stroke="none" stroke-width="1" fill="none" fill-rule="evenodd">
        <g id="Icons/fav-border-blue" transform="translate(-8.000000, -10.000000)" fill="#00AAE1">
            <path d="M29.95077,16.7607024 C29.9558599,18.0168885 29.4616298,19.2004276 28.5607161,20.0938836 L19.9933831,28.5532119 L11.4453917,20.0797578 C10.544987,19.1883198 10.0492299,18.0037717 10.0492299,16.7450632 C10.0492299,15.4813098 10.542951,14.2992841 11.4403018,13.4144045 C12.3371436,12.5254889 13.528182,12.0361313 14.7950601,12.0361313 C16.0680461,12.0361313 17.2641744,12.5270024 18.1650882,13.4194494 L19.279778,14.5247922 C19.4742125,14.7175083 19.7317618,14.8234517 20.0045809,14.8234517 L20.0050899,14.8234517 C20.2784179,14.8234517 20.5359673,14.7175083 20.7298928,14.5247922 L21.8354208,13.4290347 C22.7348075,12.5370922 23.9304269,12.0457166 25.2003589,12.0457166 C26.46571,12.0457166 27.6592934,12.5355787 28.5602071,13.4239898 C29.4570489,14.3134099 29.95077,15.497958 29.95077,16.7607024 M30.0143938,11.9882045 C28.731228,10.7153702 27.0230549,10.0146303 25.2054488,10.0146303 C23.3873337,10.0146303 21.6776336,10.7168837 20.3909049,11.9922404 L20.0076348,12.3726277 L19.6141849,11.9826551 C18.3238933,10.7042714 16.6121572,10 14.7950601,10 C12.9805079,10 11.2743708,10.7007399 9.99018701,11.9730697 C8.70142232,13.2504444 7.9944341,14.9455388 8.000033,16.7450632 C8.000033,18.5400471 8.71058415,20.2331235 10.0003668,21.5115072 L19.2701072,30.6993225 C19.4625057,30.8900207 19.7256539,31 19.9928741,31 C20.2626392,31 20.5252785,30.8920386 20.714623,30.7053764 L30.004723,21.5316869 C31.2919607,20.2558257 31.9999669,18.5607313 31.9999669,16.7607024 C32.0055658,14.9566377 31.3001046,13.2615433 30.0143938,11.9882045" id="Fill-1"></path>
        </g>
    </g>
</svg>