<?xml version="1.0" encoding="UTF-8"?>
<svg width="40px" height="40px" viewBox="0 0 40 40" version="1.1" xmlns="http://www.w3.org/2000/svg" xmlns:xlink="http://www.w3.org/1999/xlink">
    <!-- Generator: sketchtool 47.1 (45422) - http://www.bohemiancoding.com/sketch -->
    <title>C7D8A411-2B70-4852-81D9-B4846AB2A755</title>
    <desc>Created with sketchtool.</desc>
    <defs></defs>
    <g id="Symbols" stroke="none" stroke-width="1" fill="none" fill-rule="evenodd">
        <g id="Original-Icons/ventilation-white">
            <g id="Page-1" transform="translate(0.000000, -0.500000)">
                <rect id="Rectangle" x="0" y="0.5" width="40" height="40"></rect>
                <path d="M31.7520409,25.1563035 C31.5341263,25.4558447 31.2775165,25.7109642 30.9923945,25.9192167 C29.8193212,26.7709735 28.1757965,26.8198782 26.942033,25.9232921 L20.8058004,21.4611462 L23.7405203,19.3272713 L32.5287947,19.3219733 C34.4240413,19.3211582 35.0659731,20.5767863 33.9544046,22.1132088 L31.7520409,25.1563035 Z M22.2220421,34.8337276 L18.6490563,33.6783542 C18.2975416,33.5638357 17.9749464,33.3979672 17.6898244,33.1909374 C16.5167511,32.3383655 15.9632071,30.7889017 16.434473,29.33847 L18.7789904,22.120137 L21.7141176,24.2536043 L24.4354034,32.6142695 C25.02194,34.4176301 24.026457,35.4165085 22.2220421,34.8337276 L22.2220421,34.8337276 Z M6.50611807,27.6003156 L6.50000832,23.8436199 C6.49919368,23.4731669 6.55825466,23.1153475 6.66700834,22.7803504 C7.11546449,21.3996078 8.41602808,20.3950238 9.9410234,20.3950238 L17.5268976,20.3950238 L16.4055535,23.8468803 L9.2986843,29.0197744 C7.76676458,30.1356165 6.50937661,29.4974102 6.50611807,27.6003156 L6.50611807,27.6003156 Z M8.52437444,10.4099077 L12.0936944,9.24353071 C12.4468384,9.12860467 12.8032409,9.07440197 13.1559775,9.07277181 C14.6068411,9.07440197 15.9640218,10.0011459 16.4352877,11.4519852 L18.7789904,18.6707258 L15.1514241,18.6707258 L8.03803779,13.5072051 C6.50408149,12.3925855 6.72281078,10.9996168 8.52437444,10.4099077 L8.52437444,10.4099077 Z M22.3947446,7.51271203 C22.9792446,5.70853632 24.3714546,5.48601995 25.4891328,7.01877461 L27.7000501,10.0549411 C27.9183721,10.3544824 28.0804843,10.6776609 28.1908673,11.0130656 C28.6376942,12.3934006 28.1766112,13.9717997 26.9428476,14.8683857 L20.8053931,19.3289015 L19.6844564,15.8778602 L22.3947446,7.51271203 Z" id="Fill-1" fill="#FFFFFF"></path>
            </g>
        </g>
    </g>
</svg>