<?xml version="1.0" encoding="UTF-8"?>
<svg width="29px" height="26px" viewBox="0 0 29 26" version="1.1" xmlns="http://www.w3.org/2000/svg" xmlns:xlink="http://www.w3.org/1999/xlink">
    <!-- Generator: sketchtool 46.2 (44496) - http://www.bohemiancoding.com/sketch -->
    <title>806B8BD5-5BF4-42DF-B35D-DF9DDCB152E5</title>
    <desc>Created with sketchtool.</desc>
    <defs></defs>
    <g id="SYMBOLS" stroke="none" stroke-width="1" fill="none" fill-rule="evenodd">
        <g id="Buttons/Groups/Rollers-OPEN-CLOSE" transform="translate(-13.000000, -14.000000)">
            <g id="Group-8" transform="translate(13.000000, 14.000000)">
                <g id="Page-1" opacity="0.599999964" style="mix-blend-mode: multiply;" transform="translate(8.000000, 0.000000)" fill="#323232">
                    <polygon id="Fill-1" points="2.4706774 0 -1.77635684e-15 3 18.5293226 3 21 0"></polygon>
                    <polygon id="Fill-2" points="2.47219315 4.5 -1.77635684e-15 7.5 18.5293226 7.5 21 4.5"></polygon>
                    <polygon id="Fill-3" points="2.47219315 9 -1.77635684e-15 12 18.5293226 12 21 9"></polygon>
                    <polygon id="Fill-4" points="2.47219315 13.5 -1.77635684e-15 16.5 18.5293226 16.5 21 13.5"></polygon>
                </g>
                <g id="Page-1" transform="translate(0.000000, 9.000000)" fill="#FFFFFF">
                    <polygon id="Fill-1" points="2.4706774 0 -1.77635684e-15 3 18.5293226 3 21 0"></polygon>
                    <polygon id="Fill-2" points="2.47219315 4.5 -1.77635684e-15 7.5 18.5293226 7.5 21 4.5"></polygon>
                    <polygon id="Fill-3" points="2.47219315 9 -1.77635684e-15 12 18.5293226 12 21 9"></polygon>
                    <polygon id="Fill-4" points="2.47219315 13.5 -1.77635684e-15 16.5 18.5293226 16.5 21 13.5"></polygon>
                </g>
            </g>
        </g>
    </g>
</svg>