<svg xmlns="http://www.w3.org/2000/svg" width="40" height="40" viewBox="0 0 40 40">
    <g fill="none" fill-rule="evenodd" opacity=".3">
        <path d="M0 0h40v40H0z"/>
        <path fill="#FFF" d="M29.477 30.208l-1.35 1.35-.46-.473-1.714-1.701-.742-.742-2.011 2.011-.905.905-.568-.581-.769-.77 2.916-2.916-2.916-2.915 1.337-1.35 1.201 1.2 1.715 1.715 1.457-1.457 1.458-1.458 1.35 1.35-2.916 2.915.919.919 1.674 1.674.324.324zM17.988 20.163l2.025-5.67 2.025 5.67h-4.05zm15.512-.175c0-5.21-2.957-9.733-7.29-11.988l-1.242 2.025a11.126 11.126 0 0 1 6.17 9.963c0 .986-.15 1.917-.379 2.821-1.31-1.552-3.254-2.578-5.454-2.578-.067 0-.135.027-.216.027l-3.47-9.328h-3.253l-5.602 15.12h3.132l1.2-3.362h2.863c-1.107 1.256-1.795 2.89-1.795 4.685 0 1.363.405 2.632 1.066 3.712-5.792-.391-10.367-5.211-10.367-11.097 0-2.686.945-5.157 2.537-7.087l2.173 2.173 1.148-6.953L7.768 9.27l1.958 1.958A13.454 13.454 0 0 0 6.5 19.988c0 7.452 6.034 13.5 13.5 13.5.5 0 1.012-.04 1.499-.094a7.072 7.072 0 0 0 3.806 1.12c3.942 0 7.142-3.2 7.142-7.141a6.97 6.97 0 0 0-.23-1.688 13.402 13.402 0 0 0 1.283-5.697z"/>
    </g>
</svg>
