<svg xmlns="http://www.w3.org/2000/svg" width="40" height="40" viewBox="0 0 40 40">
    <g fill="none" fill-rule="evenodd">
        <path d="M0 0h40v40H0z"/>
        <path fill="#FFF" d="M21.4 8h-1.623a.802.802 0 0 0-.802.804v7.351h3.226V8.804A.803.803 0 0 0 21.4 8M25.592 8H23.97a.805.805 0 0 0-.804.804v7.351h3.229V8.804A.804.804 0 0 0 25.592 8M17.207 8h-1.622a.804.804 0 0 0-.803.804v7.351h3.228V8.804A.804.804 0 0 0 17.207 8M13.014 8h-1.621a.804.804 0 0 0-.804.804v7.351h3.229V8.804A.804.804 0 0 0 13.015 8M4.4 10.405a.97.97 0 0 1-.973-.972.973.973 0 0 1 1.944 0h.001a.974.974 0 0 1-.972.972m0-2.372a1.4 1.4 0 1 0 1.398 1.4H5.8a1.4 1.4 0 0 0-1.399-1.4M8.822 8H7.2a.805.805 0 0 0-.804.804v12.764c0 .444.361.803.804.803h1.622a.803.803 0 0 0 .803-.803V8.804A.804.804 0 0 0 8.822 8M11.99 20.03a.97.97 0 1 1 0-1.943c.536 0 .97.435.971.97h.001a.975.975 0 0 1-.972.974m0-2.372a1.4 1.4 0 1 0 1.398 1.399h.001a1.4 1.4 0 0 0-1.399-1.4M33.181 17.626H31.56a.804.804 0 0 0-.803.803v12.765c0 .444.36.803.802.803h1.623a.804.804 0 0 0 .804-.803V18.428a.804.804 0 0 0-.804-.803M28.99 17.626h-1.623a.803.803 0 0 0-.802.803v12.765c0 .444.36.803.802.803h1.622a.802.802 0 0 0 .802-.803V18.428a.803.803 0 0 0-.802-.803M36.45 30.234h-1.184a.292.292 0 0 0-.292.292v1.183c0 .16.131.29.292.29h1.183c.161 0 .292-.13.292-.29v-1.183a.292.292 0 0 0-.292-.292M20.604 17.626h-1.622a.803.803 0 0 0-.803.803v12.765c0 .444.36.803.803.803h1.622a.804.804 0 0 0 .804-.803V18.428a.804.804 0 0 0-.804-.803M24.797 17.626h-1.623a.803.803 0 0 0-.802.803v12.765c0 .444.36.803.802.803h1.623a.803.803 0 0 0 .803-.803V18.428a.804.804 0 0 0-.803-.803M16.412 17.626H14.79a.804.804 0 0 0-.804.803v12.765c0 .444.361.803.804.803h1.622a.803.803 0 0 0 .803-.803V18.428a.804.804 0 0 0-.803-.803"/>
    </g>
</svg>
