<?xml version="1.0" encoding="UTF-8"?>
<svg width="38px" height="32px" viewBox="0 0 38 32" version="1.1" xmlns="http://www.w3.org/2000/svg" xmlns:xlink="http://www.w3.org/1999/xlink">
    <!-- Generator: sketchtool 46.2 (44496) - http://www.bohemiancoding.com/sketch -->
    <title>8B9402AF-2F53-447C-A996-CDBA48CAA02F</title>
    <desc>Created with sketchtool.</desc>
    <defs></defs>
    <g id="SYMBOLS" stroke="none" stroke-width="1" fill="none" fill-rule="evenodd">
        <g id="Buttons/Groups/Lights-ON-OFF" transform="translate(-8.000000, -11.000000)">
            <g id="Group-11" transform="translate(8.000000, 11.000000)">
                <g id="Page-1" transform="translate(0.000000, 10.500000)" fill="#FFFFFF">
                    <path d="M12.1942344,12.6409737 C9.97609732,12.6409737 8.17845213,10.80169 8.17845213,8.53496714 C8.17845213,6.26738077 9.97609732,4.42896059 12.1942344,4.42896059 C14.4106828,4.42896059 16.208328,6.26738077 16.208328,8.53496714 C16.208328,10.80169 14.4106828,12.6409737 12.1942344,12.6409737 M15.0439538,2.97825796 L15.0439538,0.551785108 C15.0439538,0.246101339 14.8024665,0 14.5060957,0 L9.80469198,0 C9.50494372,0 9.26430075,0.246101339 9.26430075,0.551785108 L9.26430075,2.97912147 C7.32226978,4.03778899 6,6.12749159 6,8.53496714 C6,12.0123359 8.75599526,14.8308439 12.1553938,14.8308439 C15.553948,14.8308439 18.3099433,12.0123359 18.3099433,8.53496714 C18.3099433,6.12662807 16.9859848,4.03606196 15.0439538,2.97825796" id="Fill-1"></path>
                    <polygon id="Fill-4" points="1.53040484 15.6810207 5.76656544 12.5335141 6.50453721 13.5740478 2.26922097 16.7198274"></polygon>
                    <polygon id="Fill-6" points="7.69449558 20.7512264 9.31229181 15.6599509 10.507063 16.0571671 8.8892668 21.1484426"></polygon>
                    <polygon id="Fill-8" points="15.5959441 21.1488743 13.9781479 16.0575989 15.1729191 15.6603827 16.7907153 20.7516581"></polygon>
                    <polygon id="Fill-10" points="22.2164121 16.7207772 17.9802515 13.5732706 18.719912 12.5344639 22.9552283 15.681107"></polygon>
                    <polygon id="Fill-12" points="4.69220013 9.15786721 8.44361299e-05 9.15786721 8.44361299e-05 7.87382268 4.69304449 7.87382268"></polygon>
                    <polygon id="Fill-14" points="19.792673 9.15821262 24.5937113 9.15821262 24.5937113 7.87416809 19.792673 7.87416809"></polygon>
                </g>
                <g id="Page-1-Copy" opacity="0.599999964" style="mix-blend-mode: multiply;" transform="translate(18.750000, 0.000000)" fill="#323232">
                    <path d="M6.19423443,12.6409737 C3.97609732,12.6409737 2.17845213,10.80169 2.17845213,8.53496714 C2.17845213,6.26738077 3.97609732,4.42896059 6.19423443,4.42896059 C8.41068282,4.42896059 10.208328,6.26738077 10.208328,8.53496714 C10.208328,10.80169 8.41068282,12.6409737 6.19423443,12.6409737 M9.04395379,2.97825796 L9.04395379,0.551785108 C9.04395379,0.246101339 8.80246646,0 8.50609565,0 L3.80469198,0 C3.50494372,0 3.26430075,0.246101339 3.26430075,0.551785108 L3.26430075,2.97912147 C1.32226978,4.03778899 0,6.12749159 0,8.53496714 C0,12.0123359 2.75599526,14.8308439 6.15539381,14.8308439 C9.55394801,14.8308439 12.3099433,12.0123359 12.3099433,8.53496714 C12.3099433,6.12662807 10.9859848,4.03606196 9.04395379,2.97825796" id="Fill-1"></path>
                    <polygon id="Fill-8" points="9.59594411 21.1488743 7.97814787 16.0575989 9.1729191 15.6603827 10.7907153 20.7516581"></polygon>
                    <polygon id="Fill-10" points="16.2164121 16.7207772 11.9802515 13.5732706 12.719912 12.5344639 16.9552283 15.681107"></polygon>
                    <polygon id="Fill-14" points="13.792673 9.15821262 18.5937113 9.15821262 18.5937113 7.87416809 13.792673 7.87416809"></polygon>
                </g>
            </g>
        </g>
    </g>
</svg>