<?xml version="1.0" encoding="UTF-8"?>
<svg width="40px" height="40px" viewBox="0 0 40 40" version="1.1" xmlns="http://www.w3.org/2000/svg" xmlns:xlink="http://www.w3.org/1999/xlink">
    <!-- Generator: sketchtool 47.1 (45422) - http://www.bohemiancoding.com/sketch -->
    <title>710404AC-B57C-4839-A3F3-24D2930E2751</title>
    <desc>Created with sketchtool.</desc>
    <defs></defs>
    <g id="Symbols" stroke="none" stroke-width="1" fill="none" fill-rule="evenodd">
        <g id="Original-Icons/light-white">
            <g id="Group">
                <rect id="Rectangle" x="0" y="0" width="40" height="40"></rect>
                <path d="M29.1438406,18.7490376 L35,18.7490376 L35,17.223686 L29.1438406,17.223686 L29.1438406,18.7490376 Z M10.7238416,18.748554 L5,18.748554 L5,17.2232024 L10.7248181,17.2232024 L10.7238416,18.748554 Z M27.8348225,22.7616699 L33.0020507,26.5010543 L32.1002392,27.7371985 L26.9330111,23.9958795 L27.8348225,22.7616699 Z M23.5083736,26.4763895 L25.4819101,32.5274989 L24.0244617,33 L22.0509252,26.9484069 L23.5083736,26.4763895 Z M16.3597969,26.4759058 L17.816757,26.9479233 L15.8432205,32.9990328 L14.3862604,32.5270153 L16.3597969,26.4759058 Z M12.0343245,22.760219 L12.9346712,23.9968468 L7.76793125,27.7357476 L6.86660808,26.5010543 L12.0343245,22.760219 Z M19.9816903,23.0233107 C17.276256,23.0233107 15.083492,20.8373281 15.083492,18.1435397 C15.083492,15.4487842 17.276256,13.2637688 19.9816903,13.2637688 C22.6861481,13.2637688 24.8784239,15.4487842 24.8784239,18.1435397 C24.8784239,20.8373281 22.6861481,23.0233107 19.9816903,23.0233107 L19.9816903,23.0233107 Z M27.4422636,18.1435397 C27.4422636,15.2814501 25.8271081,12.7965875 23.4585714,11.5396475 L23.4585714,8.65579479 C23.4585714,8.29210918 23.1636639,8 22.8023534,8 L17.0672819,8 C16.7015771,8 16.4076461,8.29210918 16.4076461,8.65579479 L16.4076461,11.5406148 C14.0391094,12.798522 12.4259069,15.2824173 12.4259069,18.1435397 C12.4259069,22.2761109 15.7880475,25.625694 19.9348176,25.625694 C24.080123,25.625694 27.4422636,22.2761109 27.4422636,18.1435397 L27.4422636,18.1435397 Z" id="Fill-77" fill="#FFFFFF"></path>
            </g>
        </g>
    </g>
</svg>