<?xml version="1.0" encoding="UTF-8"?>
<svg width="40px" height="40px" viewBox="0 0 40 40" version="1.1" xmlns="http://www.w3.org/2000/svg" xmlns:xlink="http://www.w3.org/1999/xlink">
    <!-- Generator: sketchtool 47.1 (45422) - http://www.bohemiancoding.com/sketch -->
    <title>19CB863D-6BF2-452F-AD0F-2CABB8EAEC5E</title>
    <desc>Created with sketchtool.</desc>
    <defs></defs>
    <g id="Symbols" stroke="none" stroke-width="1" fill="none" fill-rule="evenodd" opacity="0.3">
        <g id="Original-Icons/away-dark">
            <g id="Icons/Generic-Device-Send">
                <rect id="Rectangle" x="0" y="0" width="40" height="40"></rect>
                <g id="Group-5" transform="translate(3.108799, 8.396993)" fill="#FFFFFF">
                    <path d="M32.2543742,5.67787659 C32.1957134,5.04149581 31.6766542,4.53576862 31.0260527,4.53487982 L31.0260527,4.52510302 L26.0381072,4.52510302 L26.0381072,4.53487982 C26.0016664,4.53132462 25.9696696,4.51265982 25.9296736,4.51265982 C25.2364096,4.51265982 24.6746881,5.07527021 24.6746881,5.76853419 C24.6746881,5.82452858 24.6995745,5.87341258 24.7066849,5.92940698 L24.6746881,5.92940698 L24.6746881,13.2504524 L25.661256,13.2504524 L25.661256,7.00041095 L26.02122,7.00041095 L26.02122,21.5207361 L26.0363296,21.5207361 C26.0336632,21.5465113 26.02122,21.5696201 26.02122,21.5953953 C26.02122,22.1864473 26.4993944,22.6646217 27.092224,22.6646217 C27.683276,22.6646217 28.1614504,22.1864473 28.1614504,21.5953953 C28.1614504,21.5696201 28.1463408,21.5465113 28.1445632,21.5207361 L28.1641168,21.5207361 L28.1641168,12.9918116 L28.5934071,12.9918116 L28.5934071,21.5207361 L28.6076279,21.5207361 C28.6076279,21.5465113 28.5934071,21.5696201 28.5934071,21.5953953 C28.5934071,22.1864473 29.0706927,22.6646217 29.6652999,22.6646217 C30.2519079,22.6646217 30.7318599,22.1864473 30.7318599,21.5953953 C30.7318599,21.5696201 30.7194167,21.5465113 30.7176391,21.5207361 L30.7380815,21.5207361 L30.7380815,13.2504524 L30.7451919,13.2504524 L30.7451919,7.00041095 L31.1042671,7.00041095 L31.1042671,13.2504524 L32.2765942,13.2504524 L32.2765942,5.67787659 L32.2543742,5.67787659" id="Fill-3"></path>
                    <path d="M30.1252539,2.25199709 C30.1252539,3.16212827 29.3857723,3.90427624 28.4756411,3.90427624 C27.5637324,3.90427624 26.8260284,3.16212827 26.8260284,2.25199709 C26.8260284,1.34097712 27.5637324,0.603273145 28.4756411,0.603273145 C29.3857723,0.603273145 30.1252539,1.34097712 30.1252539,2.25199709" id="Fill-1"></path>
                    <path d="M22.9145975,15.0611157 L17.4075928,10.5655654 L11.9032546,6.06557114 L6.39624998,10.5655654 L0.891022954,15.0611157 L1.98158052,15.0611157 L1.98158052,22.6647994 L21.8249287,22.6647994 L21.8249287,15.0611157 L22.9145975,15.0611157 Z M3.29167168,21.5262467 L3.29167168,14.8131405 L11.9032546,7.83961588 L20.5175039,14.8131405 L20.5175039,21.5262467 L3.29167168,21.5262467 Z" id="Fill-6"></path>
                </g>
            </g>
        </g>
    </g>
</svg>