<svg xmlns="http://www.w3.org/2000/svg" width="60" height="63" viewBox="0 0 60 63">
    <g fill="none" fill-rule="evenodd">
        <path fill="#FFF" d="M59.41 24.004V7.06c0-3.892-3.172-7.06-7.072-7.06H7.072C3.172 0 0 3.168 0 7.06v48.007c0 3.891 3.172 7.06 7.072 7.06h45.266c3.9 0 7.072-3.169 7.072-7.06V24.004z"/>
        <path fill="#FF7F71" d="M6.868 2.618h45.264c2.34 0 4.243 1.9 4.243 4.236v4.236H2.625V6.854a4.245 4.245 0 0 1 4.243-4.236"/>
        <path fill="#FFF" d="M8.283 6.854c0 .78-.633 1.412-1.415 1.412a1.413 1.413 0 1 1 0-2.824c.782 0 1.415.632 1.415 1.412zM13.94 6.854c0 .78-.633 1.412-1.414 1.412a1.413 1.413 0 1 1 0-2.824c.781 0 1.415.632 1.415 1.412zM19.599 6.854c0 .78-.634 1.412-1.415 1.412a1.413 1.413 0 1 1 0-2.824c.781 0 1.415.632 1.415 1.412z"/>
        <path fill="#FF7F71" d="M14.475 40.28H12.03v-4.242H8.12v4.243H5.66V29.738h2.46v4.417h3.91v-4.417h2.444zM23.295 31.62H20.51v8.66h-2.46v-8.66h-2.763v-1.882h8.008zM31.775 31.62H28.99v8.66h-2.46v-8.66h-2.763v-1.882h8.008zM35.228 34.785h1.827c.532 0 .937-.146 1.216-.438.278-.292.417-.667.417-1.126 0-.468-.14-.852-.417-1.151-.279-.299-.684-.45-1.216-.45h-1.827v3.165zm0 1.883v3.613h-2.46V29.738h4.287c1.253 0 2.247.32 2.981.96.736.64 1.103 1.476 1.103 2.51 0 1.037-.367 1.873-1.103 2.508-.734.635-1.728.952-2.98.952h-1.828zM42.677 40.28h2.444v-2.056h-2.444v2.057zm0-5.777h2.444v-2.056h-2.444v2.056zM47.66 41.186h-1.733l3.604-11.448h1.741zM51.077 41.186h-1.734l3.605-11.448h1.74z"/>
    </g>
</svg>
