<?xml version="1.0" encoding="UTF-8"?>
<svg width="40px" height="40px" viewBox="0 0 40 40" version="1.1" xmlns="http://www.w3.org/2000/svg" xmlns:xlink="http://www.w3.org/1999/xlink">
    <!-- Generator: Sketch 49.2 (51160) - http://www.bohemiancoding.com/sketch -->
    <title>Icons/sunset</title>
    <desc>Created with Sketch.</desc>
    <defs>
        <path d="M12.2408511,0.375319149 C11.7710638,0.375319149 11.3897872,0.755744681 11.3897872,1.22638298 L11.3897872,5.72340426 C11.3897872,6.19319149 11.7710638,6.57361702 12.2408511,6.57361702 C12.7106383,6.57361702 13.0919149,6.19319149 13.0919149,5.72340426 L13.0919149,1.22638298 C13.0919149,0.755744681 12.7106383,0.375319149 12.2408511,0.375319149 Z" id="path-1"></path>
        <path d="M11.3897872,1.22638298 L11.3897872,5.72340426 C11.3897872,6.19319149 11.7710638,6.57361702 12.2408511,6.57361702 C12.6995745,6.57361702 13.0731915,6.21191489 13.0919149,5.75744681 L13.0919149,1.19148936 C13.0731915,0.737021277 12.6995745,0.375319149 12.2408511,0.375319149 C11.7710638,0.375319149 11.3897872,0.755744681 11.3897872,1.22638298 Z" id="path-3"></path>
        <path d="M26.0068085,19.5360281 L26.0068085,19.612842 C26.0268974,20.0648432 26.4000937,20.4255319 26.8570213,20.4255319 L31.3548936,20.4255319 C31.8246809,20.4255319 32.2059574,20.0442553 32.2059574,19.5744681 C32.2059574,19.1038298 31.8246809,18.7234043 31.3548936,18.7234043 L26.8570213,18.7234043 C26.4000937,18.7234043 26.0268974,19.0832878 26.0068085,19.5360281 Z" id="path-5"></path>
        <path d="M26.8570213,18.7234043 C26.387234,18.7234043 26.0059574,19.1038298 26.0059574,19.5744681 C26.0059574,20.0442553 26.387234,20.4255319 26.8570213,20.4255319 L31.3548936,20.4255319 C31.8246809,20.4255319 32.2059574,20.0442553 32.2059574,19.5744681 C32.2059574,19.1038298 31.8246809,18.7234043 31.3548936,18.7234043 L26.8570213,18.7234043 Z" id="path-7"></path>
        <path d="M-1.52425532,19.6127998 L-1.52425532,19.5360703 C-1.54436685,19.0833102 -1.91837732,18.7234043 -2.37531915,18.7234043 L-6.87234043,18.7234043 C-7.34297872,18.7234043 -7.72340426,19.1038298 -7.72340426,19.5744681 C-7.72340426,20.0442553 -7.34297872,20.4255319 -6.87234043,20.4255319 L-2.37531915,20.4255319 C-1.91837732,20.4255319 -1.54436685,20.0648208 -1.52425532,19.6127998 Z" id="path-9"></path>
        <path d="M-1.87574468,6.22297872 C-1.70978723,6.05702128 -1.49191489,5.97361702 -1.27404255,5.97361702 C-1.05617021,5.97361702 -0.838297872,6.05702128 -0.672340426,6.22297872 L2.50723404,9.40255319 C2.84,9.73531915 2.84,10.2740426 2.50723404,10.6059574 C2.17531915,10.9387234 1.63659574,10.9387234 1.30382979,10.6059574 L-1.87574468,7.42638298 C-2.20851064,7.09361702 -2.20851064,6.55489362 -1.87574468,6.22297872 Z" id="path-11"></path>
        <linearGradient x1="73.6024756%" y1="63.1427082%" x2="-6029.54455%" y2="-6040.00432%" id="linearGradient-13">
            <stop stop-color="#FAD961" offset="0%"></stop>
            <stop stop-color="#F99D3B" offset="100%"></stop>
        </linearGradient>
        <path d="M25.1548936,6.2212766 C25.3208511,6.05531915 25.5387234,5.97191489 25.7565957,5.97191489 C25.973617,5.97191489 26.1914894,6.05531915 26.3582979,6.2212766 C26.6902128,6.55404255 26.6902128,7.09361702 26.3582979,7.42468085 L23.1778723,10.6051064 C22.8451064,10.9378723 22.306383,10.9378723 21.9744681,10.6051064 C21.6417021,10.2723404 21.6417021,9.73446809 21.9744681,9.40170213 L25.1548936,6.2212766 Z" id="path-14"></path>
        <linearGradient x1="36.8576003%" y1="73.6028414%" x2="6140.00463%" y2="-6029.54418%" id="linearGradient-16">
            <stop stop-color="#FACC59" offset="0%"></stop>
            <stop stop-color="#F99D3B" offset="100%"></stop>
        </linearGradient>
    </defs>
    <g id="Icons/sunset" stroke="none" stroke-width="1" fill="none" fill-rule="evenodd">
        <g id="Original-Icons/sunset">
            <g id="Group">
                <rect id="Rectangle" x="0" y="0" width="40" height="40"></rect>
                <g id="Group-2" transform="translate(7.000000, 1.000000)">
                    <g id="Group-5" transform="translate(0.723404, 0.476255)">
                        <path d="M0.354893617,20.4255319 L24.1846809,20.4255319 C24.1846809,13.8451064 18.8510638,8.5106383 12.2697872,8.5106383 C5.6893617,8.5106383 0.354893617,13.8451064 0.354893617,20.4255319" id="Fill-1" fill="#ff6666"></path>
                        <mask id="mask-2" fill="white">
                            <use xlink:href="#path-1"></use>
                        </mask>
                        <g id="Clip-4"></g>
                        <mask id="mask-4" fill="white">
                            <use xlink:href="#path-3"></use>
                        </mask>
                        <g id="Clip-7"></g>
                        <path d="M11.3897872,1.22638298 L11.3897872,5.72340426 C11.3897872,6.19319149 11.7710638,6.57361702 12.2408511,6.57361702 C12.6995745,6.57361702 13.0731915,6.21191489 13.0919149,5.75744681 L13.0919149,1.19148936 C13.0731915,0.737021277 12.6995745,0.375319149 12.2408511,0.375319149 C11.7710638,0.375319149 11.3897872,0.755744681 11.3897872,1.22638298" id="Fill-6" fill="#ff6666" mask="url(#mask-4)"></path>
                        <mask id="mask-6" fill="white">
                            <use xlink:href="#path-5"></use>
                        </mask>
                        <g id="Clip-10"></g>
                        <mask id="mask-8" fill="white">
                            <use xlink:href="#path-7"></use>
                        </mask>
                        <g id="Clip-13"></g>
                        <path d="M26.8570213,18.7234043 C26.387234,18.7234043 26.0059574,19.1038298 26.0059574,19.5744681 C26.0059574,20.0442553 26.387234,20.4255319 26.8570213,20.4255319 L31.3548936,20.4255319 C31.8246809,20.4255319 32.2059574,20.0442553 32.2059574,19.5744681 C32.2059574,19.1038298 31.8246809,18.7234043 31.3548936,18.7234043 L26.8570213,18.7234043 Z" id="Fill-12" fill="#ff6666" mask="url(#mask-8)"></path>
                        <mask id="mask-10" fill="white">
                            <use xlink:href="#path-9"></use>
                        </mask>
                        <g id="Clip-16"></g>
                        <path d="M-6.87234043,18.7234043 C-7.34297872,18.7234043 -7.72340426,19.1038298 -7.72340426,19.5744681 C-7.72340426,20.0442553 -7.34297872,20.4255319 -6.87234043,20.4255319 L-2.37531915,20.4255319 C-1.91659574,20.4255319 -1.54297872,20.0629787 -1.52425532,19.6093617 L-1.52425532,19.5395745 C-1.54297872,19.0859574 -1.91659574,18.7234043 -2.37531915,18.7234043 L-6.87234043,18.7234043 Z" id="Fill-18" fill="#ff6666" mask="url(#mask-10)"></path>
                        <mask id="mask-12" fill="white">
                            <use xlink:href="#path-11"></use>
                        </mask>
                        <g id="Clip-22"></g>
                        <polygon id="Fill-21" fill="url(#linearGradient-13)" mask="url(#mask-12)" points="5.36425532 8.41446809 0.315744681 13.4629787 -4.73276596 8.41446809 0.315744681 3.36595745"></polygon>
                        <path d="M-1.87574468,6.22297872 C-2.20851064,6.55489362 -2.20851064,7.09361702 -1.87574468,7.42638298 L1.30382979,10.6059574 C1.63659574,10.9387234 2.17531915,10.9387234 2.50723404,10.6059574 C2.84,10.2740426 2.84,9.73531915 2.50723404,9.40255319 L-0.672340426,6.22297872 C-0.838297872,6.05702128 -1.05617021,5.97446809 -1.27404255,5.97446809 C-1.49191489,5.97446809 -1.70978723,6.05702128 -1.87574468,6.22297872" id="Fill-24" fill="#ff6666" mask="url(#mask-12)"></path>
                        <mask id="mask-15" fill="white">
                            <use xlink:href="#path-14"></use>
                        </mask>
                        <g id="Clip-27"></g>
                        <polygon id="Fill-26" fill="url(#linearGradient-16)" mask="url(#mask-15)" points="24.1659574 13.4621277 19.1174468 8.41361702 24.1659574 3.36510638 29.2144681 8.41361702"></polygon>
                        <path d="M25.1548936,6.2212766 L21.9744681,9.40170213 C21.6417021,9.73446809 21.6417021,10.2723404 21.9744681,10.6051064 C22.306383,10.9378723 22.8451064,10.9378723 23.1778723,10.6051064 L26.3582979,7.42468085 C26.6902128,7.09361702 26.6902128,6.55404255 26.3582979,6.2212766 C26.1914894,6.05531915 25.9744681,5.97276596 25.7557447,5.97276596 C25.5387234,5.97276596 25.3208511,6.05531915 25.1548936,6.2212766" id="Fill-29" fill="#ff6666" mask="url(#mask-15)"></path>
                    </g>
                    <path d="M12.9642553,27.3699999 L12.9642553,36.5102044 L12.9642553,27.3699999 L9,27.3699999 L12.9928832,22 L16.9857664,27.3699999 L12.9642553,27.3699999 Z" id="Combined-Shape" stroke="#FFFFFF" stroke-width="2" fill="#FFFFFF" transform="translate(12.992883, 29.472170) rotate(180.000000) translate(-12.992883, -29.472170) "></path>
                </g>
            </g>
        </g>
    </g>
</svg>
