<svg xmlns="http://www.w3.org/2000/svg" width="40" height="40" viewBox="0 0 40 40">
    <g fill="none" fill-rule="evenodd">
        <path d="M0 0h40v40H0z"/>
        <path fill="#FFF" d="M12.023 21.118c-.443.18-1.11.334-1.997.463-.505.071-.86.153-1.068.244a1.044 1.044 0 0 0-.653.979c0 .326.124.598.37.816.247.217.609.326 1.085.326.471 0 .891-.104 1.257-.31.368-.206.637-.488.809-.846.132-.277.197-.685.197-1.224v-.448zm.103 2.732c-.453.385-.89.657-1.309.816-.42.158-.868.238-1.35.238-.793 0-1.402-.194-1.828-.582C7.214 23.936 7 23.44 7 22.837a2.007 2.007 0 0 1 .873-1.672c.26-.177.555-.31.88-.4a8.593 8.593 0 0 1 1.089-.185c.988-.117 1.714-.258 2.181-.422.005-.167.007-.273.007-.318 0-.499-.116-.85-.345-1.054-.314-.277-.779-.414-1.395-.414-.575 0-1.001.1-1.275.302-.273.201-.477.558-.608 1.07L7.21 19.58c.108-.51.288-.925.538-1.24.248-.315.61-.557 1.082-.726.47-.171 1.016-.256 1.637-.256.616 0 1.117.073 1.501.217.387.146.67.328.85.548.182.22.31.498.382.832.04.21.061.585.061 1.13v1.632c0 1.136.026 1.855.078 2.156.052.301.155.592.31.868H12.37a2.608 2.608 0 0 1-.244-.891zM19.89 24.74v-1.06c-.563.815-1.326 1.223-2.292 1.223-.425 0-.824-.08-1.193-.244-.37-.164-.643-.368-.822-.614a2.305 2.305 0 0 1-.378-.909c-.05-.24-.073-.62-.073-1.141v-4.473h1.222v4.004c0 .638.025 1.069.075 1.29.078.323.24.575.49.759.248.184.557.275.924.275a2.01 2.01 0 0 0 1.033-.282c.322-.188.549-.444.683-.768s.201-.794.201-1.41v-3.868h1.223v7.219H19.89zM25.573 23.647l.176 1.08a4.58 4.58 0 0 1-.924.108c-.444 0-.79-.07-1.033-.21a1.182 1.182 0 0 1-.518-.554c-.098-.228-.148-.711-.148-1.445v-4.153h-.898v-.952h.898v-1.787L24.343 15v2.521h1.23v.952h-1.23v4.222c0 .349.02.573.063.672.043.1.115.18.211.238.098.06.237.089.418.089.136 0 .316-.016.538-.047M27.57 21.13c0 .925.201 1.618.605 2.077.404.46.911.69 1.523.69.608 0 1.113-.23 1.515-.692.404-.463.606-1.167.606-2.114 0-.893-.203-1.57-.609-2.03a1.933 1.933 0 0 0-1.512-.69c-.612 0-1.12.229-1.523.686-.404.459-.605 1.15-.605 2.074m-1.257 0c0-1.337.371-2.328 1.115-2.97.62-.534 1.377-.802 2.27-.802.993 0 1.804.324 2.434.975.63.65.946 1.549.946 2.695 0 .928-.14 1.66-.419 2.192a2.97 2.97 0 0 1-1.218 1.241 3.542 3.542 0 0 1-1.743.441c-1.01 0-1.827-.323-2.45-.972-.624-.647-.935-1.58-.935-2.8"/>
    </g>
</svg>
