<?xml version="1.0" encoding="UTF-8"?>
<svg width="40px" height="40px" viewBox="0 0 40 40" version="1.1" xmlns="http://www.w3.org/2000/svg" xmlns:xlink="http://www.w3.org/1999/xlink">
    <!-- Generator: sketchtool 47.1 (45422) - http://www.bohemiancoding.com/sketch -->
    <title>DFF7ADFA-647E-4B8A-AE88-26956A27CC3B</title>
    <desc>Created with sketchtool.</desc>
    <defs></defs>
    <g id="Symbols" stroke="none" stroke-width="1" fill="none" fill-rule="evenodd" opacity="0.3">
        <g id="Original-Icons/hot_water_off">
            <g id="Original-Icons/Light">
                <rect id="Rectangle" x="0" y="0" width="40" height="40"></rect>
                <path d="M20.4603197,10.0334283 C20.4603197,10.0334283 24.3489895,14.1725888 24.3489895,18.9015724 C24.3489895,23.6256036 20.4603197,27.7657546 20.4603197,27.7657546 C20.4603197,27.7657546 22.6750229,25.4079485 22.6750229,22.711898 C22.6750229,20.0158475 20.4603197,17.6605175 20.4603197,17.6605175 C20.4603197,17.6605175 18.2431519,20.0158475 18.2431519,22.711898 C18.2431519,25.4079485 20.4603197,27.7657546 20.4603197,27.7657546 C20.4603197,27.7657546 16.5691853,23.6256036 16.5691853,18.9015724 C16.5691853,14.1725888 20.4603197,10.0334283 20.4603197,10.0334283 L20.4603197,10.0334283 Z M28.6980494,27.0402377 C28.6980494,28.1911601 27.7028378,29.1197227 26.4685586,29.1197227 L14.5289768,29.1197227 C13.298148,29.1197227 12.3029364,28.1911601 12.3029364,27.0402377 L12.3029364,8.18175065 C12.3029364,7.03280921 13.298148,6.10375139 14.5289768,6.10375139 L26.4685586,6.10375139 C27.7028378,6.10375139 28.6980494,7.03280921 28.6980494,8.18175065 L28.6980494,27.0402377 Z M26.7150201,4 L14.284487,4 C11.9194423,4 10,5.93438158 10,8.31992076 L10,26.9030581 C10,29.2885973 11.9194423,31.2239693 14.284487,31.2239693 L19.5819308,31.2239693 L19.5819308,32.7042219 C19.5799592,32.7230407 19.574537,32.7423548 19.574537,32.7626594 L19.574537,33.5173951 C19.574537,33.7040981 19.6499542,33.8754488 19.7707204,34.0111428 C19.7909302,34.034914 19.8106471,34.0581899 19.8328287,34.079485 L19.8338145,34.0804754 C19.9116964,34.151789 20.0023942,34.2077504 20.1024576,34.2443977 C20.125625,34.2533119 20.1497782,34.2587594 20.1744243,34.2666832 C20.1887191,34.270645 20.2030139,34.2760926 20.2187874,34.279064 C20.2942046,34.2983781 20.3755369,34.3117494 20.4588409,34.3117494 L22.0726709,34.3117494 L22.0726709,35.2036647 C22.0726709,35.6439272 22.4251109,36 22.8608549,36 L23.609112,36 C24.0453489,36 24.397296,35.6439272 24.397296,35.2036647 L24.397296,32.7799926 C24.397296,32.3407206 24.0453489,31.9846478 23.609112,31.9846478 L23.3394831,31.9846478 C23.2793465,31.9742479 23.2192099,31.9678098 23.1571016,31.9678098 L21.9070488,31.9678098 L21.9070488,31.2239693 L26.7150201,31.2239693 C29.0845011,31.2239693 31,29.2885973 31,26.9030581 L31,8.31992076 C31,5.93438158 29.0845011,4 26.7150201,4 L26.7150201,4 Z" id="Fill-79" fill="#FFFFFF"></path>
            </g>
        </g>
    </g>
</svg>