<svg xmlns="http://www.w3.org/2000/svg" width="40" height="40" viewBox="0 0 40 40">
    <g fill="none" fill-rule="evenodd">
        <path d="M0 0h40v40H0z"/>
        <path fill="#FFF" d="M20.46 10.033s3.889 4.14 3.889 8.869c0 4.724-3.889 8.864-3.889 8.864s2.215-2.358 2.215-5.054-2.215-5.051-2.215-5.051-2.217 2.355-2.217 5.05c0 2.697 2.217 5.055 2.217 5.055s-3.89-4.14-3.89-8.864c0-4.73 3.89-8.869 3.89-8.869zm8.238 17.007c0 1.151-.995 2.08-2.23 2.08H14.53c-1.23 0-2.226-.929-2.226-2.08V8.182c0-1.15.995-2.078 2.226-2.078h11.94c1.234 0 2.229.929 2.229 2.078V27.04zM26.715 4h-12.43C11.918 4 10 5.934 10 8.32v18.583c0 2.386 1.92 4.321 4.284 4.321h5.298v1.48c-.002.019-.007.038-.007.059v.754c0 .187.075.358.196.494.02.024.04.047.062.068v.001a.81.81 0 0 0 .27.164c.023.01.047.015.071.023.015.004.029.01.045.012.075.02.157.033.24.033h1.614v.892c0 .44.352.796.788.796h.748a.791.791 0 0 0 .788-.796V32.78a.791.791 0 0 0-.788-.795h-.27c-.06-.01-.12-.017-.182-.017h-1.25v-.744h4.808c2.37 0 4.285-1.935 4.285-4.32V8.32C31 5.934 29.085 4 26.715 4z"/>
    </g>
</svg>
