<?xml version="1.0" encoding="UTF-8"?>
<svg width="30px" height="30px" viewBox="0 0 30 30" version="1.1" xmlns="http://www.w3.org/2000/svg" xmlns:xlink="http://www.w3.org/1999/xlink">
    <!-- Generator: sketchtool 47.1 (45422) - http://www.bohemiancoding.com/sketch -->
    <title>D0CE623F-596E-4C4A-92DC-5E18ADE72D69</title>
    <desc>Created with sketchtool.</desc>
    <defs></defs>
    <g id="Symbols" stroke="none" stroke-width="1" fill="none" fill-rule="evenodd">
        <g id="Icons/Home" fill="#F2F2F1">
            <path d="M5.532,14.5691476 C4.886,15.0338292 4.5,15.7841635 4.5,16.5761555 L4.5,23.9009656 C4.5,24.2426578 4.78,24.5203757 5.125,24.5203757 L23.875,24.5203757 C24.2195,24.5203757 24.5,24.2426578 24.5,23.9009656 L24.5,16.5761555 C24.5,15.7841635 24.114,15.0338292 23.4675,14.5691476 L15.4175,8.77674527 C14.8685,8.38198908 14.131,8.38198908 13.5825,8.77674527 L5.532,14.5691476 Z M23.875,27 L5.125,27 C3.4015,27 2,25.6099226 2,23.9009656 L2,16.5761555 C2,14.9926674 2.7715,13.4919988 4.064,12.5621397 L12.114,6.76973738 C13.5415,5.74366885 15.459,5.74317293 16.8855,6.76973738 L24.936,12.5621397 C26.2285,13.4919988 27,14.9926674 27,16.5761555 L27,23.9009656 C27,25.6099226 25.598,27 23.875,27 L23.875,27 Z" id="Fill-47"></path>
        </g>
    </g>
</svg>