<?xml version="1.0" encoding="UTF-8"?>
<svg width="23px" height="14px" viewBox="0 0 23 14" version="1.1" xmlns="http://www.w3.org/2000/svg" xmlns:xlink="http://www.w3.org/1999/xlink">
    <!-- Generator: sketchtool 46.2 (44496) - http://www.bohemiancoding.com/sketch -->
    <title>E4BAA38B-5F47-497C-ACB5-B91031D327E1</title>
    <desc>Created with sketchtool.</desc>
    <defs></defs>
    <g id="SYMBOLS" stroke="none" stroke-width="1" fill="none" fill-rule="evenodd">
        <g id="buttons/icon-eye" stroke="#FFFFFF">
            <path d="M10.4743022,6.86499977 C9.58081532,6.86499977 8.85838784,6.14098105 8.85838784,5.24908545 C8.85838784,4.35679205 9.58081532,3.63277332 10.4743022,3.63277332 C11.3665956,3.63277332 12.089023,4.35679205 12.089023,5.24908545 C12.089023,6.14098105 11.3665956,6.86499977 10.4743022,6.86499977 Z M11.501454,3.04520428 C9.39304782,3.04520428 7.68364757,4.75619578 7.68364757,6.86499977 C7.68364757,8.97380376 9.39304782,10.6847953 11.501454,10.6847953 C13.6118492,10.6847953 15.3212495,8.97380376 15.3212495,6.86499977 C15.3212495,4.75619578 13.6118492,3.04520428 11.501454,3.04520428 Z M11.501454,0.5 C5.70214358,0.5 1,5.59239763 1,6.86499977 C1,8.13760191 5.70214358,13.2299995 11.501454,13.2299995 C17.3027535,13.2299995 22.0048971,8.13760191 22.0048971,6.86499977 C22.0048971,5.59239763 17.3027535,0.5 11.501454,0.5 Z" id="Page-1"></path>
        </g>
    </g>
</svg>