<svg xmlns="http://www.w3.org/2000/svg" width="40" height="40" viewBox="0 0 40 40">
    <g fill="none" fill-rule="evenodd">
        <path d="M0 0h40v40H0z"/>
        <path fill="#FFF" d="M13.541 27.785c-2.342 0-4.24-1.86-4.24-4.153 0-2.293 1.898-4.153 4.24-4.153 2.342 0 4.24 1.86 4.24 4.153 0 2.293-1.898 4.153-4.24 4.153m3.01-9.773v-2.454a.563.563 0 0 0-.568-.558h-4.965a.563.563 0 0 0-.571.558v2.455C8.397 19.083 7 21.197 7 23.632 7 27.149 9.91 30 13.5 30s6.5-2.85 6.5-6.368c0-2.435-1.398-4.55-3.449-5.62M3 30.759L7.258 27 8 28.243 3.743 32zM9 36.566L10.726 31l1.274.434L10.274 37zM17.726 37L16 31.434 17.275 31 19 36.566zM24.257 32L20 28.24l.744-1.24L25 30.758zM5.999 23H1v-1h5zM21 23h5v-1h-5zM34 13h5v-1h-5zM37.257 22L33 18.24l.744-1.24L38 20.758zM30.726 26L29 20.434 30.275 20 32 25.566zM26.542 16.785c-2.343 0-4.242-1.86-4.242-4.153 0-2.293 1.899-4.153 4.242-4.153 2.34 0 4.24 1.86 4.24 4.153 0 2.293-1.9 4.153-4.24 4.153m3.01-9.773V4.558A.563.563 0 0 0 28.982 4h-4.965a.563.563 0 0 0-.571.558v2.455C21.397 8.083 20 10.197 20 12.633 20 16.148 22.91 19 26.5 19s6.5-2.85 6.5-6.368c0-2.435-1.398-4.55-3.449-5.62" opacity=".3"/>
    </g>
</svg>
