<?xml version="1.0" encoding="UTF-8"?>
<svg width="40px" height="40px" viewBox="0 0 40 40" version="1.1" xmlns="http://www.w3.org/2000/svg" xmlns:xlink="http://www.w3.org/1999/xlink">
    <!-- Generator: sketchtool 48.2 (47327) - http://www.bohemiancoding.com/sketch -->
    <title>BCF80A3F-032C-4987-BBAB-79A3DB38DF5D</title>
    <desc>Created with sketchtool.</desc>
    <defs></defs>
    <g id="Symbols" stroke="none" stroke-width="1" fill="none" fill-rule="evenodd">
        <g id="Original-Icons/hs_busy">
            <g id="Page-1" transform="translate(-0.500000, 0.000000)">
                <rect id="Rectangle" x="0.5" y="0" width="40" height="40"></rect>
                <g id="Group-9" transform="translate(6.000000, 7.847400)" fill="#FEFEFE">
                    <polygon id="Fill-1" points="23.0076 11.5018 20.8426 11.5018 20.4306 11.5018 20.4306 12.3408 21.8736 12.3408 24.0386 12.3408 25.5096 12.3408 25.5096 11.5018"></polygon>
                    <path d="M25.2448,24.0431 L2.5608,24.0431 L2.5608,15.0931 L6.9478,11.5011 L13.8958,5.8351 L18.2088,9.3381 C17.9288,9.7941 17.7818,10.3241 17.7968,10.9421 L17.7968,22.0711 C17.7968,22.7331 18.3268,23.2781 18.9888,23.2781 L25.2448,23.2781 L25.2448,24.0431 Z M22.9628,8.9551 C24.5978,8.9551 25.9218,10.2801 25.9218,11.9141 C25.9218,12.5021 25.7598,13.0471 25.4658,13.5031 C25.2158,13.9011 24.8618,14.2251 24.4648,14.4601 C24.0228,14.7251 23.5228,14.8871 22.9628,14.8871 C21.3288,14.8871 20.0048,13.5631 20.0048,11.9141 C20.0048,11.5751 20.0778,11.2661 20.1818,10.9571 C20.3278,10.5161 20.5788,10.1041 20.9168,9.7941 C21.4468,9.2791 22.1678,8.9551 22.9628,8.9551 Z M22.8598,0.1521 C21.2118,0.1521 19.8868,0.7271 19.0328,1.7871 C18.1798,2.8321 17.7968,4.2891 17.7968,5.9971 C17.7968,6.4671 18.1648,7.0271 18.7528,7.0271 L20.0338,7.0271 C20.2848,7.0271 20.5638,6.9391 20.7698,6.7471 C20.9758,6.5561 21.0788,6.2611 21.0788,5.9971 C21.1378,4.1421 21.7418,3.5231 22.9778,3.4801 C23.5228,3.5231 24.7148,3.7151 24.7148,5.3781 C24.8768,7.3651 21.0788,7.7771 20.1818,7.9541 C19.8278,8.0431 19.4898,8.1891 19.1808,8.3661 L13.8958,4.0531 L6.9478,9.7351 L-0.0002,15.4171 L1.3838,15.4171 L1.3838,25.0001 L26.4228,25.0001 L26.4228,23.2781 L26.9378,23.2781 C27.5998,23.2781 28.1448,22.7481 28.1448,22.0711 L28.1448,4.6571 C28.1448,2.6551 26.2748,0.1681 22.8598,0.1521 Z" id="Fill-2"></path>
                    <path d="M13.8957,11.4869 C14.4557,11.4869 14.9117,11.0459 14.9117,10.4709 C14.9117,9.9119 14.4557,9.4559 13.8957,9.4559 C13.3357,9.4559 12.8797,9.9119 12.8797,10.4709 C12.8797,11.0459 13.3357,11.4869 13.8957,11.4869" id="Fill-5"></path>
                    <path d="M15.4709,11.8844 L15.4709,11.8694 L12.4089,11.8694 L12.4089,11.8844 C12.3799,11.8844 12.3649,11.8694 12.3359,11.8694 C11.9079,11.8694 11.5699,12.2084 11.5699,12.6354 C11.5699,12.6794 11.5849,12.7084 11.5849,12.7384 L11.5699,12.7384 L11.5699,17.2424 L12.1739,17.2424 L12.1739,13.4004 L12.3939,13.4004 L12.3939,22.3214 L12.4089,22.3214 C12.3939,22.3354 12.3939,22.3504 12.3939,22.3804 C12.3939,22.7334 12.6889,23.0274 13.0569,23.0274 C13.4099,23.0274 13.7039,22.7334 13.7039,22.3804 L13.7039,22.3214 L13.7189,22.3214 L13.7189,17.0804 L13.9699,17.0804 L13.9699,22.3214 L13.9839,22.3214 C13.9839,22.3354 13.9699,22.3504 13.9699,22.3804 C13.9699,22.7334 14.2639,23.0274 14.6319,23.0274 C14.9999,23.0274 15.2939,22.7334 15.2939,22.3804 C15.2939,22.3504 15.2799,22.3354 15.2799,22.3214 L15.2939,22.3214 L15.2939,17.2424 L15.2939,13.4004 L15.5149,13.4004 L15.5149,17.2424 L16.2359,17.2424 L16.2359,12.5914 L16.2209,12.5914 C16.1919,12.1934 15.8679,11.8844 15.4709,11.8844" id="Fill-7"></path>
                </g>
            </g>
        </g>
    </g>
</svg>