<?xml version="1.0" encoding="UTF-8"?>
<svg width="40px" height="40px" viewBox="0 0 40 40" version="1.1" xmlns="http://www.w3.org/2000/svg" xmlns:xlink="http://www.w3.org/1999/xlink">
    <!-- Generator: sketchtool 48.2 (47327) - http://www.bohemiancoding.com/sketch -->
    <title>EFF5906C-F078-46CC-A1A0-1F897E540689</title>
    <desc>Created with sketchtool.</desc>
    <defs></defs>
    <g id="Symbols" stroke="none" stroke-width="1" fill="none" fill-rule="evenodd">
        <g id="Original-Icons/hs_earth">
            <g id="Page-1" transform="translate(-0.500000, 0.000000)">
                <rect id="Rectangle" x="0.5" y="0" width="40" height="40"></rect>
                <path d="M18.431,30.688 L20.137,30.068 L21.101,30.441 L22.249,30.122 L23.377,30.463 C22.517,30.7 21.433,30.825 20.441,30.882 C19.969,30.909 18.886,30.751 18.431,30.688 Z M12.949,13.169 C12.968,13.15 13.303,13.227 13.321,13.208 C14.003,13.187 15.033,13.331 15.033,13.331 C15.033,13.331 16.553,13.544 16.705,13.544 C16.856,13.544 18.34,14.238 18.34,14.238 L17.999,15.299 L17.487,16.048 L17.046,16.834 L17.046,17.666 C17.046,17.666 16.399,18.066 15.945,18.066 C15.625,18.066 15.683,19.084 15.683,19.084 L15.457,19.35 L15.378,19.575 L15.244,19.435 L14.967,19.247 L13.741,20.151 L13.741,20.688 L14.426,20.978 L15.723,21.89 L15.945,22.699 L15.557,23.914 L15.081,25.556 L14.923,26.665 L14.817,27.655 L14.421,27.909 C14.421,27.909 13.901,26.764 13.901,26.577 C13.901,26.389 13.408,24.742 13.408,24.742 C13.408,24.742 12.606,23.833 12.471,23.738 C12.338,23.646 11.926,22.647 11.926,22.647 L12.313,21.5 L13.052,21.087 L13.207,20.608 L12.409,20.259 L12.409,19.402 L10.94,17.934 L11.162,17.259 L11.271,16.754 L10.944,16.097 C11.604,14.877 12.074,14.045 12.949,13.169 Z M25.935,11.563 L24.951,11.666 L24.041,11.039 L23.146,11.039 L22.677,11.508 L21.689,11.508 L20.886,11.371 L19.682,12.373 L18.645,11.627 L18.788,11.234 L17.966,10.666 L18.04,10.278 C18.92,10.11 19.887,10 20.441,10 C22.659,10 24.438,10.691 25.935,11.563 Z M30.587,20.548 L30.473,20.508 L29.468,20.508 L29.101,20.17 L28.55,21.101 L28.819,22.615 L28.276,23.618 L27.345,25.325 L26.806,27.041 L26.221,27.822 L25.353,27.012 L25.079,26.205 L24.849,24.803 L24.391,23.738 L23.57,23.399 L22.839,22.124 L23.341,21.187 L23.846,19.999 L25.717,19.572 L26.768,19.87 L27.981,20.402 L28.78,19.659 L29.01,18.787 L28.482,18.787 L28.288,18.243 L27.696,18.243 L27.826,18.969 L27.529,19.245 L27.443,18.563 L27.214,18.35 L26.872,18.299 L26.511,18.905 L25.52,18.658 L25.865,17.94 L26.278,17.943 L26.644,17.438 L26.644,16.947 L26.848,16.947 L27.283,16.542 L27.694,16.542 L28.242,16.542 L28.242,16.244 L27.694,16.244 L27.696,15.819 L28.072,15.469 L29.055,14.54 C30.156,16.332 30.708,17.72 30.88,20.304 C30.882,20.339 30.588,20.511 30.587,20.548 Z M30.881,20.441 C30.881,14.674 26.206,10 20.441,10 C14.674,10 10,14.674 10,20.441 C10,26.207 14.674,30.882 20.441,30.882 C26.206,30.882 30.881,26.207 30.883,20.441 L30.881,20.441 Z" id="Fill-1" fill="#FEFEFE"></path>
            </g>
        </g>
    </g>
</svg>