<?xml version="1.0" encoding="UTF-8"?>
<svg width="40px" height="40px" viewBox="0 0 40 40" version="1.1" xmlns="http://www.w3.org/2000/svg" xmlns:xlink="http://www.w3.org/1999/xlink">
    <!-- Generator: sketchtool 48.2 (47327) - http://www.bohemiancoding.com/sketch -->
    <title>9CB969E9-C48E-4321-928E-3077C64A4BE4</title>
    <desc>Created with sketchtool.</desc>
    <defs></defs>
    <g id="Symbols" stroke="none" stroke-width="1" fill="none" fill-rule="evenodd">
        <g id="Original-Icons/hs_night">
            <g id="Page-1" transform="translate(-0.500000, 0.000000)">
                <rect id="Rectangle" x="0.5" y="0" width="40" height="40"></rect>
                <g id="Group-5" transform="translate(3.000000, 6.182800)" fill="#FEFEFE">
                    <path d="M34.7463,15.0122 L26.0603,7.9152 L17.3743,0.8172 L8.6873,7.9152 L0.0003,15.0122 L1.7193,15.0122 L1.7193,27.0002 L33.0283,27.0002 L33.0283,15.0122 L34.7463,15.0122 Z M3.2053,25.7902 L3.2053,14.6122 L8.6873,10.1312 L17.3743,3.0342 L26.0603,10.1312 L31.5443,14.6122 L31.5443,25.7902 L3.2053,25.7902 Z" id="Fill-3"></path>
                    <path d="M21.469,21.5737 C18.493,21.5737 16.082,19.1607 16.082,16.1877 C16.082,13.2107 18.493,10.8017 21.469,10.8017 C21.722,10.8017 21.97,10.8257 22.217,10.8577 C21.279,10.3697 20.202,10.0867 19.056,10.0867 C15.468,10.0867 12.558,12.8187 12.558,16.1877 C12.558,19.5567 15.468,22.2897 19.056,22.2897 C20.204,22.2897 21.282,22.0057 22.219,21.5147 C21.974,21.5507 21.724,21.5737 21.469,21.5737" id="Fill-1"></path>
                </g>
            </g>
        </g>
    </g>
</svg>