<?xml version="1.0" encoding="UTF-8"?>
<svg width="40px" height="40px" viewBox="0 0 40 40" version="1.1" xmlns="http://www.w3.org/2000/svg" xmlns:xlink="http://www.w3.org/1999/xlink">
    <!-- Generator: sketchtool 48.2 (47327) - http://www.bohemiancoding.com/sketch -->
    <title>088BAF82-3425-4098-985C-07BCD40D30CD</title>
    <desc>Created with sketchtool.</desc>
    <defs></defs>
    <g id="Symbols" stroke="none" stroke-width="1" fill="none" fill-rule="evenodd">
        <g id="Original-Icons/hs_people">
            <rect id="Rectangle" x="0" y="0" width="40" height="40"></rect>
            <g id="Group" transform="translate(7.000000, 9.000000)" fill="#FEFEFE">
                <path d="M17.443,5.333 C17.443,4.703 16.956,4.192 16.345,4.159 L16.345,4.154 L10.181,4.154 C9.527,4.154 9,4.682 9,5.333 C9,5.396 9.008,5.458 9.018,5.519 L9,5.519 L9,12.642 L10.007,12.642 L10.007,6.52 L10.604,6.52 L10.604,12.744 L10.61,12.744 L10.61,21.027 C10.61,21.037 10.604,21.045 10.604,21.055 C10.604,21.569 11.062,21.986 11.628,21.986 C12.185,21.986 12.634,21.58 12.646,21.077 L12.651,21.077 L12.651,21.057 L12.651,21.055 L12.651,21.054 L12.651,12.744 L13.73,12.744 L13.73,21.027 C13.73,21.037 13.724,21.045 13.724,21.055 C13.724,21.569 14.182,21.986 14.747,21.986 C15.304,21.986 15.753,21.58 15.766,21.077 L15.77,21.077 L15.77,21.057 L15.77,21.055 L15.77,21.054 L15.77,12.744 L15.772,12.744 L15.772,6.52 L16.455,6.52 L16.455,12.642 L17.443,12.642 L17.443,5.519 L17.425,5.519 C17.435,5.458 17.443,5.396 17.443,5.333 M13.221,3.572 C14.208,3.572 15.007,2.771 15.007,1.785 C15.007,0.799 14.208,0 13.221,0 C12.235,0 11.435,0.799 11.435,1.785 C11.435,2.771 12.235,3.572 13.221,3.572" id="Fill-1"></path>
                <path d="M27,6.20677461 C27,5.60983039 26.5385526,5.12564231 25.9596115,5.0943738 L25.9596115,5.08963615 L20.1190335,5.08963615 C19.4993486,5.08963615 19,5.58993225 19,6.20677461 C19,6.26646903 19.0075802,6.32521592 19.0170555,6.38301528 L19,6.38301528 L19,13.132275 L19.9541632,13.132275 L19.9541632,7.33149331 L20.5198389,7.33149331 L20.5198389,13.2289231 L20.5255241,13.2289231 L20.5255241,21.0773183 C20.5255241,21.0867936 20.5198389,21.0943738 20.5198389,21.1038491 C20.5198389,21.5908798 20.9538079,21.986 21.4901102,21.986 C22.0178846,21.986 22.4433258,21.6013026 22.4546962,21.1246948 L22.4594339,21.1246948 L22.4594339,21.1057442 L22.4594339,21.1038491 L22.4594339,21.1029016 L22.4594339,13.2289231 L23.4818193,13.2289231 L23.4818193,21.0773183 C23.4818193,21.0867936 23.4761341,21.0943738 23.4761341,21.1038491 C23.4761341,21.5908798 23.910103,21.986 24.4454578,21.986 C24.9732323,21.986 25.3986735,21.6013026 25.4109914,21.1246948 L25.4147815,21.1246948 L25.4147815,21.1057442 L25.4147815,21.1038491 L25.4147815,21.1029016 L25.4147815,13.2289231 L25.4166765,13.2289231 L25.4166765,7.33149331 L26.0638399,7.33149331 L26.0638399,13.132275 L27,13.132275 L27,6.38301528 L26.9829445,6.38301528 C26.9924198,6.32521592 27,6.26646903 27,6.20677461 M22.9995262,4.5381734 C23.9347388,4.5381734 24.6918157,3.77920147 24.6918157,2.8449364 C24.6918157,1.91067133 23.9347388,1.15359446 22.9995262,1.15359446 C22.0652612,1.15359446 21.3072368,1.91067133 21.3072368,2.8449364 C21.3072368,3.77920147 22.0652612,4.5381734 22.9995262,4.5381734" id="Fill-1-Copy"></path>
                <path d="M7.5,7.03938174 C7.5,6.47974654 7.06739311,6.02582021 6.52463579,5.99650598 L6.52463579,5.99206443 L1.04909392,5.99206443 C0.468139287,5.99206443 0,6.46109203 0,7.03938174 C0,7.09534526 0.00710647874,7.15042047 0.0159895772,7.20460737 L0,7.20460737 L0,13.5320384 L0.894528011,13.5320384 L0.894528011,8.09380552 L1.42484899,8.09380552 L1.42484899,13.622646 L1.43017885,13.622646 L1.43017885,20.9805164 C1.43017885,20.9893995 1.42484899,20.996506 1.42484899,21.0053891 C1.42484899,21.4619803 1.8316949,21.8324055 2.33447827,21.8324055 C2.82926685,21.8324055 3.22811797,21.4717517 3.23877769,21.0249319 L3.24321923,21.0249319 L3.24321923,21.0071657 L3.24321923,21.0053891 L3.24321923,21.0045008 L3.24321923,13.622646 L4.20170555,13.622646 L4.20170555,20.9805164 C4.20170555,20.9893995 4.1963757,20.996506 4.1963757,21.0053891 C4.1963757,21.4619803 4.6032216,21.8324055 5.10511666,21.8324055 C5.59990525,21.8324055 5.99875637,21.4717517 6.01030439,21.0249319 L6.01385763,21.0249319 L6.01385763,21.0071657 L6.01385763,21.0053891 L6.01385763,21.0045008 L6.01385763,13.622646 L6.01563425,13.622646 L6.01563425,8.09380552 L6.62234988,8.09380552 L6.62234988,13.5320384 L7.5,13.5320384 L7.5,7.20460737 L7.48401042,7.20460737 C7.49289352,7.15042047 7.5,7.09534526 7.5,7.03938174 M3.74955585,5.4750681 C4.62631766,5.4750681 5.33607722,4.76353192 5.33607722,3.88765842 C5.33607722,3.01178491 4.62631766,2.30202535 3.74955585,2.30202535 C2.87368234,2.30202535 2.16303447,3.01178491 2.16303447,3.88765842 C2.16303447,4.76353192 2.87368234,5.4750681 3.74955585,5.4750681" id="Fill-1-Copy-2"></path>
            </g>
        </g>
    </g>
</svg>