<?xml version="1.0" encoding="UTF-8"?>
<svg width="40px" height="40px" viewBox="0 0 40 40" version="1.1" xmlns="http://www.w3.org/2000/svg" xmlns:xlink="http://www.w3.org/1999/xlink">
    <!-- Generator: sketchtool 48.2 (47327) - http://www.bohemiancoding.com/sketch -->
    <title>6AF8E79B-390C-4F72-A053-BAA91E369723</title>
    <desc>Created with sketchtool.</desc>
    <defs></defs>
    <g id="Symbols" stroke="none" stroke-width="1" fill="none" fill-rule="evenodd">
        <g id="Original-Icons/hs_party">
            <g id="Group">
                <rect id="Rectangle" x="0" y="0" width="40" height="40"></rect>
                <g id="Page-1" transform="translate(11.000000, 10.000000)" fill="#FEFEFE">
                    <path d="M2.8394,1.5122 C2.8224,1.7052 2.6524,1.8492 2.4584,1.8322 C2.2654,1.8142 2.1224,1.6442 2.1394,1.4502 C2.1554,1.2572 2.3254,1.1152 2.5204,1.1312 C2.7134,1.1472 2.8564,1.3192 2.8394,1.5122" id="Fill-1"></path>
                    <path d="M4.6646,2.4009 C4.6476,2.5939 4.4776,2.7369 4.2856,2.7199 C4.0916,2.7029 3.9486,2.5329 3.9646,2.3389 C3.9806,2.1459 4.1536,2.0029 4.3456,2.0189 C4.5386,2.0369 4.6816,2.2069 4.6646,2.4009" id="Fill-3"></path>
                    <path d="M4.6992,0.3819 C4.6832,0.5749 4.5122,0.7189 4.3212,0.7009 C4.1262,0.6839 3.9852,0.5139 4.0012,0.3209 C4.0182,0.1269 4.1882,-0.0161 4.3812,0.0019 C4.5752,0.0179 4.7182,0.1889 4.6992,0.3819" id="Fill-5"></path>
                    <path d="M6.045,1.5684 C6.029,1.7614 5.858,1.9034 5.667,1.8874 C5.472,1.8704 5.329,1.7004 5.347,1.5074 C5.363,1.3134 5.534,1.1704 5.726,1.1874 C5.921,1.2044 6.062,1.3754 6.045,1.5684" id="Fill-7"></path>
                    <path d="M7.314,2.667 C7.295,2.859 7.127,3.003 6.933,2.986 C6.738,2.969 6.597,2.798 6.614,2.605 C6.629,2.412 6.8,2.269 6.995,2.286 C7.187,2.303 7.33,2.473 7.314,2.667" id="Fill-9"></path>
                    <path d="M8.0484,0.7095 C8.0324,0.9025 7.8614,1.0455 7.6704,1.0275 C7.4744,1.0105 7.3324,0.8405 7.3484,0.6485 C7.3654,0.4545 7.5374,0.3115 7.7294,0.3285 C7.9224,0.3455 8.0654,0.5155 8.0484,0.7095" id="Fill-11"></path>
                    <path d="M2.1797,6.6158 C2.2547,5.7578 2.3837,4.9448 2.5477,4.1948 L7.0257,4.5868 C7.0587,5.3528 7.0437,6.1768 6.9697,7.0338 C6.6817,10.3068 5.6567,12.9738 4.5387,13.6058 C4.4117,13.6358 4.2827,13.6548 4.1527,13.6528 C4.1007,13.6528 4.0507,13.6518 4.0007,13.6478 C3.7777,13.6308 3.5667,13.5548 3.3647,13.4488 C2.4147,12.5638 1.9007,9.8138 2.1797,6.6158 M8.1377,6.8278 C8.2397,5.6748 8.2517,4.5688 8.1977,3.5348 L1.6057,2.9588 C1.3707,3.9668 1.1917,5.0578 1.0907,6.2118 C0.6837,10.8698 1.6417,14.8308 3.2717,15.6658 L3.0427,18.2718 L1.8467,18.6658 L0.0547,19.2558 L0.0347,19.2528 L0.0337,19.2618 L0.0277,19.2638 L0.0337,19.2638 L-0.0003,19.6548 L6.9947,20.2618 L7.0287,19.8768 L7.0407,19.8768 L7.0287,19.8708 L7.0297,19.8608 L7.0057,19.8588 L5.3527,18.9718 L4.1977,18.3538 L4.4257,15.7358 C6.1467,15.1138 7.7357,11.4178 8.1377,6.8278" id="Fill-13"></path>
                    <path d="M14.5337,1.5122 C14.5507,1.7052 14.7207,1.8492 14.9127,1.8322 C15.1077,1.8142 15.2507,1.6442 15.2347,1.4502 C15.2177,1.2572 15.0457,1.1152 14.8527,1.1312 C14.6597,1.1472 14.5177,1.3192 14.5337,1.5122" id="Fill-16"></path>
                    <path d="M12.708,2.4009 C12.725,2.5939 12.895,2.7369 13.087,2.7199 C13.282,2.7029 13.425,2.5329 13.407,2.3389 C13.39,2.1459 13.22,2.0029 13.027,2.0189 C12.833,2.0369 12.689,2.2069 12.708,2.4009" id="Fill-18"></path>
                    <path d="M12.6719,0.3819 C12.6879,0.5749 12.8599,0.7189 13.0529,0.7009 C13.2449,0.6839 13.3879,0.5139 13.3719,0.3209 C13.3559,0.1269 13.1839,-0.0161 12.9929,0.0019 C12.7969,0.0179 12.6549,0.1889 12.6719,0.3819" id="Fill-20"></path>
                    <path d="M11.3262,1.5684 C11.3442,1.7614 11.5132,1.9034 11.7072,1.8874 C11.9002,1.8704 12.0442,1.7004 12.0262,1.5074 C12.0102,1.3134 11.8392,1.1704 11.6452,1.1874 C11.4522,1.2044 11.3092,1.3754 11.3262,1.5684" id="Fill-22"></path>
                    <path d="M10.0601,2.667 C10.0761,2.859 10.2471,3.003 10.4411,2.986 C10.6331,2.969 10.7761,2.798 10.7591,2.605 C10.7421,2.412 10.5731,2.269 10.3781,2.286 C10.1851,2.303 10.0431,2.473 10.0601,2.667" id="Fill-24"></path>
                    <path d="M9.3252,0.7095 C9.3412,0.9025 9.5122,1.0455 9.7042,1.0275 C9.8982,1.0105 10.0412,0.8405 10.0232,0.6485 C10.0062,0.4545 9.8362,0.3115 9.6432,0.3285 C9.4492,0.3455 9.3082,0.5155 9.3252,0.7095" id="Fill-26"></path>
                    <path d="M12.8374,13.6079 C11.7174,12.9809 10.6914,10.3109 10.4044,7.0339 C10.3294,6.1759 10.3144,5.3529 10.3454,4.5869 L14.8234,4.1939 C14.9884,4.9439 15.1164,5.7569 15.1914,6.6159 C15.4724,9.8129 14.9574,12.5629 14.0084,13.4489 C13.8054,13.5549 13.5914,13.6319 13.3674,13.6489 C13.3154,13.6499 13.2644,13.6549 13.2174,13.6549 C13.0904,13.6569 12.9634,13.6369 12.8374,13.6079 Z M17.3714,19.6549 L17.3374,19.2639 L17.3454,19.2639 L17.3374,19.2609 L17.3374,19.2529 L17.3174,19.2539 L15.5274,18.6659 L14.3304,18.2719 L14.1014,15.6659 C15.7324,14.8309 16.6894,10.8699 16.2824,6.2119 C16.1814,5.0579 16.0024,3.9659 15.7674,2.9589 L9.1764,3.5349 C9.1214,4.5679 9.1344,5.6749 9.2344,6.8279 C9.6374,11.4169 11.2264,15.1119 12.9464,15.7359 L13.1754,18.3529 L12.0204,18.9719 L10.3674,19.8579 L10.3434,19.8599 L10.3444,19.8709 L10.3334,19.8769 L10.3444,19.8769 L10.3784,20.2619 L17.3714,19.6549 Z" id="Fill-28"></path>
                </g>
            </g>
        </g>
    </g>
</svg>