<?xml version="1.0" encoding="UTF-8"?>
<svg width="40px" height="40px" viewBox="0 0 40 40" version="1.1" xmlns="http://www.w3.org/2000/svg" xmlns:xlink="http://www.w3.org/1999/xlink">
    <!-- Generator: sketchtool 48.2 (47327) - http://www.bohemiancoding.com/sketch -->
    <title>D24ED16D-A475-4509-B316-80BA0FACC724</title>
    <desc>Created with sketchtool.</desc>
    <defs></defs>
    <g id="Symbols" stroke="none" stroke-width="1" fill="none" fill-rule="evenodd">
        <g id="Original-Icons/hs_suitcase">
            <g id="Page-1" transform="translate(-0.500000, 0.000000)">
                <rect id="Rectangle" x="0.5" y="0" width="40" height="40"></rect>
                <g transform="translate(10.000000, 11.000000)" fill="#FEFEFE">
                    <path d="M13.1416,12.3906 C13.1416,12.5936 13.0666,12.7696 12.9186,12.9186 C12.7696,13.0666 12.5936,13.1416 12.3906,13.1416 L8.6366,13.1416 C8.4326,13.1416 8.2566,13.0666 8.1076,12.9186 C7.9586,12.7696 7.8846,12.5936 7.8846,12.3906 L7.8846,10.5136 L-0.0004,10.5136 L-0.0004,16.1456 C-0.0004,16.6616 0.1836,17.1036 0.5516,17.4716 C0.9186,17.8386 1.3616,18.0226 1.8776,18.0226 L19.1486,18.0226 C19.6646,18.0226 20.1076,17.8386 20.4746,17.4716 C20.8426,17.1036 21.0266,16.6616 21.0266,16.1456 L21.0266,10.5136 L13.1416,10.5136 L13.1416,12.3906 Z" id="Fill-1"></path>
                    <polygon id="Fill-4" points="9.012 12.0155 12.015 12.0155 12.015 10.5135 9.012 10.5135"></polygon>
                    <path d="M7.509,3.0035 L13.517,3.0035 L13.517,1.5015 L7.509,1.5015 L7.509,3.0035 Z M20.475,3.5555 C20.107,3.1875 19.665,3.0035 19.149,3.0035 L15.019,3.0035 L15.019,1.1265 C15.019,0.8135 14.909,0.5475 14.69,0.3285 C14.471,0.1095 14.205,0.0005 13.893,0.0005 L7.134,0.0005 C6.821,0.0005 6.555,0.1095 6.336,0.3285 C6.117,0.5465 6.007,0.8135 6.007,1.1265 L6.007,3.0035 L1.877,3.0035 C1.361,3.0035 0.919,3.1875 0.551,3.5555 C0.184,3.9235 0,4.3645 0,4.8805 L0,9.3865 L21.026,9.3865 L21.026,4.8805 C21.026,4.3645 20.843,3.9235 20.475,3.5555 Z" id="Fill-6"></path>
                </g>
            </g>
        </g>
    </g>
</svg>