<?xml version="1.0" encoding="UTF-8"?>
<svg width="40px" height="40px" viewBox="0 0 40 40" version="1.1" xmlns="http://www.w3.org/2000/svg" xmlns:xlink="http://www.w3.org/1999/xlink">
    <!-- Generator: sketchtool 48.2 (47327) - http://www.bohemiancoding.com/sketch -->
    <title>1E57A626-715E-4442-8C61-64FFD864A7BB</title>
    <desc>Created with sketchtool.</desc>
    <defs></defs>
    <g id="Symbols" stroke="none" stroke-width="1" fill="none" fill-rule="evenodd">
        <g id="Original-Icons/hs_wakeup">
            <g id="Page-1" transform="translate(-0.500000, 0.000000)">
                <rect id="Rectangle" x="0.5" y="0" width="40" height="40"></rect>
                <g transform="translate(10.000000, 9.000000)" fill="#FEFEFE">
                    <path d="M19.8656614,7.04168518 C19.8939706,6.99876478 19.9314118,6.96588958 19.959721,6.92114278 C21.288427,4.81256398 20.6546662,2.02456439 18.5460874,0.695858398 C16.4356822,-0.633760798 13.6485958,-0.000913199997 12.3189766,2.10949199 C12.2915806,2.15241239 12.2769694,2.19898559 12.2513998,2.24373239 L19.8656614,7.04168518 Z" id="Fill-4"></path>
                    <path d="M10.3270135,20.4043581 C6.0632827,20.4043581 2.60773391,16.9478961 2.60773391,12.6841653 C2.60773391,8.42134773 6.0632827,4.96671214 10.3270135,4.96671214 C14.5916575,4.96671214 18.0481195,8.42134773 18.0481195,12.6841653 C18.0481195,16.9478961 14.5916575,20.4043581 10.3270135,20.4043581 M19.3402975,12.6841653 C19.3402975,7.70813853 15.3048667,3.67362095 10.3270135,3.67362095 C5.3509867,3.67362095 1.31738232,7.70813853 1.31738232,12.6841653 C1.31738232,15.7616493 2.86160351,18.4747665 5.2121803,20.1002625 C4.5692875,20.1751449 4.05972191,20.7011481 4.05972191,21.3659577 C4.05972191,22.0819065 4.6414303,22.6617885 5.3546395,22.6617885 C6.0733279,22.6617885 6.6522967,22.0819065 6.6522967,21.3659577 C6.6522967,21.1842309 6.6148555,21.0143757 6.5481919,20.8582185 C7.69791069,21.3915273 8.97547749,21.6974493 10.3270135,21.6974493 C11.6675911,21.6974493 12.9341995,21.3960933 14.0793523,20.8710033 C14.0409979,20.9915457 14.0026435,21.1139145 14.0026435,21.2472417 C14.0026435,21.9641037 14.5852651,22.5439857 15.2984743,22.5439857 C16.0135099,22.5439857 16.5933919,21.9641037 16.5933919,21.2472417 C16.5933919,20.6280921 16.1486635,20.1349641 15.5678683,20.0071161 C17.8499551,18.3724881 19.3402975,15.7050309 19.3402975,12.6841653" id="Fill-6"></path>
                    <path d="M0.788365557,7.04168518 L8.40354033,2.24373239 C8.37888393,2.19898559 8.36427273,2.15241239 8.33687673,2.10949199 C7.00725754,-0.000913199997 4.21743155,-0.633760798 2.10976595,0.695858398 C-0.000639239998,2.02456439 -0.633486838,4.81256398 0.694305958,6.92114278 C0.722615158,6.96588958 0.760056357,6.99876478 0.788365557,7.04168518" id="Fill-11"></path>
                    <polygon id="Fill-9" points="10.5744907 12.816488 10.5744907 6.55376242 9.79827069 6.55376242 9.79827069 13.1205836 9.78639909 13.1306288 12.0547879 16.0382576 12.6967675 15.537824"></polygon>
                    <path d="M19.8656614,7.04168518 C19.8939706,6.99876478 19.9314118,6.96588958 19.959721,6.92114278 C21.288427,4.81256398 20.6546662,2.02456439 18.5460874,0.695858398 C16.4356822,-0.633760798 13.6485958,-0.000913199997 12.3189766,2.10949199 C12.2915806,2.15241239 12.2769694,2.19898559 12.2513998,2.24373239 L19.8656614,7.04168518 Z" id="Fill-14"></path>
                    <path d="M10.3270135,20.4043581 C6.0632827,20.4043581 2.60773391,16.9478961 2.60773391,12.6841653 C2.60773391,8.42134773 6.0632827,4.96671214 10.3270135,4.96671214 C14.5916575,4.96671214 18.0481195,8.42134773 18.0481195,12.6841653 C18.0481195,16.9478961 14.5916575,20.4043581 10.3270135,20.4043581 M19.3402975,12.6841653 C19.3402975,7.70813853 15.3048667,3.67362095 10.3270135,3.67362095 C5.3509867,3.67362095 1.31738232,7.70813853 1.31738232,12.6841653 C1.31738232,15.7616493 2.86160351,18.4747665 5.2121803,20.1002625 C4.5692875,20.1751449 4.05972191,20.7011481 4.05972191,21.3659577 C4.05972191,22.0819065 4.6414303,22.6617885 5.3546395,22.6617885 C6.0733279,22.6617885 6.6522967,22.0819065 6.6522967,21.3659577 C6.6522967,21.1842309 6.6148555,21.0143757 6.5481919,20.8582185 C7.69791069,21.3915273 8.97547749,21.6974493 10.3270135,21.6974493 C11.6675911,21.6974493 12.9341995,21.3960933 14.0793523,20.8710033 C14.0409979,20.9915457 14.0026435,21.1139145 14.0026435,21.2472417 C14.0026435,21.9641037 14.5852651,22.5439857 15.2984743,22.5439857 C16.0135099,22.5439857 16.5933919,21.9641037 16.5933919,21.2472417 C16.5933919,20.6280921 16.1486635,20.1349641 15.5678683,20.0071161 C17.8499551,18.3724881 19.3402975,15.7050309 19.3402975,12.6841653" id="Fill-16"></path>
                    <polygon id="Fill-19" points="10.5744907 12.816488 10.5744907 6.55376242 9.79827069 6.55376242 9.79827069 13.1205836 9.78639909 13.1306288 12.0547879 16.0382576 12.6967675 15.537824"></polygon>
                    <path d="M0.788365557,7.04168518 L8.40354033,2.24373239 C8.37888393,2.19898559 8.36427273,2.15241239 8.33687673,2.10949199 C7.00725754,-0.000913199997 4.21743155,-0.633760798 2.10976595,0.695858398 C-0.000639239998,2.02456439 -0.633486838,4.81256398 0.694305958,6.92114278 C0.722615158,6.96588958 0.760056357,6.99876478 0.788365557,7.04168518" id="Fill-1"></path>
                </g>
            </g>
        </g>
    </g>
</svg>