<svg xmlns="http://www.w3.org/2000/svg" width="40" height="40" viewBox="0 0 40 40">
    <g fill="none" fill-rule="evenodd">
        <path d="M0 0h40v40H0z"/>
        <path fill="#FFF" d="M32.979 10.992v-.221C32.979 9.79 32.2 9 31.236 9H9.3c-.964 0-1.745.79-1.745 1.77v3.724H7.55v6.057h.007v3.625h.73l3.808-3.625h2.024l-3.814 3.625h2.62l3.81-3.625h2.016l-3.81 3.625h2.624l3.807-3.625h2.02l-3.813 3.625h2.619l3.811-3.625h2.02l-3.809 3.625h2.618l3.808-3.625h2.023l-3.812 3.625H33V10.992h-.021zm-1.852 17.462L8.424 25.482a1.113 1.113 0 0 0-1.249.974l-.166 1.295a1.127 1.127 0 0 0 .964 1.266l22.704 2.974a1.12 1.12 0 0 0 1.25-.977l.164-1.294a1.128 1.128 0 0 0-.964-1.266z" opacity=".3"/>
    </g>
</svg>
