<svg xmlns="http://www.w3.org/2000/svg" width="40" height="40" viewBox="0 0 40 40">
    <g fill="none" fill-rule="evenodd">
        <path d="M0 0h40v40H0z"/>
        <path fill="#FFF" d="M20.86 26.464c0 .6-.48 1.084-1.071 1.084a1.08 1.08 0 0 1-1.077-1.084V20.98a1.08 1.08 0 0 1 1.077-1.083c.592 0 1.072.484 1.072 1.083v5.483zm6.15-9.905v-3.967A2.957 2.957 0 0 0 24.086 10h-8.57c-1.63 0-2.952 1.334-2.952 2.98v.504h.016v.68h-.016v1.54h2.148V13.44c0-.876.762-1.58 1.699-1.58h6.752c.94 0 1.7.704 1.7 1.58v3.004H13.067a2.962 2.962 0 0 0-2.567 2.943v8.636c0 1.644 1.318 2.973 2.947 2.973h.133V31h12.571v-.006c1.617-.011 2.926-1.334 2.926-2.97v-8.636c0-1.329-.871-2.45-2.067-2.83z"/>
    </g>
</svg>
