<svg xmlns="http://www.w3.org/2000/svg" width="40" height="40" viewBox="0 0 40 40">
    <g fill="none" fill-rule="evenodd" opacity=".3">
        <path d="M0 0h40v40H0z"/>
        <path fill="#FFF" d="M16.395 26.294c0 .6-.49 1.088-1.085 1.088-.6 0-1.086-.487-1.086-1.088v-5.512a1.09 1.09 0 0 1 1.086-1.093c.596 0 1.085.49 1.085 1.093v5.512zm6.106-9.983v-2.999c0-.876.764-1.584 1.716-1.584h6.811c.947 0 1.715.708 1.715 1.584v3.865h2.167V14.04h-.017v-.681h.017v-.512a2.988 2.988 0 0 0-2.979-2.994h-8.646a2.986 2.986 0 0 0-2.953 2.612v3.755H8.527a2.985 2.985 0 0 0-2.59 2.96v8.678a2.985 2.985 0 0 0 2.975 2.993h.134v.002h12.683v-.002a2.987 2.987 0 0 0 2.952-2.993V19.18c0-1.37-.927-2.52-2.18-2.869z"/>
    </g>
</svg>
