<svg xmlns="http://www.w3.org/2000/svg" width="40" height="40" viewBox="0 0 40 40">
    <g fill="none" fill-rule="evenodd">
        <path d="M0 0h40v40H0z"/>
        <path fill="#FFF" d="M30.725 27.194a.502.502 0 0 1-.502.502h-15.13a.508.508 0 0 1-.361-.154L8.14 20.697a.502.502 0 0 1 0-.696l6.592-6.845a.501.501 0 0 1 .361-.154h15.13c.277 0 .502.224.502.502v13.69zM30.223 11h-15.13a2.5 2.5 0 0 0-1.802.766L6.7 18.613a2.502 2.502 0 0 0 0 3.47l6.591 6.846a2.498 2.498 0 0 0 1.802.767h15.13a2.502 2.502 0 0 0 2.502-2.503v-13.69A2.502 2.502 0 0 0 30.223 11z"/>
        <path fill="#FFF" d="M27.047 14.437l-4.493 4.493-4.493-4.493-1.414 1.414 4.493 4.493-4.493 4.493 1.414 1.414 4.493-4.493 4.493 4.493 1.414-1.414-4.493-4.493 4.493-4.493z"/>
    </g>
</svg>
