<svg xmlns="http://www.w3.org/2000/svg" width="40" height="40" viewBox="0 0 40 40">
    <g fill="none" fill-rule="evenodd">
        <path d="M0 0h40v40H0z"/>
        <path fill="#FFF" d="M20.313 11.58c-.522 0-.989.166-1.398.499-.41.333-.727.93-.953 1.79-.297 1.116-.445 2.996-.445 5.639 0 2.642.133 4.458.399 5.446.267.988.602 1.647 1.007 1.975.404.327.868.491 1.39.491.522 0 .989-.166 1.398-.499.41-.333.727-.93.953-1.79.297-1.107.445-2.981.445-5.623 0-2.643-.133-4.458-.399-5.447-.267-.989-.602-1.649-1.007-1.982a2.124 2.124 0 0 0-1.39-.499m0-3.58c2.182 0 3.887.778 5.116 2.335 1.465 1.844 2.197 4.901 2.197 9.173 0 4.26-.737 7.323-2.212 9.187C24.195 30.231 22.495 31 20.313 31c-2.192 0-3.959-.843-5.301-2.527C13.671 26.788 13 23.784 13 19.462c0-4.241.737-7.293 2.212-9.157C16.431 8.768 18.131 8 20.313 8"/>
    </g>
</svg>
