<?xml version="1.0" encoding="UTF-8"?>
<svg width="26px" height="26px" viewBox="0 0 26 26" version="1.1" xmlns="http://www.w3.org/2000/svg" xmlns:xlink="http://www.w3.org/1999/xlink">
    <!-- Generator: sketchtool 46.2 (44496) - http://www.bohemiancoding.com/sketch -->
    <title>778A49A1-06EC-49EE-B447-5550696EFE4B</title>
    <desc>Created with sketchtool.</desc>
    <defs></defs>
    <g id="DEVICES" stroke="none" stroke-width="1" fill="none" fill-rule="evenodd">
        <g id="Devices/Shutter-Ext-OP-CL" transform="translate(-313.000000, -619.000000)" fill="#4D4D4D">
            <g id="Group-13" transform="translate(298.000000, 601.000000)">
                <g id="Group-Copy">
                    <g id="Page-1" transform="translate(14.000000, 18.000000)">
                        <path d="M23.0581,21.3194 L21.7621,22.6154 L21.3221,22.1614 L19.6751,20.5284 L18.9621,19.8164 L17.0321,21.7474 L16.1631,22.6154 L15.6191,22.0584 L14.8801,21.3194 L17.6791,18.5204 L14.8801,15.7204 L16.1631,14.4244 L17.3171,15.5784 L18.9621,17.2244 L20.3621,15.8244 L21.7621,14.4244 L23.0581,15.7204 L20.2581,18.5204 L21.1401,19.4014 L22.7461,21.0084 L23.0581,21.3194 Z M12.0291,11.6764 L13.9731,6.2344 L15.9161,11.6764 L12.0291,11.6764 Z M26.9201,11.5084 C26.9201,6.5064 24.0811,2.1644 19.9211,0.0004 L18.7291,1.9444 C22.2421,3.6934 24.6521,7.3224 24.6521,11.5084 C24.6521,12.4544 24.5091,13.3484 24.2891,14.2164 C23.0321,12.7264 21.1651,11.7414 19.0531,11.7414 C18.9891,11.7414 18.9231,11.7674 18.8461,11.7674 L15.5151,2.8124 L12.3921,2.8124 L7.0131,17.3274 L10.0201,17.3274 L11.1731,14.1004 L13.9211,14.1004 C12.8581,15.3054 12.1981,16.8744 12.1981,18.5974 C12.1981,19.9064 12.5861,21.1254 13.2211,22.1614 C7.6621,21.7854 3.2681,17.1594 3.2681,11.5084 C3.2681,8.9294 4.1751,6.5574 5.7041,4.7044 L7.7911,6.7914 L8.8931,0.1164 L2.2181,1.2184 L4.0971,3.0974 C2.1661,5.3654 0.9991,8.2944 0.9991,11.5084 C0.9991,18.6624 6.7931,24.4684 13.9601,24.4684 C14.4401,24.4684 14.9321,24.4294 15.3991,24.3784 C16.4611,25.0514 17.7051,25.4534 19.0531,25.4534 C22.8371,25.4534 25.9091,22.3814 25.9091,18.5974 C25.9091,18.0404 25.8191,17.4964 25.6891,16.9774 C26.4661,15.3194 26.9201,13.4654 26.9201,11.5084 L26.9201,11.5084 Z" id="Fill-1"></path>
                    </g>
                </g>
            </g>
        </g>
    </g>
</svg>