<?xml version="1.0" encoding="UTF-8"?>
<svg width="29px" height="26px" viewBox="0 0 29 26" version="1.1" xmlns="http://www.w3.org/2000/svg" xmlns:xlink="http://www.w3.org/1999/xlink">
    <!-- Generator: sketchtool 47 (45396) - http://www.bohemiancoding.com/sketch -->
    <title>39DE8E1F-2731-447A-82E7-17D1FA1BB9B2</title>
    <desc>Created with sketchtool.</desc>
    <defs></defs>
    <g id="SYMBOLS" stroke="none" stroke-width="1" fill="none" fill-rule="evenodd">
        <g id="Buttons/Groups/Rollers-OPEN" transform="translate(-13.000000, -14.000000)">
            <g id="Group-8" transform="translate(13.000000, 14.000000)">
                <g id="Page-1" opacity="0.599999964" style="mix-blend-mode: multiply;" transform="translate(7.500000, 13.000000)"></g>
                <g id="Page-1" fill="#FFFFFF">
                    <polygon id="Fill-1" points="9.9706774 0 7.5 3 26.0293226 3 28.5 0"></polygon>
                    <polygon id="Fill-2" points="9.97219315 4.5 7.5 7.5 26.0293226 7.5 28.5 4.5"></polygon>
                    <polygon id="Fill-3" points="9.97219315 9 7.5 12 26.0293226 12 28.5 9"></polygon>
                    <polygon id="Fill-4" points="9.97219315 13.5 7.5 16.5 26.0293226 16.5 28.5 13.5"></polygon>
                    <polygon id="Fill-2" points="2.47219315 13.5 -1.77635684e-15 16.5 18.5293226 16.5 21 13.5"></polygon>
                    <polygon id="Fill-3" points="2.47219315 18 -1.77635684e-15 21 18.5293226 21 21 18"></polygon>
                    <polygon id="Fill-4" points="2.47219315 22.5 -1.77635684e-15 25.5 18.5293226 25.5 21 22.5"></polygon>
                    <polygon id="Fill-1" points="2.4706774 9 -1.77635684e-15 12 18.5293226 12 21 9"></polygon>
                </g>
                <path d="M20.0135701,17.7766673 L18.0900002,20.3581292 L18.5242813,21.1501514 L20.9958186,17.7766673 L20.0135701,17.7766673 Z M20.0135701,8.77666731 L18.0900002,11.3581292 L18.5242813,12.1501514 L20.9958186,8.77666731 L20.0135701,8.77666731 Z M20.0163382,13.5 L21.0000002,13.5 L18.5249063,16.8719683 L18.0900002,16.080704 L20.0163382,13.5 Z M20.0135701,22.1680326 L20.9958186,22.1680326 L18.5242813,25.5400009 L18.0900002,24.7487366 L20.0135701,22.1680326 Z" id="Page-1" fill="#2AB8DB" transform="translate(19.545000, 17.158334) rotate(-360.000000) translate(-19.545000, -17.158334) "></path>
            </g>
        </g>
    </g>
</svg>