<?xml version="1.0" encoding="UTF-8"?>
<svg width="40px" height="40px" viewBox="0 0 40 40" version="1.1" xmlns="http://www.w3.org/2000/svg" xmlns:xlink="http://www.w3.org/1999/xlink">
    <!-- Generator: sketchtool 48.2 (47327) - http://www.bohemiancoding.com/sketch -->
    <title>09AC02F5-F29D-4B9A-9F89-5924F357E263</title>
    <desc>Created with sketchtool.</desc>
    <defs></defs>
    <g id="Symbols" stroke="none" stroke-width="1" fill="none" fill-rule="evenodd">
        <g id="Original-Icons/Groups/shutters">
            <rect id="Rectangle" x="0" y="0" width="40" height="40"></rect>
            <g id="Page-1" transform="translate(3.000000, 7.000000)" fill="#FFFFFF">
                <polygon id="Fill-1" points="2.9871 6.7838 0.0001 10.8658 22.4111 10.8658 25.3981 6.7838"></polygon>
                <polygon id="Fill-2" points="2.9898 12.0902 -0.0002 16.1732 22.4108 16.1732 25.3978 12.0902"></polygon>
                <polygon id="Fill-3" points="2.9898 17.3993 -0.0002 21.4803 22.4108 21.4803 25.3978 17.3993"></polygon>
                <polygon id="Fill-4" points="2.9898 22.7084 -0.0002 26.7884 22.4108 26.7884 25.3978 22.7084"></polygon>
                <polygon id="Fill-5" points="10.5894 -0.0004 7.6014 4.0826 30.0124 4.0826 33.0004 -0.0004"></polygon>
                <polygon id="Fill-6" points="27.6255 5.3069 27.6255 9.3899 30.0125 9.3899 33.0005 5.3069"></polygon>
                <polygon id="Fill-7" points="27.6255 10.6151 27.6255 14.6961 30.0125 14.6961 33.0005 10.6151"></polygon>
                <polygon id="Fill-8" points="27.6255 15.9242 27.6255 19.3922 30.4615 19.3922 33.0005 15.9242"></polygon>
            </g>
        </g>
    </g>
</svg>