<svg xmlns="http://www.w3.org/2000/svg" width="24" height="21" viewBox="0 0 24 21">
    <path fill="#FFF" fill-rule="evenodd" d="M21.95 6.76a4.638 4.638 0 0 1-1.39 3.334l-8.567 8.46-8.548-8.474A4.663 4.663 0 0 1 2.05 6.745c0-1.264.494-2.446 1.391-3.33a4.734 4.734 0 0 1 3.355-1.379c1.273 0 2.47.491 3.37 1.383l1.115 1.106c.194.193.452.298.725.298.273 0 .531-.105.725-.298l1.105-1.096A4.75 4.75 0 0 1 17.2 2.046c1.266 0 2.46.49 3.36 1.378a4.666 4.666 0 0 1 1.39 3.337m.064-4.773A6.784 6.784 0 0 0 17.205.015a6.795 6.795 0 0 0-4.814 1.977l-.383.38-.394-.39A6.806 6.806 0 0 0 6.795 0C4.981 0 3.275.7 1.99 1.973A6.647 6.647 0 0 0 0 6.745c0 1.795.71 3.488 2 4.767l9.27 9.187c.193.191.456.301.723.301.27 0 .532-.108.722-.295l9.29-9.173A6.675 6.675 0 0 0 24 6.76c.006-1.804-.7-3.5-1.986-4.773" opacity=".7"/>
</svg>
