<svg xmlns="http://www.w3.org/2000/svg" xmlns:xlink="http://www.w3.org/1999/xlink" width="23" height="23" viewBox="0 0 23 23">
    <defs>
        <path id="a" d="M0 23V.382h22.618V23z"/>
    </defs>
    <g fill="none" fill-rule="evenodd" opacity=".7">
        <mask id="b" fill="#fff">
            <use xlink:href="#a"/>
        </mask>
        <path fill="#FFF" d="M12.642 6.41a1.334 1.334 0 1 1-2.667 0 1.334 1.334 0 0 1 2.667 0m-.296 3.01v7.512a.142.142 0 0 1-.142.142h-1.79a.142.142 0 0 1-.142-.142V9.42c0-.079.064-.143.142-.143h1.79c.078 0 .142.064.142.143m-1.037 11.467c-5.071 0-9.198-4.126-9.198-9.197 0-5.072 4.127-9.197 9.198-9.197 5.072 0 9.198 4.125 9.198 9.197 0 5.071-4.126 9.197-9.198 9.197m0-20.506c-6.246 0-11.31 5.063-11.31 11.31C0 17.936 5.064 23 11.31 23s11.31-5.063 11.31-11.309c0-6.246-5.064-11.309-11.31-11.309" mask="url(#b)"/>
    </g>
</svg>
