<?xml version="1.0" encoding="UTF-8"?>
<svg width="40px" height="40px" viewBox="0 0 40 40" version="1.1" xmlns="http://www.w3.org/2000/svg" xmlns:xlink="http://www.w3.org/1999/xlink">
    <!-- Generator: sketchtool 47.1 (45422) - http://www.bohemiancoding.com/sketch -->
    <title>3580599C-502F-424F-8B4F-CDC1B0BEC119</title>
    <desc>Created with sketchtool.</desc>
    <defs></defs>
    <g id="Symbols" stroke="none" stroke-width="1" fill="none" fill-rule="evenodd" opacity="0.3">
        <g id="Original-Icons/generic-device-dark">
            <g id="Icons/Generic-Device-Send">
                <rect id="Rectangle" x="0" y="0" width="40" height="40"></rect>
                <path d="M22.4482525,30.5834889 C23.7893008,30.5834889 24.8749691,31.6594744 24.8749691,32.9896298 C24.8749691,34.3113128 23.7880905,35.39335 22.4482525,35.39335 C21.1072041,35.39335 20.0203256,34.3113128 20.0203256,32.9896298 C20.0203256,31.6594744 21.1072041,30.5834889 22.4482525,30.5834889 L22.4482525,30.5834889 Z M30.0709262,30.5834889 C31.4095539,30.5834889 32.4976428,31.6594744 32.4976428,32.9896298 C32.4976428,34.3113128 31.4095539,35.39335 30.0709262,35.39335 C28.7274572,35.39335 27.6429994,34.3113128 27.6429994,32.9896298 C27.6429994,31.6594744 28.7274572,30.5834889 30.0709262,30.5834889 L30.0709262,30.5834889 Z M17.5536681,5.39405 C18.8935061,5.39405 19.9803846,6.46882521 19.9803846,7.7965599 C19.9803846,9.12550493 18.8935061,10.2063318 17.5536681,10.2063318 C16.2126197,10.2063318 15.1245309,9.12550493 15.1245309,7.7965599 C15.1245309,6.46882521 16.2126197,5.39405 17.5536681,5.39405 L17.5536681,5.39405 Z M9.93220468,5.39405 C11.273253,5.39405 12.3577109,6.46882521 12.3577109,7.7965599 C12.3577109,9.12550493 11.2720427,10.2063318 9.93220468,10.2063318 C8.58873566,10.2063318 7.50064679,9.12550493 7.50064679,7.7965599 C7.50064679,6.46882521 8.58873566,5.39405 9.93220468,5.39405 L9.93220468,5.39405 Z M34.0287133,5.852766 C34.6617172,6.44824956 34.6919755,7.44072217 34.0977023,8.07130537 C34.092861,8.07735703 34.0868093,8.08340869 34.0807576,8.08946036 L8.2244256,34.9043757 C7.61441804,35.5373796 6.60863178,35.5579552 5.97199691,34.9515787 C5.34141371,34.3633571 5.3075244,33.3757258 5.89574597,32.7439323 L5.91874229,32.7221463 L31.7750743,5.90723096 C32.3850819,5.27543742 33.3908681,5.25002044 34.0299237,5.85397633 L34.0287133,5.852766 Z" id="Fill-1" fill="#FFFFFF"></path>
            </g>
        </g>
    </g>
</svg>