<?xml version="1.0" encoding="UTF-8"?>
<svg width="23px" height="20px" viewBox="0 0 23 20" version="1.1" xmlns="http://www.w3.org/2000/svg" xmlns:xlink="http://www.w3.org/1999/xlink">
    <!-- Generator: sketchtool 44.1 (41455) - http://www.bohemiancoding.com/sketch -->
    <title>920BAC9B-AD64-4A30-BE8E-C12A8A6CA85C</title>
    <desc>Created with sketchtool.</desc>
    <defs></defs>
    <g id="NAVIGATION" stroke="none" stroke-width="1" fill="none" fill-rule="evenodd">
        <g id="Devices/Sprinkler-ON" transform="translate(-272.000000, -41.000000)" fill="#8D8D8D">
            <g id="buttons/fav" transform="translate(263.000000, 29.000000)">
                <path d="M28.9854363,21.8479633 L20.3671497,30.4326113 L11.7683952,21.8336157 C10.8231393,20.8883597 10.302284,19.6344488 10.302284,18.2984911 C10.302284,16.9625937 10.818196,15.7086827 11.7634519,14.7683701 C12.7039454,13.8278163 13.9579166,13.306961 15.2888707,13.306961 C16.6247681,13.306961 17.8834415,13.8278163 18.8286975,14.7730723 L19.918756,15.8628897 C20.1742404,16.1186152 20.5842331,16.1186152 20.8399586,15.8628897 L21.9201305,14.7827177 C22.8653261,13.8374618 24.1240598,13.3166065 25.4551948,13.3166065 C26.7862092,13.3166065 28.0401804,13.8374618 28.9854363,14.7777744 C29.930632,15.7232715 30.4468454,16.9770016 30.4468454,18.312899 C30.4515476,19.6487964 29.930632,20.9027676 28.9854363,21.8479633 M29.9113411,13.856813 C28.7202462,12.6654771 27.1431518,12.0143476 25.4599572,12.0143476 C23.7769435,12.0143476 22.1949661,12.6704204 21.0038712,13.8615152 L20.3817385,14.4836479 L19.7499,13.8518697 C18.5586243,12.6607749 16.9721256,12 15.2888707,12 C13.6105592,12 12.0288229,12.6558316 10.8422494,13.8422242 C9.65115453,15.0334999 8.99532294,16.6152965 9.00002511,18.2984911 C9.00002511,19.9815048 9.6608,21.5585992 10.8518948,22.7498749 L19.9091105,31.8069098 C20.0343811,31.9324214 20.2032371,32 20.3671497,32 C20.5312433,32 20.7000993,31.9371236 20.8253698,31.8118531 L29.9016956,22.7692261 C31.0929713,21.5778902 31.7488028,19.9961539 31.7488028,18.312899 C31.7537462,16.6298853 31.102677,15.0479078 29.9113411,13.856813" id="fav"></path>
            </g>
        </g>
    </g>
</svg>
