<?xml version="1.0" encoding="UTF-8"?>
<svg width="86px" height="43px" viewBox="0 0 86 43" version="1.1" xmlns="http://www.w3.org/2000/svg" xmlns:xlink="http://www.w3.org/1999/xlink">
    <!-- Generator: sketchtool 44.1 (41455) - http://www.bohemiancoding.com/sketch -->
    <title>5F39E3E7-4061-4C10-86DB-238D98165062</title>
    <desc>Created with sketchtool.</desc>
    <defs></defs>
    <g id="NAVIGATION" stroke="none" stroke-width="1" fill="none" fill-rule="evenodd">
        <g id="Devices/Sprinkler-OFF" transform="translate(-144.000000, -344.000000)" fill="#4D4D4D">
            <g id="Page-1" transform="translate(144.000000, 344.000000)">
                <path d="M40.7361765,42.9590592 L44.3734706,42.9590592 L44.3734706,36.157471 L40.7361765,36.157471 L40.7361765,42.9590592 Z M40.7361765,32.889471 L44.3734706,32.889471 L44.3734706,26.0853534 L40.7361765,26.0853534 L40.7361765,32.889471 Z M45.1879412,16.7745887 L42.5548235,15.9702357 L39.8711176,16.7897651 C40.4225294,18.5451769 40.7285882,20.4118828 40.7285882,22.3494122 C40.7285882,22.3848239 40.721,22.4151769 40.721,22.4480592 L44.3861176,22.4480592 C44.3861176,22.4151769 44.3810588,22.3848239 44.3810588,22.3494122 C44.3810588,20.4144122 44.6795294,18.5502357 45.2284118,16.7973534 L45.1879412,16.7745887 Z M83.9739412,15.3783534 L80.7337647,17.2450592 C81.1966471,18.8664122 81.4622353,20.5762945 81.4622353,22.3494122 C81.4622353,22.3848239 81.4597059,22.4151769 81.4597059,22.4480592 L85.1020588,22.4480592 C85.1020588,22.4151769 85.1096471,22.3848239 85.1096471,22.3519416 C85.1096471,19.9135887 84.6998824,17.5713534 83.9739412,15.3783534 L83.9739412,15.3783534 Z M76.9042353,5.12917689 L75.0653529,8.36176512 C76.8232941,9.88700042 78.2852941,11.7284122 79.3653529,13.8075887 L82.5321765,11.9838828 C81.1308824,9.33558865 79.2085294,7.00600042 76.9042353,5.12917689 L76.9042353,5.12917689 Z M54.5366471,5.82982395 C56.6411176,4.75735336 58.9732353,4.07694159 61.447,3.8847063 L61.447,0.239823947 C58.3307647,0.442176888 55.3915882,1.27941218 52.7635294,2.64276512 L54.5366471,5.82982395 Z M65.1070588,3.95047101 C67.6162353,4.24388277 69.9685882,5.04064748 72.068,6.23200042 L73.8664118,3.06517689 C71.2358235,1.56776512 68.2713529,0.583823947 65.1095882,0.2727063 L65.1070588,3.95047101 Z M43.4831176,11.6575887 L46.6777647,13.4155298 C47.8792353,11.2377063 49.5081765,9.33558865 51.4457059,7.80529454 L49.6574118,4.59547101 C47.1330588,6.48241218 45.0134118,8.88029454 43.4831176,11.6575887 L43.4831176,11.6575887 Z M2.55470588,12.0294122 L5.719,13.8556475 C6.78641176,11.7865887 8.23576471,9.9477063 9.97347059,8.42500042 L8.13205882,5.18735336 C5.84294118,7.06164748 3.94588235,9.39123571 2.55470588,12.0294122 L2.55470588,12.0294122 Z M1.118,15.4289416 C0.402176471,17.6067651 0,19.9312945 0,22.3519416 C0,22.3848239 0.00505882353,22.4151769 0.00505882353,22.4480592 L3.65247059,22.4480592 C3.65247059,22.4151769 3.64741176,22.3848239 3.64741176,22.3494122 C3.64741176,20.5965298 3.90794118,18.9068828 4.36070588,17.2981769 L1.118,15.4289416 Z M23.5564118,3.87964748 C26.0352353,4.05923571 28.3749412,4.72700042 30.487,5.78935336 L32.2651765,2.60229454 C29.6219412,1.25158865 26.6777059,0.424471006 23.5538824,0.232235712 L23.5564118,3.87964748 Z M35.3763529,4.53729454 L33.5855294,7.74711806 C35.5432941,9.27994159 37.1924706,11.1845887 38.4040588,13.3725298 L41.5987059,11.6145887 C40.0532353,8.8297063 37.9209412,6.42423571 35.3763529,4.53729454 L35.3763529,4.53729454 Z M12.9632353,6.28005924 C15.0525294,5.07858865 17.3947647,4.27423571 19.8963529,3.96564748 L19.8963529,0.282823947 C16.7396471,0.606588653 13.7903529,1.6057063 11.1648235,3.11323571 L12.9632353,6.28005924 Z" id="Fill-1"></path>
            </g>
        </g>
    </g>
</svg>
