<?xml version="1.0" encoding="UTF-8"?>
<svg width="86px" height="44px" viewBox="0 0 86 44" version="1.1" xmlns="http://www.w3.org/2000/svg" xmlns:xlink="http://www.w3.org/1999/xlink">
    <!-- Generator: sketchtool 44.1 (41455) - http://www.bohemiancoding.com/sketch -->
    <title>E100BCCF-972A-41E6-8969-87213E9F8270</title>
    <desc>Created with sketchtool.</desc>
    <defs></defs>
    <g id="NAVIGATION" stroke="none" stroke-width="1" fill="none" fill-rule="evenodd">
        <g id="Devices/Sprinkler-ON" transform="translate(-144.000000, -343.000000)" fill="#FFFFFF">
            <g id="Page-1" transform="translate(144.000000, 342.000000)">
                <path d="M40.7361765,44.0906382 L44.3734706,44.0906382 L44.3734706,37.28905 L40.7361765,37.28905 L40.7361765,44.0906382 Z M40.7361765,34.02105 L44.3734706,34.02105 L44.3734706,27.2169323 L40.7361765,27.2169323 L40.7361765,34.02105 Z M45.1879412,17.9061676 L42.5548235,17.1018147 L39.8711176,17.9213441 C40.4225294,19.6767558 40.7285882,21.5434617 40.7285882,23.4809911 C40.7285882,23.5164029 40.721,23.5467558 40.721,23.5796382 L44.3861176,23.5796382 C44.3861176,23.5467558 44.3810588,23.5164029 44.3810588,23.4809911 C44.3810588,21.5459911 44.6795294,19.6818147 45.2284118,17.9289323 L45.1879412,17.9061676 Z M83.9739412,16.5099323 L80.7337647,18.3766382 C81.1966471,19.9979911 81.4622353,21.7078735 81.4622353,23.4809911 C81.4622353,23.5164029 81.4597059,23.5467558 81.4597059,23.5796382 L85.1020588,23.5796382 C85.1020588,23.5467558 85.1096471,23.5164029 85.1096471,23.4835205 C85.1096471,21.0451676 84.6998824,18.7029323 83.9739412,16.5099323 L83.9739412,16.5099323 Z M76.9042353,6.26075584 L75.0653529,9.49334407 C76.8232941,11.0185794 78.2852941,12.8599911 79.3653529,14.9391676 L82.5321765,13.1154617 C81.1308824,10.4671676 79.2085294,8.13757937 76.9042353,6.26075584 L76.9042353,6.26075584 Z M54.5366471,6.96140289 C56.6411176,5.88893231 58.9732353,5.20852054 61.447,5.01628525 L61.447,1.37140289 C58.3307647,1.57375584 55.3915882,2.41099113 52.7635294,3.77434407 L54.5366471,6.96140289 Z M65.1070588,5.08204995 C67.6162353,5.37546172 69.9685882,6.17222642 72.068,7.36357937 L73.8664118,4.19675584 C71.2358235,2.69934407 68.2713529,1.71540289 65.1095882,1.40428525 L65.1070588,5.08204995 Z M43.4831176,12.7891676 L46.6777647,14.5471088 C47.8792353,12.3692852 49.5081765,10.4671676 51.4457059,8.93687348 L49.6574118,5.72704995 C47.1330588,7.61399113 45.0134118,10.0118735 43.4831176,12.7891676 L43.4831176,12.7891676 Z M2.55470588,13.1609911 L5.719,14.9872264 C6.78641176,12.9181676 8.23576471,11.0792852 9.97347059,9.55657937 L8.13205882,6.31893231 C5.84294118,8.19322642 3.94588235,10.5228147 2.55470588,13.1609911 L2.55470588,13.1609911 Z M1.118,16.5605205 C0.402176471,18.7383441 0,21.0628735 0,23.4835205 C0,23.5164029 0.00505882353,23.5467558 0.00505882353,23.5796382 L3.65247059,23.5796382 C3.65247059,23.5467558 3.64741176,23.5164029 3.64741176,23.4809911 C3.64741176,21.7281088 3.90794118,20.0384617 4.36070588,18.4297558 L1.118,16.5605205 Z M23.5564118,5.01122642 C26.0352353,5.19081466 28.3749412,5.85857937 30.487,6.92093231 L32.2651765,3.73387348 C29.6219412,2.3831676 26.6777059,1.55604995 23.5538824,1.36381466 L23.5564118,5.01122642 Z M35.3763529,5.66887348 L33.5855294,8.87869701 C35.5432941,10.4115205 37.1924706,12.3161676 38.4040588,14.5041088 L41.5987059,12.7461676 C40.0532353,9.96128525 37.9209412,7.55581466 35.3763529,5.66887348 L35.3763529,5.66887348 Z M12.9632353,7.41163819 C15.0525294,6.2101676 17.3947647,5.40581466 19.8963529,5.09722642 L19.8963529,1.41440289 C16.7396471,1.7381676 13.7903529,2.73728525 11.1648235,4.24481466 L12.9632353,7.41163819 Z" id="Fill-1"></path>
            </g>
        </g>
    </g>
</svg>
