<?xml version="1.0" encoding="UTF-8"?>
<svg width="60px" height="60px" viewBox="0 0 60 60" version="1.1" xmlns="http://www.w3.org/2000/svg" xmlns:xlink="http://www.w3.org/1999/xlink">
    <!-- Generator: sketchtool 46.2 (44496) - http://www.bohemiancoding.com/sketch -->
    <title>1867C629-A681-47BC-97BA-C9897AF17720</title>
    <desc>Created with sketchtool.</desc>
    <defs></defs>
    <g id="SYMBOLS" stroke="none" stroke-width="1" fill="none" fill-rule="evenodd">
        <g id="Buttons/Binary-Input-OFF">
            <g id="Group-12">
                <g id="Group-5" fill-opacity="0.2" fill="#FFFFFF">
                    <circle id="Oval-5" cx="30" cy="30" r="30"></circle>
                </g>
                <g id="Page-1" transform="translate(18.000000, 23.000000)" fill="#2B3032">
                    <polygon id="Fill-1" points="0 15 3 15 3 1 0 1"></polygon>
                    <path d="M16.4995074,11.5506666 C13.8059113,11.5506666 11.6236453,9.51507191 11.6236453,7.00137913 C11.6236453,4.48584751 13.8059113,2.448414 16.4995074,2.448414 C19.1931034,2.448414 21.3753695,4.48584751 21.3753695,7.00137913 C21.3753695,9.51507191 19.1931034,11.5506666 16.4995074,11.5506666 M16.4995074,0 C12.3586207,0 9,3.13430091 9,7.00137913 C9,10.8675379 12.3586207,14 16.4995074,14 C20.6413793,14 24,10.8675379 24,7.00137913 C24,3.13430091 20.6413793,0 16.4995074,0" id="Fill-2"></path>
                </g>
            </g>
        </g>
    </g>
</svg>