<svg xmlns="http://www.w3.org/2000/svg" width="40" height="40" viewBox="0 0 40 40">
    <path fill="#8D8D8D" fill-rule="evenodd" d="M28.985 21.848l-8.618 8.585-8.599-8.6a4.965 4.965 0 0 1-1.466-3.535 4.94 4.94 0 0 1 1.461-3.53 4.958 4.958 0 0 1 3.526-1.461c1.336 0 2.594.52 3.54 1.466l1.09 1.09a.649.649 0 0 0 .921 0l1.08-1.08a4.973 4.973 0 0 1 3.535-1.466c1.331 0 2.585.52 3.53 1.46a4.961 4.961 0 0 1 1.462 3.536 4.941 4.941 0 0 1-1.462 3.535m.926-7.991a6.244 6.244 0 0 0-4.451-1.843 6.26 6.26 0 0 0-4.456 1.848l-.622.622-.632-.632A6.276 6.276 0 0 0 15.289 12c-1.678 0-3.26.656-4.447 1.842A6.237 6.237 0 0 0 9 18.298c0 1.684.66 3.26 1.852 4.452l9.057 9.057a.655.655 0 0 0 .458.193.65.65 0 0 0 .458-.188l9.077-9.043a6.26 6.26 0 0 0 1.847-4.456 6.23 6.23 0 0 0-1.838-4.456"/>
</svg>
