<svg xmlns="http://www.w3.org/2000/svg" width="40" height="40" viewBox="0 0 40 40">
    <g fill="none" fill-rule="evenodd">
        <path d="M0 0h40v40H0z"/>
        <path fill="#FFF" d="M15.451 36h2.269V5H15.45v31zm13.245-9.75a.757.757 0 0 0-1.056.167l-.444.61a.759.759 0 0 0 .167 1.056l3.058 2.223a.757.757 0 0 0 1.056-.167l.444-.613a.758.758 0 0 0-.167-1.056l-3.058-2.22zm5.28-6.884h-3.78a.758.758 0 0 0-.757.756v.756c0 .416.34.756.756.756h3.78c.416 0 .757-.34.757-.756v-.756a.759.759 0 0 0-.756-.756zM27.17 20.5c0-4.208-3.128-7.676-7.183-8.23v2.291a6.05 6.05 0 0 1 4.914 5.939 6.049 6.049 0 0 1-4.914 5.939v2.292c4.055-.555 7.183-4.023 7.183-8.231zM6 20.5c0 4.208 3.127 7.676 7.183 8.23V12.27C9.127 12.824 6 16.291 6 20.5zm21.64-5.916a.758.758 0 0 0 1.056.167l3.058-2.22a.759.759 0 0 0 .167-1.057l-.444-.613a.757.757 0 0 0-1.056-.166l-3.058 2.222a.758.758 0 0 0-.167 1.056l.444.611zm-5.874-4.268l.718.233a.758.758 0 0 0 .952-.485l1.17-3.595a.759.759 0 0 0-.486-.953l-.72-.233a.755.755 0 0 0-.952.485L21.28 9.364a.758.758 0 0 0 .486.952zm2.84 24.215a.76.76 0 0 1-.486.953l-.72.233a.755.755 0 0 1-.952-.485l-1.168-3.596a.757.757 0 0 1 .486-.952l.718-.233a.758.758 0 0 1 .952.486l1.17 3.594z"/>
    </g>
</svg>
