<svg xmlns="http://www.w3.org/2000/svg" width="40" height="40" viewBox="0 0 40 40">
    <g fill="none" fill-rule="evenodd">
        <path d="M0 0h40v40H0z"/>
        <path fill="#FFF" d="M17.678 11.546c.426.43 1.116.43 1.542 0a1.108 1.108 0 0 0 0-1.557l-2.148-2.168a1.08 1.08 0 0 0-1.541 0 1.107 1.107 0 0 0 0 1.556l2.147 2.17zm16.123 13.167c.426.43.426 1.127 0 1.557-.425.43-1.115.43-1.541 0l-2.147-2.168a1.108 1.108 0 0 1 0-1.557 1.08 1.08 0 0 1 1.54 0l2.148 2.168zm2.695-8.768c.602 0 1.09.493 1.09 1.1 0 .608-.488 1.101-1.09 1.101h-3.037c-.603 0-1.09-.493-1.09-1.1 0-.305.121-.58.319-.78.197-.198.47-.321.77-.321h3.038zM32.26 7.82a1.083 1.083 0 0 1 1.542 0c.425.43.425 1.126 0 1.556l-2.148 2.169c-.426.43-1.116.43-1.541 0a1.101 1.101 0 0 1-.32-.778c0-.282.106-.564.32-.779l2.147-2.168zM23.576 5.1c0-.609.488-1.101 1.09-1.101.602 0 1.09.492 1.09 1.1v3.067c0 .608-.488 1.101-1.09 1.1-.301 0-.574-.122-.77-.322-.198-.199-.32-.474-.32-.778V5.1zm-.818 22.015c0-4.56-3.66-8.256-8.176-8.256-3.565 0-6.589 2.308-7.707 5.521-2.998.183-5.375 2.689-5.375 5.762 0 3.191 2.562 5.779 5.724 5.779h15.534c2.409 0 4.36-1.971 4.36-4.403 0-2.432-1.951-4.403-4.36-4.403zm-3.306-9.217a5.357 5.357 0 0 1-.075-.859c0-2.949 2.368-5.34 5.29-5.34 2.92 0 5.288 2.391 5.288 5.34 0 2.95-2.368 5.34-5.289 5.34-.309 0-.61-.032-.904-.083a10.47 10.47 0 0 0-4.31-4.398z"/>
    </g>
</svg>
