<svg xmlns="http://www.w3.org/2000/svg" width="40" height="40" viewBox="0 0 40 40">
    <g fill="none" fill-rule="evenodd">
        <path d="M0 0h40v40H0z"/>
        <path fill="#FFF" d="M13.577 28.147c-.438-.267-1.03-.16-1.322.242l-3.094 4.25c-.292.402-.175.945.262 1.214.163.1.347.147.53.147.306 0 .609-.136.792-.389l3.094-4.25c.292-.402.175-.945-.262-1.214M21.577 28.147c-.438-.267-1.03-.16-1.322.242l-3.094 4.25c-.292.402-.175.945.262 1.214.163.1.347.147.53.147.307 0 .609-.136.792-.389l3.094-4.25c.292-.402.175-.945-.262-1.214M30.577 28.147c-.437-.267-1.029-.16-1.322.242l-3.094 4.25c-.292.402-.175.945.262 1.214.163.1.347.147.53.147.307 0 .609-.136.792-.389l3.094-4.25c.292-.402.175-.945-.262-1.214M29.404 14.727c0-4.653-3.858-8.426-8.617-8.426-3.757 0-6.944 2.356-8.123 5.636C9.504 12.123 7 14.68 7 17.817c0 3.257 2.7 5.897 6.032 5.897.097 0 .191-.01.287-.014v.014h16.085c2.538 0 4.596-2.012 4.596-4.493 0-2.482-2.058-4.494-4.596-4.494"/>
    </g>
</svg>
