<svg xmlns="http://www.w3.org/2000/svg" width="40" height="40" viewBox="0 0 40 40">
    <g fill="none" fill-rule="evenodd">
        <path d="M0 0h40v40H0z"/>
        <path fill="#FFF" d="M33.806 20.04l-.666-.176a.344.344 0 0 1-.246-.415c.075-.312.138-.629.19-.946.03-.186.2-.315.386-.29l.683.093a.348.348 0 0 1 .298.397c-.059.365-.131.728-.217 1.086a.348.348 0 0 1-.428.252zM8.916 25.95a14.796 14.796 0 0 1-1.605-2.27.348.348 0 0 1 .138-.477l.606-.33a.345.345 0 0 1 .464.135c.413.718.894 1.396 1.433 2.026a.345.345 0 0 1-.028.482l-.511.462a.348.348 0 0 1-.496-.028zm21.661.04l-.511-.463a.345.345 0 0 1-.027-.483 13.347 13.347 0 0 0 1.435-2.023.345.345 0 0 1 .464-.134l.605.329c.17.093.235.309.138.477a14.753 14.753 0 0 1-1.608 2.268.348.348 0 0 1-.496.028zm-16.041 3.996a14.6 14.6 0 0 1-2.469-1.284.348.348 0 0 1-.094-.487l.388-.57a.345.345 0 0 1 .475-.092c.696.45 1.433.834 2.198 1.144.175.071.264.265.197.441l-.242.645a.348.348 0 0 1-.453.203zm10.46-.197l-.241-.645a.345.345 0 0 1 .197-.441c.766-.31 1.504-.693 2.2-1.142a.345.345 0 0 1 .475.093l.388.57c.11.16.068.381-.095.486a14.62 14.62 0 0 1-2.47 1.282.348.348 0 0 1-.453-.203zM20 31.043c-.467 0-.935-.023-1.399-.067a.348.348 0 0 1-.309-.388l.082-.684a.345.345 0 0 1 .378-.302c.82.077 1.66.077 2.482.002a.345.345 0 0 1 .377.301l.081.685a.348.348 0 0 1-.31.388c-.457.043-.92.065-1.382.065zM5.766 19.789a14.923 14.923 0 0 1-.217-1.086.348.348 0 0 1 .298-.397l.683-.093a.344.344 0 0 1 .386.29c.052.317.115.634.19.946a.344.344 0 0 1-.246.415l-.666.177a.348.348 0 0 1-.428-.252zm8.016 1.926h12.436V17.57H13.782v4.145zM1 15.727h38V14H1v1.727z"/>
    </g>
</svg>
