<?xml version="1.0" encoding="UTF-8"?>
<svg width="28px" height="16px" viewBox="0 0 28 16" version="1.1" xmlns="http://www.w3.org/2000/svg" xmlns:xlink="http://www.w3.org/1999/xlink">
    <!-- Generator: sketchtool 45.2 (43514) - http://www.bohemiancoding.com/sketch -->
    <title>6CCF5E74-40F3-4423-B591-9651430660CA</title>
    <desc>Created with sketchtool.</desc>
    <defs></defs>
    <g id="SYMBOLS" stroke="none" stroke-width="1" fill="none" fill-rule="evenodd">
        <g id="Buttons/Wind-ON" transform="translate(-17.000000, -15.000000)" fill="#FFFFFF">
            <g id="Group-5">
                <path d="M35.6210256,18.3323263 L40.1117838,18.8984145 L40.1117838,22.7012491 L35.6210256,23.2673374 L35.6210256,18.3323263 Z M26.6425899,17.2009107 L31.1310376,17.7647164 L31.1310376,23.8349473 L26.6425899,24.3995138 L26.6425899,17.2009107 Z M21.7567436,23.5732076 L18.9495384,20.7998318 L21.7567436,18.0294996 L21.7567436,23.5732076 Z M43.8685868,18.5856964 L22.9343065,15.9431905 L22.9104318,15.9431905 C22.3443698,15.9431905 21.8976815,16.3502567 21.7983318,16.8828665 L18.1108425,20.5251573 C18.0723349,20.5601574 18.0700245,20.6202662 18.0484602,20.6712446 C18.0338273,20.7168969 17.9953197,20.7549404 17.9953197,20.7998318 L17.9953197,29.7880041 C17.9953197,30.0025698 18.1709144,30.1768094 18.3904078,30.1768094 C18.6091311,30.1768094 18.7862661,30.0025698 18.7862661,29.7880041 L18.7862661,21.7440731 L21.7983318,24.7198406 C21.8976815,25.2463635 22.3443698,25.6534297 22.9104318,25.6534297 L22.9343065,25.6534297 L43.8685868,23.0170107 C44.4947207,23.0017933 44.9953197,22.4996183 44.9953197,21.8779864 L44.9953197,19.7216773 C44.9953197,19.1030889 44.4947207,18.5978704 43.8685868,18.5856964 L43.8685868,18.5856964 Z" id="wind"></path>
            </g>
        </g>
    </g>
</svg>