<?xml version="1.0" encoding="UTF-8"?>
<svg width="40px" height="40px" viewBox="0 0 40 40" version="1.1" xmlns="http://www.w3.org/2000/svg" xmlns:xlink="http://www.w3.org/1999/xlink">
    <!-- Generator: sketchtool 47.1 (45422) - http://www.bohemiancoding.com/sketch -->
    <title>038D7FE4-6A5C-472F-A7C9-6CCBF6AD408F</title>
    <desc>Created with sketchtool.</desc>
    <defs></defs>
    <g id="Symbols" stroke="none" stroke-width="1" fill="none" fill-rule="evenodd" opacity="0.3">
        <g id="Original-Icons/audio-dark">
            <g id="Icons/Generic-Device-Send">
                <rect id="Rectangle" x="0" y="0" width="40" height="40"></rect>
                <path d="M30.2070544,8 L30.2070544,11.3095773 L30.2070544,12.2415709 L30.2070544,26.0162763 C30.2070544,27.7710642 28.4662663,29.4730525 26.3190811,29.8130502 C24.1714958,30.1534479 22.4311078,29.0026558 22.4311078,27.2478678 C22.4311078,25.4910799 24.1714958,23.7914915 26.3190811,23.4510939 C26.9562767,23.3502946 27.5554726,23.3826944 28.0862689,23.5206934 L28.0862689,13.8111601 L16.7759466,15.6027478 L16.7759466,28.1430617 C16.7759466,29.8978496 15.0347586,31.6002379 12.8879733,31.9402356 C10.740388,32.2810332 9,31.1294412 9,29.3750532 C9,27.6186653 10.740388,25.9190769 12.8879733,25.5778793 C13.5251689,25.47708 14.1243648,25.5098797 14.6551612,25.6482788 L14.6551612,14.704754 L14.6551612,13.7731604 L14.6551612,10.4631831 L30.2070544,8 Z" id="Fill-1" fill="#FFFFFF"></path>
            </g>
        </g>
    </g>
</svg>