<?xml version="1.0" encoding="UTF-8"?>
<svg width="40px" height="40px" viewBox="0 0 40 40" version="1.1" xmlns="http://www.w3.org/2000/svg" xmlns:xlink="http://www.w3.org/1999/xlink">
    <!-- Generator: sketchtool 47.1 (45422) - http://www.bohemiancoding.com/sketch -->
    <title>A3FD72DE-CB45-4309-BB05-B65721453E0A</title>
    <desc>Created with sketchtool.</desc>
    <defs></defs>
    <g id="Symbols" stroke="none" stroke-width="1" fill="none" fill-rule="evenodd">
        <g id="Validated" transform="translate(-709.000000, -152.000000)"></g>
        <g id="Icons/Audio-Song-Left" fill="#FFFFFF">
            <path d="M29.0005,10.673741 L29.0005,28.325741 C29.0005,28.866741 28.4085,29.186741 27.9725,28.881741 L15.2715,20.025741 C14.9095,19.773741 14.9095,19.227741 15.2715,18.974741 L27.9725,10.117741 C28.4085,9.81374104 29.0005,10.133741 29.0005,10.673741" id="Fill-10"></path>
            <path d="M11.501,10 L12.499,10 C12.775,10 13,10.225 13,10.502 L13,28.499 C13,28.775 12.775,29 12.499,29 L11.501,29 C11.225,29 11,28.775 11,28.499 L11,10.502 C11,10.225 11.225,10 11.501,10" id="Fill-12"></path>
        </g>
    </g>
</svg>