<?xml version="1.0" encoding="UTF-8"?>
<svg width="40px" height="40px" viewBox="0 0 40 40" version="1.1" xmlns="http://www.w3.org/2000/svg" xmlns:xlink="http://www.w3.org/1999/xlink">
    <!-- Generator: sketchtool 48.2 (47327) - http://www.bohemiancoding.com/sketch -->
    <title>56631E4A-E459-4341-B659-5874C5E4729F</title>
    <desc>Created with sketchtool.</desc>
    <defs></defs>
    <g id="Symbols" stroke="none" stroke-width="1" fill="none" fill-rule="evenodd" opacity="0.3">
        <g id="Original-Icons/audio-mute-dark">
            <g id="Icons/Generic-Device-Send">
                <g id="Page-1">
                    <rect id="Rectangle" x="0" y="0" width="40" height="40"></rect>
                    <path d="M16.9015846,17.70485 L24.2946615,11.5731833 L24.0394308,16.3160167 L16.6592769,22.1974333 L16.9015846,17.70485 Z M32.5255846,9.55276667 L25.7043538,14.9889333 L26.0802,8.00901667 L16.1703538,16.2261 L11.7269692,15.9834333 C11.3769692,15.9650167 11.0786615,16.29435 11.0549692,16.7287667 L10.6834308,23.6285167 C10.6597385,24.06185 10.9214308,24.4226 11.2714308,24.4421 L13.6794308,24.5731833 L5.99989231,30.6929333 L6.92389231,31.9225167 L33.4711231,10.75635 L32.5255846,9.55276667 Z" id="Fill-1" fill="#FFFFFF"></path>
                    <polygon id="Fill-4" fill="#FFFFFF" points="23.7259866 30.1029836 18.4061802 24.8255261 17 25.9043673 25.1600894 34 26 19 24.2732688 20.3242289"></polygon>
                </g>
            </g>
        </g>
    </g>
</svg>