<?xml version="1.0" encoding="UTF-8"?>
<svg width="40px" height="40px" viewBox="0 0 40 40" version="1.1" xmlns="http://www.w3.org/2000/svg" xmlns:xlink="http://www.w3.org/1999/xlink">
    <!-- Generator: sketchtool 47.1 (45422) - http://www.bohemiancoding.com/sketch -->
    <title>F1091908-3729-4CC5-849E-2684B000347B</title>
    <desc>Created with sketchtool.</desc>
    <defs></defs>
    <g id="Symbols" stroke="none" stroke-width="1" fill="none" fill-rule="evenodd">
        <g id="Validated" transform="translate(-651.000000, -152.000000)"></g>
        <g id="Icons/Audio-Pause" fill="#FFFFFF">
            <path d="M17.2503529,29.4094118 L17.2503529,10.5917647 C17.2503529,10.2658824 16.9844706,10 16.6585882,10 L11.1750588,10 C10.848,10 10.5832941,10.2658824 10.5832941,10.5917647 L10.5832941,29.4094118 C10.5832941,29.7352941 10.848,30 11.1750588,30 L16.6585882,30 C16.9844706,30 17.2503529,29.7352941 17.2503529,29.4094118 M29.4727059,29.4094118 L29.4727059,10.5917647 C29.4727059,10.2658824 29.208,10 28.8809412,10 L23.3974118,10 C23.0703529,10 22.8056471,10.2658824 22.8056471,10.5917647 L22.8056471,29.4094118 C22.8056471,29.7352941 23.0703529,30 23.3974118,30 L28.8809412,30 C29.208,30 29.4727059,29.7352941 29.4727059,29.4094118" id="Fill-1"></path>
        </g>
    </g>
</svg>