<?xml version="1.0" encoding="UTF-8"?>
<svg width="40px" height="40px" viewBox="0 0 40 40" version="1.1" xmlns="http://www.w3.org/2000/svg" xmlns:xlink="http://www.w3.org/1999/xlink">
    <!-- Generator: sketchtool 47.1 (45422) - http://www.bohemiancoding.com/sketch -->
    <title>0710AD46-A6D0-4F5B-9C2F-16EF833A1BFC</title>
    <desc>Created with sketchtool.</desc>
    <defs></defs>
    <g id="Symbols" stroke="none" stroke-width="1" fill="none" fill-rule="evenodd">
        <g id="Validated" transform="translate(-489.000000, -331.000000)"></g>
        <g id="Device/Audio/Repeat-ON" fill="#00AAE1">
            <path d="M15.6067,30.1101 C15.6067,30.2221 15.5707,30.3141 15.5007,30.3861 C15.4267,30.4581 15.3357,30.4941 15.2237,30.4941 C15.1277,30.4941 15.0317,30.4551 14.9357,30.3741 L11.1087,26.5471 C11.0367,26.4741 11.0007,26.3821 11.0007,26.2711 C11.0007,26.1591 11.0367,26.0671 11.1087,25.9951 L14.9477,22.1551 C15.0197,22.0841 15.1117,22.0471 15.2237,22.0471 C15.3277,22.0471 15.4177,22.0861 15.4937,22.1621 C15.5697,22.2371 15.6067,22.3281 15.6067,22.4311 L15.6067,24.7351 L25.6457,24.7351 L25.6457,21.0401 L28.7127,17.9631 L28.7127,26.4121 C28.7127,27.1821 28.0877,27.8061 27.3177,27.8061 L15.6067,27.8061 L15.6067,30.1101 Z M24.1057,12.6873 L24.1057,10.3833 C24.1057,10.2723 24.1417,10.1793 24.2127,10.1083 C24.2867,10.0363 24.3767,9.9993 24.4897,9.9993 C24.5847,9.9993 24.6807,10.0403 24.7777,10.1203 L28.6047,13.9473 C28.6767,14.0193 28.7127,14.1113 28.7127,14.2223 C28.7127,14.3343 28.6767,14.4273 28.6047,14.4993 L24.7657,18.3383 C24.6937,18.4113 24.6017,18.4473 24.4897,18.4473 C24.3857,18.4473 24.2957,18.4083 24.2197,18.3323 C24.1437,18.2563 24.1057,18.1663 24.1057,18.0623 L24.1057,15.7583 L14.0677,15.7583 L14.0677,19.4463 L11.0007,22.5303 L11.0007,14.0823 C11.0007,13.3123 11.6257,12.6873 12.3947,12.6873 L24.1057,12.6873 Z" id="Combined-Shape"></path>
        </g>
    </g>
</svg>