<?xml version="1.0" encoding="UTF-8"?>
<svg width="40px" height="40px" viewBox="0 0 40 40" version="1.1" xmlns="http://www.w3.org/2000/svg" xmlns:xlink="http://www.w3.org/1999/xlink">
    <!-- Generator: sketchtool 47.1 (45422) - http://www.bohemiancoding.com/sketch -->
    <title>4E8688B6-6018-41D6-9E28-57FAFF9305D0</title>
    <desc>Created with sketchtool.</desc>
    <defs></defs>
    <g id="Symbols" stroke="none" stroke-width="1" fill="none" fill-rule="evenodd">
        <g id="Validated" transform="translate(-380.000000, -331.000000)"></g>
        <g id="Device/Audio/Shuffle-ON" fill="#00AAE1">
            <path d="M18.8623,21.1985 C18.6313,21.7255 18.4323,22.1695 18.2683,22.5295 C18.1043,22.8895 17.8883,23.3095 17.6203,23.7895 C17.3533,24.2695 17.0963,24.6695 16.8533,24.9895 C16.6093,25.3085 16.3133,25.6405 15.9663,25.9845 C15.6173,26.3295 15.2573,26.6025 14.8853,26.8065 C14.5133,27.0105 14.0873,27.1785 13.6073,27.3105 C13.1283,27.4425 12.6163,27.5095 12.0723,27.5095 L9.3843,27.5095 C9.2723,27.5095 9.1803,27.4725 9.1083,27.4015 C9.0373,27.3295 9.0003,27.2375 9.0003,27.1255 L9.0003,24.8215 C9.0003,24.7095 9.0363,24.6175 9.1073,24.5455 C9.1793,24.4725 9.2713,24.4375 9.3833,24.4375 L12.0723,24.4375 C12.4563,24.4375 12.8033,24.3785 13.1153,24.2575 C13.4263,24.1375 13.7033,23.9585 13.9433,23.7185 C14.1823,23.4775 14.3863,23.2315 14.5553,22.9795 C14.7223,22.7275 14.9033,22.4175 15.0943,22.0505 C15.3503,21.5535 15.6623,20.8705 16.0303,19.9985 C16.2623,19.4695 16.4613,19.0265 16.6253,18.6665 C16.7883,18.3065 17.0043,17.8855 17.2723,17.4065 C17.5403,16.9275 17.7973,16.5265 18.0403,16.2075 C18.2843,15.8865 18.5803,15.5545 18.9273,15.2115 C19.2753,14.8675 19.6353,14.5935 20.0083,14.3895 C20.3803,14.1855 20.8053,14.0165 21.2853,13.8865 C21.7653,13.7535 22.2773,13.6865 22.8213,13.6865 L25.8923,13.6865 L25.8923,11.3845 C25.8923,11.2715 25.9283,11.1795 26.0003,11.1075 C26.0733,11.0355 26.1643,11.0005 26.2763,11.0005 C26.3723,11.0005 26.4683,11.0395 26.5643,11.1205 L30.3913,14.9465 C30.4643,15.0195 30.5003,15.1115 30.5003,15.2225 C30.5003,15.3355 30.4643,15.4275 30.3913,15.4995 L26.5523,19.3395 C26.4803,19.4105 26.3883,19.4465 26.2763,19.4465 C26.1733,19.4465 26.0833,19.4085 26.0073,19.3325 C25.9303,19.2575 25.8923,19.1665 25.8923,19.0625 L25.8923,16.7595 L22.8213,16.7595 C22.4373,16.7595 22.0893,16.8185 21.7783,16.9385 C21.4663,17.0585 21.1903,17.2395 20.9503,17.4785 C20.7103,17.7195 20.5063,17.9645 20.3383,18.2165 C20.1703,18.4695 19.9903,18.7785 19.7983,19.1465 C19.5423,19.6415 19.2303,20.3255 18.8623,21.1985 Z M9.3838,16.759 C9.2718,16.759 9.1798,16.723 9.1078,16.651 C9.0358,16.579 8.9998,16.487 8.9998,16.374 L8.9998,14.071 C8.9998,13.959 9.0358,13.867 9.1078,13.796 C9.1798,13.724 9.2718,13.688 9.3838,13.688 L12.0718,13.688 C14.0708,13.688 15.7108,14.587 16.9898,16.387 C16.5108,17.122 15.9628,18.215 15.3468,19.662 C15.1708,19.303 15.0228,19.012 14.9028,18.792 C14.7818,18.572 14.6208,18.319 14.4168,18.03 C14.2128,17.742 14.0088,17.517 13.8058,17.353 C13.6018,17.189 13.3498,17.048 13.0488,16.933 C12.7488,16.817 12.4238,16.759 12.0718,16.759 L9.3838,16.759 Z M26.5644,21.8704 L30.3914,25.6974 C30.4634,25.7684 30.5004,25.8604 30.5004,25.9734 C30.5004,26.0854 30.4634,26.1774 30.3924,26.2484 L26.5524,30.0884 C26.4814,30.1604 26.3894,30.1964 26.2774,30.1964 C26.1724,30.1964 26.0834,30.1584 26.0064,30.0824 C25.9304,30.0064 25.8924,29.9164 25.8924,29.8114 L25.8924,27.5084 C25.6364,27.5084 25.2964,27.5104 24.8734,27.5154 C24.4494,27.5184 24.1254,27.5224 23.9014,27.5264 C23.6764,27.5304 23.3854,27.5264 23.0254,27.5154 C22.6654,27.5024 22.3804,27.4824 22.1734,27.4544 C21.9654,27.4264 21.7104,27.3854 21.4054,27.3284 C21.1024,27.2724 20.8504,27.1984 20.6494,27.1064 C20.4504,27.0144 20.2174,26.9004 19.9544,26.7654 C19.6894,26.6294 19.4544,26.4694 19.2464,26.2844 C19.0384,26.1004 18.8174,25.8874 18.5854,25.6424 C18.3534,25.3994 18.1304,25.1214 17.9154,24.8084 C18.3864,24.0654 18.9294,22.9744 19.5454,21.5344 C19.7214,21.8934 19.8704,22.1834 19.9904,22.4034 C20.1094,22.6244 20.2714,22.8784 20.4754,23.1654 C20.6794,23.4534 20.8834,23.6804 21.0874,23.8434 C21.2914,24.0084 21.5434,24.1474 21.8434,24.2634 C22.1434,24.3804 22.4684,24.4374 22.8214,24.4374 L25.8924,24.4374 L25.8924,22.1344 C25.8924,22.0214 25.9284,21.9304 26.0014,21.8574 C26.0724,21.7864 26.1644,21.7504 26.2764,21.7504 C26.3734,21.7504 26.4684,21.7904 26.5644,21.8704 Z" id="Combined-Shape"></path>
        </g>
    </g>
</svg>