<?xml version="1.0" encoding="UTF-8"?>
<svg width="40px" height="40px" viewBox="0 0 40 40" version="1.1" xmlns="http://www.w3.org/2000/svg" xmlns:xlink="http://www.w3.org/1999/xlink">
    <!-- Generator: sketchtool 47.1 (45422) - http://www.bohemiancoding.com/sketch -->
    <title>5643A646-06D1-4548-9F49-BD79467119D3</title>
    <desc>Created with sketchtool.</desc>
    <defs></defs>
    <g id="Symbols" stroke="none" stroke-width="1" fill="none" fill-rule="evenodd">
        <g id="Validated" transform="translate(-436.000000, -331.000000)"></g>
        <g id="Device/Audio/Shuffle-OFF" fill="#FFFFFF" opacity="0.3">
            <path d="M19.0915788,21.0939263 C18.8552133,21.6155481 18.6515911,22.055017 18.4837818,22.411343 C18.3159726,22.7676691 18.0949555,23.1833829 17.8207306,23.6584844 C17.5475289,24.1335858 17.2845595,24.5295037 17.0359153,24.846238 C16.7862478,25.1619825 16.4833726,25.4905943 16.1283127,25.8310837 C15.7712064,26.1725629 15.4028446,26.4427768 15.022204,26.644695 C14.6415635,26.8466131 14.2056687,27.0128986 13.7145196,27.1435515 C13.2243937,27.2742044 12.7005014,27.3405206 12.1438658,27.3405206 L9.39343088,27.3405206 C9.27882943,27.3405206 9.18469252,27.3038982 9.11102016,27.2336228 C9.03837102,27.1623576 9.00051161,27.0712965 9.00051161,26.9604395 L9.00051161,24.6799525 C9.00051161,24.5690955 9.03734779,24.4780344 9.10999693,24.4067692 C9.18366929,24.3345141 9.2778062,24.2998713 9.39240765,24.2998713 L12.1438658,24.2998713 C12.536785,24.2998713 12.8918449,24.2414734 13.2110918,24.1217083 C13.5293155,24.0029329 13.8127494,23.8257597 14.058324,23.5882089 C14.3028753,23.3496684 14.5116136,23.1061789 14.684539,22.8567507 C14.855418,22.6073224 15.0406221,22.300486 15.2360585,21.9372314 C15.4980047,21.4453034 15.8172516,20.7692736 16.1937992,19.9061727 C16.431188,19.3825713 16.6348102,18.9440922 16.8026195,18.5877661 C16.9694055,18.23144 17.1904226,17.8147365 17.4646475,17.3406248 C17.7388724,16.8665132 18.0018418,16.4696055 18.250486,16.153861 C18.5001535,15.8361369 18.8030288,15.507525 19.1580886,15.1680255 C19.5141717,14.8275361 19.8825335,14.5563323 20.2641973,14.3544142 C20.6448378,14.1524961 21.0797094,13.9852208 21.5708585,13.8565475 C22.0620076,13.7249048 22.5858999,13.6585886 23.1425356,13.6585886 L26.2848665,13.6585886 L26.2848665,11.3800812 C26.2848665,11.2682344 26.3217027,11.1771733 26.395375,11.105908 C26.4700706,11.0346428 26.5631843,11 26.6777857,11 C26.7760156,11 26.8742454,11.038602 26.9724752,11.1187754 L30.8883659,14.9057299 C30.9630615,14.9779849 30.9998977,15.069046 30.9998977,15.1789132 C30.9998977,15.29076 30.9630615,15.3818211 30.8883659,15.4530863 L26.9601965,19.253898 C26.8865241,19.3241734 26.7923872,19.359806 26.6777857,19.359806 C26.5723933,19.359806 26.4803029,19.3221938 26.4025376,19.2469694 C26.3237491,19.1727348 26.2848665,19.0826635 26.2848665,18.9797248 L26.2848665,16.7002277 L23.1425356,16.7002277 C22.7496163,16.7002277 22.3935332,16.7586255 22.0753095,16.8774009 C21.7560626,16.9961763 21.4736519,17.1753291 21.2280774,17.41189 C20.9825028,17.6504306 20.7737645,17.8929303 20.6018623,18.1423585 C20.4299601,18.3927766 20.2457792,18.6986231 20.0493196,19.0628676 C19.7873734,19.552816 19.4681265,20.2298355 19.0915788,21.0939263 Z M9.39291927,16.6997328 C9.27831781,16.6997328 9.18418091,16.6641001 9.11050854,16.5928349 C9.03683618,16.5215697 9,16.4305086 9,16.3186618 L9,14.0391646 C9,13.9283076 9.03683618,13.8372465 9.11050854,13.7669711 C9.18418091,13.6957059 9.27831781,13.6600732 9.39291927,13.6600732 L12.1433541,13.6600732 C14.1887854,13.6600732 15.8668781,14.5498987 17.1755858,16.3315291 C16.6854599,17.0590282 16.1247314,18.1408738 15.4944234,19.5731068 C15.3143354,19.2177705 15.1628978,18.9297402 15.0401105,18.7119854 C14.9163,18.4942305 14.7515604,18.2438125 14.5428221,17.9577618 C14.3340837,17.6727009 14.1253453,17.4499971 13.9176302,17.2876708 C13.7088918,17.1253445 13.4510386,16.9857834 13.1430472,16.871957 C12.836079,16.7571408 12.5035301,16.6997328 12.1433541,16.6997328 L9.39291927,16.6997328 Z M26.9725775,21.7589694 L30.8884682,25.5469137 C30.9621406,25.6171891 31,25.7082502 31,25.820097 C31,25.930954 30.9621406,26.0220151 30.8894915,26.0922905 L26.9602988,29.8931022 C26.8876496,29.9643674 26.7935127,30 26.6789113,30 C26.5714724,30 26.4804052,29.9623878 26.4016167,29.8871634 C26.3238514,29.811939 26.2849688,29.7228575 26.2849688,29.618929 L26.2849688,27.3394319 C26.0230226,27.3394319 25.6751253,27.3414114 25.2423002,27.3463604 C24.8084519,27.3493298 24.4769262,27.353289 24.2477233,27.3572482 C24.0174972,27.3612073 23.7197381,27.3572482 23.3513762,27.3463604 C22.9830144,27.3334931 22.6913947,27.3136972 22.4795866,27.2859829 C22.2667553,27.2582687 22.0058324,27.2176871 21.6937481,27.1612688 C21.3837102,27.1058403 21.125857,27.0325955 20.9201883,26.9415344 C20.716566,26.8504733 20.4781541,26.7376367 20.2090453,26.6040144 C19.9378901,26.4694023 19.6974317,26.3110352 19.4846004,26.1279232 C19.2717692,25.9458009 19.0456359,25.7349747 18.8082472,25.492475 C18.5708585,25.2519548 18.3426788,24.9767919 18.1226849,24.6669862 C18.604625,23.9315687 19.1602374,22.8517027 19.7905454,21.4263983 C19.9706334,21.7817346 20.1230942,22.0687751 20.2458815,22.2865299 C20.3676456,22.5052746 20.5334084,22.7566824 20.7421467,23.0407535 C20.9508851,23.3258144 21.1596235,23.5504978 21.3683618,23.7118343 C21.5771002,23.8751504 21.8349534,24.0127319 22.1419216,24.1275481 C22.4488898,24.243354 22.7814387,24.2997723 23.1426379,24.2997723 L26.2849688,24.2997723 L26.2849688,22.0202752 C26.2849688,21.9084284 26.321805,21.818357 26.3965006,21.746102 C26.4691497,21.6758266 26.5632866,21.640194 26.6778881,21.640194 C26.7771411,21.640194 26.8743477,21.6797858 26.9725775,21.7589694 Z" id="Combined-Shape"></path>
        </g>
    </g>
</svg>