<?xml version="1.0" encoding="UTF-8"?>
<svg width="40px" height="40px" viewBox="0 0 40 40" version="1.1" xmlns="http://www.w3.org/2000/svg" xmlns:xlink="http://www.w3.org/1999/xlink">
    <!-- Generator: sketchtool 45.2 (43514) - http://www.bohemiancoding.com/sketch -->
    <title>BBD74CC8-AA3A-4D4D-8DD8-F662AD893B16</title>
    <desc>Created with sketchtool.</desc>
    <defs></defs>
    <g id="DASHBOARD" stroke="none" stroke-width="1" fill="none" fill-rule="evenodd">
        <g id="button-s/close-grey" fill="#00AAE1">
            <path d="M23.3243274,21.9072664 L29.4884086,28.0713476 C29.8772058,28.4601448 29.8785283,29.089187 29.4852814,29.4824339 C29.0947571,29.8729582 28.4636274,29.8749935 28.074195,29.4855611 L21.9104705,23.3218366 C20.5551777,24.3759843 18.8518434,25.0037658 17.0018829,25.0037658 C12.582565,25.0037658 9,21.4212008 9,17.0018829 C9,12.582565 12.582565,9 17.0018829,9 C21.4212008,9 25.0037658,12.582565 25.0037658,17.0018829 C25.0037658,18.8503859 24.3769731,20.5524936 23.3243274,21.9072664 Z M17.0024598,23.003295 C20.3169482,23.003295 23.003872,20.3163713 23.003872,17.0018829 C23.003872,13.6873945 20.3169482,11.0004707 17.0024598,11.0004707 C13.6879714,11.0004707 11.0010477,13.6873945 11.0010477,17.0018829 C11.0010477,20.3163713 13.6879714,23.003295 17.0024598,23.003295 Z" id="Search-Icon"></path>
        </g>
    </g>
</svg>