<?xml version="1.0" encoding="UTF-8"?>
<svg width="40px" height="40px" viewBox="0 0 40 40" version="1.1" xmlns="http://www.w3.org/2000/svg" xmlns:xlink="http://www.w3.org/1999/xlink">
    <!-- Generator: sketchtool 47.1 (45422) - http://www.bohemiancoding.com/sketch -->
    <title>B3109542-1B78-4D21-B333-6B6D91350467</title>
    <desc>Created with sketchtool.</desc>
    <defs></defs>
    <g id="Symbols" stroke="none" stroke-width="1" fill="none" fill-rule="evenodd">
        <g id="Original-Icons/Groups/lights-on">
            <rect id="Rectangle" x="0" y="0" width="40" height="40"></rect>
            <g id="Group-74">
                <rect id="Rectangle" x="0" y="0" width="40" height="40"></rect>
                <path d="M13.5413015,27.7850518 C11.1985101,27.7850518 9.30006573,25.9247136 9.30006573,23.632024 C9.30006573,21.3388798 11.1985101,19.4794508 13.5413015,19.4794508 C15.8826687,19.4794508 17.7811131,21.3388798 17.7811131,23.632024 C17.7811131,25.9247136 15.8826687,27.7850518 13.5413015,27.7850518 M16.5510882,18.0123659 L16.5510882,15.5578287 C16.5510882,15.2491362 16.2961583,15 15.9833114,15 L11.0181128,15 C10.701468,15 10.4470129,15.2491362 10.4470129,15.5578287 L10.4470129,18.0132751 C8.39618025,19.0839243 7,21.1974905 7,23.632024 C7,27.1494817 9.91056822,30 13.5004747,30 C17.0899065,30 20,27.1494817 20,23.632024 C20,21.1965812 18.6019208,19.0821058 16.5510882,18.0123659" id="Fill-63" fill="#FFFFFF"></path>
                <polygon id="Fill-64" fill="#FFFFFF" points="3 30.7588576 7.25847266 27 8 28.2427528 3.74288296 32"></polygon>
                <polygon id="Fill-65" fill="#FFFFFF" points="9 36.5656375 10.7255873 31 12 31.4343625 10.2744127 37"></polygon>
                <polygon id="Fill-66" fill="#FFFFFF" points="17.7260668 37 16 31.434398 17.2748921 31 19 36.5660934"></polygon>
                <polygon id="Fill-67" fill="#FFFFFF" points="24.2573184 32 20 28.2407388 20.7435851 27 25 30.7581875"></polygon>
                <polygon id="Fill-68" fill="#FFFFFF" points="5.99904215 23 1 23 1 22 6 22"></polygon>
                <polygon id="Fill-69" fill="#FFFFFF" points="21 23 26 23 26 22 21 22"></polygon>
                <polygon id="Fill-70" fill="#FFFFFF" points="34 13 39 13 39 12 34 12"></polygon>
                <polygon id="Fill-71" fill="#FFFFFF" points="37.2573855 22 33 18.2402019 33.7435179 17 38 20.7581875"></polygon>
                <polygon id="Fill-72" fill="#FFFFFF" points="30.725791 26 29 20.434398 30.2746884 20 32 25.565602"></polygon>
                <path d="M26.5417762,16.7854393 C24.1985101,16.7854393 22.3000657,14.9250447 22.3000657,12.6322856 C22.3000657,10.3386173 24.1985101,8.47913194 26.5417762,8.47913194 C28.8826687,8.47913194 30.7811131,10.3386173 30.7811131,12.6322856 C30.7811131,14.9250447 28.8826687,16.7854393 26.5417762,16.7854393 M29.5510882,7.01200255 L29.5510882,4.5578456 C29.5510882,4.24868912 29.2961583,4 28.9833114,4 L24.0181128,4 C23.701468,4 23.4470129,4.24868912 23.4470129,4.5578456 L23.4470129,7.01291183 C21.3961803,8.08359349 20,10.1972237 20,12.6322856 C20,16.1493953 22.9105682,19 26.5004747,19 C30.0899065,19 33,16.1493953 33,12.6322856 C33,10.196769 31.6019208,8.08177492 29.5510882,7.01200255" id="Fill-73" fill="#FFFFFF"></path>
            </g>
        </g>
    </g>
</svg>