<svg xmlns="http://www.w3.org/2000/svg" width="40" height="40" viewBox="0 0 40 40">
    <g fill="none" fill-rule="evenodd">
        <path d="M0 0h40v40H0z"/>
        <path fill="#FFF" d="M17.005 31.49l8.036.049 2.093-5.82c.42-1.46.65-3.25.65-4.725 0-.175-.003-.344-.009-.509l-.002-.014v-6.626c-.312-.265-.655-.4-1.014-.4-.358 0-.702.135-1.017.4v4.973c0 .13-.056.253-.16.344a.588.588 0 0 1-.776 0 .462.462 0 0 1-.16-.344V10.48c-.26-.262-.7-.426-1.074-.422-.354.005-.639.123-.957.402v7.38c0 .125-.06.25-.161.343a.593.593 0 0 1-.388.141.594.594 0 0 1-.386-.141.466.466 0 0 1-.162-.343v-8.89c-.312-.257-.716-.406-1.076-.402a1.58 1.58 0 0 0-1.075.437v8.88c0 .124-.06.252-.161.344a.605.605 0 0 1-.777 0 .479.479 0 0 1-.16-.345v-7.447c-.312-.268-.659-.405-1.014-.405-.361 0-.761.149-1.076.405v11.996a.49.49 0 0 1-.329.447.597.597 0 0 1-.59-.09l-.951-.774a.472.472 0 0 1-.176-.356v-4.223c-.314-.27-.666-.407-.955-.402-.29-.005-.641.132-.958.402v7.169c-.025.748.789 1.821 1.465 2.72l3.32 4.185zm9.122 2.6l-9.827-.059a.652.652 0 0 1-.504-.234l-3.924-4.944-.011-.02c-.708-.997-1.83-2.25-1.861-3.674v-8.296c0-.132.055-.262.156-.36.56-.566 1.314-.964 2.16-.968.839.004 1.585.397 2.144.953v-7.51c0-.133.055-.258.152-.36a3.27 3.27 0 0 1 2.296-.968c.409 0 .793.083 1.142.227v-.492c0-.122.046-.24.13-.337A3.1 3.1 0 0 1 20.497 6a3.268 3.268 0 0 1 2.295.965l-.465.362.465-.362a.505.505 0 0 1 .153.362v.586a2.728 2.728 0 0 1 1.079-.212c.876.005 1.787.367 2.338 1.081.07.09.105.196.105.31v2.651a3.002 3.002 0 0 1 1.146-.228c.888 0 1.672.396 2.228.969.097.099.15.23.15.36v7.664c.007.197.012.398.012.606 0 1.763-.266 3.85-.772 5.613l-.01.03-2.502 6.952a.618.618 0 0 1-.587.381h-.005z"/>
    </g>
</svg>
