<?xml version="1.0" encoding="UTF-8"?>
<svg width="40px" height="40px" viewBox="0 0 40 40" version="1.1" xmlns="http://www.w3.org/2000/svg" xmlns:xlink="http://www.w3.org/1999/xlink">
    <!-- Generator: sketchtool 48.2 (47327) - http://www.bohemiancoding.com/sketch -->
    <title>11EC1A53-53A9-48B0-BEDD-0AFA1244DF55</title>
    <desc>Created with sketchtool.</desc>
    <defs>
        <polygon id="path-1" points="32 26.8372 32 0.0002 0.0008 0.0002 0.0008 26.8372"></polygon>
    </defs>
    <g id="Symbols" stroke="none" stroke-width="1" fill="none" fill-rule="evenodd">
        <g id="Original-Icons/heat-protection">
            <g id="Page-1" transform="translate(4.000000, 5.000000)">
                <mask id="mask-2" fill="white">
                    <use xlink:href="#path-1"></use>
                </mask>
                <g id="Clip-2"></g>
                <path d="M26.0228,17.6182 L24.2108,16.2022 C23.6538,16.4302 23.1668,16.7982 22.7958,17.2722 C22.2258,18.0032 21.9728,18.9122 22.0858,19.8322 C22.2478,21.1392 21.8888,22.4312 21.0778,23.4702 C20.2668,24.5082 19.0998,25.1682 17.7928,25.3282 L17.5498,25.3582 L17.3728,23.9082 L17.6138,23.8782 C18.5338,23.7652 19.3548,23.3012 19.9258,22.5702 C20.4968,21.8402 20.7498,20.9312 20.6358,20.0102 C20.4748,18.7032 20.8338,17.4112 21.6448,16.3722 C22.0058,15.9092 22.4428,15.5202 22.9438,15.2122 L21.5298,14.1082 L26.5048,12.3692 L26.0228,17.6182 Z M12.9148,21.5322 L12.6728,21.5612 L12.4958,20.1112 L12.7368,20.0812 C13.6578,19.9682 14.4778,19.5042 15.0488,18.7732 C15.6198,18.0422 15.8728,17.1332 15.7588,16.2132 C15.5978,14.9052 15.9568,13.6132 16.7678,12.5752 C17.1298,12.1122 17.5658,11.7222 18.0668,11.4152 L16.6528,10.3112 L21.6278,8.5722 L21.1458,13.8212 L19.3338,12.4052 C18.7768,12.6332 18.2898,13.0012 17.9188,13.4752 C17.3488,14.2052 17.0968,15.1152 17.2098,16.0352 C17.3698,17.3432 17.0118,18.6352 16.2008,19.6732 C15.3898,20.7112 14.2228,21.3712 12.9148,21.5322 Z M8.0648,17.7432 L7.8228,17.7722 L7.6448,16.3212 L7.8868,16.2912 C8.8068,16.1792 9.6278,15.7142 10.1988,14.9842 C10.7698,14.2532 11.0218,13.3442 10.9088,12.4242 C10.7488,11.1162 11.1068,9.8242 11.9178,8.7852 C12.2798,8.3222 12.7148,7.9332 13.2158,7.6262 L11.8018,6.5212 L16.7788,4.7832 L16.2958,10.0322 L14.4828,8.6162 C13.9268,8.8442 13.4398,9.2112 13.0688,9.6862 C12.4988,10.4162 12.2468,11.3262 12.3598,12.2452 C12.5198,13.5542 12.1618,14.8462 11.3508,15.8842 C10.5398,16.9222 9.3728,17.5822 8.0648,17.7432 Z M15.9998,0.0002 L0.0008,12.8372 L1.9998,12.8372 L1.9998,26.8372 L30.0008,26.8372 L30.0008,12.8372 L32.0008,12.8372 L15.9998,0.0002 Z" id="Fill-1" fill="#FFFFFF" mask="url(#mask-2)"></path>
            </g>
        </g>
    </g>
</svg>