<svg xmlns="http://www.w3.org/2000/svg" width="40" height="40" viewBox="0 0 40 40">
    <path fill="#FFF" fill-rule="evenodd" d="M36.746 12.949h-2.44a.873.873 0 0 0-.877.876c0 .483.392.876.876.876h2.44a.876.876 0 1 0 0-1.752zM21.622 9.448a.877.877 0 0 0 1.24-1.24l-1.726-1.725a.873.873 0 0 0-1.24 0 .876.876 0 0 0 0 1.238l1.726 1.727zm11.233 8.754a.873.873 0 0 0-1.24 0 .876.876 0 0 0 0 1.239l1.726 1.726a.876.876 0 1 0 1.24-1.24l-1.726-1.725zm0-8.755l1.726-1.726a.875.875 0 1 0-1.24-1.238l-1.725 1.725a.873.873 0 0 0 0 1.24.876.876 0 0 0 1.239 0zm-5.617-1.813a.876.876 0 0 0 .876-.876v-2.44a.876.876 0 0 0-1.751 0v2.44a.873.873 0 0 0 .876.876zm1.34 10.227a4.253 4.253 0 1 0-5.382-5.358l.006.004a14.556 14.556 0 0 1 5.375 5.354zM8.447 9.966l.024-.351a.354.354 0 0 0-.331-.38c-.361-.021-.726-.034-1.09-.04a.355.355 0 0 0-.357.357v.352c0 .194.155.35.349.352.344.005.69.017 1.03.037.194.01.36-.134.374-.327zm6.206 1.263l.115-.333a.355.355 0 0 0-.223-.453c-.806-.265-1.63-.49-2.459-.67a.355.355 0 0 0-.422.277l-.07.346a.353.353 0 0 0 .271.414c.79.173 1.576.387 2.344.639a.352.352 0 0 0 .444-.22zm5.666 2.82l.197-.293a.355.355 0 0 0-.098-.496 25.403 25.403 0 0 0-2.204-1.28.355.355 0 0 0-.479.158l-.157.316a.352.352 0 0 0 .156.47c.717.37 1.421.78 2.1 1.222a.352.352 0 0 0 .485-.098zm4.757 4.177l.265-.232a.355.355 0 0 0 .03-.505 25.426 25.426 0 0 0-1.802-1.801.355.355 0 0 0-.503.03l-.233.265a.353.353 0 0 0 .03.495c.6.542 1.175 1.119 1.718 1.718.13.144.35.158.495.03zm3.532 5.256l.315-.157a.356.356 0 0 0 .16-.48 25.397 25.397 0 0 0-1.283-2.203.355.355 0 0 0-.495-.099l-.293.196a.352.352 0 0 0-.097.487c.442.678.851 1.382 1.222 2.1a.352.352 0 0 0 .47.156zm2.06 5.989l.345-.07c.193-.04.32-.23.277-.422a25.192 25.192 0 0 0-.67-2.462.356.356 0 0 0-.453-.223l-.333.115a.353.353 0 0 0-.22.445c.252.769.466 1.555.639 2.345.041.19.225.31.415.272zm1.199 4.541a26.169 26.169 0 0 0-.039-1.09.355.355 0 0 0-.38-.33l-.352.024a.352.352 0 0 0-.326.374c.019.342.031.687.036 1.03.003.195.159.35.352.35h.353c.197 0 .358-.16.356-.358zM2.378 35.09l14.512-.001 1.671-2.427H4.051L2.378 35.09zm0-3.507H16.89l1.671-2.427H4.051l-1.673 2.427zm0-3.506h14.52l1.663-2.428H3.971l-1.593 2.428zm14.544-3.507H2.378l1.64-2.427H18.56l-1.64 2.427z" opacity=".3"/>
</svg>
