<?xml version="1.0" encoding="UTF-8"?>
<svg width="40px" height="40px" viewBox="0 0 40 40" version="1.1" xmlns="http://www.w3.org/2000/svg" xmlns:xlink="http://www.w3.org/1999/xlink">
    <!-- Generator: sketchtool 48.2 (47327) - http://www.bohemiancoding.com/sketch -->
    <title>E4466C9E-6C73-4FB8-BB18-0D8ED279EF74</title>
    <desc>Created with sketchtool.</desc>
    <defs></defs>
    <g id="Symbols" stroke="none" stroke-width="1" fill="none" fill-rule="evenodd">
        <g id="Original-Icons/weather-auto" fill="#FFFFFF">
            <path d="M36.7456738,12.9486747 L34.3051922,12.9486747 C34.0627984,12.9486747 33.8441405,13.0464953 33.6855415,13.2050943 C33.5269426,13.3636932 33.4287623,13.5827108 33.4287623,13.824745 C33.4287623,14.3084537 33.8211238,14.7008153 34.3051922,14.7008153 L36.7456738,14.7008153 C37.2297422,14.7008153 37.6221037,14.3088134 37.6221037,13.824745 C37.6221037,13.3406766 37.2297422,12.9486747 36.7456738,12.9486747 Z M21.6223124,9.44763019 C21.9646847,9.79000249 22.5188819,9.78964286 22.8616139,9.44798983 C23.2036265,9.10561752 23.2036265,8.55106071 22.8616139,8.20868841 L21.1357266,6.48280115 C20.9645405,6.311615 20.740488,6.22602192 20.5160759,6.22602192 C20.2920234,6.22602192 20.067971,6.311615 19.8964252,6.48244151 C19.5544125,6.82481381 19.5544125,7.37937063 19.8964252,7.72138329 L21.6223124,9.44763019 Z M32.8547852,18.2018598 C32.6835991,18.0306736 32.4595466,17.9454402 32.2354941,17.9454402 C32.011082,17.9454402 31.7870296,18.0306736 31.6158434,18.2018598 C31.2734711,18.5438724 31.2734711,19.0984292 31.6158434,19.4408015 L33.3413711,21.1666888 C33.6837434,21.5090611 34.2383002,21.5090611 34.5803128,21.1666888 C34.9230448,20.8246761 34.9230448,20.2701193 34.5803128,19.927747 L32.8547852,18.2018598 Z M32.8547852,9.44727056 L34.5806725,7.72138329 C34.9230448,7.37937063 34.9230448,6.82481381 34.5806725,6.48280115 C34.2386598,6.14042885 33.6837434,6.14042885 33.3417307,6.48280115 L31.6158434,8.20832877 C31.4446573,8.37951492 31.3590642,8.60356739 31.3590642,8.82797948 C31.3590642,9.05203194 31.4446573,9.27644404 31.6158434,9.44727056 C31.9578561,9.78964286 32.5124129,9.78964286 32.8547852,9.44727056 Z M27.238369,7.63435168 C27.7224374,7.63435168 28.1144393,7.24234978 28.1144393,6.75828138 L28.1147989,4.3174402 C28.1147989,3.8333718 27.7224374,3.4413699 27.238369,3.4413699 C26.7550199,3.4413699 26.3626583,3.8333718 26.3626583,4.3174402 L26.3622987,6.75828138 C26.3622987,7.00031558 26.460479,7.21933316 26.6190779,7.37757245 C26.7773172,7.53617139 26.9966944,7.63435168 27.238369,7.63435168 Z M28.5772893,17.8605664 C30.2704498,17.2991765 31.4928483,15.7059945 31.4928483,13.824745 C31.4928483,11.4748914 29.5882226,9.57026565 27.238369,9.57026565 C25.3506461,9.57026565 23.7527888,10.8009358 23.1964338,12.5027276 C23.198232,12.5041661 23.2000302,12.5056046 23.2018284,12.5070432 C25.4337217,13.783387 27.2923142,15.6344271 28.5772893,17.8605664 Z M8.44709265,9.96622353 L8.47226708,9.61450072 C8.48629284,9.4177805 8.33776368,9.24551545 8.14068383,9.23436677 C7.77961052,9.21386759 7.41494086,9.20092074 7.05135011,9.19588585 C6.85427026,9.19300877 6.69351351,9.35448478 6.69351351,9.55156464 L6.69351351,9.90400671 C6.69351351,10.0978499 6.84887573,10.2535717 7.04271887,10.2564488 C7.38724898,10.261124 7.73213873,10.2733516 8.07379176,10.2927719 C8.26727527,10.3035609 8.4330669,10.1593474 8.44709265,9.96622353 Z M14.6543888,11.2292608 L14.7694719,10.8958794 C14.8334869,10.709229 14.7338681,10.5042371 14.5461387,10.4427396 C13.7401972,10.178408 12.9159143,9.95363631 12.0869562,9.77274002 C11.8938323,9.73066275 11.7039451,9.85689456 11.6647449,10.0500184 L11.5942565,10.3956274 C11.5557756,10.585155 11.6773322,10.7685687 11.8661404,10.8099267 C12.6566176,10.982911 13.44206,11.1968937 14.2102398,11.4486381 C14.3940132,11.5086971 14.5914527,11.4123149 14.6543888,11.2292608 Z M20.3204346,14.0484378 L20.5171548,13.7556951 C20.6275627,13.5917016 20.5836872,13.3680088 20.4186149,13.2601184 C19.7068977,12.7969088 18.9682078,12.3675049 18.2154923,11.9790993 C18.0399905,11.888831 17.82385,11.9614772 17.7360991,12.1384175 L17.5789387,12.4538172 C17.492986,12.6271612 17.5627552,12.8353897 17.7350202,12.9242195 C18.4524916,13.2946433 19.1562968,13.7042673 19.834568,14.1455392 C19.9967633,14.2512718 20.2125441,14.2088349 20.3204346,14.0484378 Z M25.076964,18.2263149 L25.3416552,17.9936312 C25.4898248,17.8634434 25.5049294,17.6357946 25.3725838,17.4894233 C24.8036416,16.8600624 24.1990956,16.2562357 23.570454,15.6876531 C23.4244423,15.5553075 23.1967935,15.5704121 23.0666057,15.7185817 L22.8335624,15.9832729 C22.705892,16.1289249 22.7202774,16.3483022 22.863412,16.4781303 C23.4632828,17.0204595 24.0394177,17.5965944 24.5821066,18.1964652 C24.7119348,18.3399595 24.931312,18.3543449 25.076964,18.2263149 Z M28.6085775,23.4820175 L28.9243368,23.3252167 C29.1009175,23.2371062 29.1735637,23.0209657 29.0832954,22.8458235 C28.6941706,22.0920291 28.264407,21.3533392 27.8011974,20.6419817 C27.6936666,20.4765497 27.4696142,20.4330339 27.3059804,20.5430821 L27.0132376,20.7394427 C26.8524809,20.8476928 26.8104036,21.063114 26.9161363,21.2256689 C27.3577678,21.9039401 27.7670321,22.608105 28.1381752,23.3262956 C28.227005,23.4985607 28.4355932,23.5683298 28.6085775,23.4820175 Z M30.6685654,29.4710153 L31.0138148,29.4008865 C31.2072983,29.3616863 31.3331705,29.1714395 31.2910932,28.9790349 C31.1101969,28.1500768 30.8857849,27.324715 30.6214533,26.5173349 C30.5599557,26.3299652 30.3546043,26.2303464 30.1683135,26.2943614 L29.8345724,26.4087252 C29.6511587,26.4720209 29.5551362,26.6691008 29.6151952,26.8535934 C29.8669395,27.6228522 30.0812819,28.4090138 30.2539066,29.1991314 C30.2952646,29.3882993 30.4786783,29.5098558 30.6685654,29.4710153 Z M31.8679474,34.0124831 C31.8625529,33.649252 31.849606,33.2845824 31.8291069,32.9227898 C31.8179582,32.7260696 31.6453335,32.5771808 31.4489729,32.5912065 L31.0972501,32.616381 C30.9041262,32.6300471 30.759553,32.7961984 30.7707017,32.9896819 C30.7897624,33.3320542 30.8023496,33.6769439 30.8070248,34.0207547 C30.8099019,34.2145979 30.9656238,34.3703197 31.1594669,34.3703197 L31.511909,34.3703197 C31.7089888,34.3703197 31.8701052,34.209563 31.8679474,34.0124831 Z M2.37789627,35.0895893 L16.8895189,35.0885104 L18.5614609,32.6620546 L4.05127686,32.6620546 L2.37789627,35.0895893 Z M2.37789627,31.5831503 L16.8895189,31.5820714 L18.5614609,29.1556156 L4.05127686,29.1556156 L2.37789627,31.5831503 Z M2.37789627,28.0767113 L16.8974308,28.0767113 L18.5614609,25.6491766 L3.97179757,25.6491766 L2.37789627,28.0767113 Z M16.9215264,24.5702723 L2.37789627,24.5702723 L4.01711156,22.1427376 L18.5614609,22.1427376 L16.9215264,24.5702723 Z" id="Fill-19"></path>
        </g>
    </g>
</svg>