<svg xmlns="http://www.w3.org/2000/svg" width="40" height="40" viewBox="0 0 40 40">
    <g fill="none" fill-rule="evenodd">
        <path d="M0 0h40v40H0z"/>
        <g fill="#FFF">
            <path d="M28.198 27.04c0 1.151-.995 2.08-2.23 2.08H14.03c-1.23 0-2.226-.929-2.226-2.08V8.182c0-1.15.995-2.078 2.226-2.078h11.94c1.234 0 2.229.929 2.229 2.078V27.04zM26.215 4h-12.43C11.418 4 9.5 5.934 9.5 8.32v18.583c0 2.386 1.92 4.321 4.284 4.321h5.298v1.48c-.002.019-.007.038-.007.059v.754c0 .187.075.358.196.494.02.024.04.047.062.068v.001a.81.81 0 0 0 .27.164c.023.01.047.015.071.023.015.004.029.01.045.012.075.02.157.033.24.033h1.614v.892c0 .44.352.796.788.796h.748a.791.791 0 0 0 .788-.796V32.78a.791.791 0 0 0-.788-.795h-.27c-.06-.01-.12-.017-.182-.017h-1.25v-.744h4.808c2.37 0 4.285-1.935 4.285-4.32V8.32C30.5 5.934 28.585 4 26.215 4z"/>
            <path d="M22.267 24.325h-2.734V14.019A9.444 9.444 0 0 1 16 16.092V13.61c.713-.233 1.489-.676 2.326-1.328s1.411-1.413 1.722-2.282h2.219v14.325z"/>
        </g>
    </g>
</svg>
