<?xml version="1.0" ?><!DOCTYPE svg  PUBLIC '-//W3C//DTD SVG 1.1//EN'  'http://www.w3.org/Graphics/SVG/1.1/DTD/svg11.dtd'><svg fill="#2a0540" enable-background="new 0 0 48 48" height="48px" version="1.1" viewBox="0 0 48 48" width="48px" xml:space="preserve" xmlns="http://www.w3.org/2000/svg" xmlns:xlink="http://www.w3.org/1999/xlink"><g id="Layer_3"><path d="M41.682,0.002h-25.26h-2.526v2.526v10.104H6.317H3.792v2.526v26.523c0,3.488,2.828,6.316,6.315,6.316   h31.575h2.527v-2.527V2.528V0.002H41.682z M13.896,36.658v4.018v0.572v0.1l-0.048,0.812c-0.005,0.041-0.006,0.082-0.012,0.121   v0.057h-0.005c-0.312,1.779-1.855,3.133-3.724,3.133c-1.77,0-3.235-1.221-3.651-2.863c-0.053-0.26-0.138-0.719-0.138-0.926v-5.023   v-21.5h7.579V36.658z M37.893,37.893H20.211v-2.578h17.682V37.893z M37.893,31.658H20.211V29.08h17.682V31.658z M37.893,25.291   H20.211V22.71h17.682V25.291z M37.893,19.001H20.211v-2.579h17.682V19.001z M37.893,12.686H20.211v-2.579h17.682V12.686z" /></g></svg>
