<?xml version="1.0" ?><!DOCTYPE svg  PUBLIC '-//W3C//DTD SVG 1.1//EN'  'http://www.w3.org/Graphics/SVG/1.1/DTD/svg11.dtd'><svg fill="#2a0540" enable-background="new 0 0 48 48" height="48px" version="1.1" viewBox="0 0 48 48" width="48px" xml:space="preserve" xmlns="http://www.w3.org/2000/svg" xmlns:xlink="http://www.w3.org/1999/xlink"><g id="Layer_4"><path d="M46.23,10.258c-0.362-0.363-0.769-0.646-1.188-0.896c-0.026-0.022-0.041-0.042-0.074-0.066   c-1.073-0.835-3.37-1.446-5.383-0.471l-0.354-0.355c1.792-3.183-1.057-6.215-1.057-6.215l-0.004,0.034   c-0.139-0.174-0.265-0.355-0.429-0.517c-2.342-2.343-6.145-2.343-8.484,0c-2.346,2.343-2.343,6.144,0,8.487l0.442,0.44   l-0.176,0.173l-0.183,0.183l-0.595,0.594L11.648,28.748l-0.268,0.268l-0.276,0.278l-0.405,0.407l-0.441-0.441   c-2.344-2.345-6.144-2.345-8.485-0.001c-2.344,2.343-2.344,6.141,0,8.485c0.361,0.36,0.768,0.646,1.187,0.894   c0.025,0.022,0.04,0.042,0.073,0.069c1.072,0.835,3.369,1.445,5.382,0.471l0.354,0.354c-1.793,3.181,1.059,6.217,1.059,6.217   l0.002-0.036c0.139,0.175,0.266,0.354,0.428,0.518c2.343,2.341,6.144,2.342,8.485,0c2.343-2.342,2.343-6.145,0-8.486l-0.441-0.44   l0.174-0.175l0.776-0.775l17.101-17.1l0.267-0.269l0.325-0.326l0.356-0.356l0.441,0.44c2.346,2.343,6.145,2.343,8.487,0   C48.572,16.4,48.572,12.601,46.23,10.258z" /></g></svg>
