<?xml version="1.0" ?><svg fill="#2a0540" contentScriptType="text/ecmascript" contentStyleType="text/css" enable-background="new 0 0 2048 2048" height="2048px" id="Layer_1" preserveAspectRatio="xMidYMid meet" version="1.1" viewBox="64.0 0 1664.0 2048" width="1664.0px" xml:space="preserve" xmlns="http://www.w3.org/2000/svg" xmlns:xlink="http://www.w3.org/1999/xlink" zoomAndPan="magnify"><path d="M402,835l494,305l-342,285L64,1106L402,835z M1388,1390v108l-490,293v1l-1-1l-1,1v-1l-489-293v-108l147,96l342-284v-2l1,1  l1-1v2l343,284L1388,1390z M554,246l342,285L402,835L64,565L554,246z M1390,835l338,271l-489,319l-343-285L1390,835z M1239,246  l489,319l-338,270L896,531L1239,246z"/></svg>
