<?xml version="1.0" ?><!DOCTYPE svg  PUBLIC '-//W3C//DTD SVG 1.1//EN'  'http://www.w3.org/Graphics/SVG/1.1/DTD/svg11.dtd'><svg fill="#2a0540" enable-background="new 0 0 512 512" height="512px" version="1.1" viewBox="0 0 512 512" width="512px" xml:space="preserve" xmlns="http://www.w3.org/2000/svg" xmlns:xlink="http://www.w3.org/1999/xlink"><g id="Layer_25"><g><path d="M270.12,279.333c-6.689-3.391-13.764-2.903-15.808,1.115l24.251,12.312C280.587,288.753,276.817,282.746,270.12,279.333z"/><path d="M403.839,16.194c-2.885-1.472-6.425-0.318-7.889,2.576L275.381,256.043c-2.511-0.945-4.286-1.313-4.541-0.796    l-6.628,13.038c-0.413,0.806,3.357,3.552,8.419,6.116c5.058,2.586,9.493,4.008,9.9,3.203l6.629-13.048    c0.264-0.498-1.073-1.73-3.317-3.202L406.414,24.09C407.876,21.196,406.722,17.666,403.839,16.194z"/><path d="M273.72,301.62c-7.907-4.018-15.803-8.034-23.709-12.042c-3.963-1.801-16.39,3.908-27.703,12.66    c-7.638,6.295-15.266,12.599-22.894,18.895c18.851,14.262,46.633,31.248,78.741,38.271c0.557-9.32,1.108-18.628,1.672-27.947    C280.219,317.155,277.499,303.759,273.72,301.62z"/><path d="M187.316,331.127c-25.097,20.729-50.199,41.433-75.291,62.158c-11.287,8.703-9.288,31.039,7.589,46.375    c30.949,28.035,68.861,47.289,109.75,55.764c22.328,4.594,41.562-6.962,41.924-21.194c1.979-33.176,3.968-66.344,5.952-99.512    c-17.866-3.579-34.4-9.954-49.035-17.394C211.99,349.089,198.096,339.553,187.316,331.127z"/></g></g></svg>
