<?xml version="1.0" ?><!DOCTYPE svg  PUBLIC '-//W3C//DTD SVG 1.1//EN'  'http://www.w3.org/Graphics/SVG/1.1/DTD/svg11.dtd'><svg enable-background="new 0 0 64 64" height="64px" id="Layer_1" version="1.1" viewBox="0 0 64 64" width="64px" xml:space="preserve" xmlns="http://www.w3.org/2000/svg" xmlns:xlink="http://www.w3.org/1999/xlink"><g><path d="M26.257,1.855c0-0.979-0.793-1.772-1.773-1.772H4.276c-0.979,0-1.772,0.793-1.772,1.772v60.287   c0,0.982,0.793,1.774,1.772,1.774h20.208c0.98,0,1.773-0.792,1.773-1.774v-0.258V61.2c0.011-1.775-1.244-2.138-2.018-2.196H9.554   c-2.47,0-2.908-1.388-2.969-2.104v-2.923c0.012-0.494,0.236-2.097,2.746-2.097h9.99c0.64-0.016,2.334-0.222,2.365-2.052v-0.812   c0-1.164-0.854-1.502-1.566-1.588H9.386c-2.26,0-2.723-1.415-2.801-2.3v-3.463c0.058-0.726,0.467-2.082,2.746-2.082H19.84   c0.706-0.056,1.845-0.403,1.845-2.088V36.83c0-1.257-0.921-1.612-1.663-1.699H9.554c-2.439,0-2.9-1.409-2.969-2.217v-3.411   c0.064-0.645,0.494-1.775,2.774-1.775h10.22c0.562-0.015,2.076-0.221,2.106-2.089v-0.37c0-1.832-1.815-1.986-2.288-1.994H8.74   c-0.794-0.069-2.155-0.527-2.155-2.908v-2.528c0.07-0.732,0.516-1.965,2.801-1.965h10.266c0.771-0.048,2.091-0.369,2.033-2.043   v-0.47c0-1.995-2.659-1.939-2.659-1.939H9.193c-2.166,0-2.553-1.369-2.608-2.088V6.792C6.638,6.204,7.018,5.05,9.165,5.05h14.937   c0.75-0.042,2.183-0.337,2.158-1.995V2.002h-0.003V1.855z" fill="#2a0540"/><path d="M61.405,1.363c-0.424-0.851-1.179-1.179-2.85-0.688c-1.399,0.422-2.435,1.661-2.966,2.422   c-0.006,0.006-0.009,0.006-0.012,0.013c-0.504,0.655-0.995,0.253-0.995,0.253v0.012c-0.289-0.167-0.593-0.312-0.925-0.397   c-3.227-0.84-6.81,2.188-8.001,6.765c-1.088,4.173,0.208,8.162,2.892,9.473l-0.016,0.031c0,0,0.882,0.545,0.249,1.716   c-0.003,0.003-0.003,0.003-0.003,0.006l-2.257,4.17l-1.938,3.196c-0.642,1.055-1.357-0.001-1.357-0.001v0.001l-4.083-7.385   c-0.946-1.718,0.171-2.457,0.171-2.457l-0.012-0.016c1.947-1.734,2.775-5.158,1.845-8.736c-1.191-4.577-4.773-7.605-8.004-6.765   c-3.227,0.841-4.879,5.23-3.688,9.807c0.915,3.511,3.236,6.093,5.727,6.732l-0.01,0.009c0,0,1.281,0.33,1.889,2.036l3.812,10.768   c0.164,0.523,0.363,1.52-0.128,2.33l0,0l-0.862,1.425c-0.004,0.007-0.52,1.18-0.624,1.858l-3.874,25.771c0,0,0.217,0.441,0.374,0   l7.663-21.629c0,0,0.535-1.051,0.906,0l7.658,21.616c0.006,0.01,0.365,0.479,0.543,0l-4.274-25.513   c-0.128-0.762-0.724-2.075-0.729-2.088l-0.528-0.955c-0.52-0.937-0.375-1.956-0.203-2.575l4.133-11.667   c0-0.004,0-0.006,0.003-0.009c0.308-0.869,0.931-1.351,1.37-1.596c0.109-0.043,0.215-0.106,0.322-0.156   c0.095-0.041,0.162-0.062,0.162-0.062l-0.033-0.006c2.035-1.029,3.819-3.319,4.597-6.29c0.322-1.243,0.417-2.465,0.346-3.613   c0.003,0.002,0.019,0.02,0.019,0.02s0,0,0.019-0.591c-0.264-4.585,1.48-4.814,2.562-5.043C61.375,3.33,61.669,2.149,61.405,1.363z    M36.782,16.093c-1.899,0.494-4.009-1.29-4.709-3.987c-0.703-2.697,0.267-5.284,2.171-5.778c1.903-0.496,4.013,1.29,4.716,3.986   C39.663,13.01,38.687,15.597,36.782,16.093z M54.732,12.105c-0.7,2.697-2.809,4.481-4.709,3.987   c-1.904-0.496-2.881-3.083-2.178-5.78c0.703-2.696,2.812-4.482,4.717-3.986C54.463,6.821,55.433,9.409,54.732,12.105z" fill="#2a0540"/></g></svg>
