<?xml version="1.0" ?><svg fill="#2a0540" contentScriptType="text/ecmascript" contentStyleType="text/css" enable-background="new 0 0 2048 2048" height="2048px" id="Layer_1" preserveAspectRatio="xMidYMid meet" version="1.1" viewBox="64.0 0 1728.0 2048" width="1728.0px" xml:space="preserve" xmlns="http://www.w3.org/2000/svg" xmlns:xlink="http://www.w3.org/1999/xlink" zoomAndPan="magnify"><path d="M640,1536c0-34.667-12.667-64.667-38-90s-55.333-38-90-38s-64.667,12.667-90,38s-38,55.333-38,90s12.667,64.667,38,90  s55.333,38,90,38s64.667-12.667,90-38S640,1570.667,640,1536z M256,1024h384V768H482c-8.667,0-16,3-22,9L265,972c-6,6-9,13.333-9,22  V1024z M1536,1536c0-34.667-12.667-64.667-38-90s-55.333-38-90-38s-64.667,12.667-90,38s-38,55.333-38,90s12.667,64.667,38,90  s55.333,38,90,38s64.667-12.667,90-38S1536,1570.667,1536,1536z M1792,448v1024c0,10-1.333,18.833-4,26.5s-7.167,13.833-13.5,18.5  s-11.833,8.5-16.5,11.5s-12.5,5-23.5,6s-18.5,1.667-22.5,2s-12.5,0.333-25.5,0s-20.5-0.5-22.5-0.5c0,70.667-25,131-75,181  s-110.333,75-181,75s-131-25-181-75s-75-110.333-75-181H768c0,70.667-25,131-75,181s-110.333,75-181,75s-131-25-181-75  s-75-110.333-75-181h-64c-2,0-9.5,0.167-22.5,0.5s-21.5,0.333-25.5,0s-11.5-1-22.5-2s-18.833-3-23.5-6s-10.167-6.833-16.5-11.5  s-10.833-10.833-13.5-18.5s-4-16.5-4-26.5c0-17.333,6.333-32.333,19-45s27.667-19,45-19v-320c0-5.333-0.167-17-0.5-35  s-0.333-30.667,0-38s1.167-18.833,2.5-34.5s3.5-28,6.5-37s7.667-19.167,14-30.5s13.833-21.333,22.5-30l198-198  c12.667-12.667,29.5-23.333,50.5-32s40.5-13,58.5-13h160V448c0-17.333,6.333-32.333,19-45s27.667-19,45-19h1024  c17.333,0,32.333,6.333,45,19S1792,430.667,1792,448z"/></svg>
