<?xml version="1.0" encoding="UTF-8"?>
<svg width="40px" height="40px" viewBox="0 0 40 40" version="1.1" xmlns="http://www.w3.org/2000/svg" xmlns:xlink="http://www.w3.org/1999/xlink">
    <!-- Generator: sketchtool 47.1 (45422) - http://www.bohemiancoding.com/sketch -->
    <title>3005C086-CC56-468B-AD99-53816F3497CF</title>
    <desc>Created with sketchtool.</desc>
    <defs></defs>
    <g id="Symbols" stroke="none" stroke-width="1" fill="none" fill-rule="evenodd">
        <g id="Original-Icons/thermostat-protection-white">
            <g id="Group">
                <rect id="Rectangle" x="0" y="0" width="40" height="40"></rect>
                <polygon id="Fill-15" fill="#FFFFFF" points="26.0306867 25.4672691 26.0306867 27.699959 24.7610435 27.6985251 24.7610435 24.2546092 24.7610435 24.0180043 24.5582235 23.9013748 21.2366316 21.9593026 20.6262718 21.6070242 20.6262718 22.3158829 20.6262718 25.9930578 20.6262718 26.2301407 20.8295668 26.3477261 23.7915927 28.0689671 23.1560586 29.1755133 21.2366316 28.0579733 20.6262718 27.703305 20.6262718 28.4116857 20.6262718 31 19.3580535 31 19.3580535 28.4116857 19.3580535 27.703305 18.7472188 28.0579733 16.8263668 29.1755133 16.1917827 28.0689671 19.1528587 26.3477261 19.3580535 26.2301407 19.3580535 25.9930578 19.3580535 22.3158829 19.3580535 21.6070242 18.7481688 21.9593026 15.4441514 23.9013748 15.2408565 24.0189603 15.2408565 24.2550872 15.2408565 27.699959 13.9712132 27.699959 13.9712132 25.4672691 13.9712132 24.7598443 13.3632284 25.1126007 11.1360091 26.4079528 10.5 25.3018846 12.7286443 24.0050986 13.338529 23.6504302 12.7272193 23.3000637 10.8044674 22.1806118 11.4414265 21.0754996 14.4039274 22.7962626 14.6062723 22.913848 14.8090923 22.7962626 18.1121597 20.8565803 18.7220444 20.500956 18.1121597 20.1448536 14.8090923 18.2037374 14.6062723 18.085674 14.4039274 18.2037374 11.4414265 19.9245004 10.8044674 18.8184322 12.7272193 17.7023262 13.338529 17.3490918 12.7286443 16.9944235 10.5 15.7000273 11.1360091 14.5944371 13.3632284 15.8893112 13.9712132 16.2420676 13.9712132 15.5355989 13.9712132 13.3024309 15.2408565 13.3024309 15.2408565 16.7439568 15.2408565 16.9805618 15.4441514 17.0981472 18.7481688 19.0416534 19.3580535 19.3934538 19.3580535 18.6850731 19.3580535 15.0059863 19.3580535 14.7722493 19.1528587 14.6517959 16.1917827 12.9305549 16.8263668 11.8249647 18.7472188 12.9405927 19.3580535 13.2962171 19.3580535 12.5878363 19.3580535 10 20.6262718 10 20.6262718 12.5878363 20.6262718 13.2962171 21.2366316 12.9405927 23.1560586 11.8249647 23.7915927 12.9305549 20.8295668 14.6517959 20.6262718 14.7722493 20.6262718 15.0059863 20.6262718 18.6850731 20.6262718 19.3934538 21.2366316 19.0416534 24.5582235 17.0981472 24.7610435 16.9819957 24.7610435 16.7453908 24.7610435 13.3038649 26.0306867 13.3024309 26.0306867 15.5355989 26.0306867 16.2435016 26.6400965 15.8907452 28.8677908 14.5953931 29.5 15.7009833 27.2727807 16.9944235 26.6643209 17.3490918 27.2727807 17.7032822 29.1969576 18.8198662 28.5618985 19.9254564 25.5984475 18.2061274 25.3951526 18.085674 25.1909077 18.2061274 21.8678908 20.1448536 21.258481 20.500956 21.8678908 20.8565803 25.1909077 22.7962626 25.3951526 22.913848 25.5984475 22.7962626 28.5618985 21.0750216 29.1969576 22.1806118 27.2727807 23.2971958 26.6643209 23.6504302 27.2727807 24.0050986 29.5 25.2980607 28.8677908 26.4069969 26.6400965 25.1092548 26.0306867 24.7588883"></polygon>
            </g>
        </g>
    </g>
</svg>