<?xml version="1.0" encoding="UTF-8"?>
<svg width="40px" height="40px" viewBox="0 0 40 40" version="1.1" xmlns="http://www.w3.org/2000/svg" xmlns:xlink="http://www.w3.org/1999/xlink">
    <!-- Generator: sketchtool 47.1 (45422) - http://www.bohemiancoding.com/sketch -->
    <title>566A78C6-C22D-4740-8317-8868744D968D</title>
    <desc>Created with sketchtool.</desc>
    <defs></defs>
    <g id="Symbols" stroke="none" stroke-width="1" fill="none" fill-rule="evenodd" opacity="0.3">
        <g id="Original-Icons/thermostat-eco-dark">
            <g id="Icons/Generic-Device-Send">
                <rect id="Rectangle" x="0" y="0" width="40" height="40"></rect>
                <path d="M32,20.8312778 C32,21.3220222 31.6044169,21.7176053 31.1203117,21.7176053 C30.6301206,21.7176053 30.2334309,21.3220222 30.2334309,20.8312778 L30.2334309,15.9586897 L29.791927,15.9586897 L29.791927,20.6105258 L29.791927,22.6039328 L29.791927,29.5772609 C29.791927,30.1277577 29.3410175,30.5753475 28.7960534,30.5753475 C28.2483229,30.5753475 27.7974135,30.1277577 27.7974135,29.5772609 L27.7974135,22.6039328 L27.3592291,22.6039328 L27.3592291,29.5772609 C27.3592291,30.1277577 26.9055534,30.5753475 26.3594827,30.5753475 C25.8123055,30.5753475 25.3625026,30.1277577 25.3625026,29.5772609 L25.3625026,22.6039328 L25.3625026,20.6105258 L25.3625026,15.9586897 L24.9176791,15.9586897 L24.9176791,20.8312778 C24.9176791,21.3220222 24.5220959,21.7176053 24.0307983,21.7176053 C23.5466931,21.7176053 23.1488969,21.3220222 23.1488969,20.8312778 L23.1488969,15.5182923 C23.1488969,14.5445492 23.9433827,13.7472971 24.9176791,13.7472971 L30.2334309,13.7472971 C31.2082805,13.7472971 32,14.5445492 32,15.5182923 L32,20.8312778 Z M23.3486249,27.2203601 L8.93169506,27.2203601 L8.93169506,19.2218355 L8,19.2218355 L17.6555476,12.2070126 L21.2152424,14.7924111 C21.1665552,15.0281012 21.136679,15.2698771 21.136679,15.5182923 L21.136679,20.8312778 C21.136679,22.1945181 22.0822057,23.3392194 23.3486249,23.6484935 L23.3486249,27.2203601 Z M27.5772148,9.10541967 C28.5371263,9.10541967 29.316674,9.88441412 29.316674,10.8454321 C29.316674,11.8064501 28.5371263,12.5871044 27.5772148,12.5871044 C26.6150903,12.5871044 25.8338828,11.8064501 25.8338828,10.8454321 C25.8338828,9.88441412 26.6150903,9.10541967 27.5772148,9.10541967 L27.5772148,9.10541967 Z" id="Fill-17" fill="#FFFFFF"></path>
            </g>
        </g>
    </g>
</svg>