<?xml version="1.0" encoding="UTF-8"?>
<svg width="24px" height="21px" viewBox="0 0 24 21" version="1.1" xmlns="http://www.w3.org/2000/svg" xmlns:xlink="http://www.w3.org/1999/xlink">
    <!-- Generator: sketchtool 48.2 (47327) - http://www.bohemiancoding.com/sketch -->
    <title>984ABEA3-2BB0-4423-9310-BD3E0BF139B8</title>
    <desc>Created with sketchtool.</desc>
    <defs></defs>
    <g id="Buttons/KNX-scene-ON" stroke="none" stroke-width="1" fill="none" fill-rule="evenodd" transform="translate(-18.000000, -20.000000)">
        <g id="Icons/KNX_Scene_On" transform="translate(12.500000, 13.000000)">
            <g id="Original-Icons/knx-scene">
                <g id="Page-1">
                    <rect id="Rectangle" x="0" y="0" width="35" height="35"></rect>
                    <path d="M28.8562058,9.61784619 L28.8562058,9.42439844 C28.8562058,8.56705253 28.1751395,7.875 27.3311901,7.875 L8.13872419,7.875 C7.29477477,7.875 6.61191856,8.56705253 6.61191856,9.42439844 L6.61191856,12.6821313 L6.60565382,12.6821313 L6.60565382,17.9824181 L6.61191856,17.9824181 L6.61191856,21.1538714 L7.25092162,21.1538714 L10.5819712,17.9824181 L12.3531015,17.9824181 L9.01578722,21.1538714 L11.3086806,21.1538714 L14.6415201,17.9824181 L16.4063856,17.9824181 L13.0726512,21.1538714 L15.3682294,21.1538714 L18.699279,17.9824181 L20.4677244,17.9824181 L17.1304101,21.1538714 L19.4224085,21.1538714 L22.7570379,17.9824181 L24.5245884,17.9824181 L21.1917489,21.1538714 L23.4819574,21.1538714 L26.8147969,17.9824181 L28.5841373,17.9824181 L25.2486129,21.1538714 L28.875,21.1538714 L28.875,9.61784619 L28.8562058,9.61784619 Z M27.2363241,24.8974941 L7.37084657,22.2963938 C6.83476417,22.2255538 6.34432484,22.6070001 6.27809763,23.1491987 L6.13311374,24.2817309 C6.06420165,24.8266541 6.44187573,25.3189014 6.9761682,25.3897415 L26.8425407,27.99175 C27.3786231,28.0616818 27.8654826,27.6793273 27.9361846,27.1371287 L28.0793785,26.0045965 C28.1473957,25.4623979 27.7706166,24.9683341 27.2363241,24.8974941 L27.2363241,24.8974941 Z" id="Fill-1" fill="#FFFFFF"></path>
                </g>
            </g>
        </g>
    </g>
</svg>