<?xml version="1.0" encoding="UTF-8"?>
<svg width="40px" height="40px" viewBox="0 0 40 40" version="1.1" xmlns="http://www.w3.org/2000/svg" xmlns:xlink="http://www.w3.org/1999/xlink">
    <!-- Generator: sketchtool 48.2 (47327) - http://www.bohemiancoding.com/sketch -->
    <title>BA6A8B69-6F4D-4447-9568-14F2D27BCFC8</title>
    <desc>Created with sketchtool.</desc>
    <defs></defs>
    <g id="Symbols" stroke="none" stroke-width="1" fill="none" fill-rule="evenodd">
        <g id="Original-Icons/knx-scene-on">
            <g id="Page-1">
                <rect id="Rectangle" x="0" y="0" width="40" height="40"></rect>
                <path d="M32.9785209,10.9918242 L32.9785209,10.7707411 C32.9785209,9.79091717 32.2001594,9 31.2356458,9 L9.30139908,9 C8.33688545,9 7.55647835,9.79091717 7.55647835,10.7707411 L7.55647835,14.4938643 L7.54931866,14.4938643 L7.54931866,20.5513349 L7.55647835,20.5513349 L7.55647835,24.175853 L8.28676757,24.175853 L12.0936814,20.5513349 L14.1178303,20.5513349 L10.3037568,24.175853 L12.9242063,24.175853 L16.7331658,20.5513349 L18.750155,20.5513349 L14.9401728,24.175853 L17.5636908,24.175853 L21.3706046,20.5513349 L23.3916851,20.5513349 L19.5776116,24.175853 L22.1970383,24.175853 L26.0080433,20.5513349 L28.028101,20.5513349 L24.2191416,24.175853 L26.8365227,24.175853 L30.6454821,20.5513349 L32.6675854,20.5513349 L28.8555576,24.175853 L33,24.175853 L33,10.9918242 L32.9785209,10.9918242 Z M31.1272275,28.454279 L8.42382465,25.4815929 C7.81115905,25.4006329 7.25065696,25.8365715 7.17496872,26.4562271 L7.00927285,27.7505495 C6.93051617,28.373319 7.36214369,28.9358874 7.97276366,29.0168474 L30.6771894,31.9905714 C31.289855,32.0704935 31.8462658,31.6335169 31.9270681,31.0138613 L32.0907183,29.7195389 C32.1684522,29.0998833 31.7378475,28.535239 31.1272275,28.454279 L31.1272275,28.454279 Z" id="Fill-1" fill="#FFFFFF"></path>
            </g>
        </g>
    </g>
</svg>