<svg xmlns="http://www.w3.org/2000/svg" xmlns:xlink="http://www.w3.org/1999/xlink" width="40" height="40" viewBox="0 0 40 40">
    <defs>
        <path id="a" d="M.22.638h11.567V12H.22z"/>
        <path id="c" d="M0 .679h33.202v18.785H0z"/>
    </defs>
    <g fill="none" fill-rule="evenodd">
        <path d="M0 0h40v40H0z"/>
        <path fill="#FEFEFE" d="M23.826 19.816a.955.955 0 0 1-.975-.923.963.963 0 0 1 .923-.975.943.943 0 0 1 .962.923.944.944 0 0 1-.91.975m2.912.637c.091-.169.169-.338.247-.507l-.624-.468c.052-.22.078-.442.065-.689 0-.234-.039-.455-.104-.676l.598-.494-.273-.507a10.136 10.136 0 0 0-.325-.468l-.715.312a2.55 2.55 0 0 0-1.209-.65l-.13-.767c-.182-.013-.377-.013-.559-.013-.195 0-.39.026-.572.04l-.091.78c-.455.13-.858.376-1.17.714l-.728-.273c-.104.156-.195.325-.299.494a4.406 4.406 0 0 0-.234.507l.611.468a2.389 2.389 0 0 0-.065.69c0 .233.039.454.104.675l-.598.494c.091.17.182.338.286.507.091.156.208.312.312.468l.715-.312a2.55 2.55 0 0 0 1.209.65l.13.767c.182.013.377.013.572.013.195 0 .377-.026.572-.039l.078-.78c.455-.13.858-.377 1.17-.715l.728.273c.104-.156.208-.325.299-.494"/>
        <g transform="translate(12 19.321)">
            <mask id="b" fill="#fff">
                <use xlink:href="#a"/>
            </mask>
            <path fill="#FEFEFE" d="M6.054 7.97a1.657 1.657 0 0 1-1.703-1.612 1.645 1.645 0 0 1 1.612-1.69 1.643 1.643 0 0 1 1.69 1.6A1.654 1.654 0 0 1 6.054 7.97zm4.407-2.522a4.644 4.644 0 0 0-.455-1.274l.897-.91a5.776 5.776 0 0 0-.689-.91l-1.118.637a4.617 4.617 0 0 0-1.105-.754L8.173.963A5.28 5.28 0 0 0 7.081.638l-.533 1.17a5.727 5.727 0 0 0-.676-.039 5.758 5.758 0 0 0-.663.078L4.611.703a5.354 5.354 0 0 0-1.079.39l.26 1.261c-.39.221-.754.494-1.066.82L1.582 2.6a5.994 5.994 0 0 0-.65.936l.949.871a4.748 4.748 0 0 0-.377 1.287L.23 5.903a4.2 4.2 0 0 0 0 .572c0 .065 0 .13.013.195 0 .13.013.26.026.377l1.287.143c.078.455.234.871.442 1.261l-.897.923c.195.325.429.624.702.897l1.105-.624a4.89 4.89 0 0 0 1.105.754l-.182 1.274A6.22 6.22 0 0 0 4.923 12l.533-1.183c.221.026.442.052.676.04.221 0 .442-.04.663-.079l.598 1.144a5.88 5.88 0 0 0 1.079-.377l-.26-1.26c.39-.222.754-.495 1.066-.82l1.144.572c.247-.286.468-.61.65-.949l-.949-.858c.182-.403.312-.832.377-1.287l1.274-.22c.013-.183.013-.378.013-.573-.013-.182-.026-.377-.052-.559l-1.274-.143z" mask="url(#b)"/>
        </g>
        <g transform="translate(3 8.321)">
            <mask id="d" fill="#fff">
                <use xlink:href="#c"/>
            </mask>
            <path fill="#FEFEFE" d="M28.405 5.333A7.864 7.864 0 0 0 21.19.679a7.913 7.913 0 0 0-7.02 4.225 7.504 7.504 0 0 0-9.074 4.875 4.626 4.626 0 0 0-3.224 1.105C.715 11.846 0 13.34 0 14.77c0 2.587 2.054 4.693 4.59 4.693H7.11v-1.651H4.59c-1.625 0-2.938-1.365-2.938-3.042 0-.95.507-1.963 1.274-2.613.52-.43 1.391-.897 2.64-.663l.78.143.168-.78a5.855 5.855 0 0 1 5.72-4.55c.702 0 1.404.13 2.08.39l.767.286.3-.741a6.258 6.258 0 0 1 5.81-3.913c2.587 0 4.875 1.56 5.837 3.978l.143.364.377.117a5.616 5.616 0 0 1 4.004 5.395c0 3.107-2.535 5.629-5.642 5.629h-2.964v1.65h2.964c4.03 0 7.293-3.262 7.293-7.28 0-3.106-1.91-5.81-4.797-6.85" mask="url(#d)"/>
        </g>
    </g>
</svg>
