<svg xmlns="http://www.w3.org/2000/svg" width="40" height="40" viewBox="0 0 40 40">
    <g fill="none" fill-rule="evenodd" opacity=".3">
        <path d="M0 0h40v40H0z"/>
        <g fill="#FFF">
            <path d="M35.363 14.075a1.243 1.243 0 0 0-1.228-1.143v-.01h-4.988v.01c-.037-.004-.069-.022-.109-.022-.693 0-1.255.562-1.255 1.256 0 .056.025.104.032.16h-.032v7.321h.987v-6.25h.36v14.52h.015c-.003.027-.015.05-.015.075 0 .591.478 1.07 1.071 1.07.591 0 1.07-.479 1.07-1.07 0-.025-.016-.048-.018-.074h.02v-8.53h.43v8.53h.013c0 .026-.014.049-.014.074a1.069 1.069 0 1 0 2.139 0c0-.025-.013-.048-.015-.074h.02v-8.27h.008v-6.25h.36v6.25h1.171v-7.573h-.022M33.234 10.649c0 .91-.74 1.652-1.65 1.652-.911 0-1.65-.742-1.65-1.652a1.65 1.65 0 1 1 3.3 0M26.023 23.458l-5.507-4.495-5.504-4.5-5.507 4.5L4 23.458h1.09v7.604h19.844v-7.604h1.09zM6.4 29.923V23.21l8.612-6.973 8.614 6.973v6.713H6.4z"/>
        </g>
    </g>
</svg>
