<svg xmlns="http://www.w3.org/2000/svg" width="40" height="40" viewBox="0 0 40 40">
    <g fill="none" fill-rule="evenodd">
        <path d="M0 0h40v40H0z"/>
        <path fill="#FFF" d="M18.025 30.842h4.083v-4.084h-4.083v4.084zm3.706-5.494h-3.706c-.01-.532-.015-.857-.015-.973 0-1.202.2-2.19.596-2.965.397-.775 1.192-1.647 2.384-2.616 1.192-.97 1.904-1.604 2.136-1.904.359-.475.538-.998.538-1.57 0-.794-.317-1.475-.952-2.042-.635-.567-1.49-.85-2.565-.85-1.037 0-1.904.296-2.602.887-.697.59-1.177 1.492-1.438 2.703l-3.75-.466c.106-1.734.845-3.206 2.216-4.417 1.371-1.212 3.17-1.817 5.4-1.817 2.344 0 4.21.613 5.595 1.838 1.386 1.226 2.079 2.653 2.079 4.28 0 .902-.255 1.754-.764 2.558-.509.805-1.596 1.9-3.262 3.285-.863.717-1.398 1.293-1.607 1.73-.208.435-.303 1.216-.283 2.34z"/>
    </g>
</svg>
