<?xml version="1.0" encoding="UTF-8"?>
<svg width="40px" height="40px" viewBox="0 0 40 40" version="1.1" xmlns="http://www.w3.org/2000/svg" xmlns:xlink="http://www.w3.org/1999/xlink">
    <!-- Generator: sketchtool 48.2 (47327) - http://www.bohemiancoding.com/sketch -->
    <title>1DFB8302-A5C5-477C-BCD1-20EEBC25BF92</title>
    <desc>Created with sketchtool.</desc>
    <defs></defs>
    <g id="Symbols" stroke="none" stroke-width="1" fill="none" fill-rule="evenodd">
        <g id="Original-Icons/sequence">
            <g id="Group">
                <rect id="Rectangle" x="0" y="0" width="40" height="40"></rect>
                <g id="icon" opacity="0.7" transform="translate(4.000000, 1.000000)" fill="#FFFFFF">
                    <path d="M15.626,23.6934 L11.172,16.4234 C12.288,15.5174 12.631,14.0054 12.093,12.7254 L17.609,9.4464 C18.284,10.1494 19.393,10.2624 20.193,9.6634 C21.054,9.0134 21.227,7.7924 20.574,6.9324 C19.931,6.0694 18.708,5.8994 17.85,6.5484 C17.161,7.0584 16.922,7.9344 17.177,8.7044 L11.651,11.9854 C11.502,11.7974 11.33,11.6324 11.142,11.4834 L15.588,4.0114 C16.219,4.2224 16.922,4.1314 17.491,3.7124 C18.403,3.0244 18.583,1.7364 17.896,0.8224 C17.213,-0.0896 15.918,-0.2696 15.013,0.4184 C14.106,1.1004 13.917,2.3934 14.601,3.3004 C14.676,3.3984 14.758,3.4874 14.849,3.5704 L10.4,11.0414 C9.39,10.6154 8.185,10.7114 7.242,11.4144 C6.485,11.9854 6.067,12.8304 6,13.6984 L4.143,13.6244 C4.038,12.9954 3.656,12.4264 3.048,12.1124 C2.023,11.5874 0.766,11.9854 0.235,13.0104 C-0.298,14.0284 0.107,15.2934 1.126,15.8164 C2.152,16.3494 3.409,15.9524 3.939,14.9274 C4.015,14.7834 4.068,14.6344 4.105,14.4854 L6.036,14.5674 C6.126,15.0304 6.307,15.4814 6.613,15.8854 C7.52,17.0894 9.114,17.4644 10.439,16.8804 L14.9,24.1654" id="Fill-1"></path>
                    <path d="M19.5344454,37.0429704 C13.5887975,37.0429704 8.76851605,32.223153 8.76851605,26.277041 C8.76851605,20.331393 13.5887975,15.5111116 19.5344454,15.5111116 C25.4800934,15.5111116 30.3003748,20.331393 30.3003748,26.277041 C30.3003748,32.223153 25.4800934,37.0429704 19.5344454,37.0429704 Z M24.8939541,26.9876112 L16.8323346,22.3110084 L16.8323346,31.664214 L24.8939541,26.9876112 Z" id="Combined-Shape"></path>
                </g>
            </g>
        </g>
    </g>
</svg>