<?xml version="1.0" encoding="UTF-8"?>
<svg width="40px" height="40px" viewBox="0 0 40 40" version="1.1" xmlns="http://www.w3.org/2000/svg" xmlns:xlink="http://www.w3.org/1999/xlink">
    <!-- Generator: sketchtool 48.2 (47327) - http://www.bohemiancoding.com/sketch -->
    <title>9E2BD8C2-1E5F-4845-8012-1576498061CD</title>
    <desc>Created with sketchtool.</desc>
    <defs></defs>
    <g id="Symbols" stroke="none" stroke-width="1" fill="none" fill-rule="evenodd">
        <g id="Original-Icons/settings_grey">
            <g id="Page-1">
                <rect id="Rectangle" x="0" y="0" width="40" height="40"></rect>
                <path d="M31.6688548,17.2707899 C32.4457616,17.4011789 33.0104632,18.0691575 32.999853,18.8569148 L32.999853,21.1433209 C32.999853,21.9310783 32.4349155,22.5990569 31.6580087,22.7292101 L29.8332798,23.0333726 C29.6486612,23.6419334 29.3989665,24.2335177 29.0999929,24.8038814 L30.1754017,26.3140836 C30.6314071,26.9549469 30.5554848,27.8292373 30.0016292,28.3833318 L28.3829751,30.0017593 C28.0788143,30.3059218 27.6768033,30.474508 27.2479131,30.474508 C26.9112141,30.474508 26.5851255,30.3709985 26.3137386,30.175297 L24.8092037,29.1001179 C24.2445021,29.3990931 23.6524496,29.6433663 23.0384692,29.8334089 L22.7291212,31.658384 C22.5989686,32.4348236 21.930758,33 21.1430052,33 L18.8509532,33 C18.0636719,33 17.3954613,32.4348236 17.265073,31.658384 L16.9609122,29.8334089 C16.3690955,29.6487893 15.793312,29.4151265 15.2448795,29.1274689 L13.7186525,30.2137299 C13.4470298,30.4091956 13.1263642,30.5122336 12.7899011,30.5122336 C12.360775,30.5122336 11.958764,30.3438832 11.6546032,30.0397207 L10.0359491,28.4212932 C9.47667049,27.8669629 9.40617121,26.9926725 9.8624124,26.3518092 L10.9323982,24.8637707 C10.6282374,24.2990659 10.3785426,23.7067743 10.1882653,23.098685 L8.34160845,22.7834406 C7.56493741,22.6530516 7,21.985073 7,21.1975515 L7,18.9111454 C7,18.123388 7.56493741,17.4554094 8.34160845,17.3247846 L10.1446453,17.0208579 C10.3294996,16.4071098 10.5683484,15.815054 10.8670861,15.2449261 L9.78083128,13.7189263 C9.32435432,13.0778272 9.40051241,12.2035368 9.95460377,11.6492065 L11.5786809,10.030779 C11.8774187,9.72661649 12.2846169,9.55826607 12.713743,9.55826607 C13.0506777,9.55826607 13.3765305,9.66153986 13.6481532,9.85700553 L15.1416063,10.9324204 C15.7063079,10.6282579 16.2985962,10.3785617 16.9069178,10.1882833 L17.2216888,8.34185182 C17.3520771,7.5649406 18.0200519,7 18.8078048,7 L21.0944338,7 C21.8817151,7 22.5496899,7.5649406 22.680314,8.34185182 L22.984239,10.1446631 C23.6199114,10.3349415 24.2334203,10.5900608 24.8200498,10.8996463 L26.3300077,9.82446722 C26.6013945,9.62876576 26.9220602,9.52549197 27.2585233,9.52549197 C27.6876494,9.52549197 28.0898961,9.69407817 28.3940569,9.99824068 L30.0124753,11.616904 C30.5717539,12.1707627 30.6422532,13.0450531 30.1862478,13.6861522 L29.1108389,15.1906956 C29.4093409,15.7554004 29.6540843,16.3474562 29.8441258,16.9612043 L31.6688548,17.2707899 Z M20,24 C22.2071006,24 24,22.2072772 24,20.0001138 C24,17.793178 22.2071006,16 20,16 C17.7928994,16 16,17.793178 16,20.0001138 C16,22.2072772 17.7928994,24 20,24 Z" id="Combined-Shape" fill="#FFFFFF"></path>
            </g>
        </g>
    </g>
</svg>